# Blender v2.90.1 OBJ File: 'minecraft-character.blend'
# www.blender.org
o model_mesh
v 0.475995 2.642547 -0.283832
v 0.302573 2.430557 0.467823
v -0.476954 2.430637 0.287992
v -0.303531 2.642627 -0.463662
v 0.428418 3.413949 -0.077249
v 0.254995 3.201959 0.674405
v -0.524531 3.202039 0.494574
v -0.351108 3.414029 -0.257080
v 0.399960 1.324024 -0.201201
v 0.400000 1.328979 0.200000
v -0.400000 1.328979 0.200000
v -0.400000 1.328979 -0.200000
v 0.400000 2.528979 -0.200000
v 0.400000 2.528979 0.200000
v -0.400000 2.528979 0.200000
v -0.399983 2.528952 -0.200098
v 1.588282 1.981807 -0.200000
v 1.588282 1.981807 0.200000
v 1.332816 1.674013 0.200000
v 1.332816 1.674014 -0.200000
v 0.664901 2.748206 -0.200000
v 0.664901 2.748206 0.200000
v 0.409435 2.440413 0.200000
v 0.409435 2.440413 -0.200000
v 0.393502 0.196604 -0.194771
v 0.387278 0.108079 0.195260
v -0.012184 0.128752 0.193578
v -0.005960 0.217278 -0.196453
v 0.398370 1.278825 -0.215380
v 0.390293 1.388563 0.169188
v -0.009211 1.368850 0.166422
v -0.001134 1.259112 -0.218146
v 0.012098 0.221998 -0.196068
v 0.020139 0.133822 0.194010
v -0.378801 0.104767 0.195665
v -0.386842 0.192943 -0.194412
v -0.002316 1.258735 -0.218282
v 0.006431 1.368427 0.166285
v -0.392988 1.389776 0.169280
v -0.401735 1.280084 -0.215286
v -0.038006 1.674786 0.411828
v -0.069007 1.956426 0.694171
v -0.377507 1.760028 0.856207
v -0.346505 1.478387 0.573863
v -0.400161 2.399751 -0.217929
v -0.400161 2.625533 0.112257
v -0.800161 2.625533 0.112256
v -0.800161 2.399751 -0.217929
v 0.024983 0.740000 -0.058061
v 0.017787 0.752840 0.329046
v 0.417270 0.752360 0.331270
v 0.424422 0.741724 -0.056025
v -0.030863 0.744119 -0.058280
v -0.022470 0.754887 0.329042
v -0.421649 0.751024 0.331367
v -0.430043 0.740265 -0.055955
v -0.408622 1.943528 0.091958
v -0.423990 2.196867 0.398516
v -0.778373 2.099040 0.479241
v -0.762872 1.845329 0.172976
v 1.126592 2.365007 -0.200000
v 1.126592 2.365007 0.200000
v 0.871125 2.057213 0.200000
v 0.871125 2.057213 -0.200000
v 0.400000 1.928979 -0.200000
v 0.400000 1.928979 0.200000
v -0.400000 1.928979 0.200000
v -0.399998 1.928975 -0.200010
vt 0.375000 1.000000
vt 0.250000 0.875000
vt 0.250000 1.000000
vt 0.125000 1.000000
vt 0.250000 0.875000
vt 0.250000 1.000000
vt 0.375000 0.874982
vt 0.250000 0.749982
vt 0.375000 0.749982
vt 0.125000 0.750000
vt 0.000000 0.875000
vt 0.000000 0.750000
vt 0.500000 0.875000
vt 0.437500 0.750000
vt 0.562500 0.687500
vt 0.437500 0.687500
vt 0.437500 0.687500
vt 0.312500 0.750000
vt 0.437500 0.750000
vt 0.625000 0.187500
vt 0.687500 0.250000
vt 0.687500 0.187500
vt 0.562500 0.187500
vt 0.625000 0.250000
vt 0.562500 0.250000
vt 0.187500 0.593750
vt 0.125000 0.500000
vt 0.187500 0.500000
vt 0.125000 0.593750
vt 0.062500 0.500000
vt 0.000000 0.593750
vt -0.000000 0.500000
vt 0.250000 0.687500
vt 0.187500 0.687500
vt 0.375000 0.250000
vt 0.437500 0.187500
vt 0.437500 0.250000
vt 0.375000 0.187500
vt 0.312500 0.250000
vt 0.312500 0.187500
vt 0.437500 0.093750
vt 0.375000 0.187500
vt 0.375000 0.093750
vt 0.312500 0.093750
vt 0.312500 0.187500
vt 0.250000 0.093750
vt 0.437500 -0.000000
vt 0.500000 0.093750
vt 0.125000 0.750000
vt 0.187500 0.687500
vt 0.187500 0.750000
vt 0.062500 0.750000
vt 0.125000 0.687500
vt 0.125000 0.750000
vt 0.062500 0.687500
vt 0.062500 0.593750
vt 0.250000 0.500000
vt 0.250000 0.593750
vt 0.812569 0.687500
vt 0.750069 0.750000
vt 0.750070 0.687500
vt 0.750000 0.687500
vt 0.687500 0.750000
vt 0.687500 0.687500
vt 0.812500 0.687500
vt 0.750000 0.593750
vt 0.812500 0.593750
vt 0.687500 0.687500
vt 0.687500 0.593750
vt 0.625000 0.687500
vt 0.625000 0.593750
vt 0.875000 0.500000
vt 0.875000 0.593750
vt 0.437500 0.187500
vt 0.500000 0.187500
vt 0.250000 0.687500
vt 0.312500 0.593750
vt 0.250000 0.593750
vt 0.312500 0.687500
vt 0.437500 0.593750
vt 0.437500 0.687500
vt 0.500000 0.593750
vt 0.500000 0.593750
vt 0.625000 0.500000
vt 0.625000 0.593750
vt 0.687500 0.187500
vt 0.625000 0.093750
vt 0.687500 0.093750
vt 0.625000 0.187500
vt 0.562500 0.093750
vt 0.500000 0.187500
vt 0.562500 0.093750
vt 0.500000 0.093750
vt 0.750000 0.000000
vt 0.750000 0.093750
vt 0.875000 0.687500
vt 0.625000 0.500000
vt 0.687500 0.500000
vt 0.750000 0.500000
vt 0.812500 0.500000
vt 0.750000 0.187500
vt 0.500000 0.000000
vt 0.562500 0.000000
vt 0.625000 0.000000
vt 0.562500 0.000000
vt 0.687500 0.000000
vt 0.625000 0.687500
vt 0.500000 0.687500
vt 0.500000 0.500000
vt 0.437500 0.500000
vt 0.312500 0.500000
vt 0.250000 0.500000
vt 0.312500 -0.000000
vt 0.250000 -0.000000
vt 0.375000 -0.000000
vt 0.375000 0.875000
vt 0.125000 0.875000
vt 0.500000 0.750000
vt 0.562500 0.750000
vt 0.312500 0.687500
vt 0.625000 0.250000
vt 0.625000 0.187500
vt 0.375000 0.187500
vt 0.375000 0.250000
vt 0.250000 0.187500
vt 0.500000 -0.000000
vt 0.125000 0.687500
vt 0.000000 0.687500
vt 0.812569 0.750000
vt 0.750000 0.750000
vt 0.750000 0.687500
vt 0.500000 0.687500
vt 0.500000 0.500000
vt 0.562500 0.187500
vt 0.562500 0.187500
vn 0.0595 -0.9643 -0.2582
vn -0.0595 0.9643 0.2582
vn 0.9744 -0.0001 0.2248
vn -0.2168 -0.2650 0.9396
vn -0.9744 0.0001 -0.2248
vn 0.2168 0.2650 -0.9396
vn -0.0062 -0.9999 0.0124
vn 0.0000 1.0000 0.0000
vn 0.7695 -0.6387 0.0000
vn -0.7695 0.6387 0.0000
vn 0.9966 0.0825 -0.0019
vn 0.0194 -0.2111 0.9773
vn -0.9968 -0.0793 0.0026
vn -0.0230 -0.2957 -0.9550
vn -0.0495 -0.9738 -0.2218
vn -0.0455 0.9604 -0.2750
vn 0.9988 0.0467 0.0172
vn -0.0051 0.2467 0.9691
vn -0.9987 -0.0482 -0.0170
vn 0.0039 0.2465 -0.9691
vn 0.0699 -0.9727 -0.2213
vn 0.0493 0.9602 -0.2750
vn 0.9984 -0.0524 -0.0202
vn 0.0033 0.2458 0.9693
vn -0.9985 0.0499 0.0203
vn -0.0080 0.2446 -0.9696
vn 0.6318 -0.5130 0.5811
vn 0.0000 0.8255 -0.5645
vn 0.9991 0.0099 0.0419
vn 0.0287 0.5724 0.8195
vn -0.9979 -0.0648 0.0032
vn 0.0393 -0.7164 -0.6966
vn 0.0211 -0.2937 -0.9557
vn 1.0000 -0.0000 0.0000
vn 0.0000 -0.0000 1.0000
vn -1.0000 -0.0000 -0.0000
vn 0.0000 -0.0000 -1.0000
vn 0.6387 0.7695 0.0000
vn -0.6387 -0.7695 0.0000
vn 0.0000 -0.5619 -0.8272
vn -0.7809 -0.4830 0.3961
vn -0.0919 0.7156 0.6924
vn 0.7258 0.5253 -0.4443
vn 0.0001 0.0000 -1.0000
vn 1.0000 -0.0001 -0.0001
vn -0.9982 0.0597 -0.0024
vn -0.0151 -0.2114 0.9773
vn 0.9983 -0.0574 0.0029
vn 0.0000 -1.0000 0.0000
vn -0.0000 1.0000 -0.0001
vn 0.9970 0.0735 -0.0237
vn 0.0077 -0.2050 0.9787
vn -0.9972 -0.0711 0.0236
vn -0.0029 -0.2829 -0.9591
vn 0.9987 0.0504 0.0066
vn -0.0192 0.2544 0.9669
vn -0.9986 -0.0521 -0.0061
vn 0.0173 0.2549 -0.9668
vn 0.9983 -0.0574 -0.0063
vn 0.0209 0.2554 0.9666
vn -0.9985 0.0545 0.0072
vn -0.0225 0.2534 -0.9671
vn 0.9989 -0.0381 0.0261
vn -0.0000 0.5553 0.8316
vn -0.9994 -0.0280 0.0192
vn 0.0864 -0.7112 -0.6976
vn 0.0061 -0.2842 -0.9588
vn -0.0015 0.0020 -1.0000
vn -0.0266 -0.5772 -0.8161
vn -0.7886 -0.4926 0.3681
vn -0.0413 0.7207 0.6920
vn 0.7397 0.5365 -0.4063
vn 0.0000 -0.0001 -1.0000
vn -0.9984 0.0524 -0.0203
vn -0.0057 -0.2063 0.9785
vn 0.9985 -0.0507 0.0198
s off
f 1/1/1 3/2/1 4/3/1
f 8/4/2 6/5/2 5/6/2
f 5/7/3 2/8/3 1/9/3
f 6/5/4 3/10/4 2/8/4
f 3/10/5 8/11/5 4/12/5
f 1/9/6 8/13/6 5/7/6
f 10/14/7 12/15/7 9/16/7
f 13/17/8 15/18/8 14/19/8
f 18/20/9 20/21/9 17/22/9
f 21/23/10 23/24/10 22/25/10
f 53/26/11 34/27/11 33/28/11
f 54/29/12 35/30/12 34/27/12
f 35/30/13 56/31/13 36/32/13
f 53/26/14 40/33/14 37/34/14
f 25/35/15 27/36/15 28/37/15
f 29/38/16 31/39/16 30/40/16
f 52/41/17 30/42/17 51/43/17
f 30/42/18 50/44/18 51/43/18
f 31/45/19 49/46/19 50/44/19
f 25/47/20 49/48/20 52/41/20
f 34/49/21 36/50/21 33/51/21
f 40/52/22 38/53/22 37/54/22
f 53/26/23 38/53/23 54/29/23
f 54/29/24 39/55/24 55/56/24
f 39/55/25 56/31/25 55/56/25
f 53/26/26 36/57/26 56/58/26
f 41/59/27 43/60/27 44/61/27
f 45/62/28 47/63/28 46/64/28
f 45/65/29 58/66/29 57/67/29
f 58/66/30 47/68/30 59/69/30
f 59/69/31 48/70/31 60/71/31
f 57/67/32 44/72/32 60/73/32
f 29/74/33 49/48/33 32/75/33
f 13/76/34 66/77/34 65/78/34
f 14/79/35 67/80/35 66/77/35
f 15/81/36 68/82/36 67/80/36
f 65/83/37 12/84/37 68/85/37
f 21/86/38 62/87/38 61/88/38
f 22/89/35 63/90/35 62/87/35
f 23/91/39 64/92/39 63/93/39
f 61/88/37 20/94/37 64/95/37
f 57/67/40 48/96/40 45/65/40
f 59/69/41 44/97/41 43/98/41
f 58/66/42 43/98/42 42/99/42
f 41/100/43 58/66/43 42/99/43
f 21/86/37 64/95/37 24/101/37
f 19/102/39 64/92/39 20/103/39
f 18/104/35 63/90/35 19/105/35
f 17/106/38 62/87/38 18/104/38
f 65/83/44 16/107/44 13/108/44
f 67/80/36 12/109/36 11/110/36
f 66/77/35 11/110/35 10/111/35
f 65/78/45 10/111/45 9/112/45
f 27/113/46 49/46/46 28/114/46
f 26/115/47 50/44/47 27/113/47
f 52/41/48 26/115/48 25/47/48
f 1/1/1 2/116/1 3/2/1
f 8/4/2 7/117/2 6/5/2
f 5/7/3 6/5/3 2/8/3
f 6/5/4 7/117/4 3/10/4
f 3/10/5 7/117/5 8/11/5
f 1/9/6 4/118/6 8/13/6
f 10/14/49 11/119/49 12/15/49
f 13/17/50 16/120/50 15/18/50
f 18/20/9 19/121/9 20/21/9
f 21/23/10 24/122/10 23/24/10
f 53/26/51 54/29/51 34/27/51
f 54/29/52 55/56/52 35/30/52
f 35/30/53 55/56/53 56/31/53
f 53/26/54 56/58/54 40/33/54
f 25/35/15 26/123/15 27/36/15
f 29/38/16 32/124/16 31/39/16
f 52/41/55 29/74/55 30/42/55
f 30/42/56 31/45/56 50/44/56
f 31/45/57 32/125/57 49/46/57
f 25/47/58 28/126/58 49/48/58
f 34/49/21 35/127/21 36/50/21
f 40/52/22 39/55/22 38/53/22
f 53/26/59 37/34/59 38/53/59
f 54/29/60 38/53/60 39/55/60
f 39/55/61 40/128/61 56/31/61
f 53/26/62 33/28/62 36/57/62
f 41/59/27 42/129/27 43/60/27
f 45/62/28 48/130/28 47/63/28
f 45/65/63 46/131/63 58/66/63
f 58/66/64 46/131/64 47/68/64
f 59/69/65 47/68/65 48/70/65
f 57/67/66 41/100/66 44/72/66
f 29/74/67 52/41/67 49/48/67
f 13/76/34 14/79/34 66/77/34
f 14/79/35 15/81/35 67/80/35
f 15/81/36 16/132/36 68/82/36
f 65/83/68 9/133/68 12/84/68
f 21/86/38 22/89/38 62/87/38
f 22/89/35 23/134/35 63/90/35
f 23/91/39 24/135/39 64/92/39
f 61/88/37 17/106/37 20/94/37
f 57/67/69 60/73/69 48/96/69
f 59/69/70 60/71/70 44/97/70
f 58/66/71 59/69/71 43/98/71
f 41/100/72 57/67/72 58/66/72
f 21/86/37 61/88/37 64/95/37
f 19/102/39 63/93/39 64/92/39
f 18/104/35 62/87/35 63/90/35
f 17/106/38 61/88/38 62/87/38
f 65/83/73 68/85/73 16/107/73
f 67/80/36 68/82/36 12/109/36
f 66/77/35 67/80/35 11/110/35
f 65/78/34 66/77/34 10/111/34
f 27/113/74 50/44/74 49/46/74
f 26/115/75 51/43/75 50/44/75
f 52/41/76 51/43/76 26/115/76
