# Blender v2.90.1 OBJ File: 'minecraft-character.blend'
# www.blender.org
o model_mesh
v 0.417557 2.610536 -0.380420
v 0.381491 2.567536 0.417609
v -0.417675 2.563641 0.381282
v -0.381608 2.606641 -0.416747
v 0.411719 3.409370 -0.337641
v 0.375652 3.366371 0.460389
v -0.423513 3.362476 0.424061
v -0.387447 3.405475 -0.373968
v 0.400014 1.378229 -0.200353
v 0.400000 1.379200 0.200000
v -0.400000 1.379200 0.200000
v -0.400000 1.379200 -0.200000
v 0.400000 2.579200 -0.200000
v 0.400000 2.579200 0.200000
v -0.400000 2.579200 0.200000
v -0.399996 2.579197 -0.200020
v 0.989045 1.449043 -0.200000
v 0.989045 1.449043 0.200000
v 0.594815 1.381345 0.200000
v 0.594815 1.381345 -0.200000
v 0.785952 2.631732 -0.200000
v 0.785951 2.631732 0.200000
v 0.391722 2.564034 0.200000
v 0.391722 2.564034 -0.200000
v 0.397458 0.185246 -0.197962
v 0.396665 0.168123 0.201671
v -0.003313 0.172271 0.201054
v -0.002520 0.189394 -0.198579
v 0.398399 1.368014 -0.204064
v 0.397181 1.390485 0.195302
v -0.002798 1.386576 0.194302
v -0.001580 1.364105 -0.205064
v 0.001224 0.190390 -0.198411
v 0.002077 0.173359 0.201226
v -0.397880 0.167541 0.201832
v -0.398733 0.184572 -0.197805
v -0.001827 1.364227 -0.205091
v -0.000508 1.386693 0.194275
v -0.400484 1.390926 0.195358
v -0.401803 1.368460 -0.204008
v -0.319067 1.390877 -0.048196
v -0.320939 1.452922 0.346958
v -0.717449 1.400576 0.353299
v -0.715577 1.338530 -0.041856
v -0.400161 2.555202 -0.209563
v -0.400161 2.601916 0.187700
v -0.800161 2.601916 0.187700
v -0.800161 2.555202 -0.209563
v 0.003933 0.776500 -0.172084
v 0.002917 0.779621 0.227387
v 0.402896 0.779501 0.228195
v 0.403902 0.776821 -0.171304
v -0.007765 0.777494 -0.172111
v -0.006679 0.780214 0.227391
v -0.406646 0.779420 0.228235
v -0.407732 0.776702 -0.171266
v -0.399136 1.968849 -0.140156
v -0.400072 2.023134 0.256062
v -0.798326 1.997056 0.259223
v -0.797390 1.942676 -0.136986
v 0.887498 2.040387 -0.200000
v 0.887498 2.040387 0.200000
v 0.493268 1.972690 0.200000
v 0.493268 1.972690 -0.200000
v 0.400000 1.979200 -0.200000
v 0.400000 1.979200 0.200000
v -0.400000 1.979200 0.200000
v -0.400000 1.979199 -0.200002
vt 0.375000 0.875000
vt 0.250000 1.000000
vt 0.375000 1.000000
vt 0.125000 1.000000
vt 0.250000 0.875000
vt 0.250000 1.000000
vt 0.375000 0.874982
vt 0.250000 0.749982
vt 0.375000 0.749982
vt 0.125000 0.750000
vt 0.125000 0.875000
vt 0.000000 0.750000
vt 0.500000 0.875000
vt 0.437500 0.750000
vt 0.562500 0.687500
vt 0.437500 0.687500
vt 0.437500 0.687500
vt 0.312500 0.750000
vt 0.437500 0.750000
vt 0.625000 0.187500
vt 0.687500 0.250000
vt 0.687500 0.187500
vt 0.625000 0.187500
vt 0.562500 0.250000
vt 0.562500 0.187500
vt 0.187500 0.593750
vt 0.125000 0.500000
vt 0.187500 0.500000
vt 0.125000 0.593750
vt 0.062500 0.500000
vt 0.000000 0.593750
vt -0.000000 0.500000
vt 0.250000 0.687500
vt 0.187500 0.687500
vt 0.375000 0.187500
vt 0.437500 0.250000
vt 0.375000 0.250000
vt 0.375000 0.250000
vt 0.312500 0.187500
vt 0.375000 0.187500
vt 0.437500 0.093750
vt 0.375000 0.187500
vt 0.375000 0.093750
vt 0.312500 0.093750
vt 0.312500 0.187500
vt 0.250000 0.093750
vt 0.437500 -0.000000
vt 0.500000 0.093750
vt 0.125000 0.750000
vt 0.187500 0.687500
vt 0.187500 0.750000
vt 0.125000 0.750000
vt 0.062500 0.687500
vt 0.125000 0.687500
vt 0.062500 0.593750
vt 0.250000 0.500000
vt 0.250000 0.593750
vt 0.812569 0.750000
vt 0.750070 0.687500
vt 0.812569 0.687500
vt 0.750000 0.687500
vt 0.687500 0.750000
vt 0.687500 0.687500
vt 0.812500 0.687500
vt 0.750000 0.593750
vt 0.812500 0.593750
vt 0.687500 0.687500
vt 0.687500 0.593750
vt 0.625000 0.687500
vt 0.625000 0.593750
vt 0.875000 0.500000
vt 0.875000 0.593750
vt 0.437500 0.187500
vt 0.500000 0.187500
vt 0.250000 0.687500
vt 0.312500 0.593750
vt 0.250000 0.593750
vt 0.312500 0.687500
vt 0.437500 0.593750
vt 0.437500 0.687500
vt 0.500000 0.593750
vt 0.500000 0.593750
vt 0.625000 0.500000
vt 0.625000 0.593750
vt 0.687500 0.187500
vt 0.625000 0.093750
vt 0.687500 0.093750
vt 0.625000 0.187500
vt 0.562500 0.093750
vt 0.500000 0.093750
vt 0.562500 0.187500
vt 0.562500 0.093750
vt 0.687500 0.000000
vt 0.750000 0.093750
vt 0.875000 0.687500
vt 0.625000 0.500000
vt 0.687500 0.500000
vt 0.750000 0.500000
vt 0.812500 0.500000
vt 0.750000 0.187500
vt 0.500000 0.000000
vt 0.562500 0.000000
vt 0.562500 0.000000
vt 0.625000 0.000000
vt 0.625000 0.687500
vt 0.500000 0.687500
vt 0.500000 0.500000
vt 0.437500 0.500000
vt 0.312500 0.500000
vt 0.250000 0.500000
vt 0.312500 -0.000000
vt 0.250000 -0.000000
vt 0.375000 -0.000000
vt 0.250000 0.875000
vt 0.000000 0.875000
vt 0.500000 0.750000
vt 0.562500 0.750000
vt 0.312500 0.687500
vt 0.625000 0.250000
vt 0.625000 0.250000
vt 0.437500 0.187500
vt 0.312500 0.250000
vt 0.250000 0.187500
vt 0.500000 -0.000000
vt 0.125000 0.687500
vt 0.062500 0.750000
vt 0.000000 0.687500
vt 0.750069 0.750000
vt 0.750000 0.750000
vt 0.750000 0.687500
vt 0.500000 0.687500
vt 0.500000 0.500000
vt 0.562500 0.187500
vt 0.500000 0.187500
vt 0.750000 0.000000
vn 0.0073 -0.9985 -0.0535
vn -0.0073 0.9985 0.0535
vn 0.9990 0.0049 0.0454
vn -0.0451 -0.0538 0.9975
vn -0.9990 -0.0049 -0.0454
vn 0.0451 0.0537 -0.9975
vn -0.0012 -1.0000 0.0024
vn 0.0000 1.0000 -0.0000
vn 0.1692 -0.9856 0.0000
vn -0.1692 0.9856 -0.0000
vn 0.9999 0.0154 -0.0015
vn 0.0021 -0.0430 0.9991
vn -0.9999 -0.0153 0.0015
vn -0.0033 -0.0561 -0.9984
vn -0.0103 -0.9990 -0.0428
vn -0.0096 0.9984 -0.0562
vn 1.0000 0.0095 0.0025
vn -0.0020 0.0537 0.9986
vn -1.0000 -0.0096 -0.0025
vn 0.0019 0.0450 -0.9990
vn 0.0145 -0.9990 -0.0426
vn 0.0104 0.9984 -0.0562
vn 0.9999 -0.0103 -0.0026
vn 0.0020 0.0537 0.9986
vn -0.9999 0.0102 0.0026
vn -0.0022 0.0447 -0.9990
vn 0.1317 -0.9792 0.1544
vn 0.0000 0.9932 -0.1168
vn 1.0000 0.0020 0.0021
vn 0.0002 0.1174 0.9931
vn -1.0000 -0.0047 -0.0017
vn 0.0023 -0.1552 -0.9879
vn 0.0030 -0.0560 -0.9984
vn 1.0000 -0.0000 0.0000
vn 0.0000 -0.0000 1.0000
vn -1.0000 -0.0000 -0.0000
vn 0.0000 -0.0000 -1.0000
vn 0.9856 0.1692 0.0000
vn -0.9856 -0.1692 -0.0000
vn 0.0000 -0.1175 -0.9931
vn -0.9911 -0.1319 0.0160
vn -0.0049 0.1568 0.9876
vn 0.9907 0.1349 -0.0165
vn -0.9999 0.0111 -0.0015
vn -0.0020 -0.0433 0.9991
vn 0.9999 -0.0110 0.0015
vn -0.0451 -0.0537 0.9975
vn 0.0000 -1.0000 0.0000
vn 0.9999 0.0145 -0.0028
vn 0.0022 -0.0431 0.9991
vn -0.9999 -0.0144 0.0028
vn -0.0020 -0.0552 -0.9985
vn 1.0000 0.0094 0.0025
vn -0.0030 0.0544 0.9985
vn -1.0000 -0.0095 -0.0025
vn 0.0020 0.0451 -0.9990
vn 0.9999 -0.0103 -0.0027
vn 0.0033 0.0545 0.9985
vn -0.9999 0.0102 0.0027
vn 1.0000 0.0002 -0.0000
vn -0.0000 0.1173 0.9931
vn -1.0000 -0.0030 0.0004
vn 0.0049 -0.1565 -0.9877
vn 0.0020 -0.0553 -0.9985
vn -0.0004 0.0006 -1.0000
vn -0.0002 -0.1177 -0.9931
vn -0.9912 -0.1317 0.0157
vn -0.0023 0.1555 0.9878
vn 0.9908 0.1347 -0.0161
vn -0.9999 0.0104 -0.0026
vn 0.9999 -0.0103 0.0026
s off
f 2/1/1 4/2/1 1/3/1
f 8/4/2 6/5/2 5/6/2
f 5/7/3 2/8/3 1/9/3
f 6/5/4 3/10/4 2/8/4
f 7/11/5 4/12/5 3/10/5
f 1/9/6 8/13/6 5/7/6
f 10/14/7 12/15/7 9/16/7
f 13/17/8 15/18/8 14/19/8
f 18/20/9 20/21/9 17/22/9
f 24/23/10 22/24/10 21/25/10
f 53/26/11 34/27/11 33/28/11
f 54/29/12 35/30/12 34/27/12
f 35/30/13 56/31/13 36/32/13
f 53/26/14 40/33/14 37/34/14
f 26/35/15 28/36/15 25/37/15
f 32/38/16 30/39/16 29/40/16
f 52/41/17 30/42/17 51/43/17
f 30/42/18 50/44/18 51/43/18
f 31/45/19 49/46/19 50/44/19
f 25/47/20 49/48/20 52/41/20
f 34/49/21 36/50/21 33/51/21
f 37/52/22 39/53/22 38/54/22
f 53/26/23 38/54/23 54/29/23
f 54/29/24 39/53/24 55/55/24
f 39/53/25 56/31/25 55/55/25
f 53/26/26 36/56/26 56/57/26
f 42/58/27 44/59/27 41/60/27
f 45/61/28 47/62/28 46/63/28
f 45/64/29 58/65/29 57/66/29
f 58/65/30 47/67/30 59/68/30
f 59/68/31 48/69/31 60/70/31
f 57/66/32 44/71/32 60/72/32
f 29/73/33 49/48/33 32/74/33
f 13/75/34 66/76/34 65/77/34
f 14/78/35 67/79/35 66/76/35
f 15/80/36 68/81/36 67/79/36
f 65/82/37 12/83/37 68/84/37
f 21/85/38 62/86/38 61/87/38
f 22/88/35 63/89/35 62/86/35
f 63/90/39 24/91/39 64/92/39
f 17/93/37 64/94/37 61/87/37
f 57/66/40 48/95/40 45/64/40
f 59/68/41 44/96/41 43/97/41
f 58/65/42 43/97/42 42/98/42
f 41/99/43 58/65/43 42/98/43
f 61/87/37 24/100/37 21/85/37
f 19/101/39 64/92/39 20/102/39
f 62/86/35 19/103/35 18/104/35
f 61/87/38 18/104/38 17/93/38
f 65/82/37 16/105/37 13/106/37
f 67/79/36 12/107/36 11/108/36
f 66/76/35 11/108/35 10/109/35
f 65/77/34 10/109/34 9/110/34
f 27/111/44 49/46/44 28/112/44
f 26/113/45 50/44/45 27/111/45
f 52/41/46 26/113/46 25/47/46
f 2/1/1 3/114/1 4/2/1
f 8/4/2 7/11/2 6/5/2
f 5/7/3 6/5/3 2/8/3
f 6/5/47 7/11/47 3/10/47
f 7/11/5 8/115/5 4/12/5
f 1/9/6 4/116/6 8/13/6
f 10/14/48 11/117/48 12/15/48
f 13/17/8 16/118/8 15/18/8
f 18/20/9 19/119/9 20/21/9
f 24/23/10 23/120/10 22/24/10
f 53/26/49 54/29/49 34/27/49
f 54/29/50 55/55/50 35/30/50
f 35/30/51 55/55/51 56/31/51
f 53/26/52 56/57/52 40/33/52
f 26/35/15 27/121/15 28/36/15
f 32/38/16 31/122/16 30/39/16
f 52/41/53 29/73/53 30/42/53
f 30/42/54 31/45/54 50/44/54
f 31/45/55 32/123/55 49/46/55
f 25/47/56 28/124/56 49/48/56
f 34/49/21 35/125/21 36/50/21
f 37/52/22 40/126/22 39/53/22
f 53/26/57 37/34/57 38/54/57
f 54/29/58 38/54/58 39/53/58
f 39/53/59 40/127/59 56/31/59
f 53/26/26 33/28/26 36/56/26
f 42/58/27 43/128/27 44/59/27
f 45/61/28 48/129/28 47/62/28
f 45/64/60 46/130/60 58/65/60
f 58/65/61 46/130/61 47/67/61
f 59/68/62 47/67/62 48/69/62
f 57/66/63 41/99/63 44/71/63
f 29/73/64 52/41/64 49/48/64
f 13/75/34 14/78/34 66/76/34
f 14/78/35 15/80/35 67/79/35
f 15/80/36 16/131/36 68/81/36
f 65/82/65 9/132/65 12/83/65
f 21/85/38 22/88/38 62/86/38
f 22/88/35 23/133/35 63/89/35
f 63/90/39 23/134/39 24/91/39
f 17/93/37 20/135/37 64/94/37
f 57/66/66 60/72/66 48/95/66
f 59/68/67 60/70/67 44/96/67
f 58/65/68 59/68/68 43/97/68
f 41/99/69 57/66/69 58/65/69
f 61/87/37 64/94/37 24/100/37
f 19/101/39 63/90/39 64/92/39
f 62/86/35 63/89/35 19/103/35
f 61/87/38 62/86/38 18/104/38
f 65/82/37 68/84/37 16/105/37
f 67/79/36 68/81/36 12/107/36
f 66/76/35 67/79/35 11/108/35
f 65/77/34 66/76/34 10/109/34
f 27/111/70 50/44/70 49/46/70
f 26/113/45 51/43/45 50/44/45
f 52/41/71 51/43/71 26/113/71
