# Blender v2.90.1 OBJ File: 'minecraft-character.blend'
# www.blender.org
o model_mesh
v 0.401726 2.601011 -0.398214
v 0.398257 2.596897 0.401768
v -0.401736 2.596440 0.398296
v -0.398266 2.600553 -0.401686
v 0.401251 3.401000 -0.394102
v 0.397781 3.396887 0.405880
v -0.402211 3.396430 0.402408
v -0.398742 3.400542 -0.397574
v 0.400002 1.390732 -0.200036
v 0.400000 1.390825 0.200000
v -0.400000 1.390825 0.200000
v -0.400000 1.390825 -0.200000
v 0.400000 2.590825 -0.200000
v 0.400000 2.590825 0.200000
v -0.400000 2.590825 0.200000
v -0.400000 2.590824 -0.200002
v 0.819976 1.396110 -0.200000
v 0.819976 1.396110 0.200000
v 0.420028 1.389672 0.200000
v 0.420028 1.389672 -0.200000
v 0.800662 2.595955 -0.200000
v 0.800662 2.595955 0.200000
v 0.400713 2.589517 0.200000
v 0.400714 2.589517 -0.200000
v 0.398548 0.189642 -0.199638
v 0.398482 0.188028 0.200359
v -0.001518 0.188423 0.200294
v -0.001452 0.190037 -0.199702
v 0.398633 1.388134 -0.200280
v 0.398526 1.390292 0.199715
v -0.001474 1.389919 0.199609
v -0.001367 1.387761 -0.200385
v -0.001770 0.190348 -0.199668
v -0.001705 0.188743 0.200328
v -0.401705 0.188189 0.200391
v -0.401770 0.189794 -0.199606
v -0.002060 1.387992 -0.200372
v -0.001943 1.390150 0.199622
v -0.401943 1.390553 0.199736
v -0.402060 1.388395 -0.200258
v -0.392386 1.390534 -0.185404
v -0.392475 1.396442 0.214553
v -0.792444 1.391459 0.214537
v -0.792355 1.385550 -0.185419
v -0.400161 2.588598 -0.201027
v -0.400161 2.593040 0.198948
v -0.800161 2.593040 0.198948
v -0.800161 2.588598 -0.201027
v -0.000833 0.788858 -0.197212
v -0.000921 0.789173 0.202781
v 0.399079 0.789161 0.202866
v 0.399165 0.788889 -0.197129
v -0.002632 0.789171 -0.197198
v -0.002542 0.789448 0.202798
v -0.402541 0.789373 0.202886
v -0.402632 0.789096 -0.197109
v -0.400010 1.989528 -0.194316
v -0.400055 1.994694 0.205649
v -0.800039 1.992212 0.205642
v -0.799995 1.987037 -0.194324
v 0.810319 1.996033 -0.200000
v 0.810319 1.996033 0.200000
v 0.410371 1.989594 0.200000
v 0.410371 1.989594 -0.200000
v 0.400000 1.990825 -0.200000
v 0.400000 1.990825 0.200000
v -0.400000 1.990825 0.200000
v -0.400000 1.990825 -0.200000
vt 0.375000 0.875000
vt 0.250000 1.000000
vt 0.375000 1.000000
vt 0.125000 1.000000
vt 0.250000 0.875000
vt 0.250000 1.000000
vt 0.375000 0.874982
vt 0.250000 0.749982
vt 0.375000 0.749982
vt 0.125000 0.750000
vt 0.000000 0.875000
vt 0.000000 0.750000
vt 0.500000 0.875000
vt 0.437500 0.750000
vt 0.562500 0.687500
vt 0.437500 0.687500
vt 0.437500 0.687500
vt 0.312500 0.750000
vt 0.437500 0.750000
vt 0.687500 0.187500
vt 0.625000 0.250000
vt 0.687500 0.250000
vt 0.625000 0.187500
vt 0.562500 0.250000
vt 0.562500 0.187500
vt 0.187500 0.593750
vt 0.125000 0.500000
vt 0.187500 0.500000
vt 0.125000 0.593750
vt 0.062500 0.500000
vt 0.000000 0.593750
vt -0.000000 0.500000
vt 0.250000 0.687500
vt 0.187500 0.687500
vt 0.375000 0.187500
vt 0.437500 0.250000
vt 0.375000 0.250000
vt 0.375000 0.187500
vt 0.312500 0.250000
vt 0.312500 0.187500
vt 0.437500 0.093750
vt 0.375000 0.187500
vt 0.375000 0.093750
vt 0.312500 0.093750
vt 0.312500 0.187500
vt 0.250000 0.093750
vt 0.437500 -0.000000
vt 0.500000 0.093750
vt 0.187500 0.750000
vt 0.125000 0.687500
vt 0.187500 0.687500
vt 0.125000 0.750000
vt 0.062500 0.687500
vt 0.125000 0.687500
vt 0.062500 0.593750
vt 0.250000 0.500000
vt 0.250000 0.593750
vt 0.812569 0.687500
vt 0.750069 0.750000
vt 0.750070 0.687500
vt 0.750000 0.687500
vt 0.687500 0.750000
vt 0.687500 0.687500
vt 0.812500 0.687500
vt 0.750000 0.593750
vt 0.812500 0.593750
vt 0.687500 0.687500
vt 0.687500 0.593750
vt 0.625000 0.687500
vt 0.625000 0.593750
vt 0.875000 0.500000
vt 0.875000 0.593750
vt 0.437500 0.187500
vt 0.500000 0.187500
vt 0.250000 0.687500
vt 0.312500 0.593750
vt 0.250000 0.593750
vt 0.312500 0.687500
vt 0.437500 0.593750
vt 0.437500 0.687500
vt 0.500000 0.593750
vt 0.500000 0.593750
vt 0.625000 0.500000
vt 0.625000 0.593750
vt 0.687500 0.187500
vt 0.625000 0.093750
vt 0.687500 0.093750
vt 0.625000 0.187500
vt 0.562500 0.093750
vt 0.500000 0.187500
vt 0.562500 0.093750
vt 0.500000 0.093750
vt 0.750000 0.000000
vt 0.750000 0.093750
vt 0.875000 0.687500
vt 0.625000 0.500000
vt 0.687500 0.500000
vt 0.750000 0.500000
vt 0.812500 0.500000
vt 0.750000 0.187500
vt 0.562500 0.000000
vt 0.500000 0.000000
vt 0.562500 0.000000
vt 0.625000 0.000000
vt 0.687500 0.000000
vt 0.625000 0.687500
vt 0.500000 0.687500
vt 0.500000 0.500000
vt 0.437500 0.500000
vt 0.312500 0.500000
vt 0.250000 0.500000
vt 0.312500 -0.000000
vt 0.250000 -0.000000
vt 0.375000 -0.000000
vt 0.250000 0.875000
vt 0.125000 0.875000
vt 0.500000 0.750000
vt 0.562500 0.750000
vt 0.312500 0.687500
vt 0.625000 0.187500
vt 0.625000 0.250000
vt 0.437500 0.187500
vt 0.375000 0.250000
vt 0.250000 0.187500
vt 0.500000 -0.000000
vt 0.125000 0.750000
vt 0.062500 0.750000
vt 0.000000 0.687500
vt 0.812569 0.750000
vt 0.750000 0.750000
vt 0.750000 0.687500
vt 0.500000 0.687500
vt 0.500000 0.500000
vt 0.562500 0.187500
vt 0.562500 0.187500
vn 0.0006 -1.0000 -0.0051
vn -0.0006 1.0000 0.0051
vn 1.0000 0.0006 0.0043
vn -0.0043 -0.0051 1.0000
vn -1.0000 -0.0006 -0.0043
vn 0.0043 0.0051 -1.0000
vn -0.0001 -1.0000 0.0002
vn 0.0000 1.0000 0.0000
vn 0.0161 -0.9999 -0.0000
vn -0.0161 0.9999 -0.0000
vn 1.0000 0.0014 -0.0002
vn 0.0002 -0.0041 1.0000
vn -1.0000 -0.0014 0.0002
vn -0.0003 -0.0053 -1.0000
vn -0.0010 -1.0000 -0.0040
vn -0.0009 1.0000 -0.0054
vn 1.0000 0.0009 0.0002
vn -0.0002 0.0052 1.0000
vn -1.0000 -0.0009 -0.0002
vn 0.0002 0.0042 -1.0000
vn 0.0014 -1.0000 -0.0040
vn 0.0010 1.0000 -0.0054
vn 1.0000 -0.0010 -0.0002
vn 0.0002 0.0052 1.0000
vn -1.0000 0.0010 0.0002
vn -0.0002 0.0042 -1.0000
vn 0.0125 -0.9998 0.0148
vn 0.0000 0.9999 -0.0111
vn 1.0000 0.0003 0.0001
vn -0.0001 0.0111 0.9999
vn -1.0000 -0.0003 -0.0001
vn 0.0001 -0.0148 -0.9999
vn 0.0003 -0.0053 -1.0000
vn 1.0000 -0.0000 0.0000
vn -0.0000 -0.0000 1.0000
vn -1.0000 -0.0000 -0.0000
vn 0.0000 -0.0000 -1.0000
vn 0.9999 0.0161 0.0000
vn -0.9999 -0.0161 -0.0000
vn 0.0000 -0.0112 -0.9999
vn -0.9999 -0.0126 -0.0000
vn -0.0002 0.0149 0.9999
vn 0.9999 0.0127 0.0000
vn -1.0000 0.0010 -0.0002
vn -0.0002 -0.0041 1.0000
vn 1.0000 -0.0010 0.0002
vn 0.0000 -1.0000 -0.0000
vn -0.0002 -0.0053 -1.0000
vn 1.0000 0.0009 0.0003
vn -0.0003 0.0053 1.0000
vn -1.0000 -0.0009 -0.0003
vn 1.0000 -0.0010 -0.0003
vn 0.0003 0.0053 1.0000
vn -1.0000 0.0010 0.0003
vn -0.0002 0.0041 -1.0000
vn 1.0000 0.0002 -0.0000
vn -0.0000 0.0112 0.9999
vn -1.0000 -0.0002 0.0000
vn 0.0002 -0.0149 -0.9999
vn 0.0002 -0.0053 -1.0000
vn -0.0000 0.0001 -1.0000
vn 0.0001 -0.0111 -0.9999
vn -0.9999 -0.0127 0.0001
vn -0.0001 0.0148 0.9999
vn 0.9999 0.0127 -0.0001
vn -0.0002 -0.0042 1.0000
s off
f 2/1/1 4/2/1 1/3/1
f 8/4/2 6/5/2 5/6/2
f 5/7/3 2/8/3 1/9/3
f 6/5/4 3/10/4 2/8/4
f 3/10/5 8/11/5 4/12/5
f 1/9/6 8/13/6 5/7/6
f 10/14/7 12/15/7 9/16/7
f 13/17/8 15/18/8 14/19/8
f 17/20/9 19/21/9 20/22/9
f 24/23/10 22/24/10 21/25/10
f 53/26/11 34/27/11 33/28/11
f 54/29/12 35/30/12 34/27/12
f 35/30/13 56/31/13 36/32/13
f 53/26/14 40/33/14 37/34/14
f 26/35/15 28/36/15 25/37/15
f 29/38/16 31/39/16 30/40/16
f 52/41/17 30/42/17 51/43/17
f 30/42/18 50/44/18 51/43/18
f 31/45/19 49/46/19 50/44/19
f 25/47/20 49/48/20 52/41/20
f 33/49/21 35/50/21 36/51/21
f 37/52/22 39/53/22 38/54/22
f 53/26/23 38/54/23 54/29/23
f 54/29/24 39/53/24 55/55/24
f 39/53/25 56/31/25 55/55/25
f 53/26/26 36/56/26 56/57/26
f 41/58/27 43/59/27 44/60/27
f 45/61/28 47/62/28 46/63/28
f 45/64/29 58/65/29 57/66/29
f 58/65/30 47/67/30 59/68/30
f 59/68/31 48/69/31 60/70/31
f 57/66/32 44/71/32 60/72/32
f 29/73/33 49/48/33 32/74/33
f 13/75/34 66/76/34 65/77/34
f 14/78/35 67/79/35 66/76/35
f 15/80/36 68/81/36 67/79/36
f 65/82/37 12/83/37 68/84/37
f 21/85/38 62/86/38 61/87/38
f 22/88/35 63/89/35 62/86/35
f 23/90/39 64/91/39 63/92/39
f 61/87/37 20/93/37 64/94/37
f 57/66/40 48/95/40 45/64/40
f 59/68/41 44/96/41 43/97/41
f 58/65/42 43/97/42 42/98/42
f 41/99/43 58/65/43 42/98/43
f 61/87/37 24/100/37 21/85/37
f 63/92/39 20/101/39 19/102/39
f 62/86/35 19/103/35 18/104/35
f 61/87/38 18/104/38 17/105/38
f 65/82/37 16/106/37 13/107/37
f 67/79/36 12/108/36 11/109/36
f 66/76/35 11/109/35 10/110/35
f 65/77/34 10/110/34 9/111/34
f 27/112/44 49/46/44 28/113/44
f 26/114/45 50/44/45 27/112/45
f 52/41/46 26/114/46 25/47/46
f 2/1/1 3/115/1 4/2/1
f 8/4/2 7/116/2 6/5/2
f 5/7/3 6/5/3 2/8/3
f 6/5/4 7/116/4 3/10/4
f 3/10/5 7/116/5 8/11/5
f 1/9/6 4/117/6 8/13/6
f 10/14/47 11/118/47 12/15/47
f 13/17/8 16/119/8 15/18/8
f 17/20/9 18/120/9 19/21/9
f 24/23/10 23/121/10 22/24/10
f 53/26/11 54/29/11 34/27/11
f 54/29/12 55/55/12 35/30/12
f 35/30/13 55/55/13 56/31/13
f 53/26/48 56/57/48 40/33/48
f 26/35/15 27/122/15 28/36/15
f 29/38/16 32/123/16 31/39/16
f 52/41/49 29/73/49 30/42/49
f 30/42/50 31/45/50 50/44/50
f 31/45/51 32/124/51 49/46/51
f 25/47/20 28/125/20 49/48/20
f 33/49/21 34/126/21 35/50/21
f 37/52/22 40/127/22 39/53/22
f 53/26/52 37/34/52 38/54/52
f 54/29/53 38/54/53 39/53/53
f 39/53/54 40/128/54 56/31/54
f 53/26/55 33/28/55 36/56/55
f 41/58/27 42/129/27 43/59/27
f 45/61/28 48/130/28 47/62/28
f 45/64/56 46/131/56 58/65/56
f 58/65/57 46/131/57 47/67/57
f 59/68/58 47/67/58 48/69/58
f 57/66/59 41/99/59 44/71/59
f 29/73/60 52/41/60 49/48/60
f 13/75/34 14/78/34 66/76/34
f 14/78/35 15/80/35 67/79/35
f 15/80/36 16/132/36 68/81/36
f 65/82/61 9/133/61 12/83/61
f 21/85/38 22/88/38 62/86/38
f 22/88/35 23/134/35 63/89/35
f 23/90/39 24/135/39 64/91/39
f 61/87/37 17/105/37 20/93/37
f 57/66/62 60/72/62 48/95/62
f 59/68/63 60/70/63 44/96/63
f 58/65/64 59/68/64 43/97/64
f 41/99/65 57/66/65 58/65/65
f 61/87/37 64/94/37 24/100/37
f 63/92/39 64/91/39 20/101/39
f 62/86/35 63/89/35 19/103/35
f 61/87/38 62/86/38 18/104/38
f 65/82/37 68/84/37 16/106/37
f 67/79/36 68/81/36 12/108/36
f 66/76/35 67/79/35 11/109/35
f 65/77/34 66/76/34 10/110/34
f 27/112/44 50/44/44 49/46/44
f 26/114/66 51/43/66 50/44/66
f 52/41/46 51/43/46 26/114/46
