# Blender v2.90.1 OBJ File: 'minecraft-character.blend'
# www.blender.org
o model_mesh
v 0.440084 2.623704 -0.350018
v 0.354833 2.521185 0.438792
v -0.440428 2.515138 0.352058
v -0.355177 2.617657 -0.436753
v 0.423007 3.417085 -0.248750
v 0.337755 3.314566 0.540060
v -0.457506 3.308519 0.453325
v -0.372254 3.411038 -0.335485
v 0.400015 1.359247 -0.200750
v 0.400000 1.361587 0.200000
v -0.400000 1.361587 0.200000
v -0.400000 1.361587 -0.200000
v 0.400000 2.561587 -0.200000
v 0.400000 2.561587 0.200000
v -0.400000 2.561587 0.200000
v -0.399991 2.561577 -0.200048
v 1.233901 1.582029 -0.200000
v 1.233901 1.582029 0.200000
v 0.867401 1.421785 0.200000
v 0.867401 1.421785 -0.200000
v 0.753171 2.681528 -0.200000
v 0.753171 2.681528 0.200000
v 0.386671 2.521285 0.200000
v 0.386671 2.521285 -0.200000
v 0.395852 0.183610 -0.196366
v 0.393571 0.141981 0.201456
v -0.006303 0.151929 0.200204
v -0.004022 0.193558 -0.197617
v 0.398205 1.337094 -0.208996
v 0.394956 1.390409 0.187422
v -0.004928 1.381031 0.185406
v -0.001680 1.327715 -0.211012
v 0.005555 0.195728 -0.197310
v 0.008231 0.154292 0.200529
v -0.391524 0.140332 0.201763
v -0.394199 0.181768 -0.196076
v -0.001719 1.327666 -0.211089
v 0.001799 1.380966 0.185329
v -0.398066 1.391123 0.187512
v -0.401584 1.337823 -0.208906
v -0.210045 1.442754 0.149303
v -0.218129 1.589334 0.521390
v -0.597554 1.468916 0.560584
v -0.589470 1.322336 0.188496
v -0.400161 2.502061 -0.218176
v -0.400161 2.613677 0.165936
v -0.800161 2.613677 0.165936
v -0.800161 2.502061 -0.218176
v 0.011265 0.760603 -0.132950
v 0.008477 0.767517 0.264091
v 0.408356 0.767233 0.265725
v 0.411121 0.761375 -0.131392
v -0.015731 0.762672 -0.133043
v -0.012634 0.768609 0.264086
v -0.412444 0.766703 0.265794
v -0.415540 0.760770 -0.131334
v -0.399886 1.948441 -0.056830
v -0.403908 2.077316 0.321337
v -0.793641 2.017329 0.340866
v -0.789599 1.888231 -0.037233
v 0.993536 2.131778 -0.200000
v 0.993536 2.131778 0.200000
v 0.627036 1.971535 0.200000
v 0.627036 1.971535 -0.200000
v 0.400000 1.961587 -0.200000
v 0.400000 1.961587 0.200000
v -0.400000 1.961587 0.200000
v -0.399999 1.961586 -0.200005
vt 0.375000 0.875000
vt 0.250000 1.000000
vt 0.375000 1.000000
vt 0.125000 1.000000
vt 0.250000 0.875000
vt 0.250000 1.000000
vt 0.375000 0.874982
vt 0.250000 0.749982
vt 0.375000 0.749982
vt 0.125000 0.750000
vt 0.125000 0.875000
vt 0.000000 0.750000
vt 0.500000 0.875000
vt 0.437500 0.750000
vt 0.562500 0.687500
vt 0.437500 0.687500
vt 0.437500 0.687500
vt 0.312500 0.750000
vt 0.437500 0.750000
vt 0.625000 0.187500
vt 0.687500 0.250000
vt 0.687500 0.187500
vt 0.562500 0.187500
vt 0.625000 0.250000
vt 0.562500 0.250000
vt 0.187500 0.593750
vt 0.125000 0.500000
vt 0.187500 0.500000
vt 0.125000 0.593750
vt 0.062500 0.500000
vt 0.000000 0.593750
vt -0.000000 0.500000
vt 0.250000 0.687500
vt 0.187500 0.687500
vt 0.375000 0.187500
vt 0.437500 0.250000
vt 0.375000 0.250000
vt 0.375000 0.250000
vt 0.312500 0.187500
vt 0.375000 0.187500
vt 0.437500 0.093750
vt 0.375000 0.187500
vt 0.375000 0.093750
vt 0.312500 0.093750
vt 0.312500 0.187500
vt 0.250000 0.093750
vt 0.437500 -0.000000
vt 0.500000 0.093750
vt 0.125000 0.750000
vt 0.187500 0.687500
vt 0.187500 0.750000
vt 0.062500 0.750000
vt 0.125000 0.687500
vt 0.125000 0.750000
vt 0.062500 0.687500
vt 0.062500 0.593750
vt 0.250000 0.500000
vt 0.250000 0.593750
vt 0.812569 0.750000
vt 0.750070 0.687500
vt 0.812569 0.687500
vt 0.750000 0.750000
vt 0.687500 0.687500
vt 0.750000 0.687500
vt 0.812500 0.687500
vt 0.750000 0.593750
vt 0.812500 0.593750
vt 0.687500 0.687500
vt 0.687500 0.593750
vt 0.625000 0.687500
vt 0.625000 0.593750
vt 0.875000 0.500000
vt 0.875000 0.593750
vt 0.437500 0.187500
vt 0.500000 0.187500
vt 0.250000 0.687500
vt 0.312500 0.593750
vt 0.250000 0.593750
vt 0.312500 0.687500
vt 0.437500 0.593750
vt 0.437500 0.687500
vt 0.500000 0.593750
vt 0.500000 0.593750
vt 0.625000 0.500000
vt 0.625000 0.593750
vt 0.687500 0.187500
vt 0.625000 0.093750
vt 0.687500 0.093750
vt 0.625000 0.187500
vt 0.562500 0.093750
vt 0.500000 0.187500
vt 0.562500 0.093750
vt 0.500000 0.093750
vt 0.687500 0.000000
vt 0.750000 0.093750
vt 0.875000 0.687500
vt 0.625000 0.500000
vt 0.687500 0.500000
vt 0.750000 0.500000
vt 0.812500 0.500000
vt 0.750000 0.187500
vt 0.562500 0.000000
vt 0.500000 0.000000
vt 0.625000 0.000000
vt 0.562500 0.000000
vt 0.625000 0.687500
vt 0.500000 0.687500
vt 0.500000 0.500000
vt 0.437500 0.500000
vt 0.312500 0.500000
vt 0.250000 0.500000
vt 0.312500 -0.000000
vt 0.250000 -0.000000
vt 0.375000 -0.000000
vt 0.250000 0.875000
vt 0.000000 0.875000
vt 0.500000 0.750000
vt 0.562500 0.750000
vt 0.312500 0.687500
vt 0.625000 0.250000
vt 0.625000 0.187500
vt 0.437500 0.187500
vt 0.312500 0.250000
vt 0.250000 0.187500
vt 0.500000 -0.000000
vt 0.125000 0.687500
vt 0.000000 0.687500
vt 0.750069 0.750000
vt 0.687500 0.750000
vt 0.750000 0.687500
vt 0.500000 0.687500
vt 0.500000 0.500000
vt 0.562500 0.187500
vt 0.562500 0.187500
vt 0.750000 0.000000
vn 0.0213 -0.9917 -0.1266
vn -0.0213 0.9917 0.1266
vn 0.9941 0.0076 0.1084
vn -0.1066 -0.1281 0.9860
vn -0.9941 -0.0076 -0.1084
vn 0.1066 0.1281 -0.9860
vn -0.0029 -1.0000 0.0058
vn 0.0000 1.0000 -0.0000
vn 0.4006 -0.9162 0.0000
vn -0.4006 0.9162 0.0000
vn 0.9993 0.0378 -0.0028
vn 0.0067 -0.1027 0.9947
vn -0.9993 -0.0372 0.0029
vn -0.0089 -0.1366 -0.9906
vn -0.0244 -0.9943 -0.1042
vn -0.0226 0.9908 -0.1334
vn 0.9997 0.0223 0.0066
vn -0.0040 0.1246 0.9922
vn -0.9997 -0.0227 -0.0066
vn 0.0037 0.1117 -0.9937
vn 0.0344 -0.9940 -0.1038
vn 0.0244 0.9908 -0.1334
vn 0.9997 -0.0245 -0.0074
vn 0.0036 0.1243 0.9922
vn -0.9997 0.0240 0.0074
vn -0.0048 0.1109 -0.9938
vn 0.3159 -0.8804 0.3537
vn 0.0000 0.9603 -0.2790
vn 0.9999 0.0033 0.0095
vn 0.0048 0.2815 0.9595
vn -0.9998 -0.0185 -0.0044
vn 0.0100 -0.3674 -0.9300
vn 0.0082 -0.1362 -0.9907
vn 1.0000 -0.0000 0.0000
vn 0.0000 -0.0000 1.0000
vn -1.0000 -0.0000 -0.0000
vn 0.0000 -0.0000 -1.0000
vn 0.9162 0.4006 0.0000
vn -0.9162 -0.4006 -0.0000
vn 0.0000 -0.2798 -0.9601
vn -0.9489 -0.3002 0.0976
vn -0.0222 0.3720 0.9280
vn 0.9429 0.3163 -0.1041
vn 0.0001 0.0000 -1.0000
vn -0.9996 0.0273 -0.0029
vn -0.0057 -0.1031 0.9947
vn 0.9996 -0.0267 0.0029
vn 0.0000 -1.0000 0.0000
vn 0.9994 0.0348 -0.0083
vn 0.0047 -0.1015 0.9948
vn -0.9994 -0.0342 0.0083
vn -0.0036 -0.1331 -0.9911
vn 0.9997 0.0231 0.0051
vn -0.0080 0.1270 0.9919
vn -0.9997 -0.0235 -0.0050
vn 0.0059 0.1131 -0.9936
vn 0.9997 -0.0255 -0.0054
vn 0.0086 0.1274 0.9918
vn -0.9997 0.0249 0.0055
vn -0.0070 0.1124 -0.9936
vn 1.0000 -0.0064 0.0019
vn -0.0000 0.2783 0.9605
vn -0.9999 -0.0101 0.0029
vn 0.0216 -0.3704 -0.9286
vn 0.0041 -0.1335 -0.9910
vn -0.0009 0.0012 -1.0000
vn -0.0045 -0.2828 -0.9592
vn -0.9498 -0.2992 0.0920
vn -0.0102 0.3687 0.9295
vn 0.9442 0.3148 -0.0972
vn 0.0000 -0.0001 -1.0000
vn -0.9997 0.0248 -0.0075
vn -0.0041 -0.1022 0.9948
vn 0.9997 -0.0244 0.0073
s off
f 2/1/1 4/2/1 1/3/1
f 8/4/2 6/5/2 5/6/2
f 5/7/3 2/8/3 1/9/3
f 6/5/4 3/10/4 2/8/4
f 7/11/5 4/12/5 3/10/5
f 1/9/6 8/13/6 5/7/6
f 10/14/7 12/15/7 9/16/7
f 13/17/8 15/18/8 14/19/8
f 18/20/9 20/21/9 17/22/9
f 21/23/10 23/24/10 22/25/10
f 53/26/11 34/27/11 33/28/11
f 54/29/12 35/30/12 34/27/12
f 35/30/13 56/31/13 36/32/13
f 53/26/14 40/33/14 37/34/14
f 26/35/15 28/36/15 25/37/15
f 32/38/16 30/39/16 29/40/16
f 52/41/17 30/42/17 51/43/17
f 30/42/18 50/44/18 51/43/18
f 31/45/19 49/46/19 50/44/19
f 25/47/20 49/48/20 52/41/20
f 34/49/21 36/50/21 33/51/21
f 40/52/22 38/53/22 37/54/22
f 53/26/23 38/53/23 54/29/23
f 54/29/24 39/55/24 55/56/24
f 39/55/25 56/31/25 55/56/25
f 53/26/26 36/57/26 56/58/26
f 42/59/27 44/60/27 41/61/27
f 48/62/28 46/63/28 45/64/28
f 45/65/29 58/66/29 57/67/29
f 58/66/30 47/68/30 59/69/30
f 59/69/31 48/70/31 60/71/31
f 57/67/32 44/72/32 60/73/32
f 29/74/33 49/48/33 32/75/33
f 13/76/34 66/77/34 65/78/34
f 14/79/35 67/80/35 66/77/35
f 15/81/36 68/82/36 67/80/36
f 65/83/37 12/84/37 68/85/37
f 21/86/38 62/87/38 61/88/38
f 22/89/35 63/90/35 62/87/35
f 23/91/39 64/92/39 63/93/39
f 17/94/37 64/95/37 61/88/37
f 57/67/40 48/96/40 45/65/40
f 59/69/41 44/97/41 43/98/41
f 58/66/42 43/98/42 42/99/42
f 41/100/43 58/66/43 42/99/43
f 61/88/37 24/101/37 21/86/37
f 63/93/39 20/102/39 19/103/39
f 18/104/35 63/90/35 19/105/35
f 61/88/38 18/104/38 17/94/38
f 65/83/44 16/106/44 13/107/44
f 67/80/36 12/108/36 11/109/36
f 66/77/35 11/109/35 10/110/35
f 65/78/34 10/110/34 9/111/34
f 27/112/45 49/46/45 28/113/45
f 26/114/46 50/44/46 27/112/46
f 52/41/47 26/114/47 25/47/47
f 2/1/1 3/115/1 4/2/1
f 8/4/2 7/11/2 6/5/2
f 5/7/3 6/5/3 2/8/3
f 6/5/4 7/11/4 3/10/4
f 7/11/5 8/116/5 4/12/5
f 1/9/6 4/117/6 8/13/6
f 10/14/48 11/118/48 12/15/48
f 13/17/8 16/119/8 15/18/8
f 18/20/9 19/120/9 20/21/9
f 21/23/10 24/121/10 23/24/10
f 53/26/49 54/29/49 34/27/49
f 54/29/50 55/56/50 35/30/50
f 35/30/51 55/56/51 56/31/51
f 53/26/52 56/58/52 40/33/52
f 26/35/15 27/122/15 28/36/15
f 32/38/16 31/123/16 30/39/16
f 52/41/53 29/74/53 30/42/53
f 30/42/54 31/45/54 50/44/54
f 31/45/55 32/124/55 49/46/55
f 25/47/56 28/125/56 49/48/56
f 34/49/21 35/126/21 36/50/21
f 40/52/22 39/55/22 38/53/22
f 53/26/57 37/34/57 38/53/57
f 54/29/58 38/53/58 39/55/58
f 39/55/59 40/127/59 56/31/59
f 53/26/60 33/28/60 36/57/60
f 42/59/27 43/128/27 44/60/27
f 48/62/28 47/129/28 46/63/28
f 45/65/61 46/130/61 58/66/61
f 58/66/62 46/130/62 47/68/62
f 59/69/63 47/68/63 48/70/63
f 57/67/64 41/100/64 44/72/64
f 29/74/65 52/41/65 49/48/65
f 13/76/34 14/79/34 66/77/34
f 14/79/35 15/81/35 67/80/35
f 15/81/36 16/131/36 68/82/36
f 65/83/66 9/132/66 12/84/66
f 21/86/38 22/89/38 62/87/38
f 22/89/35 23/133/35 63/90/35
f 23/91/39 24/134/39 64/92/39
f 17/94/37 20/135/37 64/95/37
f 57/67/67 60/73/67 48/96/67
f 59/69/68 60/71/68 44/97/68
f 58/66/69 59/69/69 43/98/69
f 41/100/70 57/67/70 58/66/70
f 61/88/37 64/95/37 24/101/37
f 63/93/39 64/92/39 20/102/39
f 18/104/35 62/87/35 63/90/35
f 61/88/38 62/87/38 18/104/38
f 65/83/71 68/85/71 16/106/71
f 67/80/36 68/82/36 12/108/36
f 66/77/35 67/80/35 11/109/35
f 65/78/34 66/77/34 10/110/34
f 27/112/72 50/44/72 49/46/72
f 26/114/73 51/43/73 50/44/73
f 52/41/74 51/43/74 26/114/74
