# Blender v2.90.1 OBJ File: 'minecraft-character.blend'
# www.blender.org
o model_mesh
v 0.426659 2.615928 -0.368926
v 0.371155 2.549530 0.426379
v -0.426857 2.544339 0.370253
v -0.371353 2.610737 -0.425052
v 0.416841 3.413151 -0.303054
v 0.361336 3.346753 0.492252
v -0.436675 3.341562 0.436126
v -0.381172 3.407960 -0.359180
v 0.400017 1.370755 -0.200522
v 0.400000 1.372261 0.200000
v -0.400000 1.372261 0.200000
v -0.400000 1.372261 -0.200000
v 0.400000 2.572260 -0.200000
v 0.400000 2.572260 0.200000
v -0.400000 2.572260 0.200000
v -0.399994 2.572255 -0.200031
v 1.087989 1.493820 -0.200000
v 1.087989 1.493820 0.200000
v 0.701879 1.389326 0.200000
v 0.701879 1.389326 -0.200000
v 0.774509 2.652151 -0.200000
v 0.774509 2.652151 0.200000
v 0.388399 2.547657 0.200000
v 0.388399 2.547657 -0.200000
v 0.396812 0.183871 -0.197218
v 0.395489 0.157218 0.201891
v -0.004459 0.163639 0.200993
v -0.003135 0.190292 -0.198116
v 0.398300 1.355890 -0.206126
v 0.396331 1.390516 0.192368
v -0.003620 1.384466 0.190918
v -0.001652 1.349840 -0.207576
v 0.002972 0.191731 -0.197884
v 0.004451 0.165213 0.201234
v -0.395446 0.156205 0.202117
v -0.396926 0.182724 -0.197000
v -0.001749 1.349896 -0.207624
v 0.000383 1.384512 0.190870
v -0.399560 1.391064 0.192440
v -0.401692 1.356447 -0.206053
v -0.275514 1.403994 0.032119
v -0.279312 1.499686 0.420485
v -0.670860 1.419461 0.436423
v -0.667062 1.323770 0.048056
v -0.400161 2.534584 -0.213621
v -0.400161 2.606856 0.179796
v -0.800161 2.606856 0.179796
v -0.800161 2.534584 -0.213621
v 0.006808 0.769830 -0.156807
v 0.005147 0.774508 0.241947
v 0.405096 0.774322 0.243121
v 0.406743 0.770326 -0.155679
v -0.010879 0.771243 -0.156860
v -0.009073 0.775295 0.241946
v -0.408994 0.774064 0.243173
v -0.410799 0.770015 -0.155633
v -0.399115 1.959234 -0.107371
v -0.401010 2.043068 0.283547
v -0.796789 2.003103 0.291490
v -0.794889 1.919121 -0.099402
v 0.931249 2.072986 -0.200000
v 0.931249 2.072985 0.200000
v 0.545139 1.968492 0.200000
v 0.545139 1.968492 -0.200000
v 0.400000 1.972261 -0.200000
v 0.400000 1.972261 0.200000
v -0.400000 1.972261 0.200000
v -0.399999 1.972260 -0.200003
vt 0.375000 0.875000
vt 0.250000 1.000000
vt 0.375000 1.000000
vt 0.125000 1.000000
vt 0.250000 0.875000
vt 0.250000 1.000000
vt 0.375000 0.874982
vt 0.250000 0.749982
vt 0.375000 0.749982
vt 0.125000 0.875000
vt 0.125000 0.750000
vt 0.000000 0.750000
vt 0.500000 0.875000
vt 0.437500 0.750000
vt 0.562500 0.687500
vt 0.437500 0.687500
vt 0.437500 0.687500
vt 0.312500 0.750000
vt 0.437500 0.750000
vt 0.625000 0.187500
vt 0.687500 0.250000
vt 0.687500 0.187500
vt 0.562500 0.187500
vt 0.625000 0.250000
vt 0.562500 0.250000
vt 0.187500 0.593750
vt 0.125000 0.500000
vt 0.187500 0.500000
vt 0.125000 0.593750
vt 0.062500 0.500000
vt 0.000000 0.593750
vt -0.000000 0.500000
vt 0.250000 0.687500
vt 0.187500 0.687500
vt 0.375000 0.250000
vt 0.437500 0.187500
vt 0.437500 0.250000
vt 0.375000 0.187500
vt 0.312500 0.250000
vt 0.312500 0.187500
vt 0.437500 0.093750
vt 0.375000 0.187500
vt 0.375000 0.093750
vt 0.312500 0.093750
vt 0.312500 0.187500
vt 0.250000 0.093750
vt 0.437500 -0.000000
vt 0.500000 0.093750
vt 0.125000 0.750000
vt 0.187500 0.687500
vt 0.187500 0.750000
vt 0.125000 0.750000
vt 0.062500 0.687500
vt 0.125000 0.687500
vt 0.062500 0.593750
vt 0.250000 0.500000
vt 0.250000 0.593750
vt 0.812569 0.750000
vt 0.750070 0.687500
vt 0.812569 0.687500
vt 0.750000 0.687500
vt 0.687500 0.750000
vt 0.687500 0.687500
vt 0.812500 0.687500
vt 0.750000 0.593750
vt 0.812500 0.593750
vt 0.687500 0.687500
vt 0.687500 0.593750
vt 0.625000 0.687500
vt 0.625000 0.593750
vt 0.875000 0.500000
vt 0.875000 0.593750
vt 0.437500 0.187500
vt 0.500000 0.187500
vt 0.250000 0.687500
vt 0.312500 0.593750
vt 0.250000 0.593750
vt 0.312500 0.687500
vt 0.437500 0.593750
vt 0.437500 0.687500
vt 0.500000 0.593750
vt 0.500000 0.593750
vt 0.625000 0.500000
vt 0.625000 0.593750
vt 0.687500 0.187500
vt 0.625000 0.093750
vt 0.687500 0.093750
vt 0.625000 0.187500
vt 0.562500 0.093750
vt 0.500000 0.187500
vt 0.562500 0.093750
vt 0.500000 0.093750
vt 0.687500 0.000000
vt 0.750000 0.093750
vt 0.875000 0.687500
vt 0.625000 0.500000
vt 0.687500 0.500000
vt 0.750000 0.500000
vt 0.812500 0.500000
vt 0.750000 0.187500
vt 0.562500 0.000000
vt 0.500000 0.000000
vt 0.562500 0.000000
vt 0.625000 0.000000
vt 0.625000 0.687500
vt 0.500000 0.687500
vt 0.500000 0.500000
vt 0.437500 0.500000
vt 0.312500 0.500000
vt 0.250000 0.500000
vt 0.312500 -0.000000
vt 0.250000 -0.000000
vt 0.375000 -0.000000
vt 0.250000 0.875000
vt 0.000000 0.875000
vt 0.500000 0.750000
vt 0.562500 0.750000
vt 0.312500 0.687500
vt 0.625000 0.250000
vt 0.625000 0.187500
vt 0.375000 0.187500
vt 0.375000 0.250000
vt 0.250000 0.187500
vt 0.500000 -0.000000
vt 0.125000 0.687500
vt 0.062500 0.750000
vt 0.000000 0.687500
vt 0.750069 0.750000
vt 0.750000 0.750000
vt 0.750000 0.687500
vt 0.500000 0.687500
vt 0.500000 0.500000
vt 0.562500 0.187500
vt 0.562500 0.187500
vt 0.750000 0.000000
vn 0.0123 -0.9965 -0.0823
vn -0.0123 0.9965 0.0823
vn 0.9975 0.0065 0.0702
vn -0.0694 -0.0830 0.9941
vn -0.9975 -0.0065 -0.0702
vn 0.0694 0.0830 -0.9941
vn -0.0019 -1.0000 0.0038
vn 0.0000 1.0000 -0.0000
vn 0.2612 -0.9653 0.0000
vn -0.2612 0.9653 0.0000
vn 0.9997 0.0240 -0.0021
vn 0.0037 -0.0665 0.9978
vn -0.9997 -0.0238 0.0021
vn -0.0053 -0.0873 -0.9962
vn -0.0159 -0.9976 -0.0667
vn -0.0148 0.9961 -0.0866
vn 0.9999 0.0146 0.0040
vn -0.0029 0.0820 0.9966
vn -0.9999 -0.0147 -0.0040
vn 0.0027 0.0706 -0.9975
vn 0.0223 -0.9975 -0.0664
vn 0.0160 0.9961 -0.0866
vn 0.9999 -0.0159 -0.0044
vn 0.0028 0.0819 0.9966
vn -0.9999 0.0156 0.0044
vn -0.0033 0.0702 -0.9975
vn 0.2043 -0.9500 0.2361
vn 0.0000 0.9835 -0.1807
vn 1.0000 0.0026 0.0043
vn 0.0014 0.1819 0.9833
vn -1.0000 -0.0091 -0.0029
vn 0.0047 -0.2395 -0.9709
vn 0.0049 -0.0871 -0.9962
vn 1.0000 -0.0000 0.0000
vn 0.0000 -0.0000 1.0000
vn -1.0000 0.0000 -0.0000
vn 0.0000 -0.0000 -1.0000
vn 0.9653 0.2612 0.0000
vn -0.9653 -0.2612 -0.0000
vn 0.0000 -0.1816 -0.9834
vn -0.9787 -0.2012 0.0400
vn -0.0101 0.2422 0.9702
vn 0.9772 0.2083 -0.0418
vn -0.9998 0.0173 -0.0022
vn -0.0033 -0.0668 0.9978
vn 0.9999 -0.0171 0.0022
vn 0.0000 -1.0000 0.0000
vn 0.9997 0.0225 -0.0048
vn 0.0033 -0.0662 0.9978
vn -0.9997 -0.0222 0.0048
vn -0.0028 -0.0856 -0.9963
vn 0.9999 0.0147 0.0037
vn -0.0049 0.0833 0.9965
vn -0.9999 -0.0149 -0.0036
vn 0.0034 0.0710 -0.9975
vn 0.9999 -0.0161 -0.0039
vn 0.0053 0.0835 0.9965
vn -0.9999 0.0159 0.0040
vn -0.0038 0.0705 -0.9975
vn 1.0000 -0.0015 0.0003
vn -0.0000 0.1810 0.9835
vn -1.0000 -0.0054 0.0010
vn 0.0100 -0.2415 -0.9703
vn 0.0029 -0.0858 -0.9963
vn -0.0007 0.0009 -1.0000
vn -0.0013 -0.1825 -0.9832
vn -0.9789 -0.2007 0.0384
vn -0.0048 0.2400 0.9708
vn 0.9774 0.2076 -0.0398
vn -0.9999 0.0160 -0.0044
vn -0.0030 -0.0666 0.9978
vn 0.9999 -0.0159 0.0043
s off
f 2/1/1 4/2/1 1/3/1
f 8/4/2 6/5/2 5/6/2
f 5/7/3 2/8/3 1/9/3
f 2/8/4 7/10/4 3/11/4
f 7/10/5 4/12/5 3/11/5
f 1/9/6 8/13/6 5/7/6
f 10/14/7 12/15/7 9/16/7
f 13/17/8 15/18/8 14/19/8
f 18/20/9 20/21/9 17/22/9
f 21/23/10 23/24/10 22/25/10
f 53/26/11 34/27/11 33/28/11
f 54/29/12 35/30/12 34/27/12
f 35/30/13 56/31/13 36/32/13
f 53/26/14 40/33/14 37/34/14
f 25/35/15 27/36/15 28/37/15
f 29/38/16 31/39/16 30/40/16
f 52/41/17 30/42/17 51/43/17
f 30/42/18 50/44/18 51/43/18
f 31/45/19 49/46/19 50/44/19
f 25/47/20 49/48/20 52/41/20
f 34/49/21 36/50/21 33/51/21
f 37/52/22 39/53/22 38/54/22
f 53/26/23 38/54/23 54/29/23
f 54/29/24 39/53/24 55/55/24
f 39/53/25 56/31/25 55/55/25
f 53/26/26 36/56/26 56/57/26
f 42/58/27 44/59/27 41/60/27
f 45/61/28 47/62/28 46/63/28
f 45/64/29 58/65/29 57/66/29
f 58/65/30 47/67/30 59/68/30
f 59/68/31 48/69/31 60/70/31
f 57/66/32 44/71/32 60/72/32
f 29/73/33 49/48/33 32/74/33
f 13/75/34 66/76/34 65/77/34
f 14/78/35 67/79/35 66/76/35
f 15/80/36 68/81/36 67/79/36
f 65/82/37 12/83/37 68/84/37
f 21/85/38 62/86/38 61/87/38
f 22/88/35 63/89/35 62/86/35
f 23/90/39 64/91/39 63/92/39
f 17/93/37 64/94/37 61/87/37
f 57/66/40 48/95/40 45/64/40
f 59/68/41 44/96/41 43/97/41
f 58/65/42 43/97/42 42/98/42
f 41/99/43 58/65/43 42/98/43
f 61/87/37 24/100/37 21/85/37
f 63/92/39 20/101/39 19/102/39
f 62/86/35 19/103/35 18/104/35
f 17/93/38 62/86/38 18/104/38
f 65/82/37 16/105/37 13/106/37
f 67/79/36 12/107/36 11/108/36
f 66/76/35 11/108/35 10/109/35
f 65/77/34 10/109/34 9/110/34
f 27/111/44 49/46/44 28/112/44
f 26/113/45 50/44/45 27/111/45
f 52/41/46 26/113/46 25/47/46
f 2/1/1 3/114/1 4/2/1
f 8/4/2 7/10/2 6/5/2
f 5/7/3 6/5/3 2/8/3
f 2/8/4 6/5/4 7/10/4
f 7/10/5 8/115/5 4/12/5
f 1/9/6 4/116/6 8/13/6
f 10/14/47 11/117/47 12/15/47
f 13/17/8 16/118/8 15/18/8
f 18/20/9 19/119/9 20/21/9
f 21/23/10 24/120/10 23/24/10
f 53/26/48 54/29/48 34/27/48
f 54/29/49 55/55/49 35/30/49
f 35/30/50 55/55/50 56/31/50
f 53/26/51 56/57/51 40/33/51
f 25/35/15 26/121/15 27/36/15
f 29/38/16 32/122/16 31/39/16
f 52/41/52 29/73/52 30/42/52
f 30/42/53 31/45/53 50/44/53
f 31/45/54 32/123/54 49/46/54
f 25/47/55 28/124/55 49/48/55
f 34/49/21 35/125/21 36/50/21
f 37/52/22 40/126/22 39/53/22
f 53/26/56 37/34/56 38/54/56
f 54/29/57 38/54/57 39/53/57
f 39/53/58 40/127/58 56/31/58
f 53/26/59 33/28/59 36/56/59
f 42/58/27 43/128/27 44/59/27
f 45/61/28 48/129/28 47/62/28
f 45/64/60 46/130/60 58/65/60
f 58/65/61 46/130/61 47/67/61
f 59/68/62 47/67/62 48/69/62
f 57/66/63 41/99/63 44/71/63
f 29/73/64 52/41/64 49/48/64
f 13/75/34 14/78/34 66/76/34
f 14/78/35 15/80/35 67/79/35
f 15/80/36 16/131/36 68/81/36
f 65/82/65 9/132/65 12/83/65
f 21/85/38 22/88/38 62/86/38
f 22/88/35 23/133/35 63/89/35
f 23/90/39 24/134/39 64/91/39
f 17/93/37 20/135/37 64/94/37
f 57/66/66 60/72/66 48/95/66
f 59/68/67 60/70/67 44/96/67
f 58/65/68 59/68/68 43/97/68
f 41/99/69 57/66/69 58/65/69
f 61/87/37 64/94/37 24/100/37
f 63/92/39 64/91/39 20/101/39
f 62/86/35 63/89/35 19/103/35
f 17/93/38 61/87/38 62/86/38
f 65/82/37 68/84/37 16/105/37
f 67/79/36 68/81/36 12/107/36
f 66/76/35 67/79/35 11/108/35
f 65/77/34 66/76/34 10/109/34
f 27/111/70 50/44/70 49/46/70
f 26/113/71 51/43/71 50/44/71
f 52/41/72 51/43/72 26/113/72
