# Blender v2.90.1 OBJ File: 'minecraft-character.blend'
# www.blender.org
o model_mesh
v 0.406900 2.604140 -0.392684
v 0.392935 2.587553 0.407022
v -0.406941 2.585818 0.393018
v -0.392975 2.602405 -0.406689
v 0.404875 3.403967 -0.376130
v 0.390909 3.387380 0.423576
v -0.408966 3.385644 0.409572
v -0.395001 3.402231 -0.390134
v 0.400007 1.386707 -0.200143
v 0.400000 1.387080 0.200000
v -0.400000 1.387080 0.200000
v -0.400000 1.387080 -0.200000
v 0.400000 2.587080 -0.200000
v 0.400000 2.587080 0.200000
v -0.400000 2.587080 0.200000
v -0.399999 2.587079 -0.200008
v 0.874636 1.410187 -0.200000
v 0.874636 1.410186 0.200000
v 0.475484 1.384153 0.200000
v 0.475484 1.384153 -0.200000
v 0.796537 2.607643 -0.200000
v 0.796537 2.607643 0.200000
v 0.397385 2.581610 0.200000
v 0.397385 2.581610 -0.200000
v 0.398198 0.187943 -0.199034
v 0.397919 0.181402 0.200913
v -0.002078 0.182997 0.200660
v -0.001799 0.189538 -0.199287
v 0.398549 1.381680 -0.201543
v 0.398104 1.390371 0.198362
v -0.001893 1.388867 0.197950
v -0.001448 1.380175 -0.201956
v -0.000800 0.190062 -0.199205
v -0.000516 0.183558 0.200742
v -0.400510 0.181321 0.200989
v -0.400794 0.187825 -0.198958
v -0.001971 1.380372 -0.201956
v -0.001489 1.389061 0.197950
v -0.401485 1.390690 0.198396
v -0.401967 1.382000 -0.201509
v -0.368808 1.387720 -0.141151
v -0.369282 1.411602 0.258136
v -0.768772 1.391428 0.258869
v -0.768298 1.367547 -0.140418
v -0.400161 2.578010 -0.203999
v -0.400161 2.595962 0.195598
v -0.800161 2.595962 0.195597
v -0.800161 2.578010 -0.203999
v 0.000694 0.784715 -0.189184
v 0.000328 0.785962 0.210732
v 0.400325 0.785917 0.211064
v 0.400687 0.784839 -0.188861
v -0.004274 0.785245 -0.189183
v -0.003891 0.786339 0.210743
v -0.403886 0.786034 0.211090
v -0.404269 0.784941 -0.188836
v -0.399620 1.982249 -0.177017
v -0.399859 2.003130 0.222425
v -0.799602 1.993080 0.222791
v -0.799365 1.972163 -0.176651
v 0.835586 2.008915 -0.200000
v 0.835586 2.008915 0.200000
v 0.436434 1.982881 0.200000
v 0.436435 1.982881 -0.200000
v 0.400000 1.987080 -0.200000
v 0.400000 1.987080 0.200000
v -0.400000 1.987080 0.200000
v -0.400000 1.987080 -0.200001
vt 0.375000 1.000000
vt 0.250000 0.875000
vt 0.250000 1.000000
vt 0.250000 1.000000
vt 0.125000 0.875000
vt 0.250000 0.875000
vt 0.375000 0.874982
vt 0.250000 0.749982
vt 0.375000 0.749982
vt 0.125000 0.750000
vt 0.000000 0.750000
vt 0.500000 0.875000
vt 0.437500 0.750000
vt 0.562500 0.687500
vt 0.437500 0.687500
vt 0.437500 0.687500
vt 0.312500 0.750000
vt 0.437500 0.750000
vt 0.687500 0.187500
vt 0.625000 0.250000
vt 0.687500 0.250000
vt 0.562500 0.187500
vt 0.625000 0.250000
vt 0.562500 0.250000
vt 0.187500 0.593750
vt 0.125000 0.500000
vt 0.187500 0.500000
vt 0.125000 0.593750
vt 0.062500 0.500000
vt 0.000000 0.593750
vt -0.000000 0.500000
vt 0.250000 0.687500
vt 0.187500 0.687500
vt 0.375000 0.250000
vt 0.437500 0.187500
vt 0.437500 0.250000
vt 0.375000 0.187500
vt 0.312500 0.250000
vt 0.312500 0.187500
vt 0.437500 0.093750
vt 0.375000 0.187500
vt 0.375000 0.093750
vt 0.312500 0.093750
vt 0.312500 0.187500
vt 0.250000 0.093750
vt 0.437500 -0.000000
vt 0.500000 0.093750
vt 0.125000 0.750000
vt 0.187500 0.687500
vt 0.187500 0.750000
vt 0.062500 0.750000
vt 0.125000 0.687500
vt 0.125000 0.750000
vt 0.062500 0.687500
vt 0.062500 0.593750
vt 0.250000 0.500000
vt 0.250000 0.593750
vt 0.812569 0.687500
vt 0.750069 0.750000
vt 0.750070 0.687500
vt 0.750000 0.750000
vt 0.687500 0.687500
vt 0.750000 0.687500
vt 0.812500 0.687500
vt 0.750000 0.593750
vt 0.812500 0.593750
vt 0.687500 0.687500
vt 0.687500 0.593750
vt 0.625000 0.687500
vt 0.625000 0.593750
vt 0.875000 0.500000
vt 0.875000 0.593750
vt 0.437500 0.187500
vt 0.500000 0.187500
vt 0.250000 0.687500
vt 0.312500 0.593750
vt 0.250000 0.593750
vt 0.312500 0.687500
vt 0.437500 0.593750
vt 0.437500 0.687500
vt 0.500000 0.593750
vt 0.500000 0.593750
vt 0.625000 0.500000
vt 0.625000 0.593750
vt 0.687500 0.187500
vt 0.625000 0.093750
vt 0.687500 0.093750
vt 0.625000 0.187500
vt 0.562500 0.093750
vt 0.500000 0.093750
vt 0.562500 0.187500
vt 0.562500 0.093750
vt 0.687500 0.000000
vt 0.750000 0.093750
vt 0.875000 0.687500
vt 0.625000 0.500000
vt 0.687500 0.500000
vt 0.750000 0.500000
vt 0.812500 0.500000
vt 0.750000 0.187500
vt 0.562500 0.000000
vt 0.500000 0.000000
vt 0.562500 0.000000
vt 0.625000 0.000000
vt 0.625000 0.687500
vt 0.500000 0.687500
vt 0.500000 0.500000
vt 0.437500 0.500000
vt 0.312500 0.500000
vt 0.250000 0.500000
vt 0.312500 -0.000000
vt 0.250000 -0.000000
vt 0.375000 -0.000000
vt 0.375000 0.875000
vt 0.125000 1.000000
vt 0.000000 0.875000
vt 0.500000 0.750000
vt 0.562500 0.750000
vt 0.312500 0.687500
vt 0.625000 0.187500
vt 0.625000 0.187500
vt 0.375000 0.187500
vt 0.375000 0.250000
vt 0.250000 0.187500
vt 0.500000 -0.000000
vt 0.125000 0.687500
vt 0.000000 0.687500
vt 0.812569 0.750000
vt 0.687500 0.750000
vt 0.750000 0.687500
vt 0.500000 0.687500
vt 0.500000 0.500000
vt 0.562500 0.187500
vt 0.500000 0.187500
vt 0.750000 0.000000
vn 0.0025 -0.9998 -0.0207
vn -0.0025 0.9998 0.0207
vn 0.9998 0.0022 0.0175
vn -0.0175 -0.0207 0.9996
vn -0.9998 -0.0022 -0.0175
vn 0.0175 0.0207 -0.9996
vn -0.0005 -1.0000 0.0009
vn 0.0000 1.0000 0.0000
vn 0.0651 -0.9979 0.0000
vn -0.0651 0.9979 0.0000
vn 1.0000 0.0058 -0.0006
vn 0.0007 -0.0166 0.9999
vn -1.0000 -0.0058 0.0006
vn -0.0012 -0.0215 -0.9998
vn -0.0040 -0.9999 -0.0164
vn -0.0037 0.9998 -0.0217
vn 1.0000 0.0037 0.0009
vn -0.0008 0.0210 0.9998
vn -1.0000 -0.0037 -0.0009
vn 0.0008 0.0170 -0.9999
vn 0.0056 -0.9999 -0.0163
vn 0.0040 0.9998 -0.0217
vn 1.0000 -0.0040 -0.0009
vn 0.0009 0.0210 0.9998
vn -1.0000 0.0040 0.0009
vn -0.0009 0.0169 -0.9999
vn 0.0505 -0.9969 0.0597
vn 0.0000 0.9990 -0.0449
vn 1.0000 0.0009 0.0005
vn -0.0002 0.0451 0.9990
vn -1.0000 -0.0013 -0.0005
vn 0.0006 -0.0598 -0.9982
vn 0.0011 -0.0214 -0.9998
vn 1.0000 -0.0000 0.0000
vn -0.0000 -0.0000 1.0000
vn -1.0000 -0.0000 -0.0000
vn 0.0000 -0.0000 -1.0000
vn 0.9979 0.0651 0.0000
vn -0.9979 -0.0651 -0.0000
vn 0.0000 -0.0452 -0.9990
vn -0.9987 -0.0511 0.0019
vn -0.0012 0.0602 0.9982
vn 0.9987 0.0515 -0.0019
vn -1.0000 0.0042 -0.0006
vn -0.0007 -0.0167 0.9999
vn 1.0000 -0.0042 0.0006
vn 0.0000 -1.0000 -0.0000
vn 1.0000 0.0056 -0.0010
vn 0.0009 -0.0167 0.9999
vn -1.0000 -0.0056 0.0010
vn -0.0009 -0.0212 -0.9998
vn 1.0000 0.0036 0.0010
vn -0.0011 0.0212 0.9998
vn -1.0000 -0.0036 -0.0010
vn 0.0007 0.0170 -0.9999
vn 1.0000 -0.0039 -0.0011
vn 0.0012 0.0212 0.9998
vn -1.0000 0.0039 0.0011
vn -0.0007 0.0168 -0.9999
vn 1.0000 0.0005 -0.0000
vn -0.0000 0.0452 0.9990
vn -1.0000 -0.0009 0.0000
vn 0.0012 -0.0602 -0.9982
vn 0.0008 -0.0212 -0.9998
vn -0.0002 0.0002 -1.0000
vn 0.0002 -0.0451 -0.9990
vn -0.9987 -0.0512 0.0021
vn -0.0006 0.0598 0.9982
vn 0.9987 0.0516 -0.0021
vn -1.0000 0.0040 -0.0009
vn -0.0008 -0.0168 0.9999
vn 1.0000 -0.0040 0.0009
s off
f 1/1/1 3/2/1 4/3/1
f 5/4/2 7/5/2 6/6/2
f 5/7/3 2/8/3 1/9/3
f 6/6/4 3/10/4 2/8/4
f 7/5/5 4/11/5 3/10/5
f 1/9/6 8/12/6 5/7/6
f 10/13/7 12/14/7 9/15/7
f 13/16/8 15/17/8 14/18/8
f 17/19/9 19/20/9 20/21/9
f 21/22/10 23/23/10 22/24/10
f 53/25/11 34/26/11 33/27/11
f 54/28/12 35/29/12 34/26/12
f 35/29/13 56/30/13 36/31/13
f 53/25/14 40/32/14 37/33/14
f 25/34/15 27/35/15 28/36/15
f 29/37/16 31/38/16 30/39/16
f 52/40/17 30/41/17 51/42/17
f 30/41/18 50/43/18 51/42/18
f 31/44/19 49/45/19 50/43/19
f 25/46/20 49/47/20 52/40/20
f 34/48/21 36/49/21 33/50/21
f 40/51/22 38/52/22 37/53/22
f 53/25/23 38/52/23 54/28/23
f 54/28/24 39/54/24 55/55/24
f 39/54/25 56/30/25 55/55/25
f 53/25/26 36/56/26 56/57/26
f 41/58/27 43/59/27 44/60/27
f 48/61/28 46/62/28 45/63/28
f 45/64/29 58/65/29 57/66/29
f 58/65/30 47/67/30 59/68/30
f 59/68/31 48/69/31 60/70/31
f 57/66/32 44/71/32 60/72/32
f 29/73/33 49/47/33 32/74/33
f 13/75/34 66/76/34 65/77/34
f 14/78/35 67/79/35 66/76/35
f 15/80/36 68/81/36 67/79/36
f 65/82/37 12/83/37 68/84/37
f 21/85/38 62/86/38 61/87/38
f 22/88/35 63/89/35 62/86/35
f 63/90/39 24/91/39 64/92/39
f 17/93/37 64/94/37 61/87/37
f 57/66/40 48/95/40 45/64/40
f 59/68/41 44/96/41 43/97/41
f 58/65/42 43/97/42 42/98/42
f 41/99/43 58/65/43 42/98/43
f 61/87/37 24/100/37 21/85/37
f 63/90/39 20/101/39 19/102/39
f 62/86/35 19/103/35 18/104/35
f 17/93/38 62/86/38 18/104/38
f 65/82/37 16/105/37 13/106/37
f 67/79/36 12/107/36 11/108/36
f 66/76/35 11/108/35 10/109/35
f 65/77/34 10/109/34 9/110/34
f 27/111/44 49/45/44 28/112/44
f 26/113/45 50/43/45 27/111/45
f 52/40/46 26/113/46 25/46/46
f 1/1/1 2/114/1 3/2/1
f 5/4/2 8/115/2 7/5/2
f 5/7/3 6/6/3 2/8/3
f 6/6/4 7/5/4 3/10/4
f 7/5/5 8/116/5 4/11/5
f 1/9/6 4/117/6 8/12/6
f 10/13/47 11/118/47 12/14/47
f 13/16/8 16/119/8 15/17/8
f 17/19/9 18/120/9 19/20/9
f 21/22/10 24/121/10 23/23/10
f 53/25/48 54/28/48 34/26/48
f 54/28/49 55/55/49 35/29/49
f 35/29/50 55/55/50 56/30/50
f 53/25/51 56/57/51 40/32/51
f 25/34/15 26/122/15 27/35/15
f 29/37/16 32/123/16 31/38/16
f 52/40/52 29/73/52 30/41/52
f 30/41/53 31/44/53 50/43/53
f 31/44/54 32/124/54 49/45/54
f 25/46/55 28/125/55 49/47/55
f 34/48/21 35/126/21 36/49/21
f 40/51/22 39/54/22 38/52/22
f 53/25/56 37/33/56 38/52/56
f 54/28/57 38/52/57 39/54/57
f 39/54/58 40/127/58 56/30/58
f 53/25/59 33/27/59 36/56/59
f 41/58/27 42/128/27 43/59/27
f 48/61/28 47/129/28 46/62/28
f 45/64/60 46/130/60 58/65/60
f 58/65/61 46/130/61 47/67/61
f 59/68/62 47/67/62 48/69/62
f 57/66/63 41/99/63 44/71/63
f 29/73/64 52/40/64 49/47/64
f 13/75/34 14/78/34 66/76/34
f 14/78/35 15/80/35 67/79/35
f 15/80/36 16/131/36 68/81/36
f 65/82/65 9/132/65 12/83/65
f 21/85/38 22/88/38 62/86/38
f 22/88/35 23/133/35 63/89/35
f 63/90/39 23/134/39 24/91/39
f 17/93/37 20/135/37 64/94/37
f 57/66/66 60/72/66 48/95/66
f 59/68/67 60/70/67 44/96/67
f 58/65/68 59/68/68 43/97/68
f 41/99/69 57/66/69 58/65/69
f 61/87/37 64/94/37 24/100/37
f 63/90/39 64/92/39 20/101/39
f 62/86/35 63/89/35 19/103/35
f 17/93/38 61/87/38 62/86/38
f 65/82/37 68/84/37 16/105/37
f 67/79/36 68/81/36 12/107/36
f 66/76/35 67/79/35 11/108/35
f 65/77/34 66/76/34 10/109/34
f 27/111/70 50/43/70 49/45/70
f 26/113/71 51/42/71 50/43/71
f 52/40/72 51/42/72 26/113/72
