# Blender v2.90.1 OBJ File: 'minecraft-character.blend'
# www.blender.org
o model_mesh
v 0.401982 2.601166 -0.397946
v 0.397997 2.596441 0.402030
v -0.401993 2.595917 0.398041
v -0.398008 2.600642 -0.401935
v 0.401434 3.401152 -0.393224
v 0.397449 3.396427 0.406752
v -0.402541 3.395902 0.402764
v -0.398556 3.400628 -0.397212
v 0.400002 1.390535 -0.200042
v 0.400000 1.390640 0.200000
v -0.400000 1.390640 0.200000
v -0.400000 1.390640 -0.200000
v 0.400000 2.590641 -0.200000
v 0.400000 2.590641 0.200000
v -0.400000 2.590641 0.200000
v -0.400000 2.590640 -0.200002
v 0.822664 1.396737 -0.200000
v 0.822664 1.396737 0.200000
v 0.422732 1.389340 0.200000
v 0.422732 1.389340 -0.200000
v 0.800473 2.596532 -0.200000
v 0.800472 2.596532 0.200000
v 0.400541 2.589135 0.200000
v 0.400541 2.589135 -0.200000
v 0.398531 0.189552 -0.199607
v 0.398455 0.187697 0.200389
v -0.001545 0.188151 0.200315
v -0.001469 0.190006 -0.199681
v 0.398629 1.387817 -0.200343
v 0.398505 1.390296 0.199650
v -0.001495 1.389868 0.199529
v -0.001371 1.387389 -0.200464
v -0.001723 0.190327 -0.199644
v -0.001648 0.188483 0.200351
v -0.401647 0.187847 0.200424
v -0.401722 0.189691 -0.199572
v -0.002055 1.387618 -0.200451
v -0.001921 1.390097 0.199541
v -0.401921 1.390560 0.199672
v -0.402055 1.388081 -0.200320
v -0.391229 1.390332 -0.183232
v -0.391332 1.397120 0.216710
v -0.791291 1.391394 0.216704
v -0.791188 1.384605 -0.183239
v -0.400161 2.588082 -0.201178
v -0.400161 2.593184 0.198790
v -0.800161 2.593184 0.198790
v -0.800161 2.588082 -0.201178
v -0.000759 0.788651 -0.196819
v -0.000859 0.789012 0.203173
v 0.399140 0.788999 0.203270
v 0.399240 0.788687 -0.196724
v -0.002713 0.788975 -0.196806
v -0.002608 0.789292 0.203189
v -0.402608 0.789206 0.203290
v -0.402712 0.788889 -0.196704
v -0.399989 1.989157 -0.193470
v -0.400041 1.995092 0.206485
v -0.800020 1.992239 0.206482
v -0.799968 1.986294 -0.193473
v 0.811568 1.996634 -0.200000
v 0.811568 1.996634 0.200000
v 0.411636 1.989237 0.200000
v 0.411637 1.989237 -0.200000
v 0.400000 1.990641 -0.200000
v 0.400000 1.990641 0.200000
v -0.400000 1.990641 0.200000
v -0.400000 1.990641 -0.200000
vt 0.375000 0.875000
vt 0.250000 1.000000
vt 0.375000 1.000000
vt 0.125000 1.000000
vt 0.250000 0.875000
vt 0.250000 1.000000
vt 0.375000 0.874982
vt 0.250000 0.749982
vt 0.375000 0.749982
vt 0.125000 0.750000
vt 0.125000 0.875000
vt 0.000000 0.750000
vt 0.500000 0.875000
vt 0.437500 0.750000
vt 0.562500 0.687500
vt 0.437500 0.687500
vt 0.437500 0.687500
vt 0.312500 0.750000
vt 0.437500 0.750000
vt 0.625000 0.187500
vt 0.687500 0.250000
vt 0.687500 0.187500
vt 0.562500 0.187500
vt 0.625000 0.250000
vt 0.562500 0.250000
vt 0.187500 0.593750
vt 0.125000 0.500000
vt 0.187500 0.500000
vt 0.125000 0.593750
vt 0.062500 0.500000
vt 0.000000 0.593750
vt -0.000000 0.500000
vt 0.250000 0.687500
vt 0.187500 0.687500
vt 0.375000 0.250000
vt 0.437500 0.187500
vt 0.437500 0.250000
vt 0.375000 0.187500
vt 0.312500 0.250000
vt 0.312500 0.187500
vt 0.437500 0.093750
vt 0.375000 0.187500
vt 0.375000 0.093750
vt 0.312500 0.093750
vt 0.312500 0.187500
vt 0.250000 0.093750
vt 0.437500 -0.000000
vt 0.500000 0.093750
vt 0.125000 0.750000
vt 0.187500 0.687500
vt 0.187500 0.750000
vt 0.062500 0.750000
vt 0.125000 0.687500
vt 0.125000 0.750000
vt 0.062500 0.687500
vt 0.062500 0.593750
vt 0.250000 0.500000
vt 0.250000 0.593750
vt 0.812569 0.750000
vt 0.750070 0.687500
vt 0.812569 0.687500
vt 0.750000 0.687500
vt 0.687500 0.750000
vt 0.687500 0.687500
vt 0.812500 0.687500
vt 0.750000 0.593750
vt 0.812500 0.593750
vt 0.687500 0.687500
vt 0.687500 0.593750
vt 0.625000 0.687500
vt 0.625000 0.593750
vt 0.875000 0.500000
vt 0.875000 0.593750
vt 0.437500 0.187500
vt 0.500000 0.187500
vt 0.250000 0.687500
vt 0.312500 0.593750
vt 0.250000 0.593750
vt 0.312500 0.687500
vt 0.437500 0.593750
vt 0.437500 0.687500
vt 0.500000 0.593750
vt 0.500000 0.593750
vt 0.625000 0.500000
vt 0.625000 0.593750
vt 0.687500 0.187500
vt 0.625000 0.093750
vt 0.687500 0.093750
vt 0.625000 0.187500
vt 0.562500 0.093750
vt 0.500000 0.187500
vt 0.562500 0.093750
vt 0.500000 0.093750
vt 0.687500 0.000000
vt 0.750000 0.093750
vt 0.875000 0.687500
vt 0.625000 0.500000
vt 0.687500 0.500000
vt 0.750000 0.500000
vt 0.812500 0.500000
vt 0.750000 0.187500
vt 0.562500 0.000000
vt 0.500000 0.000000
vt 0.562500 0.000000
vt 0.625000 0.000000
vt 0.625000 0.687500
vt 0.500000 0.687500
vt 0.500000 0.500000
vt 0.437500 0.500000
vt 0.312500 0.500000
vt 0.250000 0.500000
vt 0.312500 -0.000000
vt 0.250000 -0.000000
vt 0.375000 -0.000000
vt 0.250000 0.875000
vt 0.000000 0.875000
vt 0.500000 0.750000
vt 0.562500 0.750000
vt 0.312500 0.687500
vt 0.625000 0.250000
vt 0.625000 0.187500
vt 0.375000 0.187500
vt 0.375000 0.250000
vt 0.250000 0.187500
vt 0.500000 -0.000000
vt 0.125000 0.687500
vt 0.000000 0.687500
vt 0.750069 0.750000
vt 0.750000 0.750000
vt 0.750000 0.687500
vt 0.500000 0.687500
vt 0.500000 0.500000
vt 0.562500 0.187500
vt 0.562500 0.187500
vt 0.750000 0.000000
vn 0.0007 -1.0000 -0.0059
vn -0.0007 1.0000 0.0059
vn 1.0000 0.0007 0.0050
vn -0.0050 -0.0059 1.0000
vn -1.0000 -0.0007 -0.0050
vn 0.0050 0.0059 -1.0000
vn -0.0001 -1.0000 0.0003
vn 0.0000 1.0000 0.0000
vn 0.0185 -0.9998 0.0000
vn -0.0185 0.9998 0.0000
vn 1.0000 0.0017 -0.0002
vn 0.0002 -0.0047 1.0000
vn -1.0000 -0.0017 0.0002
vn -0.0003 -0.0061 -1.0000
vn -0.0011 -1.0000 -0.0046
vn -0.0011 1.0000 -0.0062
vn 1.0000 0.0011 0.0002
vn -0.0002 0.0060 1.0000
vn -1.0000 -0.0011 -0.0003
vn 0.0002 0.0048 -1.0000
vn 0.0016 -1.0000 -0.0046
vn 0.0012 1.0000 -0.0062
vn 1.0000 -0.0011 -0.0003
vn 0.0003 0.0060 1.0000
vn -1.0000 0.0011 0.0003
vn -0.0003 0.0048 -1.0000
vn 0.0143 -0.9998 0.0170
vn 0.0000 0.9999 -0.0128
vn 1.0000 0.0003 0.0001
vn -0.0001 0.0128 0.9999
vn -1.0000 -0.0003 -0.0001
vn 0.0001 -0.0170 -0.9999
vn 0.0003 -0.0061 -1.0000
vn 1.0000 -0.0000 0.0000
vn -0.0000 -0.0000 1.0000
vn -1.0000 -0.0000 -0.0000
vn 0.0000 -0.0000 -1.0000
vn 0.9998 0.0185 0.0000
vn -0.9998 -0.0185 -0.0000
vn 0.0000 -0.0129 -0.9999
vn -0.9999 -0.0145 -0.0000
vn -0.0003 0.0171 0.9999
vn 0.9999 0.0146 0.0000
vn -1.0000 0.0012 -0.0002
vn -0.0002 -0.0048 1.0000
vn 1.0000 -0.0012 0.0002
vn 0.0000 -1.0000 -0.0000
vn 1.0000 0.0016 -0.0003
vn 0.0003 -0.0048 1.0000
vn -1.0000 -0.0016 0.0003
vn -0.0003 -0.0060 -1.0000
vn 1.0000 0.0010 0.0003
vn -0.0003 0.0061 1.0000
vn -1.0000 -0.0010 -0.0003
vn 0.0003 0.0061 1.0000
vn -0.0002 0.0047 -1.0000
vn 1.0000 0.0002 -0.0000
vn -0.0000 0.0129 0.9999
vn -1.0000 -0.0002 0.0000
vn 0.0003 -0.0171 -0.9999
vn 0.0002 -0.0060 -1.0000
vn -0.0001 0.0001 -1.0000
vn 0.0001 -0.0128 -0.9999
vn -0.9999 -0.0146 0.0001
vn -0.0001 0.0170 0.9999
vn 0.9999 0.0146 -0.0001
vn -1.0000 0.0011 -0.0003
vn 1.0000 -0.0011 0.0003
s off
f 2/1/1 4/2/1 1/3/1
f 8/4/2 6/5/2 5/6/2
f 5/7/3 2/8/3 1/9/3
f 6/5/4 3/10/4 2/8/4
f 7/11/5 4/12/5 3/10/5
f 1/9/6 8/13/6 5/7/6
f 10/14/7 12/15/7 9/16/7
f 13/17/8 15/18/8 14/19/8
f 18/20/9 20/21/9 17/22/9
f 21/23/10 23/24/10 22/25/10
f 53/26/11 34/27/11 33/28/11
f 54/29/12 35/30/12 34/27/12
f 35/30/13 56/31/13 36/32/13
f 53/26/14 40/33/14 37/34/14
f 25/35/15 27/36/15 28/37/15
f 29/38/16 31/39/16 30/40/16
f 52/41/17 30/42/17 51/43/17
f 30/42/18 50/44/18 51/43/18
f 31/45/19 49/46/19 50/44/19
f 25/47/20 49/48/20 52/41/20
f 34/49/21 36/50/21 33/51/21
f 40/52/22 38/53/22 37/54/22
f 53/26/23 38/53/23 54/29/23
f 54/29/24 39/55/24 55/56/24
f 39/55/25 56/31/25 55/56/25
f 53/26/26 36/57/26 56/58/26
f 42/59/27 44/60/27 41/61/27
f 45/62/28 47/63/28 46/64/28
f 45/65/29 58/66/29 57/67/29
f 58/66/30 47/68/30 59/69/30
f 59/69/31 48/70/31 60/71/31
f 57/67/32 44/72/32 60/73/32
f 29/74/33 49/48/33 32/75/33
f 13/76/34 66/77/34 65/78/34
f 14/79/35 67/80/35 66/77/35
f 15/81/36 68/82/36 67/80/36
f 65/83/37 12/84/37 68/85/37
f 21/86/38 62/87/38 61/88/38
f 22/89/35 63/90/35 62/87/35
f 23/91/39 64/92/39 63/93/39
f 17/94/37 64/95/37 61/88/37
f 57/67/40 48/96/40 45/65/40
f 59/69/41 44/97/41 43/98/41
f 58/66/42 43/98/42 42/99/42
f 41/100/43 58/66/43 42/99/43
f 61/88/37 24/101/37 21/86/37
f 63/93/39 20/102/39 19/103/39
f 62/87/35 19/104/35 18/105/35
f 61/88/38 18/105/38 17/94/38
f 65/83/37 16/106/37 13/107/37
f 67/80/36 12/108/36 11/109/36
f 66/77/35 11/109/35 10/110/35
f 65/78/34 10/110/34 9/111/34
f 27/112/44 49/46/44 28/113/44
f 26/114/45 50/44/45 27/112/45
f 52/41/46 26/114/46 25/47/46
f 2/1/1 3/115/1 4/2/1
f 8/4/2 7/11/2 6/5/2
f 5/7/3 6/5/3 2/8/3
f 6/5/4 7/11/4 3/10/4
f 7/11/5 8/116/5 4/12/5
f 1/9/6 4/117/6 8/13/6
f 10/14/47 11/118/47 12/15/47
f 13/17/8 16/119/8 15/18/8
f 18/20/9 19/120/9 20/21/9
f 21/23/10 24/121/10 23/24/10
f 53/26/48 54/29/48 34/27/48
f 54/29/49 55/56/49 35/30/49
f 35/30/50 55/56/50 56/31/50
f 53/26/51 56/58/51 40/33/51
f 25/35/15 26/122/15 27/36/15
f 29/38/16 32/123/16 31/39/16
f 52/41/52 29/74/52 30/42/52
f 30/42/53 31/45/53 50/44/53
f 31/45/54 32/124/54 49/46/54
f 25/47/20 28/125/20 49/48/20
f 34/49/21 35/126/21 36/50/21
f 40/52/22 39/55/22 38/53/22
f 53/26/23 37/34/23 38/53/23
f 54/29/55 38/53/55 39/55/55
f 39/55/25 40/127/25 56/31/25
f 53/26/56 33/28/56 36/57/56
f 42/59/27 43/128/27 44/60/27
f 45/62/28 48/129/28 47/63/28
f 45/65/57 46/130/57 58/66/57
f 58/66/58 46/130/58 47/68/58
f 59/69/59 47/68/59 48/70/59
f 57/67/60 41/100/60 44/72/60
f 29/74/61 52/41/61 49/48/61
f 13/76/34 14/79/34 66/77/34
f 14/79/35 15/81/35 67/80/35
f 15/81/36 16/131/36 68/82/36
f 65/83/62 9/132/62 12/84/62
f 21/86/38 22/89/38 62/87/38
f 22/89/35 23/133/35 63/90/35
f 23/91/39 24/134/39 64/92/39
f 17/94/37 20/135/37 64/95/37
f 57/67/63 60/73/63 48/96/63
f 59/69/64 60/71/64 44/97/64
f 58/66/65 59/69/65 43/98/65
f 41/100/66 57/67/66 58/66/66
f 61/88/37 64/95/37 24/101/37
f 63/93/39 64/92/39 20/102/39
f 62/87/35 63/90/35 19/104/35
f 61/88/38 62/87/38 18/105/38
f 65/83/37 68/85/37 16/106/37
f 67/80/36 68/82/36 12/108/36
f 66/77/35 67/80/35 11/109/35
f 65/78/34 66/77/34 10/110/34
f 27/112/67 50/44/67 49/46/67
f 26/114/45 51/43/45 50/44/45
f 52/41/68 51/43/68 26/114/68
