# Blender v2.90.1 OBJ File: 'minecraft-character.blend'
# www.blender.org
o model_mesh
v 0.513020 2.652403 -0.163307
v 0.219882 2.284501 0.483778
v -0.515360 2.319095 0.170372
v -0.222221 2.686996 -0.476713
v 0.396873 3.361946 0.187490
v 0.103735 2.994045 0.834575
v -0.631506 3.028638 0.521168
v -0.338368 3.396539 -0.125917
v 0.399733 1.269735 -0.201150
v 0.400000 1.278759 0.200000
v -0.400000 1.278759 0.200000
v -0.400000 1.278759 -0.200000
v 0.400000 2.478759 -0.200000
v 0.400000 2.478759 0.200000
v -0.400000 2.478759 0.200000
v -0.399972 2.478691 -0.200169
v 1.706686 2.780248 -0.200000
v 1.706686 2.780248 0.200000
v 1.712768 2.380295 0.200000
v 1.712768 2.380295 -0.200000
v 0.506825 2.762002 -0.200000
v 0.506825 2.762002 0.200000
v 0.512907 2.362048 0.200000
v 0.512907 2.362048 -0.200000
v 0.392982 0.251896 -0.189001
v 0.378468 0.094814 0.178579
v -0.019949 0.130366 0.178039
v -0.005435 0.287447 -0.189540
v 0.399945 1.188130 -0.217826
v 0.382028 1.379402 0.133022
v -0.016393 1.343915 0.132022
v 0.001524 1.152643 -0.218826
v 0.015967 0.296554 -0.189335
v 0.036222 0.140165 0.178268
v -0.360616 0.089975 0.178783
v -0.380872 0.246364 -0.188821
v -0.005223 1.151767 -0.218958
v 0.014178 1.342897 0.131888
v -0.383971 1.381323 0.132971
v -0.403371 1.190193 -0.217875
v 0.079118 2.100593 0.430562
v -0.006566 2.482137 0.514716
v -0.135755 2.373161 0.877256
v -0.050070 1.991617 0.793101
v -0.400161 2.252440 -0.176491
v -0.400161 2.605692 0.011159
v -0.800161 2.605692 0.011159
v -0.800161 2.252440 -0.176491
v 0.045454 0.728602 0.058628
v 0.029159 0.749617 0.417423
v 0.427578 0.749585 0.418192
v 0.443795 0.732438 0.058987
v -0.053961 0.735747 0.058206
v -0.034133 0.753135 0.417432
v -0.431626 0.747236 0.418229
v -0.451455 0.729863 0.059005
v -0.437076 1.997918 0.282046
v -0.479475 2.365088 0.418633
v -0.744512 2.310829 0.599218
v -0.701670 1.943430 0.463315
v 1.106755 2.771125 -0.200000
v 1.106755 2.771125 0.200000
v 1.112838 2.371171 0.200000
v 1.112837 2.371171 -0.200000
v 0.400000 1.878759 -0.200000
v 0.400000 1.878759 0.199999
v -0.400000 1.878759 0.200000
v -0.399997 1.878749 -0.200017
vt 0.375000 0.875000
vt 0.250000 1.000000
vt 0.375000 1.000000
vt 0.250000 1.000000
vt 0.125000 0.875000
vt 0.250000 0.875000
vt 0.375000 0.874982
vt 0.250000 0.749982
vt 0.375000 0.749982
vt 0.125000 0.750000
vt 0.000000 0.750000
vt 0.500000 0.875000
vt 0.437500 0.750000
vt 0.562500 0.687500
vt 0.437500 0.687500
vt 0.437500 0.687500
vt 0.312500 0.750000
vt 0.437500 0.750000
vt 0.625000 0.187500
vt 0.687500 0.250000
vt 0.687500 0.187500
vt 0.562500 0.187500
vt 0.625000 0.250000
vt 0.562500 0.250000
vt 0.187500 0.593750
vt 0.125000 0.500000
vt 0.187500 0.500000
vt 0.125000 0.593750
vt 0.062500 0.500000
vt 0.000000 0.593750
vt -0.000000 0.500000
vt 0.250000 0.687500
vt 0.187500 0.687500
vt 0.375000 0.187500
vt 0.437500 0.250000
vt 0.375000 0.250000
vt 0.375000 0.250000
vt 0.312500 0.187500
vt 0.375000 0.187500
vt 0.437500 0.093750
vt 0.375000 0.187500
vt 0.375000 0.093750
vt 0.312500 0.093750
vt 0.312500 0.187500
vt 0.250000 0.093750
vt 0.437500 -0.000000
vt 0.500000 0.093750
vt 0.187500 0.750000
vt 0.125000 0.687500
vt 0.187500 0.687500
vt 0.062500 0.750000
vt 0.125000 0.687500
vt 0.125000 0.750000
vt 0.062500 0.687500
vt 0.062500 0.593750
vt 0.250000 0.500000
vt 0.250000 0.593750
vt 0.812569 0.687500
vt 0.750069 0.750000
vt 0.750070 0.687500
vt 0.750000 0.687500
vt 0.687500 0.750000
vt 0.687500 0.687500
vt 0.812500 0.687500
vt 0.750000 0.593750
vt 0.812500 0.593750
vt 0.687500 0.687500
vt 0.687500 0.593750
vt 0.625000 0.687500
vt 0.625000 0.593750
vt 0.875000 0.500000
vt 0.875000 0.593750
vt 0.437500 0.187500
vt 0.500000 0.187500
vt 0.250000 0.687500
vt 0.312500 0.593750
vt 0.250000 0.593750
vt 0.312500 0.687500
vt 0.437500 0.593750
vt 0.437500 0.687500
vt 0.500000 0.593750
vt 0.500000 0.593750
vt 0.625000 0.500000
vt 0.625000 0.593750
vt 0.687500 0.187500
vt 0.625000 0.093750
vt 0.687500 0.093750
vt 0.625000 0.187500
vt 0.562500 0.093750
vt 0.500000 0.187500
vt 0.562500 0.093750
vt 0.500000 0.093750
vt 0.687500 0.000000
vt 0.750000 0.093750
vt 0.875000 0.687500
vt 0.625000 0.500000
vt 0.687500 0.500000
vt 0.750000 0.500000
vt 0.812500 0.500000
vt 0.750000 0.187500
vt 0.562500 0.000000
vt 0.500000 0.000000
vt 0.625000 0.000000
vt 0.562500 0.000000
vt 0.625000 0.687500
vt 0.500000 0.687500
vt 0.500000 0.500000
vt 0.437500 0.500000
vt 0.312500 0.500000
vt 0.250000 0.500000
vt 0.312500 -0.000000
vt 0.250000 -0.000000
vt 0.375000 -0.000000
vt 0.250000 0.875000
vt 0.125000 1.000000
vt 0.000000 0.875000
vt 0.500000 0.750000
vt 0.562500 0.750000
vt 0.312500 0.687500
vt 0.625000 0.250000
vt 0.625000 0.187500
vt 0.437500 0.187500
vt 0.312500 0.250000
vt 0.250000 0.187500
vt 0.500000 -0.000000
vt 0.125000 0.750000
vt 0.000000 0.687500
vt 0.812569 0.750000
vt 0.750000 0.750000
vt 0.750000 0.687500
vt 0.500000 0.687500
vt 0.500000 0.500000
vt 0.562500 0.187500
vt 0.562500 0.187500
vt 0.750000 0.000000
vn 0.1452 -0.8869 -0.4385
vn -0.1452 0.8869 0.4385
vn 0.9191 -0.0432 0.3918
vn -0.3664 -0.4599 0.8089
vn -0.9191 0.0432 -0.3918
vn 0.3664 0.4599 -0.8089
vn -0.0112 -0.9997 0.0225
vn 0.0000 1.0000 -0.0000
vn 0.9999 0.0152 0.0000
vn -0.9999 -0.0152 0.0000
vn 0.9884 0.1517 0.0101
vn 0.0465 -0.3584 0.9324
vn -0.9899 -0.1416 -0.0057
vn -0.0553 -0.5491 -0.8339
vn -0.0811 -0.9154 -0.3944
vn -0.0766 0.8738 -0.4803
vn 0.9951 0.0904 0.0406
vn -0.0017 0.4124 0.9110
vn -0.9947 -0.0953 -0.0396
vn -0.0036 0.4589 -0.8885
vn 0.1148 -0.9118 -0.3942
vn 0.0830 0.8732 -0.4803
vn 0.9932 -0.1054 -0.0497
vn -0.0043 0.4105 0.9118
vn -0.9940 0.0973 0.0502
vn -0.0085 0.4551 -0.8904
vn 0.9218 0.1262 0.3664
vn -0.0000 0.4691 -0.8831
vn 0.9904 0.0702 0.1187
vn 0.1148 0.8923 0.4366
vn -0.9860 -0.1452 0.0817
vn 0.1282 -0.9857 -0.1092
vn 0.0505 -0.5432 -0.8381
vn 1.0000 -0.0000 -0.0000
vn 0.0000 -0.0000 1.0000
vn -1.0000 -0.0000 -0.0000
vn 0.0000 -0.0000 -1.0000
vn -0.0152 0.9999 0.0000
vn 0.0152 -0.9999 -0.0000
vn 0.0000 -0.8743 -0.4853
vn -0.3751 -0.2792 0.8839
vn -0.2717 0.9441 0.1870
vn 0.1352 0.2423 -0.9607
vn 0.0002 0.0000 -1.0000
vn 1.0000 -0.0004 -0.0007
vn -0.9939 0.1102 0.0079
vn -0.0332 -0.3581 0.9331
vn 0.9947 -0.1028 -0.0046
vn 0.0000 -1.0000 0.0000
vn -0.0001 1.0000 -0.0002
vn 0.9886 0.1374 -0.0612
vn 0.0070 -0.3416 0.9398
vn -0.9898 -0.1291 0.0609
vn 0.0059 -0.5159 -0.8566
vn 0.9955 0.0952 -0.0010
vn -0.0406 0.4300 0.9019
vn -0.9949 -0.1005 0.0040
vn 0.0445 0.4859 -0.8729
vn 0.9937 -0.1123 0.0062
vn 0.0442 0.4324 0.9006
vn -0.9947 0.1032 -0.0012
vn -0.0622 0.4825 -0.8737
vn 0.9862 -0.0776 0.1461
vn -0.0000 0.8611 0.5085
vn -0.9964 -0.0396 0.0745
vn 0.2456 -0.9490 -0.1977
vn 0.0058 -0.5188 -0.8549
vn -1.0000 0.0000 -0.0001
vn -0.0014 0.0019 -1.0000
vn -0.1019 -0.9018 -0.4199
vn -0.4003 -0.3586 0.8433
vn -0.1414 0.9860 0.0887
vn 0.1907 0.3615 -0.9127
vn 0.0000 -0.0003 -1.0000
vn -0.9938 0.0985 -0.0509
vn -0.0018 -0.3435 0.9391
vn 0.9945 -0.0926 0.0493
s off
f 2/1/1 4/2/1 1/3/1
f 5/4/2 7/5/2 6/6/2
f 5/7/3 2/8/3 1/9/3
f 6/6/4 3/10/4 2/8/4
f 7/5/5 4/11/5 3/10/5
f 1/9/6 8/12/6 5/7/6
f 10/13/7 12/14/7 9/15/7
f 13/16/8 15/17/8 14/18/8
f 18/19/9 20/20/9 17/21/9
f 21/22/10 23/23/10 22/24/10
f 53/25/11 34/26/11 33/27/11
f 54/28/12 35/29/12 34/26/12
f 35/29/13 56/30/13 36/31/13
f 53/25/14 40/32/14 37/33/14
f 26/34/15 28/35/15 25/36/15
f 32/37/16 30/38/16 29/39/16
f 52/40/17 30/41/17 51/42/17
f 30/41/18 50/43/18 51/42/18
f 31/44/19 49/45/19 50/43/19
f 25/46/20 49/47/20 52/40/20
f 33/48/21 35/49/21 36/50/21
f 40/51/22 38/52/22 37/53/22
f 53/25/23 38/52/23 54/28/23
f 54/28/24 39/54/24 55/55/24
f 39/54/25 56/30/25 55/55/25
f 53/25/26 36/56/26 56/57/26
f 41/58/27 43/59/27 44/60/27
f 45/61/28 47/62/28 46/63/28
f 45/64/29 58/65/29 57/66/29
f 58/65/30 47/67/30 59/68/30
f 59/68/31 48/69/31 60/70/31
f 57/66/32 44/71/32 60/72/32
f 29/73/33 49/47/33 32/74/33
f 13/75/34 66/76/34 65/77/34
f 14/78/35 67/79/35 66/76/35
f 15/80/36 68/81/36 67/79/36
f 65/82/37 12/83/37 68/84/37
f 21/85/38 62/86/38 61/87/38
f 22/88/35 63/89/35 62/86/35
f 23/90/39 64/91/39 63/92/39
f 17/93/37 64/94/37 61/87/37
f 57/66/40 48/95/40 45/64/40
f 59/68/41 44/96/41 43/97/41
f 58/65/42 43/97/42 42/98/42
f 41/99/43 58/65/43 42/98/43
f 21/85/37 64/94/37 24/100/37
f 63/92/39 20/101/39 19/102/39
f 18/103/35 63/89/35 19/104/35
f 61/87/38 18/103/38 17/93/38
f 65/82/44 16/105/44 13/106/44
f 67/79/36 12/107/36 11/108/36
f 66/76/35 11/108/35 10/109/35
f 65/77/45 10/109/45 9/110/45
f 27/111/46 49/45/46 28/112/46
f 26/113/47 50/43/47 27/111/47
f 52/40/48 26/113/48 25/46/48
f 2/1/1 3/114/1 4/2/1
f 5/4/2 8/115/2 7/5/2
f 5/7/3 6/6/3 2/8/3
f 6/6/4 7/5/4 3/10/4
f 7/5/5 8/116/5 4/11/5
f 1/9/6 4/117/6 8/12/6
f 10/13/49 11/118/49 12/14/49
f 13/16/50 16/119/50 15/17/50
f 18/19/9 19/120/9 20/20/9
f 21/22/10 24/121/10 23/23/10
f 53/25/51 54/28/51 34/26/51
f 54/28/52 55/55/52 35/29/52
f 35/29/53 55/55/53 56/30/53
f 53/25/54 56/57/54 40/32/54
f 26/34/15 27/122/15 28/35/15
f 32/37/16 31/123/16 30/38/16
f 52/40/55 29/73/55 30/41/55
f 30/41/56 31/44/56 50/43/56
f 31/44/57 32/124/57 49/45/57
f 25/46/58 28/125/58 49/47/58
f 33/48/21 34/126/21 35/49/21
f 40/51/22 39/54/22 38/52/22
f 53/25/59 37/33/59 38/52/59
f 54/28/60 38/52/60 39/54/60
f 39/54/61 40/127/61 56/30/61
f 53/25/62 33/27/62 36/56/62
f 41/58/27 42/128/27 43/59/27
f 45/61/28 48/129/28 47/62/28
f 45/64/63 46/130/63 58/65/63
f 58/65/64 46/130/64 47/67/64
f 59/68/65 47/67/65 48/69/65
f 57/66/66 41/99/66 44/71/66
f 29/73/67 52/40/67 49/47/67
f 13/75/34 14/78/34 66/76/34
f 14/78/35 15/80/35 67/79/35
f 15/80/68 16/131/68 68/81/68
f 65/82/69 9/132/69 12/83/69
f 21/85/38 22/88/38 62/86/38
f 22/88/35 23/133/35 63/89/35
f 23/90/39 24/134/39 64/91/39
f 17/93/37 20/135/37 64/94/37
f 57/66/70 60/72/70 48/95/70
f 59/68/71 60/70/71 44/96/71
f 58/65/72 59/68/72 43/97/72
f 41/99/73 57/66/73 58/65/73
f 21/85/37 61/87/37 64/94/37
f 63/92/39 64/91/39 20/101/39
f 18/103/35 62/86/35 63/89/35
f 61/87/38 62/86/38 18/103/38
f 65/82/74 68/84/74 16/105/74
f 67/79/36 68/81/36 12/107/36
f 66/76/35 67/79/35 11/108/35
f 65/77/34 66/76/34 10/109/34
f 27/111/75 50/43/75 49/45/75
f 26/113/76 51/42/76 50/43/76
f 52/40/77 51/42/77 26/113/77
