# Blender v2.90.1 OBJ File: 'minecraft-character.blend'
# www.blender.org
o model_mesh
v 0.445208 2.626599 -0.342107
v 0.348221 2.509722 0.443344
v -0.445618 2.503722 0.344428
v -0.348630 2.620600 -0.441023
v 0.424867 3.417993 -0.226856
v 0.327879 3.301116 0.558594
v -0.465959 3.295116 0.459678
v -0.368972 3.411994 -0.325773
v 0.400012 1.354672 -0.200830
v 0.400000 1.357347 0.200000
v -0.400000 1.357347 0.200000
v -0.400000 1.357347 -0.200000
v 0.400000 2.557347 -0.200000
v 0.400000 2.557347 0.200000
v -0.400000 2.557347 0.200000
v -0.399990 2.557335 -0.200055
v 1.288867 1.623435 -0.200000
v 1.288867 1.623435 0.200000
v 0.932562 1.441648 0.200000
v 0.932562 1.441648 -0.200000
v 0.743507 2.692351 -0.200000
v 0.743507 2.692351 0.200000
v 0.387202 2.510564 0.200000
v 0.387202 2.510565 -0.200000
v 0.395488 0.184132 -0.196103
v 0.392780 0.136470 0.201038
v -0.007056 0.147824 0.199674
v -0.004348 0.195486 -0.197468
v 0.398188 1.329582 -0.210032
v 0.394388 1.390308 0.185313
v -0.005462 1.379597 0.183116
v -0.001663 1.318871 -0.212230
v 0.006535 0.197962 -0.197138
v 0.009764 0.150514 0.200025
v -0.389916 0.134579 0.201371
v -0.393145 0.182027 -0.195792
v -0.001738 1.318779 -0.212317
v 0.002377 1.379487 0.183028
v -0.397448 1.391088 0.185408
v -0.401562 1.330380 -0.209937
v -0.184873 1.464098 0.192704
v -0.195113 1.630323 0.556386
v -0.568175 1.495391 0.607553
v -0.557935 1.329166 0.243872
v -0.400161 2.488925 -0.219380
v -0.400161 2.616061 0.159877
v -0.800161 2.616061 0.159877
v -0.800161 2.488924 -0.219381
v 0.013044 0.757283 -0.123364
v 0.009763 0.765037 0.272788
v 0.409607 0.764716 0.274569
v 0.412861 0.758168 -0.121673
v -0.017676 0.759615 -0.123474
v -0.014005 0.766251 0.272781
v -0.413757 0.764079 0.274643
v -0.417429 0.757448 -0.121611
v -0.400475 1.945478 -0.036850
v -0.405565 2.091909 0.334709
v -0.792126 2.024693 0.360204
v -0.787006 1.878012 -0.011266
v 1.016187 2.157893 -0.200000
v 1.016187 2.157893 0.200000
v 0.659882 1.976106 0.200000
v 0.659882 1.976106 -0.200000
v 0.400000 1.957347 -0.200000
v 0.400000 1.957347 0.200000
v -0.400000 1.957347 0.200000
v -0.399999 1.957345 -0.200006
vt 0.375000 0.875000
vt 0.250000 1.000000
vt 0.375000 1.000000
vt 0.125000 1.000000
vt 0.250000 0.875000
vt 0.250000 1.000000
vt 0.375000 0.874982
vt 0.250000 0.749982
vt 0.375000 0.749982
vt 0.125000 0.750000
vt 0.125000 0.875000
vt 0.000000 0.750000
vt 0.500000 0.875000
vt 0.437500 0.750000
vt 0.562500 0.687500
vt 0.437500 0.687500
vt 0.437500 0.687500
vt 0.312500 0.750000
vt 0.437500 0.750000
vt 0.625000 0.187500
vt 0.687500 0.250000
vt 0.687500 0.187500
vt 0.625000 0.187500
vt 0.562500 0.250000
vt 0.562500 0.187500
vt 0.187500 0.593750
vt 0.125000 0.500000
vt 0.187500 0.500000
vt 0.125000 0.593750
vt 0.062500 0.500000
vt 0.000000 0.593750
vt -0.000000 0.500000
vt 0.250000 0.687500
vt 0.187500 0.687500
vt 0.375000 0.250000
vt 0.437500 0.187500
vt 0.437500 0.250000
vt 0.375000 0.187500
vt 0.312500 0.250000
vt 0.312500 0.187500
vt 0.437500 0.093750
vt 0.375000 0.187500
vt 0.375000 0.093750
vt 0.312500 0.093750
vt 0.312500 0.187500
vt 0.250000 0.093750
vt 0.437500 -0.000000
vt 0.500000 0.093750
vt 0.125000 0.750000
vt 0.187500 0.687500
vt 0.187500 0.750000
vt 0.062500 0.750000
vt 0.125000 0.687500
vt 0.125000 0.750000
vt 0.062500 0.687500
vt 0.062500 0.593750
vt 0.250000 0.500000
vt 0.250000 0.593750
vt 0.812569 0.750000
vt 0.750070 0.687500
vt 0.812569 0.687500
vt 0.750000 0.750000
vt 0.687500 0.687500
vt 0.750000 0.687500
vt 0.812500 0.687500
vt 0.750000 0.593750
vt 0.812500 0.593750
vt 0.687500 0.687500
vt 0.687500 0.593750
vt 0.625000 0.687500
vt 0.625000 0.593750
vt 0.875000 0.500000
vt 0.875000 0.593750
vt 0.437500 0.187500
vt 0.500000 0.187500
vt 0.250000 0.687500
vt 0.312500 0.593750
vt 0.250000 0.593750
vt 0.312500 0.687500
vt 0.437500 0.593750
vt 0.437500 0.687500
vt 0.500000 0.593750
vt 0.500000 0.593750
vt 0.625000 0.500000
vt 0.625000 0.593750
vt 0.687500 0.093750
vt 0.625000 0.187500
vt 0.625000 0.093750
vt 0.562500 0.093750
vt 0.500000 0.187500
vt 0.562500 0.093750
vt 0.500000 0.093750
vt 0.750000 0.000000
vt 0.750000 0.093750
vt 0.875000 0.687500
vt 0.625000 0.500000
vt 0.687500 0.500000
vt 0.750000 0.500000
vt 0.812500 0.500000
vt 0.687500 0.187500
vt 0.750000 0.187500
vt 0.500000 0.000000
vt 0.562500 0.000000
vt 0.562500 0.000000
vt 0.625000 0.000000
vt 0.687500 0.000000
vt 0.625000 0.687500
vt 0.500000 0.687500
vt 0.500000 0.500000
vt 0.437500 0.500000
vt 0.312500 0.500000
vt 0.250000 0.500000
vt 0.312500 -0.000000
vt 0.250000 -0.000000
vt 0.375000 -0.000000
vt 0.250000 0.875000
vt 0.000000 0.875000
vt 0.500000 0.750000
vt 0.562500 0.750000
vt 0.312500 0.687500
vt 0.625000 0.250000
vt 0.625000 0.250000
vt 0.375000 0.187500
vt 0.375000 0.250000
vt 0.250000 0.187500
vt 0.500000 -0.000000
vt 0.125000 0.687500
vt 0.000000 0.687500
vt 0.750069 0.750000
vt 0.687500 0.750000
vt 0.750000 0.687500
vt 0.500000 0.687500
vt 0.500000 0.500000
vt 0.562500 0.187500
vt 0.562500 0.187500
vn 0.0254 -0.9892 -0.1441
vn -0.0254 0.9892 0.1441
vn 0.9923 0.0075 0.1236
vn -0.1212 -0.1461 0.9818
vn -0.9923 -0.0075 -0.1236
vn 0.1212 0.1461 -0.9818
vn -0.0033 -1.0000 0.0067
vn 0.0000 1.0000 0.0000
vn 0.4545 -0.8908 0.0000
vn -0.4545 0.8908 0.0000
vn 0.9991 0.0435 -0.0029
vn 0.0080 -0.1170 0.9931
vn -0.9991 -0.0426 0.0030
vn -0.0104 -0.1566 -0.9876
vn -0.0278 -0.9925 -0.1193
vn -0.0256 0.9880 -0.1520
vn 0.9996 0.0254 0.0078
vn -0.0043 0.1411 0.9900
vn -0.9996 -0.0259 -0.0078
vn 0.0039 0.1285 -0.9917
vn 0.0392 -0.9921 -0.1188
vn 0.0278 0.9880 -0.1520
vn 0.9996 -0.0280 -0.0088
vn 0.0038 0.1408 0.9900
vn -0.9996 0.0273 0.0088
vn -0.0053 0.1276 -0.9918
vn 0.3599 -0.8447 0.3962
vn -0.0000 0.9481 -0.3178
vn 0.9999 0.0036 0.0123
vn 0.0067 0.3209 0.9471
vn -0.9997 -0.0231 -0.0047
vn 0.0127 -0.4172 -0.9087
vn 0.0096 -0.1560 -0.9877
vn 1.0000 0.0000 0.0000
vn 0.0000 -0.0000 1.0000
vn -1.0000 -0.0000 -0.0000
vn 0.0000 -0.0000 -1.0000
vn 0.8908 0.4545 0.0000
vn -0.8908 -0.4545 -0.0000
vn 0.0000 -0.3184 -0.9480
vn -0.9334 -0.3355 0.1271
vn -0.0284 0.4222 0.9061
vn 0.9245 0.3559 -0.1366
vn 0.0001 0.0000 -1.0000
vn -0.9995 0.0313 -0.0031
vn -0.0067 -0.1175 0.9931
vn 0.9995 -0.0307 0.0031
vn 0.0000 -1.0000 0.0000
vn 0.9992 0.0397 -0.0099
vn 0.0053 -0.1154 0.9933
vn -0.9992 -0.0390 0.0099
vn -0.0038 -0.1523 -0.9883
vn 0.9996 0.0265 0.0055
vn -0.0093 0.1442 0.9895
vn -0.9996 -0.0270 -0.0055
vn 0.0071 0.1306 -0.9914
vn 0.9995 -0.0294 -0.0059
vn 0.0101 0.1445 0.9894
vn -0.9996 0.0286 0.0060
vn -0.0085 0.1297 -0.9915
vn 1.0000 -0.0093 0.0031
vn -0.0000 0.3164 0.9486
vn -0.9999 -0.0122 0.0041
vn 0.0276 -0.4202 -0.9070
vn 0.0045 -0.1527 -0.9883
vn -0.0010 0.0014 -1.0000
vn -0.0063 -0.3226 -0.9465
vn -0.9347 -0.3347 0.1193
vn -0.0129 0.4188 0.9080
vn 0.9264 0.3544 -0.1270
vn 0.0000 -0.0001 -1.0000
vn -0.9996 0.0283 -0.0088
vn -0.0045 -0.1161 0.9932
vn 0.9996 -0.0278 0.0087
s off
f 2/1/1 4/2/1 1/3/1
f 8/4/2 6/5/2 5/6/2
f 5/7/3 2/8/3 1/9/3
f 6/5/4 3/10/4 2/8/4
f 7/11/5 4/12/5 3/10/5
f 1/9/6 8/13/6 5/7/6
f 10/14/7 12/15/7 9/16/7
f 13/17/8 15/18/8 14/19/8
f 18/20/9 20/21/9 17/22/9
f 24/23/10 22/24/10 21/25/10
f 53/26/11 34/27/11 33/28/11
f 54/29/12 35/30/12 34/27/12
f 35/30/13 56/31/13 36/32/13
f 53/26/14 40/33/14 37/34/14
f 25/35/15 27/36/15 28/37/15
f 29/38/16 31/39/16 30/40/16
f 52/41/17 30/42/17 51/43/17
f 30/42/18 50/44/18 51/43/18
f 31/45/19 49/46/19 50/44/19
f 25/47/20 49/48/20 52/41/20
f 34/49/21 36/50/21 33/51/21
f 40/52/22 38/53/22 37/54/22
f 53/26/23 38/53/23 54/29/23
f 54/29/24 39/55/24 55/56/24
f 39/55/25 56/31/25 55/56/25
f 53/26/26 36/57/26 56/58/26
f 42/59/27 44/60/27 41/61/27
f 48/62/28 46/63/28 45/64/28
f 45/65/29 58/66/29 57/67/29
f 58/66/30 47/68/30 59/69/30
f 59/69/31 48/70/31 60/71/31
f 57/67/32 44/72/32 60/73/32
f 29/74/33 49/48/33 32/75/33
f 13/76/34 66/77/34 65/78/34
f 14/79/35 67/80/35 66/77/35
f 15/81/36 68/82/36 67/80/36
f 65/83/37 12/84/37 68/85/37
f 61/86/38 22/87/38 62/88/38
f 22/87/35 63/89/35 62/88/35
f 23/90/39 64/91/39 63/92/39
f 61/86/37 20/93/37 64/94/37
f 57/67/40 48/95/40 45/65/40
f 59/69/41 44/96/41 43/97/41
f 58/66/42 43/97/42 42/98/42
f 41/99/43 58/66/43 42/98/43
f 21/100/37 64/94/37 24/101/37
f 19/102/39 64/91/39 20/103/39
f 62/88/35 19/104/35 18/105/35
f 61/86/38 18/105/38 17/106/38
f 65/83/44 16/107/44 13/108/44
f 67/80/36 12/109/36 11/110/36
f 10/111/35 67/80/35 11/110/35
f 65/78/34 10/111/34 9/112/34
f 27/113/45 49/46/45 28/114/45
f 26/115/46 50/44/46 27/113/46
f 52/41/47 26/115/47 25/47/47
f 2/1/1 3/116/1 4/2/1
f 8/4/2 7/11/2 6/5/2
f 5/7/3 6/5/3 2/8/3
f 6/5/4 7/11/4 3/10/4
f 7/11/5 8/117/5 4/12/5
f 1/9/6 4/118/6 8/13/6
f 10/14/48 11/119/48 12/15/48
f 13/17/8 16/120/8 15/18/8
f 18/20/9 19/121/9 20/21/9
f 24/23/10 23/122/10 22/24/10
f 53/26/49 54/29/49 34/27/49
f 54/29/50 55/56/50 35/30/50
f 35/30/51 55/56/51 56/31/51
f 53/26/52 56/58/52 40/33/52
f 25/35/15 26/123/15 27/36/15
f 29/38/16 32/124/16 31/39/16
f 52/41/53 29/74/53 30/42/53
f 30/42/54 31/45/54 50/44/54
f 31/45/55 32/125/55 49/46/55
f 25/47/56 28/126/56 49/48/56
f 34/49/21 35/127/21 36/50/21
f 40/52/22 39/55/22 38/53/22
f 53/26/57 37/34/57 38/53/57
f 54/29/58 38/53/58 39/55/58
f 39/55/59 40/128/59 56/31/59
f 53/26/60 33/28/60 36/57/60
f 42/59/27 43/129/27 44/60/27
f 48/62/28 47/130/28 46/63/28
f 45/65/61 46/131/61 58/66/61
f 58/66/62 46/131/62 47/68/62
f 59/69/63 47/68/63 48/70/63
f 57/67/64 41/99/64 44/72/64
f 29/74/65 52/41/65 49/48/65
f 13/76/34 14/79/34 66/77/34
f 14/79/35 15/81/35 67/80/35
f 15/81/36 16/132/36 68/82/36
f 65/83/66 9/133/66 12/84/66
f 61/86/38 21/100/38 22/87/38
f 22/87/35 23/134/35 63/89/35
f 23/90/39 24/135/39 64/91/39
f 61/86/37 17/106/37 20/93/37
f 57/67/67 60/73/67 48/95/67
f 59/69/68 60/71/68 44/96/68
f 58/66/69 59/69/69 43/97/69
f 41/99/70 57/67/70 58/66/70
f 21/100/37 61/86/37 64/94/37
f 19/102/39 63/92/39 64/91/39
f 62/88/35 63/89/35 19/104/35
f 61/86/38 62/88/38 18/105/38
f 65/83/71 68/85/71 16/107/71
f 67/80/36 68/82/36 12/109/36
f 10/111/35 66/77/35 67/80/35
f 65/78/34 66/77/34 10/111/34
f 27/113/72 50/44/72 49/46/72
f 26/115/73 51/43/73 50/44/73
f 52/41/74 51/43/74 26/115/74
