# Blender v2.90.1 OBJ File: 'minecraft-character.blend'
# www.blender.org
o model_mesh
v 0.518579 2.650561 -0.130315
v 0.199259 2.246988 0.482192
v -0.521338 2.294796 0.138021
v -0.202019 2.698369 -0.474485
v 0.381560 3.339650 0.252286
v 0.062240 2.936076 0.864792
v -0.658357 2.983885 0.520621
v -0.339038 3.387458 -0.091885
v 0.399649 1.255854 -0.200993
v 0.400000 1.265895 0.200000
v -0.400000 1.265895 0.200000
v -0.400000 1.265895 -0.200000
v 0.400000 2.465895 -0.200000
v 0.400000 2.465895 0.200000
v -0.400000 2.465895 0.200000
v -0.399970 2.465814 -0.200185
v 1.650967 2.971008 -0.200000
v 1.650967 2.971008 0.200000
v 1.724651 2.577853 0.200000
v 1.724651 2.577853 -0.200000
v 0.471503 2.749955 -0.200000
v 0.471503 2.749955 0.200000
v 0.545187 2.356801 0.200000
v 0.545187 2.356801 -0.200000
v 0.393568 0.271055 -0.185991
v 0.376740 0.098352 0.174412
v -0.021375 0.137146 0.174412
v -0.004546 0.309849 -0.185991
v 0.400591 1.165029 -0.217013
v 0.379767 1.375524 0.122484
v -0.018290 1.336146 0.122483
v 0.002534 1.125650 -0.217013
v 0.015582 0.320048 -0.185870
v 0.039378 0.148167 0.174533
v -0.356843 0.093312 0.174533
v -0.380639 0.265193 -0.185870
v -0.006327 1.124653 -0.217126
v 0.016220 1.334970 0.122370
v -0.381501 1.377608 0.122370
v -0.404048 1.167291 -0.217126
v 0.077248 2.172752 0.378983
v -0.023240 2.558309 0.414315
v -0.102733 2.502038 0.802277
v -0.002245 2.116481 0.766944
v -0.400161 2.219872 -0.159785
v -0.400161 2.592623 -0.014673
v -0.800161 2.592623 -0.014673
v -0.800161 2.219872 -0.159785
v 0.050366 0.729081 0.087769
v 0.031450 0.752288 0.437230
v 0.429535 0.752580 0.437230
v 0.448363 0.733627 0.087290
v -0.059583 0.736927 0.087284
v -0.036412 0.756165 0.437235
v -0.433382 0.750037 0.437234
v -0.456554 0.730817 0.087284
v -0.445649 2.019647 0.321092
v -0.495361 2.398668 0.412054
v -0.735640 2.370665 0.605295
v -0.685396 1.991511 0.515073
v 1.061235 2.860482 -0.200000
v 1.061235 2.860482 0.200000
v 1.134919 2.467327 0.200000
v 1.134919 2.467327 -0.200000
v 0.400000 1.865895 -0.200000
v 0.400000 1.865895 0.199999
v -0.400000 1.865895 0.200000
v -0.399997 1.865884 -0.200019
vt 0.375000 1.000000
vt 0.250000 0.875000
vt 0.250000 1.000000
vt 0.125000 1.000000
vt 0.250000 0.875000
vt 0.250000 1.000000
vt 0.375000 0.874982
vt 0.250000 0.749982
vt 0.375000 0.749982
vt 0.125000 0.750000
vt 0.125000 0.875000
vt 0.000000 0.750000
vt 0.500000 0.875000
vt 0.437500 0.750000
vt 0.562500 0.687500
vt 0.437500 0.687500
vt 0.437500 0.687500
vt 0.312500 0.750000
vt 0.437500 0.750000
vt 0.687500 0.187500
vt 0.625000 0.250000
vt 0.687500 0.250000
vt 0.562500 0.187500
vt 0.625000 0.250000
vt 0.562500 0.250000
vt 0.187500 0.593750
vt 0.125000 0.500000
vt 0.187500 0.500000
vt 0.125000 0.593750
vt 0.062500 0.500000
vt 0.000000 0.593750
vt -0.000000 0.500000
vt 0.250000 0.687500
vt 0.187500 0.687500
vt 0.375000 0.187500
vt 0.437500 0.250000
vt 0.375000 0.250000
vt 0.375000 0.187500
vt 0.312500 0.250000
vt 0.312500 0.187500
vt 0.437500 0.093750
vt 0.375000 0.187500
vt 0.375000 0.093750
vt 0.312500 0.093750
vt 0.312500 0.187500
vt 0.250000 0.093750
vt 0.437500 -0.000000
vt 0.500000 0.093750
vt 0.187500 0.750000
vt 0.125000 0.687500
vt 0.187500 0.687500
vt 0.062500 0.750000
vt 0.125000 0.687500
vt 0.125000 0.750000
vt 0.062500 0.687500
vt 0.062500 0.593750
vt 0.250000 0.500000
vt 0.250000 0.593750
vt 0.812569 0.687500
vt 0.750069 0.750000
vt 0.750070 0.687500
vt 0.750000 0.750000
vt 0.687500 0.687500
vt 0.750000 0.687500
vt 0.812500 0.687500
vt 0.750000 0.593750
vt 0.812500 0.593750
vt 0.687500 0.687500
vt 0.687500 0.593750
vt 0.625000 0.687500
vt 0.625000 0.593750
vt 0.875000 0.500000
vt 0.875000 0.593750
vt 0.437500 0.187500
vt 0.500000 0.187500
vt 0.250000 0.687500
vt 0.312500 0.593750
vt 0.250000 0.593750
vt 0.312500 0.687500
vt 0.437500 0.593750
vt 0.437500 0.687500
vt 0.500000 0.593750
vt 0.500000 0.593750
vt 0.625000 0.500000
vt 0.625000 0.593750
vt 0.687500 0.187500
vt 0.625000 0.093750
vt 0.687500 0.093750
vt 0.625000 0.187500
vt 0.562500 0.093750
vt 0.500000 0.187500
vt 0.562500 0.093750
vt 0.500000 0.093750
vt 0.750000 0.000000
vt 0.750000 0.093750
vt 0.875000 0.687500
vt 0.625000 0.500000
vt 0.687500 0.500000
vt 0.750000 0.500000
vt 0.812500 0.500000
vt 0.750000 0.187500
vt 0.562500 0.000000
vt 0.500000 0.000000
vt 0.562500 0.000000
vt 0.625000 0.000000
vt 0.687500 0.000000
vt 0.625000 0.687500
vt 0.500000 0.687500
vt 0.500000 0.500000
vt 0.437500 0.500000
vt 0.312500 0.500000
vt 0.250000 0.500000
vt 0.312500 -0.000000
vt 0.250000 -0.000000
vt 0.375000 -0.000000
vt 0.375000 0.875000
vt 0.000000 0.875000
vt 0.500000 0.750000
vt 0.562500 0.750000
vt 0.312500 0.687500
vt 0.625000 0.187500
vt 0.625000 0.187500
vt 0.437500 0.187500
vt 0.375000 0.250000
vt 0.250000 0.187500
vt 0.500000 -0.000000
vt 0.125000 0.750000
vt 0.000000 0.687500
vt 0.812569 0.750000
vt 0.687500 0.750000
vt 0.750000 0.687500
vt 0.500000 0.687500
vt 0.500000 0.500000
vt 0.562500 0.187500
vt 0.562500 0.187500
vn 0.1713 -0.8614 -0.4782
vn -0.1713 0.8614 0.4782
vn 0.9007 -0.0598 0.4302
vn -0.3991 -0.5045 0.7656
vn -0.9007 0.0598 -0.4302
vn 0.3991 0.5045 -0.7656
vn -0.0125 -0.9996 0.0250
vn 0.0000 1.0000 -0.0000
vn 0.9829 0.1842 0.0000
vn -0.9829 -0.1842 0.0000
vn 0.9857 0.1679 0.0150
vn 0.0540 -0.3904 0.9191
vn -0.9878 -0.1557 -0.0091
vn -0.0655 -0.6106 -0.7892
vn -0.0874 -0.8968 -0.4338
vn -0.0836 0.8446 -0.5288
vn 0.9935 0.1035 0.0478
vn -0.0003 0.4509 0.8926
vn -0.9929 -0.1096 -0.0465
vn -0.0069 0.5092 -0.8606
vn 0.1236 -0.8925 -0.4338
vn 0.0905 0.8439 -0.5288
vn 0.9908 -0.1221 -0.0589
vn -0.0069 0.4489 0.8936
vn -0.9919 0.1119 0.0595
vn -0.0078 0.5050 -0.8631
vn 0.9473 0.2261 0.2269
vn 0.0000 0.3628 -0.9319
vn 0.9862 0.0972 0.1338
vn 0.1480 0.9359 0.3197
vn -0.9810 -0.1571 0.1137
vn 0.1601 -0.9856 0.0549
vn 0.0597 -0.6037 -0.7949
vn 1.0000 -0.0000 -0.0000
vn 0.0000 -0.0000 1.0000
vn -1.0000 0.0000 -0.0000
vn 0.0000 -0.0000 -1.0000
vn -0.1842 0.9829 0.0000
vn 0.1842 -0.9829 0.0000
vn 0.0000 -0.9232 -0.3844
vn -0.2639 -0.1560 0.9519
vn -0.3198 0.9448 0.0715
vn -0.0240 0.0850 -0.9961
vn 0.0002 0.0000 -1.0000
vn 1.0000 -0.0006 -0.0009
vn -0.9924 0.1221 0.0121
vn -0.0380 -0.3898 0.9201
vn 0.9936 -0.1131 -0.0078
vn 0.1713 -0.8614 -0.4783
vn 0.0000 -1.0000 0.0000
vn -0.0001 1.0000 -0.0002
vn 0.9852 0.1547 -0.0737
vn 0.0057 -0.3708 0.9287
vn -0.9868 -0.1443 0.0733
vn 0.0088 -0.5727 -0.8197
vn 0.9943 0.1065 -0.0051
vn -0.0466 0.4709 0.8809
vn -0.9936 -0.1129 0.0090
vn 0.0527 0.5411 -0.8393
vn 0.9919 -0.1265 0.0125
vn 0.0508 0.4737 0.8792
vn -0.9933 0.1156 -0.0056
vn -0.0744 0.5371 -0.8402
vn 0.9799 -0.0723 0.1858
vn -0.0000 0.9104 0.4138
vn -0.9952 -0.0354 0.0909
vn 0.2882 -0.9543 -0.0794
vn 0.0056 -0.5760 -0.8174
vn -1.0000 0.0000 -0.0001
vn -0.0012 0.0016 -1.0000
vn -0.1300 -0.9457 -0.2979
vn -0.2923 -0.2579 0.9209
vn -0.1786 0.9807 -0.0800
vn 0.0378 0.2379 -0.9706
vn 0.0000 -0.0003 -1.0000
vn -0.9919 0.1113 -0.0611
vn 0.0003 -0.3728 0.9279
vn 0.9928 -0.1038 0.0590
s off
f 1/1/1 3/2/1 4/3/1
f 8/4/2 6/5/2 5/6/2
f 5/7/3 2/8/3 1/9/3
f 6/5/4 3/10/4 2/8/4
f 7/11/5 4/12/5 3/10/5
f 1/9/6 8/13/6 5/7/6
f 10/14/7 12/15/7 9/16/7
f 13/17/8 15/18/8 14/19/8
f 17/20/9 19/21/9 20/22/9
f 21/23/10 23/24/10 22/25/10
f 53/26/11 34/27/11 33/28/11
f 54/29/12 35/30/12 34/27/12
f 35/30/13 56/31/13 36/32/13
f 53/26/14 40/33/14 37/34/14
f 26/35/15 28/36/15 25/37/15
f 29/38/16 31/39/16 30/40/16
f 52/41/17 30/42/17 51/43/17
f 30/42/18 50/44/18 51/43/18
f 31/45/19 49/46/19 50/44/19
f 25/47/20 49/48/20 52/41/20
f 33/49/21 35/50/21 36/51/21
f 40/52/22 38/53/22 37/54/22
f 53/26/23 38/53/23 54/29/23
f 54/29/24 39/55/24 55/56/24
f 39/55/25 56/31/25 55/56/25
f 53/26/26 36/57/26 56/58/26
f 41/59/27 43/60/27 44/61/27
f 48/62/28 46/63/28 45/64/28
f 45/65/29 58/66/29 57/67/29
f 58/66/30 47/68/30 59/69/30
f 59/69/31 48/70/31 60/71/31
f 57/67/32 44/72/32 60/73/32
f 29/74/33 49/48/33 32/75/33
f 13/76/34 66/77/34 65/78/34
f 14/79/35 67/80/35 66/77/35
f 15/81/36 68/82/36 67/80/36
f 65/83/37 12/84/37 68/85/37
f 21/86/38 62/87/38 61/88/38
f 22/89/35 63/90/35 62/87/35
f 23/91/39 64/92/39 63/93/39
f 61/88/37 20/94/37 64/95/37
f 57/67/40 48/96/40 45/65/40
f 59/69/41 44/97/41 43/98/41
f 58/66/42 43/98/42 42/99/42
f 41/100/43 58/66/43 42/99/43
f 21/86/37 64/95/37 24/101/37
f 63/93/39 20/102/39 19/103/39
f 62/87/35 19/104/35 18/105/35
f 61/88/38 18/105/38 17/106/38
f 65/83/44 16/107/44 13/108/44
f 67/80/36 12/109/36 11/110/36
f 66/77/35 11/110/35 10/111/35
f 65/78/45 10/111/45 9/112/45
f 27/113/46 49/46/46 28/114/46
f 26/115/47 50/44/47 27/113/47
f 52/41/48 26/115/48 25/47/48
f 1/1/49 2/116/49 3/2/49
f 8/4/2 7/11/2 6/5/2
f 5/7/3 6/5/3 2/8/3
f 6/5/4 7/11/4 3/10/4
f 7/11/5 8/117/5 4/12/5
f 1/9/6 4/118/6 8/13/6
f 10/14/50 11/119/50 12/15/50
f 13/17/51 16/120/51 15/18/51
f 17/20/9 18/121/9 19/21/9
f 21/23/10 24/122/10 23/24/10
f 53/26/52 54/29/52 34/27/52
f 54/29/53 55/56/53 35/30/53
f 35/30/54 55/56/54 56/31/54
f 53/26/55 56/58/55 40/33/55
f 26/35/15 27/123/15 28/36/15
f 29/38/16 32/124/16 31/39/16
f 52/41/56 29/74/56 30/42/56
f 30/42/57 31/45/57 50/44/57
f 31/45/58 32/125/58 49/46/58
f 25/47/59 28/126/59 49/48/59
f 33/49/21 34/127/21 35/50/21
f 40/52/22 39/55/22 38/53/22
f 53/26/60 37/34/60 38/53/60
f 54/29/61 38/53/61 39/55/61
f 39/55/62 40/128/62 56/31/62
f 53/26/63 33/28/63 36/57/63
f 41/59/27 42/129/27 43/60/27
f 48/62/28 47/130/28 46/63/28
f 45/65/64 46/131/64 58/66/64
f 58/66/65 46/131/65 47/68/65
f 59/69/66 47/68/66 48/70/66
f 57/67/67 41/100/67 44/72/67
f 29/74/68 52/41/68 49/48/68
f 13/76/34 14/79/34 66/77/34
f 14/79/35 15/81/35 67/80/35
f 15/81/69 16/132/69 68/82/69
f 65/83/70 9/133/70 12/84/70
f 21/86/38 22/89/38 62/87/38
f 22/89/35 23/134/35 63/90/35
f 23/91/39 24/135/39 64/92/39
f 61/88/37 17/106/37 20/94/37
f 57/67/71 60/73/71 48/96/71
f 59/69/72 60/71/72 44/97/72
f 58/66/73 59/69/73 43/98/73
f 41/100/74 57/67/74 58/66/74
f 21/86/37 61/88/37 64/95/37
f 63/93/39 64/92/39 20/102/39
f 62/87/35 63/90/35 19/104/35
f 61/88/38 62/87/38 18/105/38
f 65/83/75 68/85/75 16/107/75
f 67/80/36 68/82/36 12/109/36
f 66/77/35 67/80/35 11/110/35
f 65/78/34 66/77/34 10/111/34
f 27/113/76 50/44/76 49/46/76
f 26/115/77 51/43/77 50/44/77
f 52/41/78 51/43/78 26/115/78
