# Blender v2.90.1 OBJ File: 'minecraft-character.blend'
# www.blender.org
o model_mesh
v 0.454625 2.631780 -0.326413
v 0.335432 2.487564 0.451401
v -0.455172 2.482276 0.329268
v -0.335979 2.626492 -0.448547
v 0.427466 3.418656 -0.184679
v 0.308273 3.274441 0.593135
v -0.482332 3.269152 0.471001
v -0.363138 3.413368 -0.306813
v 0.400003 1.345940 -0.200965
v 0.400000 1.349259 0.200000
v -0.400000 1.349259 0.200000
v -0.400000 1.349259 -0.200000
v 0.400000 2.549259 -0.200000
v 0.400000 2.549259 0.200000
v -0.400000 2.549259 0.200000
v -0.399988 2.549244 -0.200067
v 1.387518 1.711947 -0.200000
v 1.387518 1.711947 0.200000
v 1.054367 1.490564 0.200000
v 1.054367 1.490564 -0.200000
v 0.723367 2.711399 -0.200000
v 0.723367 2.711399 0.200000
v 0.390216 2.490016 0.200000
v 0.390217 2.490016 -0.200000
v 0.394834 0.186110 -0.195684
v 0.391237 0.126850 0.199885
v -0.008514 0.140884 0.198353
v -0.004917 0.200145 -0.197217
v 0.398187 1.315193 -0.211841
v 0.393272 1.390011 0.181069
v -0.006500 1.376745 0.178595
v -0.001585 1.301927 -0.214315
v 0.008312 0.203227 -0.196855
v 0.012720 0.144221 0.198744
v -0.386792 0.124518 0.200256
v -0.391200 0.183524 -0.195343
v -0.001822 1.301755 -0.214420
v 0.003500 1.376548 0.178489
v -0.396233 1.390915 0.181169
v -0.401555 1.316122 -0.211740
v -0.138728 1.513308 0.268929
v -0.153789 1.715644 0.613651
v -0.512272 1.556211 0.691568
v -0.497211 1.353874 0.346846
v -0.400161 2.463630 -0.220677
v -0.400161 2.619992 0.147495
v -0.800161 2.619992 0.147495
v -0.800161 2.463630 -0.220677
v 0.016446 0.751490 -0.104932
v 0.012158 0.760780 0.289189
v 0.411919 0.760396 0.291193
v 0.416176 0.752597 -0.103044
v -0.021411 0.754328 -0.105073
v -0.016546 0.762229 0.289181
v -0.416168 0.759554 0.291277
v -0.421033 0.751660 -0.102977
v -0.402055 1.941846 0.000894
v -0.409533 2.120898 0.357478
v -0.788827 2.041478 0.396299
v -0.781296 1.862129 0.039852
v 1.055442 2.211674 -0.200000
v 1.055442 2.211673 0.200000
v 0.722292 1.990290 0.200000
v 0.722292 1.990290 -0.200000
v 0.400000 1.949259 -0.200000
v 0.400000 1.949259 0.200000
v -0.400000 1.949259 0.200000
v -0.399999 1.949257 -0.200007
vt 0.375000 0.875000
vt 0.250000 1.000000
vt 0.375000 1.000000
vt 0.125000 1.000000
vt 0.250000 0.875000
vt 0.250000 1.000000
vt 0.375000 0.874982
vt 0.250000 0.749982
vt 0.375000 0.749982
vt 0.125000 0.750000
vt 0.125000 0.875000
vt 0.000000 0.750000
vt 0.500000 0.875000
vt 0.437500 0.750000
vt 0.562500 0.687500
vt 0.437500 0.687500
vt 0.437500 0.687500
vt 0.312500 0.750000
vt 0.437500 0.750000
vt 0.687500 0.187500
vt 0.625000 0.250000
vt 0.687500 0.250000
vt 0.562500 0.187500
vt 0.625000 0.250000
vt 0.562500 0.250000
vt 0.187500 0.593750
vt 0.125000 0.500000
vt 0.187500 0.500000
vt 0.125000 0.593750
vt 0.062500 0.500000
vt 0.000000 0.593750
vt -0.000000 0.500000
vt 0.250000 0.687500
vt 0.187500 0.687500
vt 0.375000 0.187500
vt 0.437500 0.250000
vt 0.375000 0.250000
vt 0.375000 0.187500
vt 0.312500 0.250000
vt 0.312500 0.187500
vt 0.437500 0.093750
vt 0.375000 0.187500
vt 0.375000 0.093750
vt 0.312500 0.093750
vt 0.312500 0.187500
vt 0.250000 0.093750
vt 0.437500 -0.000000
vt 0.500000 0.093750
vt 0.125000 0.750000
vt 0.187500 0.687500
vt 0.187500 0.750000
vt 0.125000 0.750000
vt 0.062500 0.687500
vt 0.125000 0.687500
vt 0.062500 0.593750
vt 0.250000 0.500000
vt 0.250000 0.593750
vt 0.812569 0.750000
vt 0.750070 0.687500
vt 0.812569 0.687500
vt 0.750000 0.750000
vt 0.687500 0.687500
vt 0.750000 0.687500
vt 0.812500 0.687500
vt 0.750000 0.593750
vt 0.812500 0.593750
vt 0.687500 0.687500
vt 0.687500 0.593750
vt 0.625000 0.687500
vt 0.625000 0.593750
vt 0.875000 0.500000
vt 0.875000 0.593750
vt 0.437500 0.187500
vt 0.500000 0.187500
vt 0.250000 0.687500
vt 0.312500 0.593750
vt 0.250000 0.593750
vt 0.312500 0.687500
vt 0.437500 0.593750
vt 0.437500 0.687500
vt 0.500000 0.593750
vt 0.500000 0.593750
vt 0.625000 0.500000
vt 0.625000 0.593750
vt 0.687500 0.187500
vt 0.625000 0.093750
vt 0.687500 0.093750
vt 0.625000 0.187500
vt 0.562500 0.093750
vt 0.500000 0.187500
vt 0.562500 0.093750
vt 0.500000 0.093750
vt 0.687500 0.000000
vt 0.750000 0.093750
vt 0.875000 0.687500
vt 0.625000 0.500000
vt 0.687500 0.500000
vt 0.750000 0.500000
vt 0.812500 0.500000
vt 0.750000 0.187500
vt 0.562500 0.000000
vt 0.500000 0.000000
vt 0.625000 0.000000
vt 0.562500 0.000000
vt 0.625000 0.687500
vt 0.500000 0.687500
vt 0.500000 0.500000
vt 0.437500 0.500000
vt 0.312500 0.500000
vt 0.250000 0.500000
vt 0.312500 -0.000000
vt 0.250000 -0.000000
vt 0.375000 -0.000000
vt 0.250000 0.875000
vt 0.000000 0.875000
vt 0.500000 0.750000
vt 0.562500 0.750000
vt 0.312500 0.687500
vt 0.625000 0.187500
vt 0.625000 0.187500
vt 0.437500 0.187500
vt 0.375000 0.250000
vt 0.250000 0.187500
vt 0.500000 -0.000000
vt 0.125000 0.687500
vt 0.062500 0.750000
vt 0.000000 0.687500
vt 0.750069 0.750000
vt 0.687500 0.750000
vt 0.750000 0.687500
vt 0.500000 0.687500
vt 0.500000 0.500000
vt 0.562500 0.187500
vt 0.562500 0.187500
vt 0.750000 0.000000
vn 0.0339 -0.9836 -0.1772
vn -0.0339 0.9836 0.1772
vn 0.9883 0.0066 0.1527
vn -0.1490 -0.1803 0.9723
vn -0.9883 -0.0066 -0.1527
vn 0.1490 0.1803 -0.9723
vn -0.0041 -1.0000 0.0083
vn 0.0000 1.0000 -0.0000
vn 0.5535 -0.8329 0.0000
vn -0.5535 0.8329 0.0000
vn 0.9985 0.0544 -0.0030
vn 0.0109 -0.1443 0.9895
vn -0.9986 -0.0530 0.0032
vn -0.0136 -0.1954 -0.9806
vn -0.0341 -0.9883 -0.1484
vn -0.0314 0.9818 -0.1873
vn 0.9995 0.0314 0.0102
vn -0.0048 0.1722 0.9851
vn -0.9994 -0.0321 -0.0101
vn 0.0042 0.1612 -0.9869
vn 0.0482 -0.9878 -0.1479
vn 0.0340 0.9817 -0.1873
vn 0.9993 -0.0347 -0.0116
vn 0.0040 0.1717 0.9851
vn -0.9994 0.0336 0.0117
vn -0.0062 0.1601 -0.9871
vn 0.4420 -0.7650 0.4683
vn 0.0000 0.9204 -0.3909
vn 0.9998 0.0043 0.0188
vn 0.0113 0.3952 0.9185
vn -0.9994 -0.0332 -0.0044
vn 0.0187 -0.5093 -0.8604
vn 0.0125 -0.1945 -0.9808
vn 1.0000 0.0000 0.0000
vn 0.0000 -0.0000 1.0000
vn -1.0000 0.0000 -0.0000
vn 0.0000 -0.0000 -1.0000
vn 0.8329 0.5535 0.0000
vn -0.8329 -0.5535 0.0000
vn 0.0000 -0.3909 -0.9204
vn -0.8984 -0.3948 0.1925
vn -0.0427 0.5145 0.8564
vn 0.8813 0.4234 -0.2100
vn 0.0001 0.0000 -1.0000
vn -0.9992 0.0393 -0.0032
vn -0.0089 -0.1447 0.9894
vn 0.9993 -0.0382 0.0034
vn 0.0000 -1.0000 -0.0000
vn 0.9987 0.0492 -0.0133
vn 0.0061 -0.1416 0.9899
vn -0.9988 -0.0481 0.0133
vn -0.0039 -0.1891 -0.9820
vn 0.9994 0.0332 0.0062
vn -0.0119 0.1764 0.9843
vn -0.9994 -0.0339 -0.0060
vn 0.0096 0.1647 -0.9863
vn 0.9993 -0.0371 -0.0065
vn 0.0130 0.1769 0.9841
vn -0.9993 0.0358 0.0067
vn -0.0118 0.1636 -0.9864
vn 0.9999 -0.0159 0.0068
vn -0.0000 0.3878 0.9217
vn -0.9998 -0.0166 0.0070
vn 0.0410 -0.5116 -0.8582
vn 0.0052 -0.1897 -0.9818
vn -0.0012 0.0016 -1.0000
vn -0.0106 -0.3977 -0.9174
vn -0.9009 -0.3950 0.1797
vn -0.0192 0.5117 0.8590
vn 0.8853 0.4228 -0.1937
vn 0.0000 -0.0001 -1.0000
vn -0.9993 0.0350 -0.0117
vn -0.0051 -0.1425 0.9898
vn 0.9993 -0.0343 0.0115
s off
f 2/1/1 4/2/1 1/3/1
f 8/4/2 6/5/2 5/6/2
f 5/7/3 2/8/3 1/9/3
f 6/5/4 3/10/4 2/8/4
f 7/11/5 4/12/5 3/10/5
f 1/9/6 8/13/6 5/7/6
f 10/14/7 12/15/7 9/16/7
f 13/17/8 15/18/8 14/19/8
f 17/20/9 19/21/9 20/22/9
f 21/23/10 23/24/10 22/25/10
f 53/26/11 34/27/11 33/28/11
f 54/29/12 35/30/12 34/27/12
f 35/30/13 56/31/13 36/32/13
f 53/26/14 40/33/14 37/34/14
f 26/35/15 28/36/15 25/37/15
f 29/38/16 31/39/16 30/40/16
f 52/41/17 30/42/17 51/43/17
f 30/42/18 50/44/18 51/43/18
f 31/45/19 49/46/19 50/44/19
f 25/47/20 49/48/20 52/41/20
f 34/49/21 36/50/21 33/51/21
f 37/52/22 39/53/22 38/54/22
f 53/26/23 38/54/23 54/29/23
f 54/29/24 39/53/24 55/55/24
f 39/53/25 56/31/25 55/55/25
f 53/26/26 36/56/26 56/57/26
f 42/58/27 44/59/27 41/60/27
f 48/61/28 46/62/28 45/63/28
f 45/64/29 58/65/29 57/66/29
f 58/65/30 47/67/30 59/68/30
f 59/68/31 48/69/31 60/70/31
f 57/66/32 44/71/32 60/72/32
f 29/73/33 49/48/33 32/74/33
f 13/75/34 66/76/34 65/77/34
f 14/78/35 67/79/35 66/76/35
f 15/80/36 68/81/36 67/79/36
f 65/82/37 12/83/37 68/84/37
f 21/85/38 62/86/38 61/87/38
f 22/88/35 63/89/35 62/86/35
f 23/90/39 64/91/39 63/92/39
f 17/93/37 64/94/37 61/87/37
f 57/66/40 48/95/40 45/64/40
f 59/68/41 44/96/41 43/97/41
f 58/65/42 43/97/42 42/98/42
f 41/99/43 58/65/43 42/98/43
f 61/87/37 24/100/37 21/85/37
f 63/92/39 20/101/39 19/102/39
f 18/103/35 63/89/35 19/104/35
f 61/87/38 18/103/38 17/93/38
f 65/82/44 16/105/44 13/106/44
f 67/79/36 12/107/36 11/108/36
f 66/76/35 11/108/35 10/109/35
f 65/77/34 10/109/34 9/110/34
f 27/111/45 49/46/45 28/112/45
f 26/113/46 50/44/46 27/111/46
f 52/41/47 26/113/47 25/47/47
f 2/1/1 3/114/1 4/2/1
f 8/4/2 7/11/2 6/5/2
f 5/7/3 6/5/3 2/8/3
f 6/5/4 7/11/4 3/10/4
f 7/11/5 8/115/5 4/12/5
f 1/9/6 4/116/6 8/13/6
f 10/14/48 11/117/48 12/15/48
f 13/17/8 16/118/8 15/18/8
f 17/20/9 18/119/9 19/21/9
f 21/23/10 24/120/10 23/24/10
f 53/26/49 54/29/49 34/27/49
f 54/29/50 55/55/50 35/30/50
f 35/30/51 55/55/51 56/31/51
f 53/26/52 56/57/52 40/33/52
f 26/35/15 27/121/15 28/36/15
f 29/38/16 32/122/16 31/39/16
f 52/41/53 29/73/53 30/42/53
f 30/42/54 31/45/54 50/44/54
f 31/45/55 32/123/55 49/46/55
f 25/47/56 28/124/56 49/48/56
f 34/49/21 35/125/21 36/50/21
f 37/52/22 40/126/22 39/53/22
f 53/26/57 37/34/57 38/54/57
f 54/29/58 38/54/58 39/53/58
f 39/53/59 40/127/59 56/31/59
f 53/26/60 33/28/60 36/56/60
f 42/58/27 43/128/27 44/59/27
f 48/61/28 47/129/28 46/62/28
f 45/64/61 46/130/61 58/65/61
f 58/65/62 46/130/62 47/67/62
f 59/68/63 47/67/63 48/69/63
f 57/66/64 41/99/64 44/71/64
f 29/73/65 52/41/65 49/48/65
f 13/75/34 14/78/34 66/76/34
f 14/78/35 15/80/35 67/79/35
f 15/80/36 16/131/36 68/81/36
f 65/82/66 9/132/66 12/83/66
f 21/85/38 22/88/38 62/86/38
f 22/88/35 23/133/35 63/89/35
f 23/90/39 24/134/39 64/91/39
f 17/93/37 20/135/37 64/94/37
f 57/66/67 60/72/67 48/95/67
f 59/68/68 60/70/68 44/96/68
f 58/65/69 59/68/69 43/97/69
f 41/99/70 57/66/70 58/65/70
f 61/87/37 64/94/37 24/100/37
f 63/92/39 64/91/39 20/101/39
f 18/103/35 62/86/35 63/89/35
f 61/87/38 62/86/38 18/103/38
f 65/82/71 68/84/71 16/105/71
f 67/79/36 68/81/36 12/107/36
f 66/76/35 67/79/35 11/108/35
f 65/77/34 66/76/34 10/109/34
f 27/111/72 50/44/72 49/46/72
f 26/113/73 51/43/73 50/44/73
f 52/41/74 51/43/74 26/113/74
