# Blender v2.90.1 OBJ File: 'minecraft-character.blend'
# www.blender.org
o model_mesh
v 0.430318 2.618071 -0.364017
v 0.366841 2.542029 0.429827
v -0.430552 2.536474 0.365535
v -0.367075 2.612515 -0.428310
v 0.418694 3.414429 -0.288664
v 0.355217 3.338388 0.505180
v -0.442176 3.332832 0.440887
v -0.378699 3.408874 -0.352957
v 0.400017 1.367681 -0.200586
v 0.400000 1.369408 0.200000
v -0.400000 1.369408 0.200000
v -0.400000 1.369408 -0.200000
v 0.400000 2.569408 -0.200000
v 0.400000 2.569408 0.200000
v -0.400000 2.569408 0.200000
v -0.399994 2.569402 -0.200036
v 1.127870 1.515112 -0.200000
v 1.127870 1.515112 0.200000
v 0.746150 1.395569 0.200000
v 0.746150 1.395569 -0.200000
v 0.769241 2.660270 -0.200000
v 0.769241 2.660270 0.200000
v 0.387522 2.540727 0.200000
v 0.387522 2.540727 -0.200000
v 0.396551 0.183580 -0.196959
v 0.394988 0.152959 0.201865
v -0.004943 0.160320 0.200863
v -0.003380 0.190942 -0.197961
v 0.398267 1.350884 -0.206929
v 0.395972 1.390506 0.191097
v -0.003965 1.383571 0.189481
v -0.001669 1.343948 -0.208545
v 0.003676 0.192570 -0.197706
v 0.005448 0.162100 0.201128
v -0.394418 0.151772 0.202115
v -0.396189 0.182243 -0.196719
v -0.001730 1.343975 -0.208602
v 0.000756 1.383588 0.189424
v -0.399169 1.391099 0.191175
v -0.401656 1.351486 -0.206851
v -0.257786 1.412182 0.064353
v -0.262570 1.521621 0.449061
v -0.651419 1.430248 0.470218
v -0.646634 1.320810 0.085509
v -0.400161 2.525980 -0.215045
v -0.400161 2.608782 0.176291
v -0.800161 2.608782 0.176291
v -0.800161 2.525980 -0.215045
v 0.007996 0.767242 -0.150472
v 0.006049 0.772535 0.247898
v 0.405983 0.772322 0.249207
v 0.407912 0.767811 -0.149216
v -0.012169 0.768828 -0.150535
v -0.010040 0.773403 0.247895
v -0.409935 0.771991 0.249263
v -0.412064 0.767420 -0.149166
v -0.399224 1.955876 -0.093855
v -0.401608 2.051829 0.294202
v -0.796041 2.006310 0.304745
v -0.793648 1.910190 -0.083277
v 0.948555 2.087691 -0.200000
v 0.948555 2.087691 0.200000
v 0.566836 1.968148 0.200000
v 0.566836 1.968148 -0.200000
v 0.400000 1.969408 -0.200000
v 0.400000 1.969408 0.200000
v -0.400000 1.969408 0.200000
v -0.399999 1.969407 -0.200004
vt 0.375000 0.875000
vt 0.250000 1.000000
vt 0.375000 1.000000
vt 0.125000 1.000000
vt 0.250000 0.875000
vt 0.250000 1.000000
vt 0.375000 0.874982
vt 0.250000 0.749982
vt 0.375000 0.749982
vt 0.125000 0.750000
vt 0.125000 0.875000
vt 0.000000 0.750000
vt 0.500000 0.875000
vt 0.437500 0.750000
vt 0.562500 0.687500
vt 0.437500 0.687500
vt 0.437500 0.687500
vt 0.312500 0.750000
vt 0.437500 0.750000
vt 0.625000 0.187500
vt 0.687500 0.250000
vt 0.687500 0.187500
vt 0.562500 0.187500
vt 0.625000 0.250000
vt 0.562500 0.250000
vt 0.187500 0.593750
vt 0.125000 0.500000
vt 0.187500 0.500000
vt 0.125000 0.593750
vt 0.062500 0.500000
vt 0.000000 0.593750
vt -0.000000 0.500000
vt 0.250000 0.687500
vt 0.187500 0.687500
vt 0.375000 0.250000
vt 0.437500 0.187500
vt 0.437500 0.250000
vt 0.375000 0.187500
vt 0.312500 0.250000
vt 0.312500 0.187500
vt 0.437500 0.093750
vt 0.375000 0.187500
vt 0.375000 0.093750
vt 0.312500 0.093750
vt 0.312500 0.187500
vt 0.250000 0.093750
vt 0.437500 -0.000000
vt 0.500000 0.093750
vt 0.125000 0.750000
vt 0.187500 0.687500
vt 0.187500 0.750000
vt 0.125000 0.750000
vt 0.062500 0.687500
vt 0.125000 0.687500
vt 0.062500 0.593750
vt 0.250000 0.500000
vt 0.250000 0.593750
vt 0.812569 0.750000
vt 0.750070 0.687500
vt 0.812569 0.687500
vt 0.750000 0.750000
vt 0.687500 0.687500
vt 0.750000 0.687500
vt 0.812500 0.687500
vt 0.750000 0.593750
vt 0.812500 0.593750
vt 0.687500 0.687500
vt 0.687500 0.593750
vt 0.625000 0.687500
vt 0.625000 0.593750
vt 0.875000 0.500000
vt 0.875000 0.593750
vt 0.437500 0.187500
vt 0.500000 0.187500
vt 0.250000 0.687500
vt 0.312500 0.593750
vt 0.250000 0.593750
vt 0.312500 0.687500
vt 0.437500 0.593750
vt 0.437500 0.687500
vt 0.500000 0.593750
vt 0.500000 0.593750
vt 0.625000 0.500000
vt 0.625000 0.593750
vt 0.687500 0.187500
vt 0.625000 0.093750
vt 0.687500 0.093750
vt 0.625000 0.187500
vt 0.562500 0.093750
vt 0.500000 0.187500
vt 0.562500 0.093750
vt 0.500000 0.093750
vt 0.687500 0.000000
vt 0.750000 0.093750
vt 0.875000 0.687500
vt 0.625000 0.500000
vt 0.687500 0.500000
vt 0.750000 0.500000
vt 0.812500 0.500000
vt 0.750000 0.187500
vt 0.562500 0.000000
vt 0.500000 0.000000
vt 0.625000 0.000000
vt 0.562500 0.000000
vt 0.625000 0.687500
vt 0.500000 0.687500
vt 0.500000 0.500000
vt 0.437500 0.500000
vt 0.312500 0.500000
vt 0.250000 0.500000
vt 0.312500 -0.000000
vt 0.250000 -0.000000
vt 0.375000 -0.000000
vt 0.250000 0.875000
vt 0.000000 0.875000
vt 0.500000 0.750000
vt 0.562500 0.750000
vt 0.312500 0.687500
vt 0.625000 0.250000
vt 0.625000 0.187500
vt 0.375000 0.187500
vt 0.375000 0.250000
vt 0.250000 0.187500
vt 0.500000 -0.000000
vt 0.125000 0.687500
vt 0.062500 0.750000
vt 0.000000 0.687500
vt 0.750069 0.750000
vt 0.687500 0.750000
vt 0.750000 0.687500
vt 0.500000 0.687500
vt 0.500000 0.500000
vt 0.562500 0.187500
vt 0.562500 0.187500
vt 0.750000 0.000000
vn 0.0145 -0.9954 -0.0942
vn -0.0145 0.9954 0.0942
vn 0.9967 0.0069 0.0804
vn -0.0793 -0.0951 0.9923
vn -0.9967 -0.0069 -0.0804
vn 0.0793 0.0951 -0.9923
vn -0.0022 -1.0000 0.0043
vn 0.0000 1.0000 -0.0000
vn 0.2989 -0.9543 0.0000
vn -0.2989 0.9543 -0.0000
vn 0.9996 0.0277 -0.0023
vn 0.0044 -0.0762 0.9971
vn -0.9996 -0.0273 0.0024
vn -0.0062 -0.1003 -0.9949
vn -0.0182 -0.9969 -0.0766
vn -0.0169 0.9949 -0.0991
vn 0.9999 0.0166 0.0047
vn -0.0032 0.0935 0.9956
vn -0.9998 -0.0168 -0.0047
vn 0.0030 0.0814 -0.9967
vn 0.0256 -0.9968 -0.0763
vn 0.0183 0.9949 -0.0991
vn 0.9998 -0.0182 -0.0051
vn 0.0031 0.0934 0.9956
vn -0.9998 0.0179 0.0051
vn -0.0037 0.0809 -0.9967
vn 0.2342 -0.9343 0.2687
vn 0.0000 0.9783 -0.2070
vn 1.0000 0.0028 0.0055
vn 0.0021 0.2085 0.9780
vn -0.9999 -0.0113 -0.0034
vn 0.0059 -0.2739 -0.9617
vn 0.0058 -0.1001 -0.9950
vn 1.0000 -0.0000 0.0000
vn 0.0000 -0.0000 1.0000
vn -1.0000 -0.0000 -0.0000
vn 0.0000 -0.0000 -1.0000
vn 0.9543 0.2989 0.0000
vn -0.9543 -0.2989 -0.0000
vn 0.0000 -0.2079 -0.9781
vn -0.9720 -0.2288 0.0530
vn -0.0129 0.2772 0.9607
vn 0.9697 0.2380 -0.0557
vn -0.9998 0.0199 -0.0024
vn -0.0039 -0.0765 0.9971
vn 0.9998 -0.0196 0.0024
vn 0.0000 -1.0000 0.0000
vn 0.9997 0.0258 -0.0056
vn 0.0037 -0.0757 0.9971
vn -0.9997 -0.0254 0.0056
vn -0.0031 -0.0982 -0.9952
vn 0.9998 0.0169 0.0041
vn -0.0057 0.0951 0.9955
vn -0.9998 -0.0172 -0.0041
vn 0.0040 0.0820 -0.9966
vn 0.9998 -0.0186 -0.0044
vn 0.0061 0.0953 0.9954
vn -0.9998 0.0183 0.0044
vn -0.0046 0.0815 -0.9967
vn 1.0000 -0.0025 0.0005
vn -0.0000 0.2071 0.9783
vn -1.0000 -0.0065 0.0014
vn 0.0126 -0.2763 -0.9610
vn 0.0033 -0.0984 -0.9951
vn -0.0007 0.0010 -1.0000
vn -0.0020 -0.2093 -0.9779
vn -0.9723 -0.2281 0.0505
vn -0.0060 0.2747 0.9615
vn 0.9701 0.2370 -0.0527
vn 0.0000 -0.0001 -1.0000
vn -0.9998 0.0183 -0.0051
vn -0.0033 -0.0762 0.9971
vn 0.9998 -0.0181 0.0050
s off
f 2/1/1 4/2/1 1/3/1
f 8/4/2 6/5/2 5/6/2
f 5/7/3 2/8/3 1/9/3
f 6/5/4 3/10/4 2/8/4
f 7/11/5 4/12/5 3/10/5
f 1/9/6 8/13/6 5/7/6
f 10/14/7 12/15/7 9/16/7
f 13/17/8 15/18/8 14/19/8
f 18/20/9 20/21/9 17/22/9
f 21/23/10 23/24/10 22/25/10
f 53/26/11 34/27/11 33/28/11
f 54/29/12 35/30/12 34/27/12
f 35/30/13 56/31/13 36/32/13
f 53/26/14 40/33/14 37/34/14
f 25/35/15 27/36/15 28/37/15
f 29/38/16 31/39/16 30/40/16
f 52/41/17 30/42/17 51/43/17
f 30/42/18 50/44/18 51/43/18
f 31/45/19 49/46/19 50/44/19
f 25/47/20 49/48/20 52/41/20
f 34/49/21 36/50/21 33/51/21
f 37/52/22 39/53/22 38/54/22
f 53/26/23 38/54/23 54/29/23
f 54/29/24 39/53/24 55/55/24
f 39/53/25 56/31/25 55/55/25
f 53/26/26 36/56/26 56/57/26
f 42/58/27 44/59/27 41/60/27
f 48/61/28 46/62/28 45/63/28
f 45/64/29 58/65/29 57/66/29
f 58/65/30 47/67/30 59/68/30
f 59/68/31 48/69/31 60/70/31
f 57/66/32 44/71/32 60/72/32
f 29/73/33 49/48/33 32/74/33
f 13/75/34 66/76/34 65/77/34
f 14/78/35 67/79/35 66/76/35
f 15/80/36 68/81/36 67/79/36
f 65/82/37 12/83/37 68/84/37
f 21/85/38 62/86/38 61/87/38
f 22/88/35 63/89/35 62/86/35
f 23/90/39 64/91/39 63/92/39
f 17/93/37 64/94/37 61/87/37
f 57/66/40 48/95/40 45/64/40
f 59/68/41 44/96/41 43/97/41
f 58/65/42 43/97/42 42/98/42
f 41/99/43 58/65/43 42/98/43
f 21/85/37 64/94/37 24/100/37
f 63/92/39 20/101/39 19/102/39
f 18/103/35 63/89/35 19/104/35
f 61/87/38 18/103/38 17/93/38
f 65/82/37 16/105/37 13/106/37
f 67/79/36 12/107/36 11/108/36
f 66/76/35 11/108/35 10/109/35
f 65/77/34 10/109/34 9/110/34
f 27/111/44 49/46/44 28/112/44
f 26/113/45 50/44/45 27/111/45
f 52/41/46 26/113/46 25/47/46
f 2/1/1 3/114/1 4/2/1
f 8/4/2 7/11/2 6/5/2
f 5/7/3 6/5/3 2/8/3
f 6/5/4 7/11/4 3/10/4
f 7/11/5 8/115/5 4/12/5
f 1/9/6 4/116/6 8/13/6
f 10/14/47 11/117/47 12/15/47
f 13/17/8 16/118/8 15/18/8
f 18/20/9 19/119/9 20/21/9
f 21/23/10 24/120/10 23/24/10
f 53/26/48 54/29/48 34/27/48
f 54/29/49 55/55/49 35/30/49
f 35/30/50 55/55/50 56/31/50
f 53/26/51 56/57/51 40/33/51
f 25/35/15 26/121/15 27/36/15
f 29/38/16 32/122/16 31/39/16
f 52/41/52 29/73/52 30/42/52
f 30/42/53 31/45/53 50/44/53
f 31/45/54 32/123/54 49/46/54
f 25/47/55 28/124/55 49/48/55
f 34/49/21 35/125/21 36/50/21
f 37/52/22 40/126/22 39/53/22
f 53/26/56 37/34/56 38/54/56
f 54/29/57 38/54/57 39/53/57
f 39/53/58 40/127/58 56/31/58
f 53/26/59 33/28/59 36/56/59
f 42/58/27 43/128/27 44/59/27
f 48/61/28 47/129/28 46/62/28
f 45/64/60 46/130/60 58/65/60
f 58/65/61 46/130/61 47/67/61
f 59/68/62 47/67/62 48/69/62
f 57/66/63 41/99/63 44/71/63
f 29/73/64 52/41/64 49/48/64
f 13/75/34 14/78/34 66/76/34
f 14/78/35 15/80/35 67/79/35
f 15/80/36 16/131/36 68/81/36
f 65/82/65 9/132/65 12/83/65
f 21/85/38 22/88/38 62/86/38
f 22/88/35 23/133/35 63/89/35
f 23/90/39 24/134/39 64/91/39
f 17/93/37 20/135/37 64/94/37
f 57/66/66 60/72/66 48/95/66
f 59/68/67 60/70/67 44/96/67
f 58/65/68 59/68/68 43/97/68
f 41/99/69 57/66/69 58/65/69
f 21/85/37 61/87/37 64/94/37
f 63/92/39 64/91/39 20/101/39
f 18/103/35 62/86/35 63/89/35
f 61/87/38 62/86/38 18/103/38
f 65/82/70 68/84/70 16/105/70
f 67/79/36 68/81/36 12/107/36
f 66/76/35 67/79/35 11/108/35
f 65/77/34 66/76/34 10/109/34
f 27/111/71 50/44/71 49/46/71
f 26/113/72 51/43/72 50/44/72
f 52/41/73 51/43/73 26/113/73
