# Blender v2.90.1 OBJ File: 'minecraft-character.blend'
# www.blender.org
o model_mesh
v 0.415354 2.609221 -0.383056
v 0.383912 2.571764 0.415448
v -0.415455 2.568260 0.383807
v -0.384012 2.605717 -0.414697
v 0.410376 3.408336 -0.345766
v 0.378933 3.370879 0.452738
v -0.420433 3.367375 0.421097
v -0.388991 3.404832 -0.377407
v 0.400013 1.380004 -0.200311
v 0.400000 1.380848 0.200000
v -0.400000 1.380848 0.200000
v -0.400000 1.380848 -0.200000
v 0.400000 2.580849 -0.200000
v 0.400000 2.580849 0.200000
v -0.400000 2.580849 0.200000
v -0.399997 2.580846 -0.200018
v 0.965233 1.439864 -0.200000
v 0.965233 1.439864 0.200000
v 0.569601 1.380912 0.200000
v 0.569601 1.380912 -0.200000
v 0.788379 2.626760 -0.200000
v 0.788379 2.626760 0.200000
v 0.392747 2.567809 0.200000
v 0.392747 2.567809 -0.200000
v 0.397613 0.185711 -0.198165
v 0.396935 0.170825 0.201557
v -0.003049 0.174436 0.201013
v -0.002370 0.189322 -0.198709
v 0.398428 1.370882 -0.203552
v 0.397378 1.390468 0.195967
v -0.002606 1.387065 0.195083
v -0.001557 1.367479 -0.204436
v 0.000803 0.190216 -0.198558
v 0.001525 0.175411 0.201167
v -0.398443 0.170346 0.201701
v -0.399164 0.185152 -0.198024
v -0.001852 1.367617 -0.204458
v -0.000716 1.387197 0.195061
v -0.400698 1.390883 0.196018
v -0.401834 1.371302 -0.203500
v -0.329469 1.389186 -0.067556
v -0.330980 1.443226 0.328774
v -0.728341 1.397599 0.333480
v -0.726830 1.343559 -0.062850
v -0.400161 2.560030 -0.208480
v -0.400161 2.600697 0.189447
v -0.800161 2.600697 0.189447
v -0.800161 2.560030 -0.208480
v 0.003253 0.778162 -0.175684
v 0.002380 0.780901 0.223911
v 0.402364 0.780797 0.224626
v 0.403228 0.778442 -0.174994
v -0.007031 0.779059 -0.175705
v -0.006102 0.781448 0.223917
v -0.406077 0.780757 0.224663
v -0.407006 0.778369 -0.174959
v -0.399198 1.971436 -0.147910
v -0.399955 2.018706 0.249225
v -0.798634 1.995976 0.251571
v -0.797878 1.948623 -0.145557
v 0.876806 2.033312 -0.200000
v 0.876806 2.033312 0.200000
v 0.481174 1.974361 0.200000
v 0.481174 1.974361 -0.200000
v 0.400000 1.980849 -0.200000
v 0.400000 1.980849 0.200000
v -0.400000 1.980849 0.200000
v -0.400000 1.980848 -0.200002
vt 0.375000 0.875000
vt 0.250000 1.000000
vt 0.375000 1.000000
vt 0.125000 1.000000
vt 0.250000 0.875000
vt 0.250000 1.000000
vt 0.375000 0.874982
vt 0.250000 0.749982
vt 0.375000 0.749982
vt 0.125000 0.750000
vt 0.000000 0.875000
vt 0.000000 0.750000
vt 0.500000 0.875000
vt 0.437500 0.750000
vt 0.562500 0.687500
vt 0.437500 0.687500
vt 0.437500 0.687500
vt 0.312500 0.750000
vt 0.437500 0.750000
vt 0.687500 0.187500
vt 0.625000 0.250000
vt 0.687500 0.250000
vt 0.562500 0.187500
vt 0.625000 0.250000
vt 0.562500 0.250000
vt 0.187500 0.593750
vt 0.125000 0.500000
vt 0.187500 0.500000
vt 0.125000 0.593750
vt 0.062500 0.500000
vt 0.000000 0.593750
vt -0.000000 0.500000
vt 0.250000 0.687500
vt 0.187500 0.687500
vt 0.375000 0.250000
vt 0.437500 0.187500
vt 0.437500 0.250000
vt 0.375000 0.250000
vt 0.312500 0.187500
vt 0.375000 0.187500
vt 0.437500 0.093750
vt 0.375000 0.187500
vt 0.375000 0.093750
vt 0.312500 0.093750
vt 0.312500 0.187500
vt 0.250000 0.093750
vt 0.437500 -0.000000
vt 0.500000 0.093750
vt 0.125000 0.750000
vt 0.187500 0.687500
vt 0.187500 0.750000
vt 0.062500 0.750000
vt 0.125000 0.687500
vt 0.125000 0.750000
vt 0.062500 0.687500
vt 0.062500 0.593750
vt 0.250000 0.500000
vt 0.250000 0.593750
vt 0.812569 0.750000
vt 0.750070 0.687500
vt 0.812569 0.687500
vt 0.750000 0.750000
vt 0.687500 0.687500
vt 0.750000 0.687500
vt 0.812500 0.687500
vt 0.750000 0.593750
vt 0.812500 0.593750
vt 0.687500 0.687500
vt 0.687500 0.593750
vt 0.625000 0.687500
vt 0.625000 0.593750
vt 0.875000 0.500000
vt 0.875000 0.593750
vt 0.437500 0.187500
vt 0.500000 0.187500
vt 0.250000 0.687500
vt 0.312500 0.593750
vt 0.250000 0.593750
vt 0.312500 0.687500
vt 0.437500 0.593750
vt 0.437500 0.687500
vt 0.500000 0.593750
vt 0.500000 0.593750
vt 0.625000 0.500000
vt 0.625000 0.593750
vt 0.687500 0.187500
vt 0.625000 0.093750
vt 0.687500 0.093750
vt 0.625000 0.187500
vt 0.562500 0.093750
vt 0.500000 0.187500
vt 0.562500 0.093750
vt 0.500000 0.093750
vt 0.687500 0.000000
vt 0.750000 0.093750
vt 0.875000 0.687500
vt 0.625000 0.500000
vt 0.687500 0.500000
vt 0.750000 0.500000
vt 0.812500 0.500000
vt 0.750000 0.187500
vt 0.500000 0.000000
vt 0.562500 0.000000
vt 0.562500 0.000000
vt 0.625000 0.000000
vt 0.625000 0.687500
vt 0.500000 0.687500
vt 0.500000 0.500000
vt 0.437500 0.500000
vt 0.312500 0.500000
vt 0.250000 0.500000
vt 0.312500 -0.000000
vt 0.250000 -0.000000
vt 0.375000 -0.000000
vt 0.250000 0.875000
vt 0.125000 0.875000
vt 0.500000 0.750000
vt 0.562500 0.750000
vt 0.312500 0.687500
vt 0.625000 0.187500
vt 0.625000 0.187500
vt 0.375000 0.187500
vt 0.312500 0.250000
vt 0.250000 0.187500
vt 0.500000 -0.000000
vt 0.125000 0.687500
vt 0.000000 0.687500
vt 0.750069 0.750000
vt 0.687500 0.750000
vt 0.750000 0.687500
vt 0.500000 0.687500
vt 0.500000 0.500000
vt 0.562500 0.187500
vt 0.562500 0.187500
vt 0.750000 0.000000
vn 0.0062 -0.9989 -0.0466
vn -0.0062 0.9989 0.0466
vn 0.9992 0.0044 0.0396
vn -0.0393 -0.0468 0.9981
vn -0.9992 -0.0044 -0.0396
vn 0.0393 0.0468 -0.9981
vn -0.0011 -1.0000 0.0021
vn 0.0000 1.0000 -0.0000
vn 0.1474 -0.9891 0.0000
vn -0.1474 0.9891 0.0000
vn 0.9999 0.0134 -0.0013
vn 0.0018 -0.0375 0.9993
vn -0.9999 -0.0133 0.0013
vn -0.0028 -0.0488 -0.9988
vn -0.0090 -0.9993 -0.0372
vn -0.0084 0.9988 -0.0490
vn 1.0000 0.0083 0.0021
vn -0.0018 0.0469 0.9989
vn -1.0000 -0.0083 -0.0021
vn 0.0017 0.0390 -0.9992
vn 0.0126 -0.9992 -0.0370
vn 0.0091 0.9988 -0.0490
vn 1.0000 -0.0090 -0.0023
vn 0.0018 0.0469 0.9989
vn -1.0000 0.0089 0.0023
vn -0.0019 0.0388 -0.9992
vn 0.1146 -0.9842 0.1346
vn 0.0000 0.9948 -0.1017
vn 1.0000 0.0018 0.0017
vn 0.0000 0.1022 0.9948
vn -1.0000 -0.0039 -0.0014
vn 0.0019 -0.1352 -0.9908
vn 0.0026 -0.0487 -0.9988
vn 1.0000 -0.0000 0.0000
vn -0.0000 -0.0000 1.0000
vn -1.0000 0.0000 -0.0000
vn 0.0000 -0.0000 -1.0000
vn 0.9891 0.1474 0.0000
vn -0.9891 -0.1474 -0.0000
vn 0.0000 -0.1024 -0.9947
vn -0.9933 -0.1151 0.0119
vn -0.0039 0.1365 0.9906
vn 0.9930 0.1173 -0.0122
vn -1.0000 0.0096 -0.0013
vn -0.0017 -0.0377 0.9993
vn 1.0000 -0.0095 0.0013
vn 0.0000 -1.0000 0.0000
vn 0.9999 0.0127 -0.0024
vn 0.0019 -0.0376 0.9993
vn -0.9999 -0.0126 0.0024
vn -0.0018 -0.0481 -0.9988
vn 1.0000 0.0082 0.0022
vn -0.0026 0.0475 0.9989
vn -1.0000 -0.0083 -0.0022
vn 0.0017 0.0391 -0.9992
vn 1.0000 -0.0089 -0.0024
vn 0.0028 0.0476 0.9989
vn -1.0000 0.0088 0.0024
vn -0.0018 0.0388 -0.9992
vn 1.0000 0.0004 -0.0000
vn -1.0000 -0.0025 0.0003
vn 0.0039 -0.1363 -0.9907
vn 0.0018 -0.0481 -0.9988
vn -0.0004 0.0005 -1.0000
vn -0.9933 -0.1150 0.0118
vn -0.0019 0.1354 0.9908
vn 0.9930 0.1173 -0.0121
vn -1.0000 0.0090 -0.0022
vn -0.0018 -0.0378 0.9993
vn 1.0000 -0.0090 0.0022
s off
f 2/1/1 4/2/1 1/3/1
f 8/4/2 6/5/2 5/6/2
f 5/7/3 2/8/3 1/9/3
f 6/5/4 3/10/4 2/8/4
f 3/10/5 8/11/5 4/12/5
f 1/9/6 8/13/6 5/7/6
f 10/14/7 12/15/7 9/16/7
f 13/17/8 15/18/8 14/19/8
f 17/20/9 19/21/9 20/22/9
f 21/23/10 23/24/10 22/25/10
f 53/26/11 34/27/11 33/28/11
f 54/29/12 35/30/12 34/27/12
f 35/30/13 56/31/13 36/32/13
f 53/26/14 40/33/14 37/34/14
f 25/35/15 27/36/15 28/37/15
f 32/38/16 30/39/16 29/40/16
f 52/41/17 30/42/17 51/43/17
f 30/42/18 50/44/18 51/43/18
f 31/45/19 49/46/19 50/44/19
f 25/47/20 49/48/20 52/41/20
f 34/49/21 36/50/21 33/51/21
f 40/52/22 38/53/22 37/54/22
f 53/26/23 38/53/23 54/29/23
f 54/29/24 39/55/24 55/56/24
f 39/55/25 56/31/25 55/56/25
f 53/26/26 36/57/26 56/58/26
f 42/59/27 44/60/27 41/61/27
f 48/62/28 46/63/28 45/64/28
f 45/65/29 58/66/29 57/67/29
f 58/66/30 47/68/30 59/69/30
f 59/69/31 48/70/31 60/71/31
f 57/67/32 44/72/32 60/73/32
f 29/74/33 49/48/33 32/75/33
f 13/76/34 66/77/34 65/78/34
f 14/79/35 67/80/35 66/77/35
f 15/81/36 68/82/36 67/80/36
f 65/83/37 12/84/37 68/85/37
f 21/86/38 62/87/38 61/88/38
f 22/89/35 63/90/35 62/87/35
f 23/91/39 64/92/39 63/93/39
f 17/94/37 64/95/37 61/88/37
f 57/67/40 48/96/40 45/65/40
f 59/69/41 44/97/41 43/98/41
f 58/66/42 43/98/42 42/99/42
f 41/100/43 58/66/43 42/99/43
f 61/88/37 24/101/37 21/86/37
f 19/102/39 64/92/39 20/103/39
f 62/87/35 19/104/35 18/105/35
f 61/88/38 18/105/38 17/94/38
f 65/83/37 16/106/37 13/107/37
f 67/80/36 12/108/36 11/109/36
f 66/77/35 11/109/35 10/110/35
f 65/78/34 10/110/34 9/111/34
f 27/112/44 49/46/44 28/113/44
f 26/114/45 50/44/45 27/112/45
f 52/41/46 26/114/46 25/47/46
f 2/1/1 3/115/1 4/2/1
f 8/4/2 7/116/2 6/5/2
f 5/7/3 6/5/3 2/8/3
f 6/5/4 7/116/4 3/10/4
f 3/10/5 7/116/5 8/11/5
f 1/9/6 4/117/6 8/13/6
f 10/14/47 11/118/47 12/15/47
f 13/17/8 16/119/8 15/18/8
f 17/20/9 18/120/9 19/21/9
f 21/23/10 24/121/10 23/24/10
f 53/26/48 54/29/48 34/27/48
f 54/29/49 55/56/49 35/30/49
f 35/30/50 55/56/50 56/31/50
f 53/26/51 56/58/51 40/33/51
f 25/35/15 26/122/15 27/36/15
f 32/38/16 31/123/16 30/39/16
f 52/41/52 29/74/52 30/42/52
f 30/42/53 31/45/53 50/44/53
f 31/45/54 32/124/54 49/46/54
f 25/47/55 28/125/55 49/48/55
f 34/49/21 35/126/21 36/50/21
f 40/52/22 39/55/22 38/53/22
f 53/26/56 37/34/56 38/53/56
f 54/29/57 38/53/57 39/55/57
f 39/55/58 40/127/58 56/31/58
f 53/26/59 33/28/59 36/57/59
f 42/59/27 43/128/27 44/60/27
f 48/62/28 47/129/28 46/63/28
f 45/65/60 46/130/60 58/66/60
f 58/66/30 46/130/30 47/68/30
f 59/69/61 47/68/61 48/70/61
f 57/67/62 41/100/62 44/72/62
f 29/74/63 52/41/63 49/48/63
f 13/76/34 14/79/34 66/77/34
f 14/79/35 15/81/35 67/80/35
f 15/81/36 16/131/36 68/82/36
f 65/83/64 9/132/64 12/84/64
f 21/86/38 22/89/38 62/87/38
f 22/89/35 23/133/35 63/90/35
f 23/91/39 24/134/39 64/92/39
f 17/94/37 20/135/37 64/95/37
f 57/67/40 60/73/40 48/96/40
f 59/69/65 60/71/65 44/97/65
f 58/66/66 59/69/66 43/98/66
f 41/100/67 57/67/67 58/66/67
f 61/88/37 64/95/37 24/101/37
f 19/102/39 63/93/39 64/92/39
f 62/87/35 63/90/35 19/104/35
f 61/88/38 62/87/38 18/105/38
f 65/83/37 68/85/37 16/106/37
f 67/80/36 68/82/36 12/108/36
f 66/77/35 67/80/35 11/109/35
f 65/78/34 66/77/34 10/110/34
f 27/112/68 50/44/68 49/46/68
f 26/114/69 51/43/69 50/44/69
f 52/41/70 51/43/70 26/114/70
