# Blender v2.90.1 OBJ File: 'minecraft-character.blend'
# www.blender.org
o model_mesh
v 0.400000 2.599964 -0.400000
v 0.400000 2.599964 0.400000
v -0.400000 2.599964 0.400000
v -0.400000 2.599964 -0.400000
v 0.400000 3.399964 -0.400000
v 0.400000 3.399964 0.400000
v -0.400000 3.399964 0.400000
v -0.400000 3.399964 -0.400000
v 0.400000 1.392063 -0.200000
v 0.400000 1.392063 0.200000
v -0.400000 1.392063 0.200000
v -0.400000 1.392063 -0.200000
v 0.400000 2.592064 -0.200000
v 0.400000 2.592064 0.200000
v -0.400000 2.592064 0.200000
v -0.400000 2.592064 -0.200000
v 0.801898 1.392063 -0.200000
v 0.801898 1.392063 0.200000
v 0.401898 1.392063 0.200000
v 0.401898 1.392063 -0.200000
v 0.801898 2.592064 -0.200000
v 0.801898 2.592064 0.200000
v 0.401898 2.592064 0.200000
v 0.401898 2.592064 -0.200000
v 0.398663 0.190263 -0.199853
v 0.398663 0.190263 0.200147
v -0.001337 0.190263 0.200147
v -0.001337 0.190263 -0.199853
v 0.398663 1.390263 -0.199852
v 0.398663 1.390263 0.200148
v -0.001337 1.390263 0.200147
v -0.001337 1.390263 -0.199853
v -0.002092 0.190505 -0.199835
v -0.002092 0.190505 0.200165
v -0.402092 0.190505 0.200165
v -0.402092 0.190505 -0.199835
v -0.002092 1.390505 -0.199835
v -0.002092 1.390505 0.200165
v -0.402092 1.390505 0.200165
v -0.402092 1.390505 -0.199835
v -0.400161 1.392063 -0.200000
v -0.400161 1.392063 0.200000
v -0.800161 1.392063 0.200000
v -0.800161 1.392063 -0.200000
v -0.400161 2.592064 -0.200000
v -0.400161 2.592064 0.200000
v -0.800161 2.592064 0.200000
v -0.800161 2.592064 -0.200000
v -0.001337 0.790262 -0.199853
v -0.001337 0.790262 0.200147
v 0.398663 0.790262 0.200147
v 0.398663 0.790262 -0.199853
v -0.002092 0.790504 -0.199835
v -0.002092 0.790504 0.200165
v -0.402092 0.790504 0.200165
v -0.402092 0.790504 -0.199835
v -0.400161 1.992064 -0.200000
v -0.400161 1.992064 0.200000
v -0.800161 1.992064 0.200000
v -0.800161 1.992064 -0.200000
v 0.801898 1.992064 -0.200000
v 0.801898 1.992064 0.200000
v 0.401898 1.992064 0.200000
v 0.401898 1.992064 -0.200000
v 0.400000 1.992063 -0.200000
v 0.400000 1.992063 0.200000
v -0.400000 1.992063 0.200000
v -0.400000 1.992063 -0.200000
vt 0.375000 0.875000
vt 0.250000 1.000000
vt 0.375000 1.000000
vt 0.125000 1.000000
vt 0.250000 0.875000
vt 0.250000 1.000000
vt 0.375000 0.874982
vt 0.250000 0.749982
vt 0.375000 0.749982
vt 0.125000 0.750000
vt 0.125000 0.875000
vt 0.000000 0.750000
vt 0.500000 0.875000
vt 0.437500 0.750000
vt 0.562500 0.687500
vt 0.437500 0.687500
vt 0.312500 0.687500
vt 0.437500 0.750000
vt 0.437500 0.687500
vt 0.625000 0.187500
vt 0.687500 0.250000
vt 0.687500 0.187500
vt 0.562500 0.187500
vt 0.625000 0.250000
vt 0.562500 0.250000
vt 0.187500 0.593750
vt 0.125000 0.500000
vt 0.187500 0.500000
vt 0.125000 0.593750
vt 0.062500 0.500000
vt 0.062500 0.593750
vt -0.000000 0.500000
vt 0.250000 0.687500
vt 0.187500 0.687500
vt 0.375000 0.250000
vt 0.437500 0.187500
vt 0.437500 0.250000
vt 0.375000 0.250000
vt 0.312500 0.187500
vt 0.375000 0.187500
vt 0.437500 0.093750
vt 0.375000 0.187500
vt 0.375000 0.093750
vt 0.312500 0.093750
vt 0.312500 0.187500
vt 0.250000 0.093750
vt 0.500000 -0.000000
vt 0.500000 0.093750
vt 0.187500 0.750000
vt 0.125000 0.687500
vt 0.187500 0.687500
vt 0.062500 0.750000
vt 0.125000 0.687500
vt 0.125000 0.750000
vt 0.062500 0.687500
vt 0.000000 0.593750
vt 0.250000 0.593750
vt 0.812569 0.750000
vt 0.750070 0.687500
vt 0.812569 0.687500
vt 0.750000 0.750000
vt 0.687500 0.687500
vt 0.750000 0.687500
vt 0.812500 0.687500
vt 0.750000 0.593750
vt 0.812500 0.593750
vt 0.750000 0.687500
vt 0.687500 0.593750
vt 0.625000 0.687500
vt 0.625000 0.593750
vt 0.812500 0.500000
vt 0.875000 0.593750
vt 0.500000 0.187500
vt 0.437500 0.187500
vt 0.250000 0.687500
vt 0.312500 0.593750
vt 0.250000 0.593750
vt 0.312500 0.687500
vt 0.437500 0.593750
vt 0.500000 0.687500
vt 0.500000 0.593750
vt 0.500000 0.500000
vt 0.625000 0.593750
vt 0.500000 0.593750
vt 0.687500 0.187500
vt 0.625000 0.093750
vt 0.687500 0.093750
vt 0.625000 0.187500
vt 0.562500 0.093750
vt 0.500000 0.187500
vt 0.562500 0.093750
vt 0.500000 0.093750
vt 0.687500 0.000000
vt 0.750000 0.093750
vt 0.875000 0.687500
vt 0.625000 0.500000
vt 0.687500 0.500000
vt 0.750000 0.500000
vt 0.750000 0.187500
vt 0.562500 0.000000
vt 0.500000 0.000000
vt 0.562500 0.000000
vt 0.625000 0.000000
vt 0.625000 0.687500
vt 0.500000 0.687500
vt 0.500000 0.500000
vt 0.437500 0.500000
vt 0.312500 0.500000
vt 0.250000 0.500000
vt 0.250000 -0.000000
vt 0.312500 -0.000000
vt 0.375000 -0.000000
vt 0.437500 -0.000000
vt 0.250000 0.875000
vt 0.000000 0.875000
vt 0.500000 0.750000
vt 0.562500 0.750000
vt 0.312500 0.750000
vt 0.625000 0.250000
vt 0.625000 0.187500
vt 0.375000 0.187500
vt 0.312500 0.250000
vt 0.250000 0.187500
vt 0.125000 0.750000
vt 0.000000 0.687500
vt 0.250000 0.500000
vt 0.750069 0.750000
vt 0.687500 0.750000
vt 0.687500 0.687500
vt 0.875000 0.500000
vt 0.437500 0.687500
vt 0.625000 0.500000
vt 0.562500 0.187500
vt 0.562500 0.187500
vt 0.750000 0.000000
vn 0.0000 -1.0000 0.0000
vn 0.0000 1.0000 0.0000
vn 1.0000 -0.0000 0.0000
vn -0.0000 -0.0000 1.0000
vn -1.0000 -0.0000 -0.0000
vn 0.0000 0.0000 -1.0000
s off
f 2/1/1 4/2/1 1/3/1
f 8/4/2 6/5/2 5/6/2
f 5/7/3 2/8/3 1/9/3
f 6/5/4 3/10/4 2/8/4
f 7/11/5 4/12/5 3/10/5
f 1/9/6 8/13/6 5/7/6
f 10/14/1 12/15/1 9/16/1
f 16/17/2 14/18/2 13/19/2
f 18/20/1 20/21/1 17/22/1
f 21/23/2 23/24/2 22/25/2
f 53/26/3 34/27/3 33/28/3
f 54/29/4 35/30/4 34/27/4
f 55/31/5 36/32/5 35/30/5
f 53/26/6 40/33/6 37/34/6
f 25/35/1 27/36/1 28/37/1
f 32/38/2 30/39/2 29/40/2
f 52/41/3 30/42/3 51/43/3
f 30/42/4 50/44/4 51/43/4
f 31/45/5 49/46/5 50/44/5
f 52/41/6 28/47/6 49/48/6
f 33/49/1 35/50/1 36/51/1
f 40/52/2 38/53/2 37/54/2
f 53/26/3 38/53/3 54/29/3
f 38/53/4 55/31/4 54/29/4
f 39/55/5 56/56/5 55/31/5
f 33/28/6 56/57/6 53/26/6
f 42/58/1 44/59/1 41/60/1
f 48/61/2 46/62/2 45/63/2
f 45/64/3 58/65/3 57/66/3
f 46/67/4 59/68/4 58/65/4
f 59/68/5 48/69/5 60/70/5
f 41/71/6 60/72/6 57/66/6
f 52/41/6 32/73/6 29/74/6
f 13/75/3 66/76/3 65/77/3
f 14/78/4 67/79/4 66/76/4
f 67/79/5 16/80/5 68/81/5
f 9/82/6 68/83/6 65/84/6
f 21/85/3 62/86/3 61/87/3
f 22/88/4 63/89/4 62/86/4
f 23/90/5 64/91/5 63/92/5
f 17/93/6 64/94/6 61/87/6
f 57/66/6 48/95/6 45/64/6
f 59/68/5 44/96/5 43/97/5
f 58/65/4 43/97/4 42/98/4
f 57/66/3 42/98/3 41/71/3
f 61/87/6 24/99/6 21/85/6
f 63/92/5 20/100/5 19/101/5
f 62/86/4 19/102/4 18/103/4
f 61/87/3 18/103/3 17/93/3
f 65/84/6 16/104/6 13/105/6
f 67/79/5 12/106/5 11/107/5
f 66/76/4 11/107/4 10/108/4
f 65/77/3 10/108/3 9/109/3
f 50/44/5 28/110/5 27/111/5
f 51/43/4 27/111/4 26/112/4
f 52/41/3 26/112/3 25/113/3
f 2/1/1 3/114/1 4/2/1
f 8/4/2 7/11/2 6/5/2
f 5/7/3 6/5/3 2/8/3
f 6/5/4 7/11/4 3/10/4
f 7/11/5 8/115/5 4/12/5
f 1/9/6 4/116/6 8/13/6
f 10/14/1 11/117/1 12/15/1
f 16/17/2 15/118/2 14/18/2
f 18/20/1 19/119/1 20/21/1
f 21/23/2 24/120/2 23/24/2
f 53/26/3 54/29/3 34/27/3
f 54/29/4 55/31/4 35/30/4
f 55/31/5 56/56/5 36/32/5
f 53/26/6 56/57/6 40/33/6
f 25/35/1 26/121/1 27/36/1
f 32/38/2 31/122/2 30/39/2
f 52/41/3 29/74/3 30/42/3
f 30/42/4 31/45/4 50/44/4
f 31/45/5 32/123/5 49/46/5
f 52/41/6 25/113/6 28/47/6
f 33/49/1 34/124/1 35/50/1
f 40/52/2 39/55/2 38/53/2
f 53/26/3 37/34/3 38/53/3
f 38/53/4 39/55/4 55/31/4
f 39/55/5 40/125/5 56/56/5
f 33/28/6 36/126/6 56/57/6
f 42/58/1 43/127/1 44/59/1
f 48/61/2 47/128/2 46/62/2
f 45/64/3 46/67/3 58/65/3
f 46/67/4 47/129/4 59/68/4
f 59/68/5 47/129/5 48/69/5
f 41/71/6 44/130/6 60/72/6
f 52/41/6 49/48/6 32/73/6
f 13/75/3 14/78/3 66/76/3
f 14/78/4 15/131/4 67/79/4
f 67/79/5 15/131/5 16/80/5
f 9/82/6 12/132/6 68/83/6
f 21/85/3 22/88/3 62/86/3
f 22/88/4 23/133/4 63/89/4
f 23/90/5 24/134/5 64/91/5
f 17/93/6 20/135/6 64/94/6
f 57/66/6 60/72/6 48/95/6
f 59/68/5 60/70/5 44/96/5
f 58/65/4 59/68/4 43/97/4
f 57/66/3 58/65/3 42/98/3
f 61/87/6 64/94/6 24/99/6
f 63/92/5 64/91/5 20/100/5
f 62/86/4 63/89/4 19/102/4
f 61/87/3 62/86/3 18/103/3
f 65/84/6 68/83/6 16/104/6
f 67/79/5 68/81/5 12/106/5
f 66/76/4 67/79/4 11/107/4
f 65/77/3 66/76/3 10/108/3
f 50/44/5 49/46/5 28/110/5
f 51/43/4 50/44/4 27/111/4
f 52/41/3 51/43/3 26/112/3
