# Blender v2.90.1 OBJ File: 'minecraft-character.blend'
# www.blender.org
o model_mesh
v 0.509347 2.652627 -0.180868
v 0.231174 2.304809 0.483693
v -0.511469 2.332956 0.187569
v -0.233296 2.680775 -0.476993
v 0.403982 3.372509 0.151801
v 0.125809 3.024690 0.816362
v -0.616834 3.052838 0.520237
v -0.338661 3.400657 -0.144324
v 0.399774 1.277230 -0.201210
v 0.400000 1.285698 0.200000
v -0.400000 1.285698 0.200000
v -0.400000 1.285698 -0.200000
v 0.400000 2.485698 -0.200000
v 0.400000 2.485698 0.200000
v -0.400000 2.485698 0.200000
v -0.399973 2.485636 -0.200160
v 1.723594 2.671550 -0.200000
v 1.723594 2.671550 0.200000
v 1.692015 2.272799 0.200000
v 1.692015 2.272799 -0.200000
v 0.527340 2.766289 -0.200000
v 0.527340 2.766289 0.200000
v 0.495760 2.367537 0.200000
v 0.495760 2.367537 -0.200000
v 0.392786 0.242231 -0.190328
v 0.379509 0.093979 0.180947
v -0.019069 0.127671 0.180147
v -0.005791 0.275923 -0.191128
v 0.399636 1.200638 -0.218024
v 0.383229 1.381216 0.138518
v -0.015375 1.347862 0.137068
v 0.001032 1.167284 -0.219475
v 0.015946 0.284425 -0.190883
v 0.034329 0.136803 0.180426
v -0.362837 0.089277 0.181194
v -0.381220 0.236898 -0.190115
v -0.004685 1.166474 -0.219614
v 0.013081 1.346928 0.136926
v -0.385282 1.383046 0.138496
v -0.403048 1.202592 -0.218044
v 0.075097 2.052895 0.451972
v -0.002500 2.429059 0.563683
v -0.158666 2.294987 0.906665
v -0.081069 1.918823 0.794954
v -0.400161 2.271054 -0.184694
v -0.400161 2.611450 0.025379
v -0.800161 2.611450 0.025379
v -0.800161 2.271054 -0.184694
v 0.042733 0.728870 0.042701
v 0.027816 0.748734 0.406227
v 0.426407 0.748565 0.407352
v 0.441251 0.732353 0.043451
v -0.050859 0.735621 0.042311
v -0.032785 0.752054 0.406236
v -0.430549 0.746333 0.407405
v -0.448623 0.729915 0.043481
v -0.432522 1.987229 0.259284
v -0.470925 2.345236 0.420820
v -0.749404 2.278473 0.591667
v -0.710605 1.920193 0.430775
v 1.125467 2.718920 -0.200000
v 1.125467 2.718920 0.200000
v 1.093887 2.320168 0.200000
v 1.093887 2.320168 -0.200000
v 0.400000 1.885698 -0.200000
v 0.400000 1.885698 0.199999
v -0.400000 1.885698 0.200000
v -0.399997 1.885689 -0.200016
vt 0.375000 0.875000
vt 0.250000 1.000000
vt 0.375000 1.000000
vt 0.250000 1.000000
vt 0.125000 0.875000
vt 0.250000 0.875000
vt 0.375000 0.874982
vt 0.250000 0.749982
vt 0.375000 0.749982
vt 0.125000 0.750000
vt 0.000000 0.750000
vt 0.500000 0.875000
vt 0.437500 0.750000
vt 0.562500 0.687500
vt 0.437500 0.687500
vt 0.437500 0.687500
vt 0.312500 0.750000
vt 0.437500 0.750000
vt 0.625000 0.187500
vt 0.687500 0.250000
vt 0.687500 0.187500
vt 0.625000 0.187500
vt 0.562500 0.250000
vt 0.562500 0.187500
vt 0.187500 0.593750
vt 0.125000 0.500000
vt 0.187500 0.500000
vt 0.125000 0.593750
vt 0.062500 0.500000
vt 0.000000 0.593750
vt -0.000000 0.500000
vt 0.250000 0.687500
vt 0.187500 0.687500
vt 0.375000 0.250000
vt 0.437500 0.187500
vt 0.437500 0.250000
vt 0.375000 0.250000
vt 0.312500 0.187500
vt 0.375000 0.187500
vt 0.437500 0.093750
vt 0.375000 0.187500
vt 0.375000 0.093750
vt 0.312500 0.093750
vt 0.312500 0.187500
vt 0.250000 0.093750
vt 0.437500 -0.000000
vt 0.500000 0.093750
vt 0.125000 0.750000
vt 0.187500 0.687500
vt 0.187500 0.750000
vt 0.062500 0.750000
vt 0.125000 0.687500
vt 0.125000 0.750000
vt 0.062500 0.687500
vt 0.062500 0.593750
vt 0.250000 0.500000
vt 0.250000 0.593750
vt 0.812569 0.750000
vt 0.750070 0.687500
vt 0.812569 0.687500
vt 0.750000 0.750000
vt 0.687500 0.687500
vt 0.750000 0.687500
vt 0.812500 0.687500
vt 0.750000 0.593750
vt 0.812500 0.593750
vt 0.687500 0.687500
vt 0.687500 0.593750
vt 0.625000 0.687500
vt 0.625000 0.593750
vt 0.875000 0.500000
vt 0.875000 0.593750
vt 0.437500 0.187500
vt 0.500000 0.187500
vt 0.250000 0.687500
vt 0.312500 0.593750
vt 0.250000 0.593750
vt 0.312500 0.687500
vt 0.437500 0.593750
vt 0.437500 0.687500
vt 0.500000 0.593750
vt 0.500000 0.593750
vt 0.625000 0.500000
vt 0.625000 0.593750
vt 0.687500 0.093750
vt 0.625000 0.187500
vt 0.625000 0.093750
vt 0.562500 0.093750
vt 0.500000 0.187500
vt 0.562500 0.093750
vt 0.500000 0.093750
vt 0.687500 0.000000
vt 0.750000 0.093750
vt 0.875000 0.687500
vt 0.625000 0.500000
vt 0.687500 0.500000
vt 0.750000 0.500000
vt 0.812500 0.500000
vt 0.750000 0.187500
vt 0.687500 0.187500
vt 0.562500 0.000000
vt 0.500000 0.000000
vt 0.562500 0.000000
vt 0.625000 0.000000
vt 0.625000 0.687500
vt 0.500000 0.687500
vt 0.500000 0.500000
vt 0.437500 0.500000
vt 0.312500 0.500000
vt 0.250000 0.500000
vt 0.312500 -0.000000
vt 0.250000 -0.000000
vt 0.375000 -0.000000
vt 0.250000 0.875000
vt 0.125000 1.000000
vt 0.000000 0.875000
vt 0.500000 0.750000
vt 0.562500 0.750000
vt 0.312500 0.687500
vt 0.625000 0.250000
vt 0.625000 0.250000
vt 0.375000 0.187500
vt 0.312500 0.250000
vt 0.250000 0.187500
vt 0.500000 -0.000000
vt 0.125000 0.687500
vt 0.000000 0.687500
vt 0.750069 0.750000
vt 0.687500 0.750000
vt 0.750000 0.687500
vt 0.500000 0.687500
vt 0.500000 0.500000
vt 0.562500 0.187500
vt 0.562500 0.187500
vt 0.750000 0.000000
vn 0.1317 -0.8999 -0.4158
vn -0.1317 0.8999 0.4158
vn 0.9283 -0.0352 0.3702
vn -0.3477 -0.4348 0.8307
vn -0.9283 0.0352 -0.3702
vn 0.3477 0.4348 -0.8307
vn -0.0106 -0.9997 0.0211
vn 0.0000 1.0000 -0.0000
vn 0.9969 -0.0789 -0.0000
vn -0.9969 0.0789 0.0000
vn 0.9898 0.1426 0.0077
vn 0.0425 -0.3401 0.9394
vn -0.9910 -0.1336 -0.0040
vn -0.0501 -0.5149 -0.8558
vn -0.0774 -0.9250 -0.3721
vn -0.0727 0.8884 -0.4533
vn 0.9958 0.0836 0.0369
vn -0.0024 0.3909 0.9204
vn -0.9955 -0.0880 -0.0360
vn -0.0021 0.4307 -0.9025
vn 0.1096 -0.9218 -0.3719
vn 0.0787 0.8879 -0.4533
vn 0.9943 -0.0970 -0.0450
vn -0.0029 0.3892 0.9211
vn -0.9949 0.0899 0.0454
vn -0.0088 0.4272 -0.9041
vn 0.9000 0.0573 0.4322
vn 0.0000 0.5252 -0.8510
vn 0.9924 0.0573 0.1090
vn 0.0988 0.8616 0.4978
vn -0.9884 -0.1366 0.0659
vn 0.1125 -0.9737 -0.1982
vn 0.0458 -0.5095 -0.8593
vn 1.0000 -0.0000 -0.0000
vn 0.0000 -0.0000 1.0000
vn -1.0000 0.0000 -0.0000
vn 0.0000 -0.0000 -1.0000
vn 0.0789 0.9969 0.0000
vn -0.0789 -0.9969 0.0000
vn 0.0000 -0.8425 -0.5386
vn -0.4355 -0.3377 0.8345
vn -0.2450 0.9356 0.2542
vn 0.2236 0.3196 -0.9208
vn 0.0002 0.0000 -1.0000
vn 1.0000 -0.0004 -0.0006
vn -0.9946 0.1036 0.0058
vn -0.0306 -0.3399 0.9400
vn 0.9953 -0.0969 -0.0031
vn 0.0000 -1.0000 0.0000
vn -0.0001 1.0000 -0.0002
vn 0.9902 0.1282 -0.0550
vn 0.0075 -0.3248 0.9457
vn -0.9911 -0.1210 0.0547
vn 0.0044 -0.4844 -0.8748
vn 0.9960 0.0890 0.0008
vn -0.0374 0.4073 0.9125
vn -0.9956 -0.0937 0.0016
vn 0.0402 0.4549 -0.8896
vn 0.9945 -0.1045 0.0034
vn 0.0407 0.4095 0.9114
vn -0.9953 0.0964 0.0008
vn -0.0558 0.4519 -0.8903
vn 0.9891 -0.0772 0.1251
vn 0.0000 0.8295 0.5585
vn -0.9970 -0.0405 0.0656
vn 0.2222 -0.9381 -0.2656
vn 0.0059 -0.4871 -0.8733
vn -1.0000 0.0000 -0.0001
vn -0.0015 0.0020 -1.0000
vn -0.0883 -0.8708 -0.4836
vn -0.4585 -0.4049 0.7911
vn -0.1234 0.9759 0.1802
vn 0.2741 0.4198 -0.8652
vn 0.0000 -0.0002 -1.0000
vn -0.9947 0.0918 -0.0458
vn -0.0028 -0.3267 0.9451
vn 0.9952 -0.0867 0.0445
s off
f 2/1/1 4/2/1 1/3/1
f 5/4/2 7/5/2 6/6/2
f 5/7/3 2/8/3 1/9/3
f 2/8/4 7/5/4 3/10/4
f 7/5/5 4/11/5 3/10/5
f 1/9/6 8/12/6 5/7/6
f 10/13/7 12/14/7 9/15/7
f 13/16/8 15/17/8 14/18/8
f 18/19/9 20/20/9 17/21/9
f 24/22/10 22/23/10 21/24/10
f 53/25/11 34/26/11 33/27/11
f 54/28/12 35/29/12 34/26/12
f 35/29/13 56/30/13 36/31/13
f 53/25/14 40/32/14 37/33/14
f 25/34/15 27/35/15 28/36/15
f 32/37/16 30/38/16 29/39/16
f 52/40/17 30/41/17 51/42/17
f 30/41/18 50/43/18 51/42/18
f 31/44/19 49/45/19 50/43/19
f 25/46/20 49/47/20 52/40/20
f 34/48/21 36/49/21 33/50/21
f 40/51/22 38/52/22 37/53/22
f 53/25/23 38/52/23 54/28/23
f 54/28/24 39/54/24 55/55/24
f 39/54/25 56/30/25 55/55/25
f 53/25/26 36/56/26 56/57/26
f 42/58/27 44/59/27 41/60/27
f 48/61/28 46/62/28 45/63/28
f 45/64/29 58/65/29 57/66/29
f 58/65/30 47/67/30 59/68/30
f 59/68/31 48/69/31 60/70/31
f 57/66/32 44/71/32 60/72/32
f 29/73/33 49/47/33 32/74/33
f 13/75/34 66/76/34 65/77/34
f 14/78/35 67/79/35 66/76/35
f 15/80/36 68/81/36 67/79/36
f 65/82/37 12/83/37 68/84/37
f 61/85/38 22/86/38 62/87/38
f 22/86/35 63/88/35 62/87/35
f 23/89/39 64/90/39 63/91/39
f 17/92/37 64/93/37 61/85/37
f 57/66/40 48/94/40 45/64/40
f 59/68/41 44/95/41 43/96/41
f 58/65/42 43/96/42 42/97/42
f 41/98/43 58/65/43 42/97/43
f 61/85/37 24/99/37 21/100/37
f 63/91/39 20/101/39 19/102/39
f 62/87/35 19/103/35 18/104/35
f 17/92/38 62/87/38 18/104/38
f 65/82/44 16/105/44 13/106/44
f 67/79/36 12/107/36 11/108/36
f 66/76/35 11/108/35 10/109/35
f 65/77/45 10/109/45 9/110/45
f 27/111/46 49/45/46 28/112/46
f 26/113/47 50/43/47 27/111/47
f 52/40/48 26/113/48 25/46/48
f 2/1/1 3/114/1 4/2/1
f 5/4/2 8/115/2 7/5/2
f 5/7/3 6/6/3 2/8/3
f 2/8/4 6/6/4 7/5/4
f 7/5/5 8/116/5 4/11/5
f 1/9/6 4/117/6 8/12/6
f 10/13/49 11/118/49 12/14/49
f 13/16/50 16/119/50 15/17/50
f 18/19/9 19/120/9 20/20/9
f 24/22/10 23/121/10 22/23/10
f 53/25/51 54/28/51 34/26/51
f 54/28/52 55/55/52 35/29/52
f 35/29/53 55/55/53 56/30/53
f 53/25/54 56/57/54 40/32/54
f 25/34/15 26/122/15 27/35/15
f 32/37/16 31/123/16 30/38/16
f 52/40/55 29/73/55 30/41/55
f 30/41/56 31/44/56 50/43/56
f 31/44/57 32/124/57 49/45/57
f 25/46/58 28/125/58 49/47/58
f 34/48/21 35/126/21 36/49/21
f 40/51/22 39/54/22 38/52/22
f 53/25/59 37/33/59 38/52/59
f 54/28/60 38/52/60 39/54/60
f 39/54/61 40/127/61 56/30/61
f 53/25/62 33/27/62 36/56/62
f 42/58/27 43/128/27 44/59/27
f 48/61/28 47/129/28 46/62/28
f 45/64/63 46/130/63 58/65/63
f 58/65/64 46/130/64 47/67/64
f 59/68/65 47/67/65 48/69/65
f 57/66/66 41/98/66 44/71/66
f 29/73/67 52/40/67 49/47/67
f 13/75/34 14/78/34 66/76/34
f 14/78/35 15/80/35 67/79/35
f 15/80/68 16/131/68 68/81/68
f 65/82/69 9/132/69 12/83/69
f 61/85/38 21/100/38 22/86/38
f 22/86/35 23/133/35 63/88/35
f 23/89/39 24/134/39 64/90/39
f 17/92/37 20/135/37 64/93/37
f 57/66/70 60/72/70 48/94/70
f 59/68/71 60/70/71 44/95/71
f 58/65/72 59/68/72 43/96/72
f 41/98/73 57/66/73 58/65/73
f 61/85/37 64/93/37 24/99/37
f 63/91/39 64/90/39 20/101/39
f 62/87/35 63/88/35 19/103/35
f 17/92/38 61/85/38 62/87/38
f 65/82/74 68/84/74 16/105/74
f 67/79/36 68/81/36 12/107/36
f 66/76/35 67/79/35 11/108/35
f 65/77/34 66/76/34 10/109/34
f 27/111/75 50/43/75 49/45/75
f 26/113/76 51/42/76 50/43/76
f 52/40/77 51/42/77 26/113/77
