# Blender v2.90.1 OBJ File: 'minecraft-character.blend'
# www.blender.org
o model_mesh
v 0.518114 2.650819 -0.133511
v 0.201225 2.250589 0.482441
v -0.520832 2.297056 0.141158
v -0.203943 2.697287 -0.474795
v 0.383151 3.341946 0.246132
v 0.066262 2.941716 0.862084
v -0.655795 2.988184 0.520800
v -0.338906 3.388414 -0.095152
v 0.399657 1.257190 -0.201011
v 0.400000 1.267134 0.200000
v -0.400000 1.267134 0.200000
v -0.400000 1.267134 -0.200000
v 0.400000 2.467134 -0.200000
v 0.400000 2.467134 0.200000
v -0.400000 2.467134 0.200000
v -0.399970 2.467054 -0.200184
v 1.657604 2.953362 -0.200000
v 1.657604 2.953362 0.200000
v 1.724951 2.559072 0.200000
v 1.724951 2.559072 -0.200000
v 0.474734 2.751322 -0.200000
v 0.474734 2.751322 0.200000
v 0.542081 2.357032 0.200000
v 0.542081 2.357032 -0.200000
v 0.393500 0.269148 -0.186313
v 0.376894 0.097905 0.174797
v -0.021249 0.136399 0.174742
v -0.004644 0.307642 -0.186367
v 0.400525 1.167248 -0.217116
v 0.379986 1.375927 0.123517
v -0.018107 1.336919 0.123411
v 0.002431 1.128240 -0.217222
v 0.015642 0.317738 -0.186237
v 0.039095 0.147303 0.174875
v -0.357186 0.092881 0.174926
v -0.380638 0.263316 -0.186186
v -0.006215 1.127254 -0.217337
v 0.016023 1.335760 0.123296
v -0.381740 1.377996 0.123410
v -0.403978 1.169491 -0.217223
v 0.077922 2.166763 0.384461
v -0.021160 2.552240 0.424340
v -0.105390 2.490641 0.810489
v -0.006308 2.105164 0.770610
v -0.400161 2.222895 -0.161467
v -0.400161 2.594011 -0.012225
v -0.800161 2.594010 -0.012225
v -0.800161 2.222895 -0.161467
v 0.049901 0.728983 0.084988
v 0.031240 0.751974 0.435377
v 0.429359 0.752232 0.435457
v 0.447932 0.733456 0.084596
v -0.059050 0.736762 0.084509
v -0.036205 0.755817 0.435383
v -0.433226 0.749705 0.435465
v -0.456072 0.730668 0.084592
v -0.444822 2.017458 0.317511
v -0.493840 2.395612 0.412808
v -0.736478 2.364954 0.605147
v -0.686937 1.986658 0.510586
v 1.066169 2.852342 -0.200000
v 1.066169 2.852342 0.200000
v 1.133516 2.458052 0.200000
v 1.133516 2.458052 -0.200000
v 0.400000 1.867134 -0.200000
v 0.400000 1.867134 0.199999
v -0.400000 1.867134 0.200000
v -0.399997 1.867123 -0.200019
vt 0.375000 0.875000
vt 0.250000 1.000000
vt 0.375000 1.000000
vt 0.125000 1.000000
vt 0.250000 0.875000
vt 0.250000 1.000000
vt 0.375000 0.874982
vt 0.250000 0.749982
vt 0.375000 0.749982
vt 0.125000 0.750000
vt 0.125000 0.875000
vt 0.000000 0.750000
vt 0.500000 0.750000
vt 0.500000 0.875000
vt 0.437500 0.750000
vt 0.562500 0.687500
vt 0.437500 0.687500
vt 0.437500 0.687500
vt 0.312500 0.750000
vt 0.437500 0.750000
vt 0.625000 0.187500
vt 0.687500 0.250000
vt 0.687500 0.187500
vt 0.625000 0.187500
vt 0.562500 0.250000
vt 0.562500 0.187500
vt 0.187500 0.593750
vt 0.125000 0.500000
vt 0.187500 0.500000
vt 0.125000 0.593750
vt 0.062500 0.500000
vt 0.000000 0.593750
vt -0.000000 0.500000
vt 0.250000 0.687500
vt 0.187500 0.687500
vt 0.375000 0.250000
vt 0.437500 0.187500
vt 0.437500 0.250000
vt 0.375000 0.250000
vt 0.312500 0.187500
vt 0.375000 0.187500
vt 0.437500 0.093750
vt 0.375000 0.187500
vt 0.375000 0.093750
vt 0.312500 0.093750
vt 0.312500 0.187500
vt 0.250000 0.093750
vt 0.437500 -0.000000
vt 0.500000 0.093750
vt 0.187500 0.750000
vt 0.125000 0.687500
vt 0.187500 0.687500
vt 0.125000 0.750000
vt 0.062500 0.687500
vt 0.125000 0.687500
vt 0.062500 0.593750
vt 0.250000 0.500000
vt 0.250000 0.593750
vt 0.812569 0.687500
vt 0.750069 0.750000
vt 0.750070 0.687500
vt 0.750000 0.687500
vt 0.687500 0.750000
vt 0.687500 0.687500
vt 0.812500 0.687500
vt 0.750000 0.593750
vt 0.812500 0.593750
vt 0.687500 0.687500
vt 0.687500 0.593750
vt 0.625000 0.687500
vt 0.625000 0.593750
vt 0.875000 0.500000
vt 0.875000 0.593750
vt 0.437500 0.187500
vt 0.500000 0.187500
vt 0.250000 0.687500
vt 0.312500 0.593750
vt 0.250000 0.593750
vt 0.312500 0.687500
vt 0.437500 0.593750
vt 0.437500 0.687500
vt 0.500000 0.593750
vt 0.500000 0.593750
vt 0.625000 0.500000
vt 0.625000 0.593750
vt 0.687500 0.187500
vt 0.625000 0.093750
vt 0.687500 0.093750
vt 0.625000 0.187500
vt 0.562500 0.093750
vt 0.500000 0.187500
vt 0.562500 0.093750
vt 0.500000 0.093750
vt 0.687500 0.000000
vt 0.750000 0.093750
vt 0.875000 0.687500
vt 0.625000 0.500000
vt 0.687500 0.500000
vt 0.750000 0.500000
vt 0.812500 0.500000
vt 0.750000 0.187500
vt 0.562500 0.000000
vt 0.500000 0.000000
vt 0.562500 0.000000
vt 0.625000 0.000000
vt 0.625000 0.687500
vt 0.500000 0.687500
vt 0.500000 0.500000
vt 0.437500 0.500000
vt 0.312500 0.500000
vt 0.250000 0.500000
vt 0.312500 -0.000000
vt 0.250000 -0.000000
vt 0.375000 -0.000000
vt 0.250000 0.875000
vt 0.000000 0.875000
vt 0.562500 0.750000
vt 0.312500 0.687500
vt 0.625000 0.250000
vt 0.625000 0.250000
vt 0.375000 0.187500
vt 0.312500 0.250000
vt 0.250000 0.187500
vt 0.500000 -0.000000
vt 0.125000 0.750000
vt 0.062500 0.750000
vt 0.000000 0.687500
vt 0.812569 0.750000
vt 0.750000 0.750000
vt 0.750000 0.687500
vt 0.500000 0.687500
vt 0.500000 0.500000
vt 0.562500 0.187500
vt 0.562500 0.187500
vt 0.750000 0.000000
vn 0.1687 -0.8639 -0.4746
vn -0.1687 0.8639 0.4746
vn 0.9026 -0.0581 0.4266
vn -0.3961 -0.5003 0.7699
vn -0.9026 0.0581 -0.4266
vn 0.3961 0.5003 -0.7699
vn -0.0124 -0.9996 0.0248
vn 0.0000 1.0000 -0.0000
vn 0.9857 0.1684 0.0000
vn -0.9857 -0.1684 0.0000
vn 0.9860 0.1664 0.0145
vn 0.0533 -0.3874 0.9204
vn -0.9880 -0.1544 -0.0087
vn -0.0645 -0.6048 -0.7937
vn -0.0868 -0.8986 -0.4301
vn -0.0829 0.8475 -0.5242
vn 0.9936 0.1022 0.0471
vn -0.0005 0.4473 0.8944
vn -0.9931 -0.1082 -0.0458
vn -0.0065 0.5045 -0.8634
vn 0.1228 -0.8944 -0.4301
vn 0.0898 0.8468 -0.5242
vn 0.9910 -0.1205 -0.0580
vn -0.0067 0.4453 0.8954
vn -0.9922 0.1104 0.0586
vn -0.0079 0.5004 -0.8658
vn 0.9457 0.2181 0.2411
vn -0.0000 0.3731 -0.9278
vn 0.9867 0.0945 0.1325
vn 0.1446 0.9325 0.3310
vn -0.9815 -0.1562 0.1105
vn 0.1568 -0.9868 0.0392
vn 0.0588 -0.5980 -0.7993
vn 1.0000 -0.0000 -0.0000
vn 0.0000 -0.0000 1.0000
vn -1.0000 -0.0000 -0.0000
vn 0.0000 -0.0000 -1.0000
vn -0.1684 0.9857 0.0000
vn 0.1684 -0.9857 0.0000
vn 0.0000 -0.9190 -0.3942
vn -0.2745 -0.1685 0.9467
vn -0.3153 0.9454 0.0820
vn -0.0091 0.1006 -0.9949
vn 0.0002 0.0000 -1.0000
vn 1.0000 -0.0006 -0.0008
vn -0.9926 0.1210 0.0117
vn -0.0375 -0.3869 0.9214
vn 0.9937 -0.1121 -0.0075
vn 0.0000 -1.0000 -0.0000
vn -0.0001 1.0000 -0.0002
vn 0.9856 0.1530 -0.0725
vn 0.0059 -0.3681 0.9298
vn -0.9871 -0.1428 0.0720
vn 0.0085 -0.5674 -0.8234
vn 0.9944 0.1054 -0.0046
vn -0.0460 0.4671 0.8830
vn -0.9937 -0.1117 0.0085
vn 0.0519 0.5360 -0.8426
vn 0.9921 -0.1251 0.0118
vn 0.0501 0.4698 0.8814
vn -0.9934 0.1144 -0.0052
vn -0.0732 0.5320 -0.8436
vn 0.9806 -0.0732 0.1820
vn -0.0000 0.9061 0.4230
vn -0.9954 -0.0359 0.0893
vn 0.2842 -0.9545 -0.0903
vn 0.0056 -0.5706 -0.8212
vn -1.0000 0.0000 -0.0001
vn -0.0012 0.0017 -1.0000
vn -0.1272 -0.9423 -0.3098
vn -0.3027 -0.2682 0.9146
vn -0.1749 0.9825 -0.0640
vn 0.0523 0.2504 -0.9667
vn 0.0000 -0.0003 -1.0000
vn -0.9921 0.1100 -0.0601
vn 0.0001 -0.3701 0.9290
vn 0.9930 -0.1028 0.0581
s off
f 2/1/1 4/2/1 1/3/1
f 8/4/2 6/5/2 5/6/2
f 5/7/3 2/8/3 1/9/3
f 6/5/4 3/10/4 2/8/4
f 7/11/5 4/12/5 3/10/5
f 5/7/6 4/13/6 8/14/6
f 10/15/7 12/16/7 9/17/7
f 13/18/8 15/19/8 14/20/8
f 18/21/9 20/22/9 17/23/9
f 24/24/10 22/25/10 21/26/10
f 53/27/11 34/28/11 33/29/11
f 54/30/12 35/31/12 34/28/12
f 35/31/13 56/32/13 36/33/13
f 53/27/14 40/34/14 37/35/14
f 25/36/15 27/37/15 28/38/15
f 32/39/16 30/40/16 29/41/16
f 52/42/17 30/43/17 51/44/17
f 30/43/18 50/45/18 51/44/18
f 31/46/19 49/47/19 50/45/19
f 25/48/20 49/49/20 52/42/20
f 33/50/21 35/51/21 36/52/21
f 37/53/22 39/54/22 38/55/22
f 53/27/23 38/55/23 54/30/23
f 54/30/24 39/54/24 55/56/24
f 39/54/25 56/32/25 55/56/25
f 53/27/26 36/57/26 56/58/26
f 41/59/27 43/60/27 44/61/27
f 45/62/28 47/63/28 46/64/28
f 45/65/29 58/66/29 57/67/29
f 58/66/30 47/68/30 59/69/30
f 59/69/31 48/70/31 60/71/31
f 57/67/32 44/72/32 60/73/32
f 29/74/33 49/49/33 32/75/33
f 13/76/34 66/77/34 65/78/34
f 14/79/35 67/80/35 66/77/35
f 15/81/36 68/82/36 67/80/36
f 65/83/37 12/84/37 68/85/37
f 21/86/38 62/87/38 61/88/38
f 22/89/35 63/90/35 62/87/35
f 23/91/39 64/92/39 63/93/39
f 17/94/37 64/95/37 61/88/37
f 57/67/40 48/96/40 45/65/40
f 59/69/41 44/97/41 43/98/41
f 58/66/42 43/98/42 42/99/42
f 41/100/43 58/66/43 42/99/43
f 61/88/37 24/101/37 21/86/37
f 63/93/39 20/102/39 19/103/39
f 62/87/35 19/104/35 18/105/35
f 61/88/38 18/105/38 17/94/38
f 65/83/44 16/106/44 13/107/44
f 67/80/36 12/108/36 11/109/36
f 66/77/35 11/109/35 10/110/35
f 65/78/45 10/110/45 9/111/45
f 27/112/46 49/47/46 28/113/46
f 26/114/47 50/45/47 27/112/47
f 52/42/48 26/114/48 25/48/48
f 2/1/1 3/115/1 4/2/1
f 8/4/2 7/11/2 6/5/2
f 5/7/3 6/5/3 2/8/3
f 6/5/4 7/11/4 3/10/4
f 7/11/5 8/116/5 4/12/5
f 5/7/6 1/9/6 4/13/6
f 10/15/49 11/117/49 12/16/49
f 13/18/50 16/118/50 15/19/50
f 18/21/9 19/119/9 20/22/9
f 24/24/10 23/120/10 22/25/10
f 53/27/51 54/30/51 34/28/51
f 54/30/52 55/56/52 35/31/52
f 35/31/53 55/56/53 56/32/53
f 53/27/54 56/58/54 40/34/54
f 25/36/15 26/121/15 27/37/15
f 32/39/16 31/122/16 30/40/16
f 52/42/55 29/74/55 30/43/55
f 30/43/56 31/46/56 50/45/56
f 31/46/57 32/123/57 49/47/57
f 25/48/58 28/124/58 49/49/58
f 33/50/21 34/125/21 35/51/21
f 37/53/22 40/126/22 39/54/22
f 53/27/59 37/35/59 38/55/59
f 54/30/60 38/55/60 39/54/60
f 39/54/61 40/127/61 56/32/61
f 53/27/62 33/29/62 36/57/62
f 41/59/27 42/128/27 43/60/27
f 45/62/28 48/129/28 47/63/28
f 45/65/63 46/130/63 58/66/63
f 58/66/64 46/130/64 47/68/64
f 59/69/65 47/68/65 48/70/65
f 57/67/66 41/100/66 44/72/66
f 29/74/67 52/42/67 49/49/67
f 13/76/34 14/79/34 66/77/34
f 14/79/35 15/81/35 67/80/35
f 15/81/68 16/131/68 68/82/68
f 65/83/69 9/132/69 12/84/69
f 21/86/38 22/89/38 62/87/38
f 22/89/35 23/133/35 63/90/35
f 23/91/39 24/134/39 64/92/39
f 17/94/37 20/135/37 64/95/37
f 57/67/70 60/73/70 48/96/70
f 59/69/71 60/71/71 44/97/71
f 58/66/72 59/69/72 43/98/72
f 41/100/73 57/67/73 58/66/73
f 61/88/37 64/95/37 24/101/37
f 63/93/39 64/92/39 20/102/39
f 62/87/35 63/90/35 19/104/35
f 61/88/38 62/87/38 18/105/38
f 65/83/74 68/85/74 16/106/74
f 67/80/36 68/82/36 12/108/36
f 66/77/35 67/80/35 11/109/35
f 65/78/34 66/77/34 10/110/34
f 27/112/75 50/45/75 49/47/75
f 26/114/76 51/44/76 50/45/76
f 52/42/77 51/44/77 26/114/77
