# Blender v2.90.1 OBJ File: 'minecraft-character.blend'
# www.blender.org
o model_mesh
v 0.513823 2.652270 -0.159106
v 0.217214 2.279681 0.483700
v -0.516215 2.315878 0.166256
v -0.219606 2.688467 -0.476550
v 0.395063 3.359283 0.195899
v 0.098454 2.986694 0.838706
v -0.634976 3.022892 0.521262
v -0.338367 3.395480 -0.121545
v 0.399722 1.267955 -0.201133
v 0.400000 1.277110 0.200000
v -0.400000 1.277110 0.200000
v -0.400000 1.277110 -0.200000
v 0.400000 2.477110 -0.200000
v 0.400000 2.477110 0.200000
v -0.400000 2.477110 0.200000
v -0.399972 2.477040 -0.200171
v 1.701253 2.805552 -0.200000
v 1.701253 2.805552 0.200000
v 1.716190 2.405831 0.200000
v 1.716191 2.405831 -0.200000
v 0.502090 2.760740 -0.200000
v 0.502090 2.760740 0.200000
v 0.517027 2.361019 0.200000
v 0.517027 2.361019 -0.200000
v 0.393041 0.254266 -0.188656
v 0.378231 0.095127 0.178026
v -0.020147 0.131109 0.177552
v -0.005337 0.290248 -0.189130
v 0.400023 1.185163 -0.217754
v 0.381741 1.378943 0.131696
v -0.016636 1.342952 0.130812
v 0.001646 1.149172 -0.218638
v 0.015948 0.299497 -0.188934
v 0.036653 0.141066 0.177769
v -0.360107 0.090258 0.178220
v -0.380812 0.248689 -0.188483
v -0.005357 1.148280 -0.218768
v 0.014439 1.341914 0.130680
v -0.383657 1.380885 0.131637
v -0.403453 1.187251 -0.217810
v 0.079536 2.111053 0.424718
v -0.008065 2.493527 0.502433
v -0.130841 2.390915 0.869035
v -0.043240 2.008442 0.791319
v -0.400161 2.248122 -0.174452
v -0.400161 2.604188 0.007804
v -0.800161 2.604187 0.007803
v -0.800161 2.248122 -0.174452
v 0.046094 0.728594 0.062392
v 0.029467 0.749886 0.420031
v 0.427844 0.749890 0.420710
v 0.444392 0.732517 0.062653
v -0.054692 0.735831 0.061963
v -0.034441 0.753450 0.420040
v -0.431869 0.747514 0.420743
v -0.452119 0.729911 0.062668
v -0.438169 2.000571 0.287280
v -0.481515 2.369624 0.417958
v -0.743357 2.318535 0.600567
v -0.699557 1.949265 0.470581
v 1.101672 2.783146 -0.200000
v 1.101672 2.783146 0.200000
v 1.116609 2.383425 0.200000
v 1.116609 2.383425 -0.200000
v 0.400000 1.877110 -0.200000
v 0.400000 1.877110 0.199999
v -0.400000 1.877110 0.200000
v -0.399997 1.877100 -0.200017
vt 0.375000 0.875000
vt 0.250000 1.000000
vt 0.375000 1.000000
vt 0.125000 1.000000
vt 0.250000 0.875000
vt 0.250000 1.000000
vt 0.375000 0.874982
vt 0.250000 0.749982
vt 0.375000 0.749982
vt 0.125000 0.750000
vt 0.000000 0.875000
vt 0.000000 0.750000
vt 0.500000 0.875000
vt 0.437500 0.750000
vt 0.562500 0.687500
vt 0.437500 0.687500
vt 0.437500 0.687500
vt 0.312500 0.750000
vt 0.437500 0.750000
vt 0.687500 0.187500
vt 0.625000 0.250000
vt 0.687500 0.250000
vt 0.562500 0.187500
vt 0.625000 0.250000
vt 0.562500 0.250000
vt 0.187500 0.593750
vt 0.125000 0.500000
vt 0.187500 0.500000
vt 0.125000 0.593750
vt 0.062500 0.500000
vt 0.000000 0.593750
vt -0.000000 0.500000
vt 0.250000 0.687500
vt 0.187500 0.687500
vt 0.375000 0.187500
vt 0.437500 0.250000
vt 0.375000 0.250000
vt 0.375000 0.250000
vt 0.312500 0.187500
vt 0.375000 0.187500
vt 0.437500 0.093750
vt 0.375000 0.187500
vt 0.375000 0.093750
vt 0.312500 0.093750
vt 0.312500 0.187500
vt 0.250000 0.093750
vt 0.437500 -0.000000
vt 0.500000 0.093750
vt 0.125000 0.750000
vt 0.187500 0.687500
vt 0.187500 0.750000
vt 0.125000 0.750000
vt 0.062500 0.687500
vt 0.125000 0.687500
vt 0.062500 0.593750
vt 0.250000 0.500000
vt 0.250000 0.593750
vt 0.812569 0.750000
vt 0.750070 0.687500
vt 0.812569 0.687500
vt 0.750000 0.687500
vt 0.687500 0.750000
vt 0.687500 0.687500
vt 0.812500 0.687500
vt 0.750000 0.593750
vt 0.812500 0.593750
vt 0.687500 0.687500
vt 0.687500 0.593750
vt 0.625000 0.687500
vt 0.625000 0.593750
vt 0.875000 0.500000
vt 0.875000 0.593750
vt 0.437500 0.187500
vt 0.500000 0.187500
vt 0.250000 0.687500
vt 0.312500 0.593750
vt 0.250000 0.593750
vt 0.312500 0.687500
vt 0.437500 0.593750
vt 0.437500 0.687500
vt 0.500000 0.593750
vt 0.500000 0.593750
vt 0.625000 0.500000
vt 0.625000 0.593750
vt 0.687500 0.187500
vt 0.625000 0.093750
vt 0.687500 0.093750
vt 0.562500 0.187500
vt 0.562500 0.093750
vt 0.500000 0.187500
vt 0.562500 0.093750
vt 0.500000 0.093750
vt 0.750000 0.000000
vt 0.750000 0.093750
vt 0.875000 0.687500
vt 0.625000 0.500000
vt 0.687500 0.500000
vt 0.750000 0.500000
vt 0.812500 0.500000
vt 0.750000 0.187500
vt 0.562500 0.000000
vt 0.500000 0.000000
vt 0.562500 0.000000
vt 0.625000 0.000000
vt 0.687500 0.000000
vt 0.625000 0.687500
vt 0.500000 0.687500
vt 0.500000 0.500000
vt 0.437500 0.500000
vt 0.312500 0.500000
vt 0.250000 0.500000
vt 0.312500 -0.000000
vt 0.250000 -0.000000
vt 0.375000 -0.000000
vt 0.250000 0.875000
vt 0.125000 0.875000
vt 0.500000 0.750000
vt 0.562500 0.750000
vt 0.312500 0.687500
vt 0.625000 0.187500
vt 0.625000 0.187500
vt 0.437500 0.187500
vt 0.312500 0.250000
vt 0.250000 0.187500
vt 0.500000 -0.000000
vt 0.125000 0.687500
vt 0.062500 0.750000
vt 0.000000 0.687500
vt 0.750069 0.750000
vt 0.750000 0.750000
vt 0.750000 0.687500
vt 0.500000 0.687500
vt 0.500000 0.500000
vt 0.625000 0.187500
vt 0.562500 0.187500
vn 0.1485 -0.8838 -0.4438
vn -0.1485 0.8838 0.4438
vn 0.9168 -0.0452 0.3968
vn -0.3708 -0.4657 0.8035
vn -0.9168 0.0452 -0.3968
vn 0.3708 0.4657 -0.8035
vn -0.0114 -0.9997 0.0228
vn 0.0000 1.0000 -0.0000
vn 0.9993 0.0373 0.0000
vn -0.9993 -0.0373 0.0000
vn 0.9880 0.1538 0.0107
vn 0.0475 -0.3627 0.9307
vn -0.9896 -0.1435 -0.0061
vn -0.0565 -0.5571 -0.8285
vn -0.0820 -0.9130 -0.3996
vn -0.0775 0.8702 -0.4866
vn 0.9949 0.0920 0.0415
vn -0.0016 0.4174 0.9087
vn -0.9945 -0.0970 -0.0405
vn -0.0040 0.4655 -0.8850
vn 0.1160 -0.9094 -0.3994
vn 0.0840 0.8696 -0.4866
vn 0.9929 -0.1075 -0.0509
vn -0.0046 0.4155 0.9096
vn -0.9938 0.0991 0.0513
vn -0.0084 0.4617 -0.8870
vn 0.9262 0.1411 0.3497
vn -0.0000 0.4556 -0.8902
vn 0.9899 0.0735 0.1209
vn 0.1188 0.8989 0.4218
vn -0.9854 -0.1470 0.0856
vn 0.1320 -0.9873 -0.0880
vn 0.0516 -0.5511 -0.8329
vn 1.0000 0.0000 -0.0000
vn 0.0000 -0.0000 1.0000
vn -1.0000 0.0000 -0.0000
vn 0.0000 -0.0000 -1.0000
vn -0.0373 0.9993 0.0000
vn 0.0373 -0.9993 0.0000
vn 0.0000 -0.8813 -0.4725
vn -0.3608 -0.2644 0.8944
vn -0.2779 0.9452 0.1715
vn 0.1144 0.2229 -0.9681
vn 0.0002 0.0000 -1.0000
vn 1.0000 -0.0005 -0.0007
vn -0.9937 0.1118 0.0084
vn -0.0338 -0.3623 0.9315
vn 0.9945 -0.1041 -0.0050
vn 0.0000 -1.0000 -0.0000
vn -0.0001 1.0000 -0.0002
vn 0.9882 0.1396 -0.0628
vn 0.0068 -0.3455 0.9384
vn -0.9894 -0.1311 0.0624
vn 0.0063 -0.5233 -0.8521
vn 0.9953 0.0966 -0.0015
vn -0.0413 0.4354 0.8993
vn -0.9948 -0.1021 0.0046
vn 0.0456 0.4931 -0.8688
vn 0.9934 -0.1141 0.0069
vn 0.0450 0.4378 0.8979
vn -0.9945 0.1048 -0.0017
vn -0.0637 0.4897 -0.8696
vn 0.9855 -0.0774 0.1512
vn -0.0000 0.8681 0.4964
vn -0.9963 -0.0392 0.0766
vn 0.2512 -0.9507 -0.1820
vn 0.0057 -0.5262 -0.8503
vn -1.0000 0.0000 -0.0001
vn -0.0014 0.0019 -1.0000
vn -0.1053 -0.9085 -0.4045
vn -0.3864 -0.3467 0.8547
vn -0.1459 0.9870 0.0669
vn 0.1709 0.3466 -0.9223
vn 0.0000 -0.0003 -1.0000
vn -0.9936 0.1001 -0.0522
vn -0.0016 -0.3474 0.9377
vn 0.9943 -0.0941 0.0505
s off
f 2/1/1 4/2/1 1/3/1
f 8/4/2 6/5/2 5/6/2
f 5/7/3 2/8/3 1/9/3
f 6/5/4 3/10/4 2/8/4
f 3/10/5 8/11/5 4/12/5
f 1/9/6 8/13/6 5/7/6
f 10/14/7 12/15/7 9/16/7
f 13/17/8 15/18/8 14/19/8
f 17/20/9 19/21/9 20/22/9
f 21/23/10 23/24/10 22/25/10
f 53/26/11 34/27/11 33/28/11
f 54/29/12 35/30/12 34/27/12
f 35/30/13 56/31/13 36/32/13
f 53/26/14 40/33/14 37/34/14
f 26/35/15 28/36/15 25/37/15
f 32/38/16 30/39/16 29/40/16
f 52/41/17 30/42/17 51/43/17
f 30/42/18 50/44/18 51/43/18
f 31/45/19 49/46/19 50/44/19
f 25/47/20 49/48/20 52/41/20
f 34/49/21 36/50/21 33/51/21
f 37/52/22 39/53/22 38/54/22
f 53/26/23 38/54/23 54/29/23
f 54/29/24 39/53/24 55/55/24
f 39/53/25 56/31/25 55/55/25
f 53/26/26 36/56/26 56/57/26
f 42/58/27 44/59/27 41/60/27
f 45/61/28 47/62/28 46/63/28
f 45/64/29 58/65/29 57/66/29
f 58/65/30 47/67/30 59/68/30
f 59/68/31 48/69/31 60/70/31
f 57/66/32 44/71/32 60/72/32
f 29/73/33 49/48/33 32/74/33
f 13/75/34 66/76/34 65/77/34
f 14/78/35 67/79/35 66/76/35
f 15/80/36 68/81/36 67/79/36
f 65/82/37 12/83/37 68/84/37
f 21/85/38 62/86/38 61/87/38
f 62/86/35 23/88/35 63/89/35
f 23/90/39 64/91/39 63/92/39
f 61/87/37 20/93/37 64/94/37
f 57/66/40 48/95/40 45/64/40
f 59/68/41 44/96/41 43/97/41
f 58/65/42 43/97/42 42/98/42
f 41/99/43 58/65/43 42/98/43
f 61/87/37 24/100/37 21/85/37
f 63/92/39 20/101/39 19/102/39
f 62/86/35 19/103/35 18/104/35
f 17/105/38 62/86/38 18/104/38
f 65/82/44 16/106/44 13/107/44
f 67/79/36 12/108/36 11/109/36
f 66/76/35 11/109/35 10/110/35
f 65/77/45 10/110/45 9/111/45
f 27/112/46 49/46/46 28/113/46
f 26/114/47 50/44/47 27/112/47
f 52/41/48 26/114/48 25/47/48
f 2/1/1 3/115/1 4/2/1
f 8/4/2 7/116/2 6/5/2
f 5/7/3 6/5/3 2/8/3
f 6/5/4 7/116/4 3/10/4
f 3/10/5 7/116/5 8/11/5
f 1/9/6 4/117/6 8/13/6
f 10/14/49 11/118/49 12/15/49
f 13/17/50 16/119/50 15/18/50
f 17/20/9 18/120/9 19/21/9
f 21/23/10 24/121/10 23/24/10
f 53/26/51 54/29/51 34/27/51
f 54/29/52 55/55/52 35/30/52
f 35/30/53 55/55/53 56/31/53
f 53/26/54 56/57/54 40/33/54
f 26/35/15 27/122/15 28/36/15
f 32/38/16 31/123/16 30/39/16
f 52/41/55 29/73/55 30/42/55
f 30/42/56 31/45/56 50/44/56
f 31/45/57 32/124/57 49/46/57
f 25/47/58 28/125/58 49/48/58
f 34/49/21 35/126/21 36/50/21
f 37/52/22 40/127/22 39/53/22
f 53/26/59 37/34/59 38/54/59
f 54/29/60 38/54/60 39/53/60
f 39/53/61 40/128/61 56/31/61
f 53/26/62 33/28/62 36/56/62
f 42/58/27 43/129/27 44/59/27
f 45/61/28 48/130/28 47/62/28
f 45/64/63 46/131/63 58/65/63
f 58/65/64 46/131/64 47/67/64
f 59/68/65 47/67/65 48/69/65
f 57/66/66 41/99/66 44/71/66
f 29/73/67 52/41/67 49/48/67
f 13/75/34 14/78/34 66/76/34
f 14/78/35 15/80/35 67/79/35
f 15/80/68 16/132/68 68/81/68
f 65/82/69 9/133/69 12/83/69
f 21/85/38 22/134/38 62/86/38
f 62/86/35 22/134/35 23/88/35
f 23/90/39 24/135/39 64/91/39
f 61/87/37 17/105/37 20/93/37
f 57/66/70 60/72/70 48/95/70
f 59/68/71 60/70/71 44/96/71
f 58/65/72 59/68/72 43/97/72
f 41/99/73 57/66/73 58/65/73
f 61/87/37 64/94/37 24/100/37
f 63/92/39 64/91/39 20/101/39
f 62/86/35 63/89/35 19/103/35
f 17/105/38 61/87/38 62/86/38
f 65/82/74 68/84/74 16/106/74
f 67/79/36 68/81/36 12/108/36
f 66/76/35 67/79/35 11/109/35
f 65/77/34 66/76/34 10/110/34
f 27/112/75 50/44/75 49/46/75
f 26/114/76 51/43/76 50/44/76
f 52/41/77 51/43/77 26/114/77
