# Blender v2.90.1 OBJ File: 'minecraft-character.blend'
# www.blender.org
o model_mesh
v 0.516306 2.651610 -0.145051
v 0.208378 2.263648 0.483174
v -0.518876 2.305381 0.152478
v -0.210948 2.693342 -0.475747
v 0.388707 3.349997 0.223696
v 0.080779 2.962036 0.851921
v -0.646475 3.003769 0.521225
v -0.338548 3.391730 -0.107000
v 0.399687 1.262028 -0.201070
v 0.400000 1.271618 0.200000
v -0.400000 1.271618 0.200000
v -0.400000 1.271618 -0.200000
v 0.400000 2.471618 -0.200000
v 0.400000 2.471618 0.200000
v -0.400000 2.471618 0.200000
v -0.399971 2.471543 -0.200178
v 1.679442 2.888118 -0.200000
v 1.679442 2.888118 0.200000
v 1.723508 2.490553 0.200000
v 1.723508 2.490553 -0.200000
v 0.486746 2.755918 -0.200000
v 0.486746 2.755918 0.200000
v 0.530813 2.358353 0.200000
v 0.530812 2.358353 -0.200000
v 0.393272 0.262349 -0.187420
v 0.377475 0.096472 0.176222
v -0.020774 0.133857 0.175974
v -0.004977 0.299734 -0.187667
v 0.400292 1.175292 -0.217445
v 0.380778 1.377334 0.127226
v -0.017445 1.339675 0.126755
v 0.002069 1.137633 -0.217917
v 0.015819 0.309453 -0.187507
v 0.038032 0.144337 0.176146
v -0.358464 0.091513 0.176380
v -0.380677 0.256629 -0.187273
v -0.005819 1.136689 -0.218039
v 0.015311 1.338570 0.126631
v -0.382605 1.379346 0.127141
v -0.403735 1.177465 -0.217529
v 0.079505 2.143354 0.403491
v -0.014446 2.528018 0.460123
v -0.115930 2.447515 0.838567
v -0.021979 2.062851 0.781936
v -0.400161 2.234041 -0.167434
v -0.400161 2.598809 -0.003287
v -0.800161 2.598809 -0.003288
v -0.800161 2.234041 -0.167434
v 0.048203 0.728717 0.074872
v 0.030462 0.750938 0.428572
v 0.428698 0.751075 0.428931
v 0.446356 0.732937 0.074784
v -0.057104 0.736255 0.074417
v -0.035433 0.754657 0.428579
v -0.432639 0.748614 0.428950
v -0.454310 0.730229 0.074789
v -0.441827 2.009697 0.304228
v -0.488310 2.384236 0.415336
v -0.739545 2.344161 0.603840
v -0.692569 1.969445 0.493451
v 1.083094 2.822018 -0.200000
v 1.083094 2.822018 0.200000
v 1.127160 2.424453 0.200000
v 1.127160 2.424453 -0.200000
v 0.400000 1.871618 -0.200000
v 0.400000 1.871618 0.199999
v -0.400000 1.871618 0.200000
v -0.399997 1.871608 -0.200018
vt 0.375000 0.875000
vt 0.250000 1.000000
vt 0.375000 1.000000
vt 0.125000 1.000000
vt 0.250000 0.875000
vt 0.250000 1.000000
vt 0.375000 0.874982
vt 0.250000 0.749982
vt 0.375000 0.749982
vt 0.125000 0.875000
vt 0.125000 0.750000
vt 0.000000 0.750000
vt 0.500000 0.875000
vt 0.437500 0.750000
vt 0.562500 0.687500
vt 0.437500 0.687500
vt 0.437500 0.687500
vt 0.312500 0.750000
vt 0.437500 0.750000
vt 0.625000 0.187500
vt 0.687500 0.250000
vt 0.687500 0.187500
vt 0.562500 0.187500
vt 0.625000 0.250000
vt 0.562500 0.250000
vt 0.187500 0.593750
vt 0.125000 0.500000
vt 0.187500 0.500000
vt 0.125000 0.593750
vt 0.062500 0.500000
vt 0.000000 0.593750
vt -0.000000 0.500000
vt 0.250000 0.687500
vt 0.187500 0.687500
vt 0.375000 0.187500
vt 0.437500 0.250000
vt 0.375000 0.250000
vt 0.375000 0.250000
vt 0.312500 0.187500
vt 0.375000 0.187500
vt 0.437500 0.093750
vt 0.375000 0.187500
vt 0.375000 0.093750
vt 0.312500 0.093750
vt 0.312500 0.187500
vt 0.250000 0.093750
vt 0.437500 -0.000000
vt 0.500000 0.093750
vt 0.125000 0.750000
vt 0.187500 0.687500
vt 0.187500 0.750000
vt 0.062500 0.750000
vt 0.125000 0.687500
vt 0.125000 0.750000
vt 0.062500 0.687500
vt 0.062500 0.593750
vt 0.250000 0.500000
vt 0.250000 0.593750
vt 0.812569 0.750000
vt 0.750070 0.687500
vt 0.812569 0.687500
vt 0.750000 0.750000
vt 0.687500 0.687500
vt 0.750000 0.687500
vt 0.812500 0.687500
vt 0.750000 0.593750
vt 0.812500 0.593750
vt 0.687500 0.687500
vt 0.687500 0.593750
vt 0.625000 0.687500
vt 0.625000 0.593750
vt 0.875000 0.500000
vt 0.875000 0.593750
vt 0.437500 0.187500
vt 0.500000 0.187500
vt 0.250000 0.687500
vt 0.312500 0.593750
vt 0.250000 0.593750
vt 0.312500 0.687500
vt 0.437500 0.593750
vt 0.437500 0.687500
vt 0.500000 0.593750
vt 0.500000 0.593750
vt 0.625000 0.500000
vt 0.625000 0.593750
vt 0.687500 0.093750
vt 0.625000 0.187500
vt 0.625000 0.093750
vt 0.562500 0.187500
vt 0.562500 0.093750
vt 0.500000 0.187500
vt 0.562500 0.093750
vt 0.500000 0.093750
vt 0.687500 0.000000
vt 0.750000 0.093750
vt 0.875000 0.687500
vt 0.625000 0.500000
vt 0.687500 0.500000
vt 0.750000 0.500000
vt 0.812500 0.500000
vt 0.687500 0.187500
vt 0.750000 0.187500
vt 0.562500 0.000000
vt 0.500000 0.000000
vt 0.562500 0.000000
vt 0.625000 0.000000
vt 0.625000 0.687500
vt 0.500000 0.687500
vt 0.500000 0.500000
vt 0.437500 0.500000
vt 0.312500 0.500000
vt 0.250000 0.500000
vt 0.312500 -0.000000
vt 0.250000 -0.000000
vt 0.375000 -0.000000
vt 0.250000 0.875000
vt 0.000000 0.875000
vt 0.500000 0.750000
vt 0.562500 0.750000
vt 0.312500 0.687500
vt 0.625000 0.250000
vt 0.625000 0.187500
vt 0.437500 0.187500
vt 0.312500 0.250000
vt 0.250000 0.187500
vt 0.500000 -0.000000
vt 0.125000 0.687500
vt 0.000000 0.687500
vt 0.750069 0.750000
vt 0.687500 0.750000
vt 0.750000 0.687500
vt 0.500000 0.687500
vt 0.500000 0.500000
vt 0.562500 0.187500
vt 0.750000 0.000000
vn 0.1595 -0.8730 -0.4609
vn -0.1595 0.8730 0.4609
vn 0.9091 -0.0522 0.4134
vn -0.3849 -0.4850 0.7853
vn -0.9091 0.0522 -0.4134
vn 0.3849 0.4850 -0.7853
vn -0.0120 -0.9996 0.0239
vn 0.0000 1.0000 0.0000
vn 0.9939 0.1102 0.0000
vn -0.9939 -0.1102 0.0000
vn 0.9869 0.1608 0.0127
vn 0.0507 -0.3765 0.9250
vn -0.9887 -0.1496 -0.0075
vn -0.0608 -0.5836 -0.8098
vn -0.0847 -0.9051 -0.4166
vn -0.0805 0.8579 -0.5075
vn 0.9942 0.0976 0.0446
vn -0.0010 0.4340 0.9009
vn -0.9937 -0.1031 -0.0434
vn -0.0054 0.4872 -0.8733
vn 0.1198 -0.9012 -0.4165
vn 0.0872 0.8573 -0.5075
vn 0.9919 -0.1145 -0.0547
vn -0.0057 0.4320 0.9019
vn -0.9929 0.1052 0.0553
vn -0.0082 0.4832 -0.8755
vn 0.9383 0.1863 0.2913
vn 0.0000 0.4104 -0.9119
vn 0.9882 0.0848 0.1276
vn 0.1326 0.9187 0.3721
vn -0.9833 -0.1525 0.0990
vn 0.1454 -0.9892 -0.0177
vn 0.0555 -0.5771 -0.8148
vn 1.0000 -0.0000 -0.0000
vn 0.0000 -0.0000 1.0000
vn -1.0000 0.0000 -0.0000
vn 0.0000 -0.0000 -1.0000
vn -0.1102 0.9939 0.0000
vn 0.1102 -0.9939 -0.0000
vn 0.0000 -0.9031 -0.4295
vn -0.3131 -0.2127 0.9256
vn -0.2987 0.9466 0.1213
vn 0.0458 0.1564 -0.9866
vn 0.0002 0.0000 -1.0000
vn 1.0000 -0.0005 -0.0008
vn -0.9931 0.1169 0.0102
vn -0.0359 -0.3760 0.9259
vn 0.9941 -0.1086 -0.0064
vn 0.0000 -1.0000 0.0000
vn -0.0001 1.0000 -0.0002
vn 0.9868 0.1469 -0.0680
vn 0.0063 -0.3582 0.9336
vn -0.9882 -0.1375 0.0676
vn 0.0075 -0.5477 -0.8366
vn 0.9948 0.1015 -0.0032
vn -0.0439 0.4529 0.8905
vn -0.9942 -0.1074 0.0067
vn 0.0491 0.5169 -0.8546
vn 0.9927 -0.1202 0.0095
vn 0.0478 0.4555 0.8889
vn -0.9939 0.1101 -0.0035
vn -0.0689 0.5132 -0.8555
vn 0.9828 -0.0757 0.1682
vn -0.0000 0.8899 0.4561
vn -0.9958 -0.0376 0.0836
vn 0.2695 -0.9541 -0.1307
vn 0.0057 -0.5508 -0.8346
vn -1.0000 0.0000 -0.0001
vn -0.0013 0.0018 -1.0000
vn -0.1171 -0.9284 -0.3526
vn -0.3403 -0.3047 0.8896
vn -0.1615 0.9869 -0.0054
vn 0.1053 0.2948 -0.9497
vn 0.0000 -0.0003 -1.0000
vn -0.9928 0.1055 -0.0564
vn -0.0007 -0.3601 0.9329
vn 0.9936 -0.0988 0.0546
s off
f 2/1/1 4/2/1 1/3/1
f 8/4/2 6/5/2 5/6/2
f 5/7/3 2/8/3 1/9/3
f 2/8/4 7/10/4 3/11/4
f 7/10/5 4/12/5 3/11/5
f 1/9/6 8/13/6 5/7/6
f 10/14/7 12/15/7 9/16/7
f 13/17/8 15/18/8 14/19/8
f 18/20/9 20/21/9 17/22/9
f 21/23/10 23/24/10 22/25/10
f 53/26/11 34/27/11 33/28/11
f 54/29/12 35/30/12 34/27/12
f 35/30/13 56/31/13 36/32/13
f 53/26/14 40/33/14 37/34/14
f 26/35/15 28/36/15 25/37/15
f 32/38/16 30/39/16 29/40/16
f 52/41/17 30/42/17 51/43/17
f 30/42/18 50/44/18 51/43/18
f 31/45/19 49/46/19 50/44/19
f 25/47/20 49/48/20 52/41/20
f 34/49/21 36/50/21 33/51/21
f 40/52/22 38/53/22 37/54/22
f 53/26/23 38/53/23 54/29/23
f 54/29/24 39/55/24 55/56/24
f 39/55/25 56/31/25 55/56/25
f 53/26/26 36/57/26 56/58/26
f 42/59/27 44/60/27 41/61/27
f 48/62/28 46/63/28 45/64/28
f 45/65/29 58/66/29 57/67/29
f 58/66/30 47/68/30 59/69/30
f 59/69/31 48/70/31 60/71/31
f 57/67/32 44/72/32 60/73/32
f 29/74/33 49/48/33 32/75/33
f 13/76/34 66/77/34 65/78/34
f 14/79/35 67/80/35 66/77/35
f 15/81/36 68/82/36 67/80/36
f 65/83/37 12/84/37 68/85/37
f 61/86/38 22/87/38 62/88/38
f 62/88/35 23/89/35 63/90/35
f 23/91/39 64/92/39 63/93/39
f 17/94/37 64/95/37 61/86/37
f 57/67/40 48/96/40 45/65/40
f 59/69/41 44/97/41 43/98/41
f 58/66/42 43/98/42 42/99/42
f 41/100/43 58/66/43 42/99/43
f 21/101/37 64/95/37 24/102/37
f 63/93/39 20/103/39 19/104/39
f 62/88/35 19/105/35 18/106/35
f 17/94/38 62/88/38 18/106/38
f 65/83/44 16/107/44 13/108/44
f 67/80/36 12/109/36 11/110/36
f 66/77/35 11/110/35 10/111/35
f 65/78/45 10/111/45 9/112/45
f 27/113/46 49/46/46 28/114/46
f 26/115/47 50/44/47 27/113/47
f 52/41/48 26/115/48 25/47/48
f 2/1/1 3/116/1 4/2/1
f 8/4/2 7/10/2 6/5/2
f 5/7/3 6/5/3 2/8/3
f 2/8/4 6/5/4 7/10/4
f 7/10/5 8/117/5 4/12/5
f 1/9/6 4/118/6 8/13/6
f 10/14/49 11/119/49 12/15/49
f 13/17/50 16/120/50 15/18/50
f 18/20/9 19/121/9 20/21/9
f 21/23/10 24/122/10 23/24/10
f 53/26/51 54/29/51 34/27/51
f 54/29/52 55/56/52 35/30/52
f 35/30/53 55/56/53 56/31/53
f 53/26/54 56/58/54 40/33/54
f 26/35/15 27/123/15 28/36/15
f 32/38/16 31/124/16 30/39/16
f 52/41/55 29/74/55 30/42/55
f 30/42/56 31/45/56 50/44/56
f 31/45/57 32/125/57 49/46/57
f 25/47/58 28/126/58 49/48/58
f 34/49/21 35/127/21 36/50/21
f 40/52/22 39/55/22 38/53/22
f 53/26/59 37/34/59 38/53/59
f 54/29/60 38/53/60 39/55/60
f 39/55/61 40/128/61 56/31/61
f 53/26/62 33/28/62 36/57/62
f 42/59/27 43/129/27 44/60/27
f 48/62/28 47/130/28 46/63/28
f 45/65/63 46/131/63 58/66/63
f 58/66/64 46/131/64 47/68/64
f 59/69/65 47/68/65 48/70/65
f 57/67/66 41/100/66 44/72/66
f 29/74/67 52/41/67 49/48/67
f 13/76/34 14/79/34 66/77/34
f 14/79/35 15/81/35 67/80/35
f 15/81/68 16/132/68 68/82/68
f 65/83/69 9/133/69 12/84/69
f 61/86/38 21/101/38 22/87/38
f 62/88/35 22/87/35 23/89/35
f 23/91/39 24/134/39 64/92/39
f 17/94/37 20/135/37 64/95/37
f 57/67/70 60/73/70 48/96/70
f 59/69/71 60/71/71 44/97/71
f 58/66/72 59/69/72 43/98/72
f 41/100/73 57/67/73 58/66/73
f 21/101/37 61/86/37 64/95/37
f 63/93/39 64/92/39 20/103/39
f 62/88/35 63/90/35 19/105/35
f 17/94/38 61/86/38 62/88/38
f 65/83/74 68/85/74 16/107/74
f 67/80/36 68/82/36 12/109/36
f 66/77/35 67/80/35 11/110/35
f 65/78/34 66/77/34 10/111/34
f 27/113/75 50/44/75 49/46/75
f 26/115/76 51/43/76 50/44/76
f 52/41/77 51/43/77 26/115/77
