# Blender v2.90.1 OBJ File: 'minecraft-character.blend'
# www.blender.org
o model_mesh
v 0.489228 2.648065 -0.250596
v 0.278441 2.388453 0.476157
v -0.490540 2.395561 0.255661
v -0.279752 2.655173 -0.471093
v 0.424132 3.404736 0.000822
v 0.213344 3.145124 0.727575
v -0.555637 3.152232 0.507079
v -0.344849 3.411844 -0.219674
v 0.399911 1.308203 -0.201280
v 0.400000 1.314348 0.200000
v -0.400000 1.314348 0.200000
v -0.400000 1.314348 -0.200000
v 0.400000 2.514349 -0.200000
v 0.400000 2.514349 0.200000
v -0.400000 2.514349 0.200000
v -0.399980 2.514311 -0.200120
v 1.681621 2.207321 -0.200000
v 1.681622 2.207321 0.200000
v 1.496181 1.852904 0.200000
v 1.496182 1.852904 -0.200000
v 0.618368 2.763641 -0.200000
v 0.618368 2.763641 0.200000
v 0.432928 2.409223 0.200000
v 0.432928 2.409223 -0.200000
v 0.392900 0.208797 -0.193859
v 0.384470 0.099408 0.190800
v -0.014725 0.124711 0.189248
v -0.006296 0.234100 -0.195412
v 0.398667 1.252422 -0.217027
v 0.388001 1.386791 0.159578
v -0.011248 1.362425 0.156963
v -0.000582 1.228056 -0.219641
v 0.014099 0.240077 -0.195049
v 0.025302 0.131115 0.189661
v -0.373108 0.095519 0.191181
v -0.384311 0.204480 -0.193530
v -0.002920 1.227531 -0.219788
v 0.008630 1.361833 0.156815
v -0.390489 1.388220 0.159646
v -0.402039 1.253917 -0.216957
v 0.017209 1.808869 0.464830
v -0.028171 2.134659 0.692430
v -0.290359 1.937962 0.921707
v -0.244979 1.612173 0.694107
v -0.400161 2.354388 -0.210616
v -0.400161 2.624975 0.083973
v -0.800161 2.624974 0.083973
v -0.800161 2.354387 -0.210616
v 0.031094 0.734297 -0.023924
v 0.021491 0.749532 0.356457
v 0.420713 0.749063 0.358540
v 0.430262 0.736537 -0.022087
v -0.037697 0.739330 -0.024199
v -0.026321 0.752013 0.356458
v -0.425085 0.747396 0.358633
v -0.436461 0.734724 -0.022023
v -0.415471 1.953066 0.153152
v -0.437950 2.250876 0.414666
v -0.769255 2.152906 0.528885
v -0.746565 1.854718 0.267790
v 1.149994 2.485482 -0.200000
v 1.149994 2.485482 0.200000
v 0.964555 2.131063 0.200000
v 0.964555 2.131063 -0.200000
v 0.400000 1.914348 -0.200000
v 0.400000 1.914348 0.199999
v -0.400000 1.914348 0.200000
v -0.399998 1.914343 -0.200012
vt 0.375000 0.875000
vt 0.250000 1.000000
vt 0.375000 1.000000
vt 0.125000 1.000000
vt 0.250000 0.875000
vt 0.250000 1.000000
vt 0.375000 0.874982
vt 0.250000 0.749982
vt 0.375000 0.749982
vt 0.125000 0.750000
vt 0.125000 0.875000
vt 0.000000 0.750000
vt 0.500000 0.875000
vt 0.437500 0.750000
vt 0.562500 0.687500
vt 0.437500 0.687500
vt 0.437500 0.687500
vt 0.312500 0.750000
vt 0.437500 0.750000
vt 0.687500 0.187500
vt 0.625000 0.250000
vt 0.687500 0.250000
vt 0.625000 0.187500
vt 0.562500 0.250000
vt 0.562500 0.187500
vt 0.187500 0.593750
vt 0.125000 0.500000
vt 0.187500 0.500000
vt 0.125000 0.593750
vt 0.062500 0.500000
vt 0.000000 0.593750
vt -0.000000 0.500000
vt 0.250000 0.687500
vt 0.187500 0.687500
vt 0.375000 0.187500
vt 0.437500 0.250000
vt 0.375000 0.250000
vt 0.375000 0.250000
vt 0.312500 0.187500
vt 0.375000 0.187500
vt 0.437500 0.093750
vt 0.375000 0.187500
vt 0.375000 0.093750
vt 0.312500 0.093750
vt 0.312500 0.187500
vt 0.250000 0.093750
vt 0.437500 -0.000000
vt 0.500000 0.093750
vt 0.125000 0.750000
vt 0.187500 0.687500
vt 0.187500 0.750000
vt 0.125000 0.750000
vt 0.062500 0.687500
vt 0.125000 0.687500
vt 0.062500 0.593750
vt 0.250000 0.500000
vt 0.250000 0.593750
vt 0.812569 0.750000
vt 0.750070 0.687500
vt 0.812569 0.687500
vt 0.750000 0.687500
vt 0.687500 0.750000
vt 0.687500 0.687500
vt 0.812500 0.687500
vt 0.750000 0.593750
vt 0.812500 0.593750
vt 0.687500 0.687500
vt 0.687500 0.593750
vt 0.625000 0.687500
vt 0.625000 0.593750
vt 0.875000 0.500000
vt 0.875000 0.593750
vt 0.437500 0.187500
vt 0.500000 0.187500
vt 0.250000 0.687500
vt 0.312500 0.593750
vt 0.250000 0.593750
vt 0.312500 0.687500
vt 0.437500 0.593750
vt 0.437500 0.687500
vt 0.500000 0.593750
vt 0.500000 0.593750
vt 0.625000 0.500000
vt 0.625000 0.593750
vt 0.687500 0.187500
vt 0.625000 0.093750
vt 0.687500 0.093750
vt 0.625000 0.187500
vt 0.562500 0.093750
vt 0.500000 0.187500
vt 0.562500 0.093750
vt 0.500000 0.093750
vt 0.687500 0.000000
vt 0.750000 0.093750
vt 0.875000 0.687500
vt 0.625000 0.500000
vt 0.687500 0.500000
vt 0.750000 0.500000
vt 0.812500 0.500000
vt 0.750000 0.187500
vt 0.562500 0.000000
vt 0.500000 0.000000
vt 0.562500 0.000000
vt 0.625000 0.000000
vt 0.625000 0.687500
vt 0.500000 0.687500
vt 0.500000 0.500000
vt 0.437500 0.500000
vt 0.312500 0.500000
vt 0.250000 0.500000
vt 0.312500 -0.000000
vt 0.250000 -0.000000
vt 0.375000 -0.000000
vt 0.250000 0.875000
vt 0.000000 0.875000
vt 0.500000 0.750000
vt 0.562500 0.750000
vt 0.312500 0.687500
vt 0.625000 0.187500
vt 0.625000 0.250000
vt 0.437500 0.187500
vt 0.312500 0.250000
vt 0.250000 0.187500
vt 0.500000 -0.000000
vt 0.125000 0.687500
vt 0.062500 0.750000
vt 0.000000 0.687500
vt 0.750069 0.750000
vt 0.750000 0.750000
vt 0.750000 0.687500
vt 0.500000 0.687500
vt 0.500000 0.500000
vt 0.562500 0.187500
vt 0.562500 0.187500
vt 0.750000 0.000000
vn 0.0814 -0.9458 -0.3143
vn -0.0814 0.9458 0.3143
vn 0.9612 -0.0089 0.2756
vn -0.2635 -0.3245 0.9084
vn -0.9612 0.0089 -0.2756
vn 0.2635 0.3245 -0.9084
vn -0.0077 -0.9999 0.0153
vn 0.0000 1.0000 0.0000
vn 0.8860 -0.4636 0.0000
vn -0.8860 0.4636 0.0000
vn 0.9947 0.1031 0.0002
vn 0.0267 -0.2573 0.9660
vn -0.9952 -0.0982 0.0012
vn -0.0310 -0.3698 -0.9286
vn -0.0598 -0.9598 -0.2743
vn -0.0552 0.9399 -0.3369
vn 0.9980 0.0584 0.0231
vn -0.0046 0.2976 0.9547
vn -0.9979 -0.0607 -0.0228
vn 0.0026 0.3093 -0.9509
vn 0.0846 -0.9581 -0.2738
vn 0.0597 0.9396 -0.3369
vn 0.9974 -0.0662 -0.0276
vn 0.0018 0.2965 0.9550
vn -0.9977 0.0625 0.0277
vn -0.0087 0.3070 -0.9517
vn 0.7467 -0.3079 0.5897
vn -0.0000 0.7365 -0.6765
vn 0.9978 0.0195 0.0635
vn 0.0470 0.6867 0.7254
vn -0.9957 -0.0906 0.0169
vn 0.0594 -0.8360 -0.5455
vn 0.0285 -0.3668 -0.9299
vn 1.0000 -0.0000 0.0000
vn 0.0000 -0.0000 1.0000
vn -1.0000 0.0000 -0.0000
vn 0.0000 -0.0000 -1.0000
vn 0.4636 0.8860 0.0000
vn -0.4636 -0.8860 0.0000
vn 0.0000 -0.6716 -0.7409
vn -0.6746 -0.4836 0.5577
vn -0.1383 0.8243 0.5490
vn 0.5753 0.5208 -0.6308
vn 0.0001 0.0000 -1.0000
vn 1.0000 -0.0001 -0.0002
vn -0.9972 0.0747 -0.0006
vn -0.0201 -0.2574 0.9661
vn 0.9975 -0.0711 0.0016
vn 0.0000 -1.0000 -0.0000
vn -0.0000 1.0000 -0.0001
vn 0.9953 0.0916 -0.0328
vn 0.0082 -0.2482 0.9687
vn -0.9956 -0.0878 0.0327
vn -0.0010 -0.3514 -0.9362
vn 0.9980 0.0633 0.0057
vn -0.0250 0.3082 0.9510
vn -0.9978 -0.0659 -0.0047
vn 0.0241 0.3226 -0.9462
vn 0.9973 -0.0729 -0.0046
vn 0.0272 0.3096 0.9505
vn -0.9976 0.0685 0.0062
vn -0.0323 0.3206 -0.9467
vn 0.9971 -0.0556 0.0511
vn -0.0000 0.6623 0.7492
vn -0.9989 -0.0351 0.0322
vn 0.1281 -0.8204 -0.5573
vn 0.0063 -0.3531 -0.9356
vn -1.0000 0.0000 -0.0001
vn -0.0016 0.0021 -1.0000
vn -0.0431 -0.6933 -0.7193
vn -0.6872 -0.5075 0.5198
vn -0.0634 0.8409 0.5374
vn 0.6005 0.5527 -0.5779
vn 0.0000 -0.0002 -1.0000
vn -0.9975 0.0653 -0.0278
vn -0.0053 -0.2497 0.9683
vn 0.9977 -0.0627 0.0271
s off
f 2/1/1 4/2/1 1/3/1
f 8/4/2 6/5/2 5/6/2
f 5/7/3 2/8/3 1/9/3
f 6/5/4 3/10/4 2/8/4
f 7/11/5 4/12/5 3/10/5
f 1/9/6 8/13/6 5/7/6
f 10/14/7 12/15/7 9/16/7
f 13/17/8 15/18/8 14/19/8
f 17/20/9 19/21/9 20/22/9
f 24/23/10 22/24/10 21/25/10
f 53/26/11 34/27/11 33/28/11
f 54/29/12 35/30/12 34/27/12
f 35/30/13 56/31/13 36/32/13
f 53/26/14 40/33/14 37/34/14
f 26/35/15 28/36/15 25/37/15
f 32/38/16 30/39/16 29/40/16
f 52/41/17 30/42/17 51/43/17
f 30/42/18 50/44/18 51/43/18
f 31/45/19 49/46/19 50/44/19
f 25/47/20 49/48/20 52/41/20
f 34/49/21 36/50/21 33/51/21
f 37/52/22 39/53/22 38/54/22
f 53/26/23 38/54/23 54/29/23
f 54/29/24 39/53/24 55/55/24
f 39/53/25 56/31/25 55/55/25
f 53/26/26 36/56/26 56/57/26
f 42/58/27 44/59/27 41/60/27
f 45/61/28 47/62/28 46/63/28
f 45/64/29 58/65/29 57/66/29
f 58/65/30 47/67/30 59/68/30
f 59/68/31 48/69/31 60/70/31
f 57/66/32 44/71/32 60/72/32
f 29/73/33 49/48/33 32/74/33
f 13/75/34 66/76/34 65/77/34
f 14/78/35 67/79/35 66/76/35
f 15/80/36 68/81/36 67/79/36
f 65/82/37 12/83/37 68/84/37
f 21/85/38 62/86/38 61/87/38
f 22/88/35 63/89/35 62/86/35
f 23/90/39 64/91/39 63/92/39
f 17/93/37 64/94/37 61/87/37
f 57/66/40 48/95/40 45/64/40
f 59/68/41 44/96/41 43/97/41
f 58/65/42 43/97/42 42/98/42
f 41/99/43 58/65/43 42/98/43
f 61/87/37 24/100/37 21/85/37
f 63/92/39 20/101/39 19/102/39
f 62/86/35 19/103/35 18/104/35
f 17/93/38 62/86/38 18/104/38
f 65/82/44 16/105/44 13/106/44
f 67/79/36 12/107/36 11/108/36
f 66/76/35 11/108/35 10/109/35
f 65/77/45 10/109/45 9/110/45
f 27/111/46 49/46/46 28/112/46
f 26/113/47 50/44/47 27/111/47
f 52/41/48 26/113/48 25/47/48
f 2/1/1 3/114/1 4/2/1
f 8/4/2 7/11/2 6/5/2
f 5/7/3 6/5/3 2/8/3
f 6/5/4 7/11/4 3/10/4
f 7/11/5 8/115/5 4/12/5
f 1/9/6 4/116/6 8/13/6
f 10/14/49 11/117/49 12/15/49
f 13/17/50 16/118/50 15/18/50
f 17/20/9 18/119/9 19/21/9
f 24/23/10 23/120/10 22/24/10
f 53/26/51 54/29/51 34/27/51
f 54/29/52 55/55/52 35/30/52
f 35/30/53 55/55/53 56/31/53
f 53/26/54 56/57/54 40/33/54
f 26/35/15 27/121/15 28/36/15
f 32/38/16 31/122/16 30/39/16
f 52/41/55 29/73/55 30/42/55
f 30/42/56 31/45/56 50/44/56
f 31/45/57 32/123/57 49/46/57
f 25/47/58 28/124/58 49/48/58
f 34/49/21 35/125/21 36/50/21
f 37/52/22 40/126/22 39/53/22
f 53/26/59 37/34/59 38/54/59
f 54/29/60 38/54/60 39/53/60
f 39/53/61 40/127/61 56/31/61
f 53/26/62 33/28/62 36/56/62
f 42/58/27 43/128/27 44/59/27
f 45/61/28 48/129/28 47/62/28
f 45/64/63 46/130/63 58/65/63
f 58/65/64 46/130/64 47/67/64
f 59/68/65 47/67/65 48/69/65
f 57/66/66 41/99/66 44/71/66
f 29/73/67 52/41/67 49/48/67
f 13/75/34 14/78/34 66/76/34
f 14/78/35 15/80/35 67/79/35
f 15/80/68 16/131/68 68/81/68
f 65/82/69 9/132/69 12/83/69
f 21/85/38 22/88/38 62/86/38
f 22/88/35 23/133/35 63/89/35
f 23/90/39 24/134/39 64/91/39
f 17/93/37 20/135/37 64/94/37
f 57/66/70 60/72/70 48/95/70
f 59/68/71 60/70/71 44/96/71
f 58/65/72 59/68/72 43/97/72
f 41/99/73 57/66/73 58/65/73
f 61/87/37 64/94/37 24/100/37
f 63/92/39 64/91/39 20/101/39
f 62/86/35 63/89/35 19/103/35
f 17/93/38 61/87/38 62/86/38
f 65/82/74 68/84/74 16/105/74
f 67/79/36 68/81/36 12/107/36
f 66/76/35 67/79/35 11/108/35
f 65/77/34 66/76/34 10/109/34
f 27/111/75 50/44/75 49/46/75
f 26/113/76 51/43/76 50/44/76
f 52/41/77 51/43/77 26/113/77
