# Blender v2.77 (sub 0) OBJ File: 'minecraft-character.blend'
# www.blender.org
v 0.400000 2.471646 -0.605503
v 0.400000 2.631747 0.178313
v -0.400000 2.631747 0.178313
v -0.400000 2.471646 -0.605504
v 0.400000 3.255462 -0.765605
v 0.400000 3.415563 0.018211
v -0.400000 3.415563 0.018211
v -0.400000 3.255462 -0.765605
v 0.400000 1.323826 -0.233461
v 0.400000 1.389628 0.160988
v -0.400000 1.389790 0.161301
v -0.400000 1.324407 -0.233319
v 0.400000 2.517795 -0.410285
v 0.400000 2.570119 -0.013722
v -0.400000 2.570119 -0.013722
v -0.400000 2.517786 -0.410308
v 0.801898 2.885076 0.843313
v 0.801898 3.161522 0.554221
v 0.401898 3.161525 0.554218
v 0.401898 2.885076 0.843313
v 0.801898 2.233970 -0.239662
v 0.801898 2.620930 -0.340964
v 0.401898 2.620930 -0.340964
v 0.401898 2.233970 -0.239662
v 0.398663 0.206521 -0.205513
v 0.398663 0.144974 0.189724
v -0.001337 0.144974 0.189724
v -0.001337 0.206521 -0.205513
v 0.398663 1.310767 -0.235656
v 0.398663 1.398034 0.154709
v -0.001337 1.398034 0.154709
v -0.001337 1.310767 -0.235656
v -0.002092 0.207890 -0.212020
v -0.002092 0.143924 0.182832
v -0.402092 0.143925 0.182832
v -0.402092 0.207891 -0.212020
v -0.002092 1.312353 -0.235410
v -0.002092 1.397169 0.155494
v -0.402092 1.397169 0.155494
v -0.402092 1.312353 -0.235410
v -0.400161 2.881377 0.843935
v -0.400161 3.157251 0.554292
v -0.800161 3.157251 0.554292
v -0.800161 2.881377 0.843935
v -0.400161 2.234393 -0.241898
v -0.400161 2.622376 -0.339207
v -0.800161 2.622376 -0.339207
v -0.800161 2.234393 -0.241898
v -0.001337 0.760902 -0.108815
v -0.001337 0.775158 0.283826
v 0.398663 0.775158 0.283827
v 0.398663 0.762269 -0.108971
v -0.002092 0.763083 -0.112129
v -0.002092 0.773518 0.280750
v -0.402092 0.773508 0.280750
v -0.402092 0.763081 -0.112129
v -0.400161 2.413634 0.385100
v -0.400161 2.745690 0.191908
v -0.800161 2.745563 0.191624
v -0.800161 2.413634 0.385100
v 0.801898 2.418924 0.385039
v 0.801898 2.749770 0.188150
v 0.401898 2.750250 0.189216
v 0.401898 2.419246 0.385470
v 0.400000 1.919654 -0.331597
v 0.400000 1.978498 0.063995
v -0.400000 1.978498 0.063995
v -0.400000 1.919643 -0.331598
vt 0.3750 1.0000
vt 0.2500 0.8750
vt 0.2500 1.0000
vt 0.1250 1.0000
vt 0.2500 0.8750
vt 0.2500 1.0000
vt 0.3750 0.8750
vt 0.2500 0.7500
vt 0.3750 0.7500
vt 0.1250 0.7500
vt 0.1250 0.8750
vt 0.0000 0.7500
vt 0.5000 0.7500
vt 0.3750 0.8750
vt 0.5000 0.8750
vt 0.4375 0.7500
vt 0.5625 0.6875
vt 0.4375 0.6875
vt 0.4375 0.6875
vt 0.3125 0.7500
vt 0.4375 0.7500
vt 0.7501 0.6876
vt 0.8124 0.7499
vt 0.8124 0.6876
vt 0.7499 0.6876
vt 0.6876 0.7499
vt 0.6876 0.6876
vt 0.1875 0.5938
vt 0.1250 0.5000
vt 0.1875 0.5000
vt 0.0625 0.5938
vt 0.0625 0.5000
vt 0.0000 0.5938
vt -0.0000 0.5000
vt 0.2500 0.6875
vt 0.1875 0.6875
vt 0.1250 0.6875
vt 0.1875 0.7500
vt 0.1250 0.7500
vt 0.1250 0.6875
vt 0.0625 0.7500
vt 0.0625 0.6875
vt 0.1875 0.5938
vt 0.1250 0.6875
vt 0.1250 0.5938
vt 0.0625 0.5938
vt 0.0625 0.6875
vt 0.0000 0.5938
vt 0.1875 0.5000
vt 0.2500 0.5469
vt 0.1875 0.5469
vt 0.1250 0.7500
vt 0.1875 0.6875
vt 0.1875 0.7500
vt 0.1250 0.7500
vt 0.0625 0.6875
vt 0.1250 0.6875
vt 0.1250 0.5938
vt 0.2500 0.5938
vt 0.8126 0.7500
vt 0.7501 0.6875
vt 0.8126 0.6875
vt 0.7500 0.7500
vt 0.6875 0.6875
vt 0.7500 0.6875
vt 0.8125 0.6875
vt 0.7500 0.5938
vt 0.8125 0.5938
vt 0.7500 0.6875
vt 0.6875 0.5938
vt 0.6250 0.6875
vt 0.6250 0.5938
vt 0.8125 0.5000
vt 0.8750 0.5938
vt 0.2500 0.6875
vt 0.1875 0.6875
vt 0.2500 0.6875
vt 0.3125 0.5937
vt 0.2500 0.5937
vt 0.3125 0.6875
vt 0.4375 0.5937
vt 0.5000 0.6875
vt 0.5000 0.5937
vt 0.6250 0.5937
vt 0.5000 0.5000
vt 0.6874 0.6873
vt 0.6250 0.5937
vt 0.6874 0.5937
vt 0.8749 0.5937
vt 0.8125 0.6873
vt 0.8125 0.5937
vt 0.6875 0.5937
vt 0.7499 0.6873
vt 0.7499 0.5937
vt 0.8124 0.5001
vt 0.7500 0.5937
vt 0.8124 0.5937
vt 0.8750 0.6875
vt 0.6250 0.5000
vt 0.6875 0.5000
vt 0.7500 0.5000
vt 0.7500 0.6873
vt 0.8124 0.6873
vt 0.7499 0.5001
vt 0.6875 0.5001
vt 0.8749 0.5001
vt 0.8125 0.5001
vt 0.6874 0.5001
vt 0.6250 0.5001
vt 0.6250 0.6875
vt 0.4375 0.5000
vt 0.3125 0.5000
vt 0.2500 0.5000
vt 0.0625 0.5000
vt 0.0000 0.5469
vt 0.0000 0.5000
vt 0.1250 0.5000
vt 0.0625 0.5469
vt 0.3750 0.8750
vt 0.0000 0.8750
vt 0.3750 0.7500
vt 0.5625 0.7500
vt 0.3125 0.6875
vt 0.7501 0.7499
vt 0.7499 0.7499
vt 0.1875 0.6875
vt 0.1250 0.7500
vt -0.0000 0.6875
vt 0.2500 0.5000
vt 0.1250 0.6875
vt 0.0625 0.7500
vt 0.0000 0.6875
vt 0.2500 0.5000
vt 0.7501 0.7500
vt 0.6875 0.7500
vt 0.6875 0.6875
vt 0.8750 0.5000
vt 0.2500 0.5938
vt 0.4375 0.6875
vt 0.6250 0.5000
vt 0.6250 0.6873
vt 0.8749 0.6873
vt 0.6875 0.6873
vt 0.7500 0.5001
vt 0.1250 0.5469
vn -0.0000 -0.9798 0.2001
vn 0.0000 0.9798 -0.2001
vn 1.0000 -0.0000 0.0000
vn -0.0000 0.2001 0.9798
vn -1.0000 -0.0000 -0.0000
vn 0.0000 -0.2001 -0.9798
vn -0.0007 -0.9864 0.1645
vn 0.0000 0.9914 -0.1308
vn 0.0000 0.7227 0.6911
vn 0.0000 -0.2533 -0.9674
vn -0.0000 -0.1537 0.9881
vn 0.0000 -0.2190 -0.9757
vn 0.0000 -0.9881 -0.1539
vn 0.0000 0.9759 -0.2182
vn -0.0000 0.2030 0.9792
vn -0.0010 0.1712 -0.9852
vn -0.0000 -0.9871 -0.1599
vn 0.0000 0.9773 -0.2120
vn -0.0000 0.1969 0.9804
vn -0.0000 0.1771 -0.9842
vn 0.0000 0.7241 0.6897
vn 0.0000 -0.2433 -0.9700
vn -0.0001 0.9741 -0.2262
vn 0.0000 -0.7003 0.7139
vn 0.0000 -0.2250 -0.9743
vn -0.0000 0.1302 0.9915
vn 0.0000 -0.1629 -0.9866
vn 0.0005 0.9715 -0.2370
vn 0.0002 -0.7011 0.7131
vn 0.0000 -0.9615 0.2749
vn -0.0000 0.6608 -0.7505
vn 0.0000 -0.9589 0.2839
vn 0.0000 0.6638 -0.7479
vn 0.0000 -0.1304 -0.9915
vn 0.0004 0.1625 0.9867
vn -0.0000 -0.1477 0.9890
vn -0.0001 -0.9866 0.1635
vn 0.0000 0.1718 -0.9851
vn -0.0000 0.9741 -0.2261
vn 0.0004 -0.2248 -0.9744
vn -0.0003 -0.1625 -0.9867
vn 0.0000 0.9716 -0.2366
vn 0.0000 -0.7010 0.7132
vn 0.0003 0.6610 -0.7504
vn -0.0005 -0.9588 0.2842
vn -0.0012 0.6644 -0.7473
vn 0.0000 -0.1305 -0.9915
vn 0.0000 0.1631 0.9866
s off
f 1/1/1 3/2/1 4/3/1
f 8/4/2 6/5/2 5/6/2
f 5/7/3 2/8/3 1/9/3
f 6/5/4 3/10/4 2/8/4
f 7/11/5 4/12/5 3/10/5
f 1/13/6 8/14/6 5/15/6
f 10/16/7 12/17/7 9/18/7
f 13/19/8 15/20/8 14/21/8
f 18/22/9 20/23/9 17/24/9
f 24/25/10 22/26/10 21/27/10
f 53/28/3 34/29/3 33/30/3
f 34/29/11 55/31/11 35/32/11
f 35/32/5 56/33/5 36/34/5
f 53/28/12 40/35/12 37/36/12
f 26/37/13 28/38/13 25/39/13
f 29/40/14 31/41/14 30/42/14
f 52/43/3 30/44/3 51/45/3
f 30/44/15 50/46/15 51/45/15
f 31/47/5 49/48/5 50/46/5
f 25/49/16 49/50/16 52/51/16
f 34/52/17 36/53/17 33/54/17
f 37/55/18 39/56/18 38/57/18
f 53/28/3 38/57/3 54/58/3
f 54/58/19 39/56/19 55/31/19
f 39/56/5 56/33/5 55/31/5
f 33/30/20 56/59/20 53/28/20
f 42/60/21 44/61/21 41/62/21
f 48/63/22 46/64/22 45/65/22
f 45/66/3 58/67/3 57/68/3
f 46/69/23 59/70/23 58/67/23
f 59/70/5 48/71/5 60/72/5
f 41/73/24 60/74/24 57/68/24
f 52/43/25 32/75/25 29/76/25
f 13/77/3 66/78/3 65/79/3
f 14/80/26 67/81/26 66/78/26
f 67/81/5 16/82/5 68/83/5
f 65/84/27 12/85/27 68/83/27
f 21/86/3 62/87/3 61/88/3
f 62/89/28 23/90/28 63/91/28
f 63/92/5 24/93/5 64/94/5
f 17/95/29 64/96/29 61/97/29
f 57/68/30 48/98/30 45/66/30
f 59/70/5 44/99/5 43/100/5
f 58/67/31 43/100/31 42/101/31
f 41/73/3 58/67/3 42/101/3
f 61/97/32 24/102/32 21/103/32
f 63/92/5 20/104/5 19/105/5
f 18/106/33 63/91/33 19/107/33
f 17/108/3 62/87/3 18/109/3
f 65/84/34 16/82/34 13/110/34
f 67/81/5 12/85/5 11/111/5
f 66/78/35 11/111/35 10/112/35
f 9/113/3 66/78/3 10/112/3
f 27/114/5 49/115/5 28/116/5
f 26/117/36 50/118/36 27/114/36
f 52/51/3 26/117/3 25/49/3
f 1/1/1 2/119/1 3/2/1
f 8/4/2 7/11/2 6/5/2
f 5/7/3 6/5/3 2/8/3
f 6/5/4 7/11/4 3/10/4
f 7/11/5 8/120/5 4/12/5
f 1/13/6 4/121/6 8/14/6
f 10/16/37 11/122/37 12/17/37
f 13/19/8 16/123/8 15/20/8
f 18/22/9 19/124/9 20/23/9
f 24/25/10 23/125/10 22/26/10
f 53/28/3 54/58/3 34/29/3
f 34/29/11 54/58/11 55/31/11
f 35/32/5 55/31/5 56/33/5
f 53/28/12 56/59/12 40/35/12
f 26/37/13 27/126/13 28/38/13
f 29/40/14 32/127/14 31/41/14
f 52/43/3 29/76/3 30/44/3
f 30/44/15 31/47/15 50/46/15
f 31/47/5 32/128/5 49/48/5
f 25/49/38 28/129/38 49/50/38
f 34/52/17 35/130/17 36/53/17
f 37/55/18 40/131/18 39/56/18
f 53/28/3 37/36/3 38/57/3
f 54/58/19 38/57/19 39/56/19
f 39/56/5 40/132/5 56/33/5
f 33/30/20 36/133/20 56/59/20
f 42/60/21 43/134/21 44/61/21
f 48/63/22 47/135/22 46/64/22
f 45/66/3 46/69/3 58/67/3
f 46/69/39 47/136/39 59/70/39
f 59/70/5 47/136/5 48/71/5
f 41/73/24 44/137/24 60/74/24
f 52/43/40 49/138/40 32/75/40
f 13/77/3 14/80/3 66/78/3
f 14/80/26 15/139/26 67/81/26
f 67/81/5 15/139/5 16/82/5
f 65/84/41 9/140/41 12/85/41
f 21/86/3 22/141/3 62/87/3
f 62/89/42 22/142/42 23/90/42
f 63/92/5 23/143/5 24/93/5
f 17/95/43 20/144/43 64/96/43
f 57/68/30 60/74/30 48/98/30
f 59/70/5 60/72/5 44/99/5
f 58/67/44 59/70/44 43/100/44
f 41/73/3 57/68/3 58/67/3
f 61/97/45 64/96/45 24/102/45
f 63/92/5 64/94/5 20/104/5
f 18/106/46 62/89/46 63/91/46
f 17/108/3 61/88/3 62/87/3
f 65/84/47 68/83/47 16/82/47
f 67/81/5 68/83/5 12/85/5
f 66/78/48 67/81/48 11/111/48
f 9/113/3 65/79/3 66/78/3
f 27/114/5 50/118/5 49/115/5
f 26/117/36 51/145/36 50/118/36
f 52/51/3 51/145/3 26/117/3
