# Blender v2.77 (sub 0) OBJ File: 'minecraft-character.blend'
# www.blender.org
v 0.400000 2.610448 -0.847401
v 0.400000 3.064442 -0.188699
v -0.400000 3.064442 -0.188699
v -0.400000 2.610448 -0.847402
v 0.400000 3.269150 -1.301396
v 0.400000 3.723145 -0.642693
v -0.400000 3.723145 -0.642694
v -0.400000 3.269150 -1.301396
v 0.400000 1.688933 -0.088697
v 0.400000 1.888644 0.259405
v -0.400000 1.888459 0.259243
v -0.400000 1.693152 -0.089835
v 0.400000 2.729295 -0.685798
v 0.400000 2.932597 -0.341316
v -0.400000 2.932597 -0.341316
v -0.400000 2.729198 -0.685885
v 0.801898 3.662344 0.154777
v 0.801898 3.692077 -0.244111
v 0.401898 3.692078 -0.244116
v 0.401898 3.662344 0.154777
v 0.801898 2.536254 -0.411826
v 0.801898 2.845891 -0.665056
v 0.401898 2.845891 -0.665056
v 0.401898 2.536254 -0.411826
v 0.398663 0.891104 0.102533
v 0.398663 0.748120 0.476105
v -0.001337 0.748120 0.476105
v -0.001337 0.891104 0.102533
v 0.398663 1.614619 -0.067327
v 0.398663 1.922229 0.188361
v -0.001337 1.922229 0.188361
v -0.001337 1.614619 -0.067327
v -0.002092 0.891355 0.100003
v -0.002092 0.747193 0.473122
v -0.402092 0.747193 0.473122
v -0.402092 0.891355 0.100003
v -0.002092 1.615439 -0.067819
v -0.002092 1.922201 0.188885
v -0.402092 1.922201 0.188885
v -0.402092 1.615439 -0.067819
v -0.400161 3.658948 0.156718
v -0.400161 3.687891 -0.242233
v -0.800161 3.687891 -0.242233
v -0.800161 3.658948 0.156719
v -0.400161 2.535708 -0.414035
v -0.400161 2.847938 -0.664060
v -0.800161 2.847938 -0.664060
v -0.800161 2.535708 -0.414035
v -0.001337 1.337126 0.356998
v -0.001337 1.423587 0.670178
v 0.398663 1.423587 0.670178
v 0.398663 1.341190 0.355577
v -0.002092 1.340708 0.354285
v -0.002092 1.422040 0.669191
v -0.402092 1.422009 0.669196
v -0.402092 1.340705 0.354286
v -0.400161 2.985633 0.083807
v -0.400161 3.156590 -0.240431
v -0.800161 3.156219 -0.240681
v -0.800161 2.985633 0.083807
v 0.801898 2.990607 0.081619
v 0.801898 3.157940 -0.245859
v 0.401898 3.159348 -0.244918
v 0.401898 2.991333 0.081901
v 0.400000 2.214663 -0.381817
v 0.400000 2.413974 -0.035041
v -0.400000 2.413974 -0.035040
v -0.400000 2.214658 -0.381828
vt 0.3750 0.8750
vt 0.2500 1.0000
vt 0.3750 1.0000
vt 0.2500 1.0000
vt 0.1250 0.8750
vt 0.2500 0.8750
vt 0.3750 0.8750
vt 0.2500 0.7500
vt 0.3750 0.7500
vt 0.1250 0.7500
vt 0.0000 0.7500
vt 0.5000 0.8750
vt 0.3750 0.7500
vt 0.3750 0.8750
vt 0.4375 0.7500
vt 0.5625 0.6875
vt 0.4375 0.6875
vt 0.4375 0.6875
vt 0.3125 0.7500
vt 0.4375 0.7500
vt 0.7501 0.6876
vt 0.8124 0.7499
vt 0.8124 0.6876
vt 0.6876 0.6876
vt 0.7499 0.7499
vt 0.6876 0.7499
vt 0.1875 0.5938
vt 0.1250 0.5000
vt 0.1875 0.5000
vt 0.0625 0.5938
vt 0.0625 0.5000
vt 0.0000 0.5938
vt -0.0000 0.5000
vt 0.2500 0.6875
vt 0.1875 0.6875
vt 0.1250 0.6875
vt 0.1875 0.7500
vt 0.1250 0.7500
vt 0.1250 0.7500
vt 0.0625 0.6875
vt 0.1250 0.6875
vt 0.1875 0.5938
vt 0.1250 0.6875
vt 0.1250 0.5938
vt 0.0625 0.5938
vt 0.0625 0.6875
vt 0.0000 0.5938
vt 0.1875 0.5000
vt 0.2500 0.5469
vt 0.1875 0.5469
vt 0.1875 0.7500
vt 0.1250 0.6875
vt 0.1875 0.6875
vt 0.1250 0.7500
vt 0.0625 0.6875
vt 0.1250 0.6875
vt 0.1250 0.5938
vt 0.2500 0.5938
vt 0.8126 0.7500
vt 0.7501 0.6875
vt 0.8126 0.6875
vt 0.7500 0.6875
vt 0.6875 0.7500
vt 0.6875 0.6875
vt 0.8125 0.6875
vt 0.7500 0.5938
vt 0.8125 0.5938
vt 0.7500 0.6875
vt 0.6875 0.5938
vt 0.6250 0.6875
vt 0.6250 0.5938
vt 0.8125 0.5000
vt 0.8750 0.5938
vt 0.2500 0.6875
vt 0.1875 0.6875
vt 0.2500 0.5937
vt 0.3125 0.6875
vt 0.3125 0.5937
vt 0.4375 0.5937
vt 0.4375 0.6875
vt 0.5000 0.5937
vt 0.6250 0.5937
vt 0.5000 0.5000
vt 0.6874 0.6873
vt 0.6250 0.5937
vt 0.6874 0.5937
vt 0.8749 0.5937
vt 0.8125 0.6873
vt 0.8125 0.5937
vt 0.6875 0.5937
vt 0.7499 0.6873
vt 0.7499 0.5937
vt 0.8124 0.5001
vt 0.7500 0.5937
vt 0.8124 0.5937
vt 0.8750 0.6875
vt 0.6250 0.5000
vt 0.6875 0.5000
vt 0.7500 0.5000
vt 0.7500 0.6873
vt 0.8124 0.6873
vt 0.7499 0.5001
vt 0.6875 0.5001
vt 0.8749 0.5001
vt 0.8125 0.5001
vt 0.6874 0.5001
vt 0.6250 0.5001
vt 0.5000 0.6875
vt 0.6250 0.6875
vt 0.4375 0.5000
vt 0.3125 0.5000
vt 0.2500 0.5000
vt 0.0625 0.5000
vt 0.0000 0.5469
vt 0.0000 0.5000
vt 0.1250 0.5469
vt 0.1250 0.5000
vt 0.2500 0.8750
vt 0.1250 1.0000
vt 0.0000 0.8750
vt 0.5000 0.7500
vt 0.5625 0.7500
vt 0.3125 0.6875
vt 0.7501 0.7499
vt 0.7499 0.6876
vt 0.1875 0.6875
vt 0.0625 0.7500
vt -0.0000 0.6875
vt 0.2500 0.5000
vt 0.1250 0.7500
vt 0.0625 0.7500
vt 0.0000 0.6875
vt 0.2500 0.5000
vt 0.7501 0.7500
vt 0.7500 0.7500
vt 0.6875 0.6875
vt 0.8750 0.5000
vt 0.2500 0.5938
vt 0.2500 0.6875
vt 0.6250 0.5000
vt 0.6250 0.6873
vt 0.8749 0.6873
vt 0.6875 0.6873
vt 0.7500 0.5001
vt 0.0625 0.5469
vn -0.0000 -0.8234 0.5675
vn -0.0000 0.8234 -0.5675
vn 1.0000 -0.0000 0.0000
vn 0.0000 0.5675 0.8234
vn -1.0000 -0.0000 -0.0000
vn 0.0000 -0.5675 -0.8234
vn -0.0053 -0.8674 0.4976
vn 0.0000 0.8612 -0.5083
vn 0.0000 0.9972 0.0743
vn -0.0000 -0.6331 -0.7741
vn -0.0000 -0.2790 0.9603
vn 0.0000 -0.8381 -0.5455
vn 0.0000 -0.9339 -0.3575
vn 0.0000 0.6392 -0.7690
vn -0.0000 0.6949 0.7191
vn -0.0081 0.4901 -0.8717
vn -0.0000 -0.9328 -0.3604
vn 0.0000 0.6418 -0.7669
vn -0.0000 0.6926 0.7213
vn -0.0000 0.4925 -0.8703
vn 0.0000 0.9974 0.0724
vn 0.0000 -0.6251 -0.7806
vn -0.0004 0.8082 -0.5889
vn 0.0000 -0.1077 0.9942
vn 0.0000 -0.8398 -0.5430
vn 0.0000 0.5085 0.8611
vn 0.0000 -0.4885 -0.8725
vn 0.0014 0.8015 -0.5980
vn 0.0005 -0.1083 0.9941
vn 0.0000 -0.7419 0.6705
vn -0.0000 -0.0034 -1.0000
vn 0.0000 -0.7356 0.6774
vn 0.0000 0.0015 -1.0000
vn 0.0002 -0.5086 -0.8610
vn -0.0003 0.4886 0.8725
vn 0.0000 -0.2761 0.9611
vn 0.0001 -0.8727 0.4883
vn 0.0000 0.4955 -0.8686
vn -0.0000 0.8084 -0.5886
vn 0.0066 -0.8369 -0.5473
vn -0.0013 -0.4870 -0.8734
vn -0.0000 0.8022 -0.5971
vn 0.0000 -0.1080 0.9942
vn 0.0006 -0.0029 -1.0000
vn -0.0009 -0.7353 0.6777
vn -0.0023 0.0033 -1.0000
vn 0.0000 -0.5087 -0.8609
vn 0.0000 0.4889 0.8723
s off
f 2/1/1 4/2/1 1/3/1
f 5/4/2 7/5/2 6/6/2
f 5/7/3 2/8/3 1/9/3
f 6/6/4 3/10/4 2/8/4
f 7/5/5 4/11/5 3/10/5
f 5/12/6 4/13/6 8/14/6
f 10/15/7 12/16/7 9/17/7
f 13/18/8 15/19/8 14/20/8
f 18/21/9 20/22/9 17/23/9
f 21/24/10 23/25/10 22/26/10
f 53/27/3 34/28/3 33/29/3
f 34/28/11 55/30/11 35/31/11
f 35/31/5 56/32/5 36/33/5
f 53/27/12 40/34/12 37/35/12
f 26/36/13 28/37/13 25/38/13
f 32/39/14 30/40/14 29/41/14
f 52/42/3 30/43/3 51/44/3
f 30/43/15 50/45/15 51/44/15
f 31/46/5 49/47/5 50/45/5
f 25/48/16 49/49/16 52/50/16
f 33/51/17 35/52/17 36/53/17
f 37/54/18 39/55/18 38/56/18
f 53/27/3 38/56/3 54/57/3
f 54/57/19 39/55/19 55/30/19
f 39/55/5 56/32/5 55/30/5
f 33/29/20 56/58/20 53/27/20
f 42/59/21 44/60/21 41/61/21
f 45/62/22 47/63/22 46/64/22
f 45/65/3 58/66/3 57/67/3
f 46/68/23 59/69/23 58/66/23
f 59/69/5 48/70/5 60/71/5
f 41/72/24 60/73/24 57/67/24
f 52/42/25 32/74/25 29/75/25
f 65/76/3 14/77/3 66/78/3
f 14/77/26 67/79/26 66/78/26
f 15/80/5 68/81/5 67/79/5
f 65/82/27 12/83/27 68/81/27
f 21/84/3 62/85/3 61/86/3
f 62/87/28 23/88/28 63/89/28
f 63/90/5 24/91/5 64/92/5
f 17/93/29 64/94/29 61/95/29
f 57/67/30 48/96/30 45/65/30
f 59/69/5 44/97/5 43/98/5
f 58/66/31 43/98/31 42/99/31
f 41/72/3 58/66/3 42/99/3
f 61/95/32 24/100/32 21/101/32
f 63/90/5 20/102/5 19/103/5
f 18/104/33 63/89/33 19/105/33
f 17/106/3 62/85/3 18/107/3
f 65/82/34 16/108/34 13/109/34
f 11/110/5 68/81/5 12/83/5
f 10/111/35 67/79/35 11/110/35
f 65/76/3 10/111/3 9/112/3
f 27/113/5 49/114/5 28/115/5
f 51/116/36 27/113/36 26/117/36
f 52/50/3 26/117/3 25/48/3
f 2/1/1 3/118/1 4/2/1
f 5/4/2 8/119/2 7/5/2
f 5/7/3 6/6/3 2/8/3
f 6/6/4 7/5/4 3/10/4
f 7/5/5 8/120/5 4/11/5
f 5/12/6 1/121/6 4/13/6
f 10/15/37 11/122/37 12/16/37
f 13/18/8 16/123/8 15/19/8
f 18/21/9 19/124/9 20/22/9
f 21/24/10 24/125/10 23/25/10
f 53/27/3 54/57/3 34/28/3
f 34/28/11 54/57/11 55/30/11
f 35/31/5 55/30/5 56/32/5
f 53/27/12 56/58/12 40/34/12
f 26/36/13 27/126/13 28/37/13
f 32/39/14 31/127/14 30/40/14
f 52/42/3 29/75/3 30/43/3
f 30/43/15 31/46/15 50/45/15
f 31/46/5 32/128/5 49/47/5
f 25/48/38 28/129/38 49/49/38
f 33/51/17 34/130/17 35/52/17
f 37/54/18 40/131/18 39/55/18
f 53/27/3 37/35/3 38/56/3
f 54/57/19 38/56/19 39/55/19
f 39/55/5 40/132/5 56/32/5
f 33/29/20 36/133/20 56/58/20
f 42/59/21 43/134/21 44/60/21
f 45/62/22 48/135/22 47/63/22
f 45/65/3 46/68/3 58/66/3
f 46/68/39 47/136/39 59/69/39
f 59/69/5 47/136/5 48/70/5
f 41/72/24 44/137/24 60/73/24
f 52/42/40 49/138/40 32/74/40
f 65/76/3 13/139/3 14/77/3
f 14/77/26 15/80/26 67/79/26
f 15/80/5 16/108/5 68/81/5
f 65/82/41 9/140/41 12/83/41
f 21/84/3 22/141/3 62/85/3
f 62/87/42 22/142/42 23/88/42
f 63/90/5 23/143/5 24/91/5
f 17/93/43 20/144/43 64/94/43
f 57/67/30 60/73/30 48/96/30
f 59/69/5 60/71/5 44/97/5
f 58/66/44 59/69/44 43/98/44
f 41/72/3 57/67/3 58/66/3
f 61/95/45 64/94/45 24/100/45
f 63/90/5 64/92/5 20/102/5
f 18/104/46 62/87/46 63/89/46
f 17/106/3 61/86/3 62/85/3
f 65/82/47 68/81/47 16/108/47
f 11/110/5 67/79/5 68/81/5
f 10/111/48 66/78/48 67/79/48
f 65/76/3 66/78/3 10/111/3
f 27/113/5 50/145/5 49/114/5
f 51/116/36 50/145/36 27/113/36
f 52/50/3 51/116/3 26/117/3
