# Blender v2.77 (sub 0) OBJ File: 'minecraft-character.blend'
# www.blender.org
v 0.400000 2.649934 0.103903
v 0.400000 2.278661 0.812533
v -0.400000 2.278661 0.812533
v -0.400000 2.649934 0.103903
v 0.400000 3.358564 0.475177
v 0.400000 2.987291 1.183806
v -0.400000 2.987291 1.183806
v -0.400000 3.358564 0.475176
v 0.400000 1.437782 -0.242847
v 0.400000 1.312222 0.133486
v -0.400000 1.311988 0.135694
v -0.400000 1.442528 -0.242406
v 0.400000 2.560238 0.283088
v 0.400000 2.354351 0.626032
v -0.400000 2.354351 0.626031
v -0.400000 2.560236 0.282904
v 0.838418 2.171827 1.504570
v 0.846794 2.571739 1.504702
v 0.447155 2.580105 1.519490
v 0.438779 2.180192 1.519357
v 0.794072 2.172986 0.305448
v 0.802444 2.572898 0.305465
v 0.402805 2.581264 0.320252
v 0.394433 2.181351 0.320235
v 0.398663 0.200541 -0.261147
v 0.398663 0.157705 0.136552
v -0.001337 0.157705 0.136552
v -0.001337 0.200541 -0.261147
v 0.398663 1.354308 -0.250126
v 0.398663 1.391777 0.148115
v -0.001337 1.391777 0.148115
v -0.001337 1.354308 -0.250126
v -0.002092 0.199487 -0.258198
v -0.002092 0.158604 0.139707
v -0.402092 0.158605 0.139707
v -0.402092 0.199488 -0.258198
v -0.002092 1.354550 -0.250131
v -0.002092 1.392019 0.148110
v -0.402092 1.392019 0.148110
v -0.402092 1.354550 -0.250131
v -0.441384 2.186974 1.522103
v -0.450521 2.586849 1.518112
v -0.850075 2.577556 1.501685
v -0.840939 2.177680 1.505677
v -0.391893 2.181875 0.321161
v -0.401193 2.581767 0.321141
v -0.800747 2.572474 0.304714
v -0.791447 2.172582 0.304734
v -0.001337 0.776263 -0.195352
v -0.001337 0.774334 0.202563
v 0.398663 0.774334 0.202563
v 0.398663 0.777003 -0.195406
v -0.002092 0.776767 -0.195401
v -0.002092 0.775065 0.202673
v -0.402092 0.775060 0.202672
v -0.402092 0.776767 -0.195401
v -0.416570 2.181444 0.921647
v -0.425788 2.581327 0.919647
v -0.825343 2.572035 0.903215
v -0.816124 2.172151 0.905220
v 0.816247 2.172493 0.905008
v 0.824621 2.572406 0.905084
v 0.424982 2.580771 0.919871
v 0.416608 2.180859 0.919796
v 0.400000 2.027805 -0.036137
v 0.400000 1.859536 0.324352
v -0.400000 1.859537 0.324353
v -0.400000 2.027745 -0.036184
vt 0.3750 0.8750
vt 0.2500 1.0000
vt 0.3750 1.0000
vt 0.2500 1.0000
vt 0.1250 0.8750
vt 0.2500 0.8750
vt 0.3750 0.8750
vt 0.2500 0.7500
vt 0.3750 0.7500
vt 0.1250 0.7500
vt 0.0000 0.7500
vt 0.5000 0.8750
vt 0.3750 0.7500
vt 0.3750 0.8750
vt 0.4375 0.7500
vt 0.5625 0.6875
vt 0.4375 0.6875
vt 0.4375 0.6875
vt 0.3125 0.7500
vt 0.4375 0.7500
vt 0.8124 0.6876
vt 0.7501 0.7499
vt 0.8124 0.7499
vt 0.6876 0.6876
vt 0.7499 0.7499
vt 0.6876 0.7499
vt 0.1875 0.5938
vt 0.1250 0.5000
vt 0.1875 0.5000
vt 0.0625 0.5938
vt 0.0625 0.5000
vt 0.0000 0.5938
vt -0.0000 0.5000
vt 0.2500 0.6875
vt 0.1875 0.6875
vt 0.1250 0.7500
vt 0.1875 0.6875
vt 0.1875 0.7500
vt 0.1250 0.7500
vt 0.0625 0.6875
vt 0.1250 0.6875
vt 0.1875 0.5938
vt 0.1250 0.6875
vt 0.1250 0.5938
vt 0.0625 0.5938
vt 0.0625 0.6875
vt 0.0000 0.5938
vt 0.1875 0.5000
vt 0.2500 0.5469
vt 0.1875 0.5469
vt 0.1250 0.7500
vt 0.1875 0.6875
vt 0.1875 0.7500
vt 0.0625 0.7500
vt 0.1250 0.6875
vt 0.1250 0.7500
vt 0.1250 0.5938
vt 0.0625 0.6875
vt 0.2500 0.5938
vt 0.8126 0.7500
vt 0.7501 0.6875
vt 0.8126 0.6875
vt 0.7500 0.6875
vt 0.6875 0.7500
vt 0.6875 0.6875
vt 0.8125 0.6875
vt 0.7500 0.5938
vt 0.8125 0.5938
vt 0.7500 0.6875
vt 0.6875 0.5938
vt 0.6250 0.6875
vt 0.6250 0.5938
vt 0.8125 0.5000
vt 0.8750 0.5938
vt 0.2500 0.6875
vt 0.1875 0.6875
vt 0.2500 0.6875
vt 0.3125 0.5937
vt 0.2500 0.5937
vt 0.3125 0.6875
vt 0.4375 0.5937
vt 0.5000 0.6875
vt 0.5000 0.5937
vt 0.6250 0.5937
vt 0.5000 0.5000
vt 0.6874 0.5937
vt 0.6250 0.6873
vt 0.6250 0.5937
vt 0.8749 0.6873
vt 0.8125 0.5937
vt 0.8749 0.5937
vt 0.6875 0.6873
vt 0.7499 0.5937
vt 0.6875 0.5937
vt 0.8124 0.5937
vt 0.7500 0.5001
vt 0.7500 0.5937
vt 0.8750 0.6875
vt 0.6250 0.5000
vt 0.6875 0.5000
vt 0.7500 0.5000
vt 0.8124 0.6873
vt 0.7500 0.6873
vt 0.6875 0.5001
vt 0.7499 0.5001
vt 0.8125 0.5001
vt 0.8749 0.5001
vt 0.6250 0.5001
vt 0.6874 0.5001
vt 0.6250 0.6875
vt 0.4375 0.5000
vt 0.3125 0.5000
vt 0.2500 0.5000
vt 0.0625 0.5000
vt 0.0000 0.5469
vt 0.0000 0.5000
vt 0.1250 0.5469
vt 0.1250 0.5000
vt 0.2500 0.8750
vt 0.1250 1.0000
vt 0.0000 0.8750
vt 0.5000 0.7500
vt 0.5625 0.7500
vt 0.3125 0.6875
vt 0.7501 0.6876
vt 0.7499 0.6876
vt 0.1250 0.6875
vt 0.0625 0.7500
vt -0.0000 0.6875
vt 0.2500 0.5000
vt 0.1250 0.6875
vt 0.0000 0.6875
vt 0.2500 0.5000
vt 0.7501 0.7500
vt 0.7500 0.7500
vt 0.6875 0.6875
vt 0.8750 0.5000
vt 0.2500 0.5938
vt 0.4375 0.6875
vt 0.6250 0.5000
vt 0.6874 0.6873
vt 0.8125 0.6873
vt 0.7499 0.6873
vt 0.8124 0.5001
vt 0.0625 0.5469
vn 0.0000 -0.8858 -0.4641
vn -0.0000 0.8858 0.4641
vn 1.0000 -0.0000 -0.0000
vn 0.0000 -0.4641 0.8858
vn -1.0000 0.0000 -0.0000
vn 0.0000 0.4641 -0.8858
vn -0.0058 -0.9486 -0.3165
vn -0.0000 0.8574 0.5147
vn 0.0370 -0.0011 0.9993
vn -0.0370 0.0008 -0.9993
vn -0.0000 -0.1016 0.9948
vn 0.0000 -0.0943 -0.9955
vn 0.0000 -0.9942 -0.1071
vn 0.0000 0.9956 -0.0937
vn -0.0000 0.0878 0.9961
vn -0.0003 0.1133 -0.9936
vn -0.0000 -0.9948 -0.1022
vn -0.0000 0.0881 0.9961
vn 0.0000 0.1081 -0.9941
vn -0.0413 0.0090 0.9991
vn 0.0411 0.0009 -0.9992
vn 0.9989 0.0232 0.0411
vn -0.0232 0.9997 -0.0002
vn -0.9989 -0.0232 -0.0411
vn 0.0228 -0.9997 0.0101
vn 0.0000 -0.0944 -0.9955
vn 0.0000 -0.5206 0.8538
vn 0.0000 0.3324 -0.9432
vn 0.9991 -0.0209 -0.0370
vn 0.0209 0.9998 0.0000
vn -0.9991 0.0209 0.0370
vn -0.0209 -0.9998 -0.0003
vn 0.0232 -0.9997 0.0002
vn -0.0228 0.9997 -0.0102
vn -0.0209 -0.9998 -0.0000
vn 0.0209 0.9998 0.0003
vn 0.0002 0.5142 -0.8577
vn 0.0027 -0.3293 0.9442
vn -0.0000 -0.1064 0.9943
vn -0.0006 -0.9452 -0.3264
vn -0.0001 0.8575 0.5145
vn 0.0000 0.1135 -0.9935
vn 0.0228 -0.9997 0.0102
vn 0.0014 0.3306 -0.9438
vn 0.0000 0.5140 -0.8578
vn 0.0000 -0.3258 0.9455
s off
f 2/1/1 4/2/1 1/3/1
f 5/4/2 7/5/2 6/6/2
f 5/7/3 2/8/3 1/9/3
f 6/6/4 3/10/4 2/8/4
f 7/5/5 4/11/5 3/10/5
f 5/12/6 4/13/6 8/14/6
f 10/15/7 12/16/7 9/17/7
f 13/18/8 15/19/8 14/20/8
f 17/21/9 19/22/9 20/23/9
f 21/24/10 23/25/10 22/26/10
f 53/27/3 34/28/3 33/29/3
f 34/28/11 55/30/11 35/31/11
f 35/31/5 56/32/5 36/33/5
f 53/27/12 40/34/12 37/35/12
f 25/36/13 27/37/13 28/38/13
f 32/39/14 30/40/14 29/41/14
f 52/42/3 30/43/3 51/44/3
f 30/43/15 50/45/15 51/44/15
f 31/46/5 49/47/5 50/45/5
f 25/48/16 49/49/16 52/50/16
f 34/51/17 36/52/17 33/53/17
f 40/54/14 38/55/14 37/56/14
f 53/27/3 38/55/3 54/57/3
f 54/57/18 39/58/18 55/30/18
f 39/58/5 56/32/5 55/30/5
f 33/29/19 56/59/19 53/27/19
f 42/60/20 44/61/20 41/62/20
f 45/63/21 47/64/21 46/65/21
f 45/66/22 58/67/22 57/68/22
f 46/69/23 59/70/23 58/67/23
f 59/70/24 48/71/24 60/72/24
f 41/73/25 60/74/25 57/68/25
f 52/42/26 32/75/26 29/76/26
f 13/77/3 66/78/3 65/79/3
f 14/80/27 67/81/27 66/78/27
f 67/81/5 16/82/5 68/83/5
f 65/84/28 12/85/28 68/83/28
f 61/86/29 22/87/29 62/88/29
f 22/89/30 63/90/30 62/91/30
f 23/92/31 64/93/31 63/94/31
f 61/95/32 20/96/32 64/97/32
f 57/68/33 48/98/33 45/66/33
f 59/70/24 44/99/24 43/100/24
f 58/67/34 43/100/34 42/101/34
f 41/73/22 58/67/22 42/101/22
f 21/102/35 64/97/35 24/103/35
f 19/104/31 64/93/31 20/105/31
f 62/91/36 19/106/36 18/107/36
f 61/86/29 18/108/29 17/109/29
f 65/84/37 16/82/37 13/110/37
f 67/81/5 12/85/5 11/111/5
f 66/78/38 11/111/38 10/112/38
f 9/113/3 66/78/3 10/112/3
f 27/114/5 49/115/5 28/116/5
f 51/117/39 27/114/39 26/118/39
f 52/50/3 26/118/3 25/48/3
f 2/1/1 3/119/1 4/2/1
f 5/4/2 8/120/2 7/5/2
f 5/7/3 6/6/3 2/8/3
f 6/6/4 7/5/4 3/10/4
f 7/5/5 8/121/5 4/11/5
f 5/12/6 1/122/6 4/13/6
f 10/15/40 11/123/40 12/16/40
f 13/18/41 16/124/41 15/19/41
f 17/21/9 18/125/9 19/22/9
f 21/24/10 24/126/10 23/25/10
f 53/27/3 54/57/3 34/28/3
f 34/28/11 54/57/11 55/30/11
f 35/31/5 55/30/5 56/32/5
f 53/27/12 56/59/12 40/34/12
f 25/36/13 26/127/13 27/37/13
f 32/39/14 31/128/14 30/40/14
f 52/42/3 29/76/3 30/43/3
f 30/43/15 31/46/15 50/45/15
f 31/46/5 32/129/5 49/47/5
f 25/48/42 28/130/42 49/49/42
f 34/51/17 35/131/17 36/52/17
f 40/54/14 39/58/14 38/55/14
f 53/27/3 37/35/3 38/55/3
f 54/57/18 38/55/18 39/58/18
f 39/58/5 40/132/5 56/32/5
f 33/29/19 36/133/19 56/59/19
f 42/60/20 43/134/20 44/61/20
f 45/63/21 48/135/21 47/64/21
f 45/66/22 46/69/22 58/67/22
f 46/69/23 47/136/23 59/70/23
f 59/70/24 47/136/24 48/71/24
f 41/73/43 44/137/43 60/74/43
f 52/42/12 49/138/12 32/75/12
f 13/77/3 14/80/3 66/78/3
f 14/80/27 15/139/27 67/81/27
f 67/81/5 15/139/5 16/82/5
f 65/84/44 9/140/44 12/85/44
f 61/86/29 21/141/29 22/87/29
f 22/89/30 23/142/30 63/90/30
f 23/92/31 24/143/31 64/93/31
f 61/95/32 17/144/32 20/96/32
f 57/68/33 60/74/33 48/98/33
f 59/70/24 60/72/24 44/99/24
f 58/67/34 59/70/34 43/100/34
f 41/73/22 57/68/22 58/67/22
f 21/102/35 61/95/35 64/97/35
f 19/104/31 63/94/31 64/93/31
f 62/91/36 63/90/36 19/106/36
f 61/86/29 62/88/29 18/108/29
f 65/84/45 68/83/45 16/82/45
f 67/81/5 68/83/5 12/85/5
f 66/78/46 67/81/46 11/111/46
f 9/113/3 65/79/3 66/78/3
f 27/114/5 50/145/5 49/115/5
f 51/117/39 50/145/39 27/114/39
f 52/50/3 51/117/3 26/118/3
