# Blender v2.77 (sub 0) OBJ File: 'minecraft-character.blend'
# www.blender.org
v 0.400000 1.538223 -0.713689
v 0.400000 2.248537 -1.081730
v -0.400000 2.248537 -1.081730
v -0.400000 1.538223 -0.713689
v 0.400000 1.170181 -1.424003
v 0.400000 1.880495 -1.792044
v -0.400000 1.880495 -1.792044
v -0.400000 1.170181 -1.424003
v 0.400000 2.424253 0.238226
v 0.400000 2.689436 -0.043333
v -0.400000 2.691782 -0.046420
v -0.400000 2.405393 0.232831
v 0.400000 1.713422 -0.811390
v 0.400000 2.080627 -0.970009
v -0.400000 2.080627 -0.970008
v -0.400000 1.713561 -0.810761
v 0.801898 2.620533 0.082657
v 0.801898 2.891741 -0.211361
v 0.401898 2.891741 -0.211361
v 0.401898 2.620533 0.082657
v 0.801898 1.732067 -0.715735
v 0.801898 1.995233 -1.016971
v 0.401898 1.995233 -1.016971
v 0.401898 1.732067 -0.715734
v 0.398663 3.234984 0.228018
v 0.398663 3.458632 -0.103617
v -0.001337 3.458632 -0.103617
v -0.001337 3.234983 0.228018
v 0.398663 2.750141 0.328958
v 0.398663 2.393368 0.148089
v -0.001337 2.393369 0.148089
v -0.001337 2.750141 0.328958
v -0.002092 3.234636 0.229865
v -0.002092 3.459329 -0.101062
v -0.402092 3.459330 -0.101062
v -0.402092 3.234636 0.229865
v -0.002092 2.749451 0.329620
v -0.002092 2.393279 0.147573
v -0.402092 2.393279 0.147573
v -0.402092 2.749451 0.329620
v -0.400161 2.618355 0.085763
v -0.400161 2.888979 -0.208793
v -0.800161 2.888979 -0.208792
v -0.800161 2.618355 0.085763
v -0.400161 1.731159 -0.717822
v -0.400161 1.997417 -1.016330
v -0.800161 1.997417 -1.016330
v -0.800161 1.731159 -0.717822
v -0.001337 2.884831 -0.158686
v -0.001337 2.812925 -0.413079
v 0.398663 2.812926 -0.413079
v 0.398663 2.879596 -0.156865
v -0.002092 2.880383 -0.155907
v -0.002092 2.814604 -0.412387
v -0.402092 2.814645 -0.412394
v -0.402092 2.880388 -0.155908
v -0.400161 2.177722 -0.319305
v -0.400161 2.446157 -0.615842
v -0.800161 2.446163 -0.615836
v -0.800161 2.177722 -0.319304
v 0.801898 2.181698 -0.322581
v 0.801898 2.448951 -0.620142
v 0.401898 2.448912 -0.620185
v 0.401898 2.181676 -0.322597
v 0.400000 1.968879 -0.228765
v 0.400000 2.295730 -0.447599
v -0.400000 2.295730 -0.447603
v -0.400000 1.968961 -0.228606
vt 0.3750 1.0000
vt 0.2500 0.8750
vt 0.2500 1.0000
vt 0.1250 1.0000
vt 0.2500 0.8750
vt 0.2500 1.0000
vt 0.3750 0.7500
vt 0.2500 0.7500
vt 0.1250 0.7500
vt 0.1250 0.8750
vt 0.0000 0.7500
vt 0.5000 0.7500
vt 0.3750 0.8750
vt 0.5000 0.8750
vt 0.4375 0.6875
vt 0.5625 0.7500
vt 0.5625 0.6875
vt 0.4375 0.6875
vt 0.3125 0.7500
vt 0.4375 0.7500
vt 0.7501 0.6876
vt 0.8124 0.7499
vt 0.8124 0.6876
vt 0.6876 0.6876
vt 0.7499 0.7499
vt 0.6876 0.7499
vt 0.1875 0.5938
vt 0.1250 0.5000
vt 0.1875 0.5000
vt 0.0625 0.5938
vt 0.0625 0.5000
vt 0.0000 0.5938
vt -0.0000 0.5000
vt 0.2500 0.6875
vt 0.1875 0.6875
vt 0.1250 0.7500
vt 0.1875 0.6875
vt 0.1875 0.7500
vt 0.1250 0.6875
vt 0.0625 0.7500
vt 0.0625 0.6875
vt 0.1875 0.5938
vt 0.1250 0.6875
vt 0.1250 0.5938
vt 0.0625 0.5938
vt 0.0625 0.6875
vt 0.0000 0.5938
vt 0.1875 0.5000
vt 0.2500 0.5469
vt 0.1875 0.5469
vt 0.1250 0.7500
vt 0.1875 0.6875
vt 0.1875 0.7500
vt 0.1250 0.7500
vt 0.0625 0.6875
vt 0.1250 0.6875
vt 0.1250 0.5938
vt 0.2500 0.5938
vt 0.8126 0.6875
vt 0.7501 0.7500
vt 0.7501 0.6875
vt 0.7500 0.6875
vt 0.6875 0.7500
vt 0.6875 0.6875
vt 0.8125 0.5938
vt 0.7500 0.6875
vt 0.7500 0.5938
vt 0.6875 0.6875
vt 0.6875 0.5938
vt 0.6250 0.5938
vt 0.8125 0.5000
vt 0.8750 0.5938
vt 0.2500 0.6875
vt 0.1875 0.6875
vt 0.2500 0.6875
vt 0.3125 0.5937
vt 0.2500 0.5937
vt 0.3125 0.6875
vt 0.4375 0.5937
vt 0.5000 0.6875
vt 0.5000 0.5937
vt 0.6250 0.5937
vt 0.5000 0.5000
vt 0.6874 0.5937
vt 0.6250 0.6873
vt 0.6250 0.5937
vt 0.8749 0.6873
vt 0.8125 0.5937
vt 0.8749 0.5937
vt 0.6875 0.6873
vt 0.7499 0.5937
vt 0.6875 0.5937
vt 0.8124 0.5937
vt 0.7500 0.5001
vt 0.7500 0.5937
vt 0.8125 0.6875
vt 0.8750 0.6875
vt 0.6875 0.5000
vt 0.6250 0.5000
vt 0.7500 0.5000
vt 0.8124 0.6873
vt 0.7500 0.6873
vt 0.6875 0.5001
vt 0.7499 0.5001
vt 0.8125 0.5001
vt 0.8749 0.5001
vt 0.6250 0.5001
vt 0.6874 0.5001
vt 0.6250 0.6875
vt 0.4375 0.5000
vt 0.3125 0.5000
vt 0.2500 0.5000
vt 0.0625 0.5000
vt 0.0000 0.5469
vt 0.0000 0.5000
vt 0.1250 0.5469
vt 0.1250 0.5000
vt 0.3750 0.8750
vt 0.3750 0.8750
vt 0.0000 0.8750
vt 0.3750 0.7500
vt 0.4375 0.7500
vt 0.3125 0.6875
vt 0.7501 0.7499
vt 0.7499 0.6876
vt 0.1250 0.6875
vt 0.1250 0.7500
vt -0.0000 0.6875
vt 0.2500 0.5000
vt 0.1250 0.6875
vt 0.0625 0.7500
vt 0.0000 0.6875
vt 0.2500 0.5000
vt 0.8126 0.7500
vt 0.7500 0.7500
vt 0.6250 0.6875
vt 0.8750 0.5000
vt 0.2500 0.5938
vt 0.4375 0.6875
vt 0.6250 0.5000
vt 0.6874 0.6873
vt 0.8125 0.6873
vt 0.7499 0.6873
vt 0.8124 0.5001
vt 0.0625 0.5469
vn -0.0000 0.4601 0.8879
vn 0.0000 -0.4601 -0.8879
vn 1.0000 -0.0000 -0.0000
vn 0.0000 0.8879 -0.4601
vn -1.0000 -0.0000 0.0000
vn -0.0000 -0.8879 0.4601
vn -0.0213 0.6980 0.7158
vn -0.0000 -0.3965 -0.9180
vn 0.0000 0.7350 0.6780
vn 0.0000 -0.7531 -0.6579
vn 0.0000 0.4349 -0.9005
vn 0.0000 0.9655 0.2604
vn -0.0000 0.8291 0.5591
vn -0.0000 -0.4522 0.8919
vn 0.0000 -0.8009 -0.5988
vn -0.0127 -0.7346 0.6783
vn 0.0000 0.8273 0.5617
vn 0.0000 -0.4551 0.8904
vn -0.0001 -0.7990 -0.6013
vn -0.0000 -0.7366 0.6764
vn 0.0000 0.7364 0.6766
vn -0.0000 -0.7463 -0.6656
vn -0.0000 0.6659 -0.7461
vn 0.0000 -0.6768 0.7362
vn 0.0000 0.9663 0.2575
vn 0.0000 0.9247 -0.3807
vn 0.0001 -0.7265 0.6871
vn 0.0000 0.6583 -0.7527
vn 0.0000 -0.6784 0.7347
vn 0.0000 -0.6658 0.7461
vn -0.0000 0.6767 -0.7362
vn 0.0000 -0.6582 0.7528
vn -0.0000 0.6783 -0.7348
vn 0.0002 -0.9158 0.4016
vn 0.0048 0.7164 -0.6977
vn 0.0000 0.4322 -0.9018
vn -0.0005 0.7280 0.6856
vn -0.0008 -0.3980 -0.9174
vn 0.0001 0.4348 -0.9005
vn 0.0000 -0.7413 0.6712
vn -0.0000 -0.7991 -0.6012
vn 0.0114 0.9638 0.2662
vn 0.0122 -0.7159 0.6981
vn -0.0000 -0.9157 0.4018
vn 0.0000 0.7116 -0.7025
s off
f 1/1/1 3/2/1 4/3/1
f 8/4/2 6/5/2 5/6/2
f 1/7/3 6/5/3 2/8/3
f 6/5/4 3/9/4 2/8/4
f 7/10/5 4/11/5 3/9/5
f 1/12/6 8/13/6 5/14/6
f 9/15/7 11/16/7 12/17/7
f 13/18/8 15/19/8 14/20/8
f 18/21/9 20/22/9 17/23/9
f 21/24/10 23/25/10 22/26/10
f 53/27/3 34/28/3 33/29/3
f 34/28/11 55/30/11 35/31/11
f 35/31/5 56/32/5 36/33/5
f 53/27/12 40/34/12 37/35/12
f 25/36/13 27/37/13 28/38/13
f 29/39/14 31/40/14 30/41/14
f 52/42/3 30/43/3 51/44/3
f 30/43/15 50/45/15 51/44/15
f 31/46/5 49/47/5 50/45/5
f 25/48/16 49/49/16 52/50/16
f 34/51/17 36/52/17 33/53/17
f 37/54/18 39/55/18 38/56/18
f 53/27/3 38/56/3 54/57/3
f 54/57/19 39/55/19 55/30/19
f 39/55/5 56/32/5 55/30/5
f 33/29/20 56/58/20 53/27/20
f 41/59/21 43/60/21 44/61/21
f 45/62/22 47/63/22 46/64/22
f 57/65/3 46/66/3 58/67/3
f 58/67/23 47/68/23 59/69/23
f 47/68/5 60/70/5 59/69/5
f 41/71/24 60/72/24 57/65/24
f 52/42/25 32/73/25 29/74/25
f 13/75/3 66/76/3 65/77/3
f 14/78/26 67/79/26 66/76/26
f 67/79/5 16/80/5 68/81/5
f 65/82/27 12/83/27 68/81/27
f 61/84/3 22/85/3 62/86/3
f 22/87/28 63/88/28 62/89/28
f 23/90/5 64/91/5 63/92/5
f 61/93/29 20/94/29 64/95/29
f 45/96/30 60/72/30 48/97/30
f 43/98/5 60/70/5 44/99/5
f 42/100/31 59/69/31 43/98/31
f 57/65/3 42/100/3 41/71/3
f 21/101/32 64/95/32 24/102/32
f 19/103/5 64/91/5 20/104/5
f 62/89/33 19/105/33 18/106/33
f 61/84/3 18/107/3 17/108/3
f 65/82/34 16/80/34 13/109/34
f 67/79/5 12/83/5 11/110/5
f 66/76/35 11/110/35 10/111/35
f 9/112/3 66/76/3 10/111/3
f 27/113/5 49/114/5 28/115/5
f 51/116/36 27/113/36 26/117/36
f 52/50/3 26/117/3 25/48/3
f 1/1/1 2/118/1 3/2/1
f 8/4/2 7/10/2 6/5/2
f 1/7/3 5/119/3 6/5/3
f 6/5/4 7/10/4 3/9/4
f 7/10/5 8/120/5 4/11/5
f 1/12/6 4/121/6 8/13/6
f 9/15/37 10/122/37 11/16/37
f 13/18/38 16/123/38 15/19/38
f 18/21/9 19/124/9 20/22/9
f 21/24/10 24/125/10 23/25/10
f 53/27/3 54/57/3 34/28/3
f 34/28/39 54/57/39 55/30/39
f 35/31/5 55/30/5 56/32/5
f 53/27/12 56/58/12 40/34/12
f 25/36/13 26/126/13 27/37/13
f 29/39/14 32/127/14 31/40/14
f 52/42/3 29/74/3 30/43/3
f 30/43/15 31/46/15 50/45/15
f 31/46/5 32/128/5 49/47/5
f 25/48/40 28/129/40 49/49/40
f 34/51/17 35/130/17 36/52/17
f 37/54/18 40/131/18 39/55/18
f 53/27/3 37/35/3 38/56/3
f 54/57/41 38/56/41 39/55/41
f 39/55/5 40/132/5 56/32/5
f 33/29/20 36/133/20 56/58/20
f 41/59/21 42/134/21 43/60/21
f 45/62/22 48/135/22 47/63/22
f 57/65/3 45/96/3 46/66/3
f 58/67/23 46/66/23 47/68/23
f 47/68/5 48/136/5 60/70/5
f 41/71/24 44/137/24 60/72/24
f 52/42/42 49/138/42 32/73/42
f 13/75/3 14/78/3 66/76/3
f 14/78/26 15/139/26 67/79/26
f 67/79/5 15/139/5 16/80/5
f 65/82/43 9/140/43 12/83/43
f 61/84/3 21/141/3 22/85/3
f 22/87/28 23/142/28 63/88/28
f 23/90/5 24/143/5 64/91/5
f 61/93/29 17/144/29 20/94/29
f 45/96/30 57/65/30 60/72/30
f 43/98/5 59/69/5 60/70/5
f 42/100/31 58/67/31 59/69/31
f 57/65/3 58/67/3 42/100/3
f 21/101/32 61/93/32 64/95/32
f 19/103/5 63/92/5 64/91/5
f 62/89/33 63/88/33 19/105/33
f 61/84/3 62/86/3 18/107/3
f 65/82/44 68/81/44 16/80/44
f 67/79/5 68/81/5 12/83/5
f 66/76/45 67/79/45 11/110/45
f 9/112/3 65/77/3 66/76/3
f 27/113/5 50/145/5 49/114/5
f 51/116/36 50/145/36 27/113/36
f 52/50/3 51/116/3 26/117/3
