# Blender v2.77 (sub 0) OBJ File: 'minecraft-character.blend'
# www.blender.org
v 0.400000 1.304738 -0.326404
v 0.400000 1.846422 -0.915113
v -0.400000 1.846422 -0.915113
v -0.400000 1.304738 -0.326404
v 0.400000 0.716029 -0.868089
v 0.400000 1.257713 -1.456798
v -0.400000 1.257713 -1.456798
v -0.400000 0.716028 -0.868089
v 0.400000 2.466238 0.261498
v 0.400000 2.616293 -0.094615
v -0.400000 2.617452 -0.098399
v -0.400000 2.446548 0.263252
v 0.400000 1.435977 -0.478116
v 0.400000 1.726826 -0.752719
v -0.400000 1.726826 -0.752718
v -0.400000 1.436334 -0.477575
v 0.801898 2.593367 0.056120
v 0.801898 2.746195 -0.313534
v 0.401898 2.746195 -0.313533
v 0.401898 2.593367 0.056120
v 0.801898 1.484104 -0.396818
v 0.801898 1.633570 -0.767844
v 0.401898 1.633570 -0.767844
v 0.401898 1.484104 -0.396818
v 0.398663 3.252129 -0.109282
v 0.398663 3.292783 -0.507210
v -0.001337 3.292783 -0.507210
v -0.001337 3.252129 -0.109281
v 0.398663 2.805552 0.228864
v 0.398663 2.407201 0.192576
v -0.001337 2.407201 0.192576
v -0.001337 2.805552 0.228864
v -0.002092 3.252688 -0.107304
v -0.002092 3.294597 -0.505102
v -0.402092 3.294598 -0.505103
v -0.402092 3.252688 -0.107304
v -0.002092 2.805155 0.229734
v -0.002092 2.406927 0.192129
v -0.402092 2.406927 0.192129
v -0.402092 2.805155 0.229734
v -0.400161 2.592314 0.059754
v -0.400161 2.744409 -0.310202
v -0.800161 2.744409 -0.310202
v -0.800161 2.592314 0.059754
v -0.400161 1.482561 -0.398492
v -0.400161 1.635843 -0.767957
v -0.800161 1.635843 -0.767957
v -0.800161 1.482561 -0.398491
v -0.001337 2.761463 -0.273196
v -0.001337 2.578762 -0.486571
v 0.398663 2.578762 -0.486571
v 0.398663 2.757688 -0.269538
v -0.002092 2.758777 -0.268889
v -0.002092 2.580585 -0.486568
v -0.402092 2.580617 -0.486590
v -0.402092 2.758780 -0.268891
v -0.400161 2.037070 -0.168479
v -0.400161 2.189760 -0.538189
v -0.800161 2.189758 -0.538190
v -0.800161 2.037070 -0.168479
v 0.801898 2.039758 -0.172873
v 0.801898 2.190934 -0.543199
v 0.401898 2.190916 -0.543208
v 0.401898 2.039750 -0.172876
v 0.400000 1.875889 -0.017548
v 0.400000 2.106853 -0.335597
v -0.400000 2.106852 -0.335601
v -0.400000 1.876024 -0.017426
vt 0.3750 0.8750
vt 0.2500 1.0000
vt 0.3750 1.0000
vt 0.2500 1.0000
vt 0.1250 0.8750
vt 0.2500 0.8750
vt 0.3750 0.8750
vt 0.2500 0.7500
vt 0.3750 0.7500
vt 0.1250 0.7500
vt 0.0000 0.8750
vt 0.0000 0.7500
vt 0.5000 0.8750
vt 0.3750 0.7500
vt 0.3750 0.8750
vt 0.4375 0.6875
vt 0.5625 0.7500
vt 0.5625 0.6875
vt 0.4375 0.6875
vt 0.3125 0.7500
vt 0.4375 0.7500
vt 0.8124 0.6876
vt 0.7501 0.7499
vt 0.8124 0.7499
vt 0.7499 0.6876
vt 0.6876 0.7499
vt 0.6876 0.6876
vt 0.1875 0.5938
vt 0.1250 0.5000
vt 0.1875 0.5000
vt 0.0625 0.5938
vt 0.0625 0.5000
vt 0.0000 0.5938
vt -0.0000 0.5000
vt 0.2500 0.6875
vt 0.1875 0.6875
vt 0.1250 0.6875
vt 0.1875 0.7500
vt 0.1250 0.7500
vt 0.1250 0.7500
vt 0.0625 0.6875
vt 0.1250 0.6875
vt 0.1875 0.5938
vt 0.1250 0.6875
vt 0.1250 0.5938
vt 0.0625 0.5938
vt 0.0625 0.6875
vt 0.0000 0.5938
vt 0.1875 0.5000
vt 0.2500 0.5469
vt 0.1875 0.5469
vt 0.1250 0.7500
vt 0.1875 0.6875
vt 0.1875 0.7500
vt 0.0625 0.7500
vt 0.1250 0.6875
vt 0.1250 0.7500
vt 0.1250 0.5938
vt 0.0625 0.6875
vt 0.2500 0.5938
vt 0.8126 0.7500
vt 0.7501 0.6875
vt 0.8126 0.6875
vt 0.7500 0.7500
vt 0.6875 0.6875
vt 0.7500 0.6875
vt 0.8125 0.6875
vt 0.7500 0.5938
vt 0.8125 0.5938
vt 0.7500 0.6875
vt 0.6875 0.5938
vt 0.6250 0.6875
vt 0.6250 0.5938
vt 0.8750 0.5000
vt 0.8750 0.5938
vt 0.2500 0.6875
vt 0.1875 0.6875
vt 0.2500 0.6875
vt 0.3125 0.5937
vt 0.2500 0.5937
vt 0.3125 0.6875
vt 0.4375 0.5937
vt 0.5000 0.6875
vt 0.5000 0.5937
vt 0.6250 0.5937
vt 0.5000 0.5000
vt 0.6874 0.5937
vt 0.6250 0.6873
vt 0.6250 0.5937
vt 0.8749 0.6873
vt 0.8125 0.5937
vt 0.8749 0.5937
vt 0.6875 0.6873
vt 0.7499 0.5937
vt 0.6875 0.5937
vt 0.8124 0.5937
vt 0.7500 0.5001
vt 0.7500 0.5937
vt 0.8750 0.6875
vt 0.6250 0.5000
vt 0.6875 0.5000
vt 0.7500 0.5000
vt 0.8125 0.5000
vt 0.8124 0.6873
vt 0.7500 0.6873
vt 0.6875 0.5001
vt 0.7499 0.5001
vt 0.8125 0.5001
vt 0.8749 0.5001
vt 0.6250 0.5001
vt 0.6874 0.5001
vt 0.6250 0.6875
vt 0.4375 0.5000
vt 0.3125 0.5000
vt 0.2500 0.5000
vt 0.0625 0.5000
vt 0.0000 0.5469
vt 0.0000 0.5000
vt 0.1250 0.5000
vt 0.0625 0.5469
vt 0.2500 0.8750
vt 0.1250 1.0000
vt 0.5000 0.7500
vt 0.4375 0.7500
vt 0.3125 0.6875
vt 0.7501 0.6876
vt 0.7499 0.7499
vt 0.1875 0.6875
vt 0.0625 0.7500
vt -0.0000 0.6875
vt 0.2500 0.5000
vt 0.1250 0.6875
vt 0.0000 0.6875
vt 0.2500 0.5000
vt 0.7501 0.7500
vt 0.6875 0.7500
vt 0.6875 0.6875
vt 0.2500 0.5938
vt 0.4375 0.6875
vt 0.6250 0.5000
vt 0.6874 0.6873
vt 0.8125 0.6873
vt 0.7499 0.6873
vt 0.8124 0.5001
vt 0.1250 0.5469
vn 0.0000 0.7359 0.6771
vn 0.0000 -0.7359 -0.6771
vn 1.0000 0.0000 0.0000
vn 0.0000 0.6771 -0.7359
vn -1.0000 -0.0000 0.0000
vn 0.0000 -0.6771 0.7359
vn -0.0213 0.9039 0.4272
vn -0.0000 -0.6865 -0.7271
vn 0.0000 0.9241 0.3821
vn -0.0000 -0.9276 -0.3737
vn 0.0000 -0.0259 -0.9997
vn 0.0000 0.9957 -0.0926
vn 0.0000 0.9948 0.1016
vn 0.0000 -0.0907 0.9959
vn -0.0000 -0.9695 -0.2449
vn -0.0116 -0.3083 0.9512
vn 0.0000 0.9945 0.1048
vn 0.0000 -0.0940 0.9956
vn -0.0001 -0.9688 -0.2479
vn -0.0000 -0.3109 0.9504
vn 0.0000 0.9249 0.3802
vn -0.0000 -0.9237 -0.3832
vn 0.0000 0.3832 -0.9237
vn 0.0000 -0.3802 0.9249
vn 0.0000 0.9954 -0.0956
vn 0.0000 0.7392 -0.6735
vn 0.0001 -0.4414 0.8973
vn 0.0000 0.3738 -0.9275
vn 0.0000 -0.3822 0.9241
vn 0.0000 -0.3831 0.9237
vn -0.0000 0.3802 -0.9249
vn -0.0000 -0.3738 0.9275
vn -0.0000 0.3822 -0.9241
vn 0.0001 -0.7231 0.6907
vn 0.0049 0.4276 -0.9040
vn 0.0000 -0.0289 -0.9996
vn -0.0005 0.9215 0.3883
vn -0.0008 -0.6877 -0.7260
vn 0.0001 -0.0259 -0.9997
vn 0.0000 -0.3169 0.9485
vn -0.0000 -0.9688 -0.2479
vn 0.0102 0.9961 -0.0875
vn 0.0125 -0.4273 0.9040
vn -0.0000 -0.7230 0.6909
vn 0.0000 0.4213 -0.9069
s off
f 2/1/1 4/2/1 1/3/1
f 5/4/2 7/5/2 6/6/2
f 5/7/3 2/8/3 1/9/3
f 6/6/4 3/10/4 2/8/4
f 3/10/5 8/11/5 4/12/5
f 5/13/6 4/14/6 8/15/6
f 9/16/7 11/17/7 12/18/7
f 13/19/8 15/20/8 14/21/8
f 17/22/9 19/23/9 20/24/9
f 24/25/10 22/26/10 21/27/10
f 53/28/3 34/29/3 33/30/3
f 34/29/11 55/31/11 35/32/11
f 35/32/5 56/33/5 36/34/5
f 53/28/12 40/35/12 37/36/12
f 26/37/13 28/38/13 25/39/13
f 32/40/14 30/41/14 29/42/14
f 52/43/3 30/44/3 51/45/3
f 30/44/15 50/46/15 51/45/15
f 31/47/5 49/48/5 50/46/5
f 25/49/16 49/50/16 52/51/16
f 34/52/17 36/53/17 33/54/17
f 40/55/18 38/56/18 37/57/18
f 53/28/3 38/56/3 54/58/3
f 54/58/19 39/59/19 55/31/19
f 39/59/5 56/33/5 55/31/5
f 33/30/20 56/60/20 53/28/20
f 42/61/21 44/62/21 41/63/21
f 48/64/22 46/65/22 45/66/22
f 45/67/3 58/68/3 57/69/3
f 46/70/23 59/71/23 58/68/23
f 59/71/5 48/72/5 60/73/5
f 57/69/24 44/74/24 60/75/24
f 52/43/25 32/76/25 29/77/25
f 13/78/3 66/79/3 65/80/3
f 14/81/26 67/82/26 66/79/26
f 67/82/5 16/83/5 68/84/5
f 65/85/27 12/86/27 68/84/27
f 61/87/3 22/88/3 62/89/3
f 22/90/28 63/91/28 62/92/28
f 23/93/5 64/94/5 63/95/5
f 61/96/29 20/97/29 64/98/29
f 45/67/30 60/75/30 48/99/30
f 59/71/5 44/100/5 43/101/5
f 58/68/31 43/101/31 42/102/31
f 41/103/3 58/68/3 42/102/3
f 21/104/32 64/98/32 24/105/32
f 19/106/5 64/94/5 20/107/5
f 62/92/33 19/108/33 18/109/33
f 61/87/3 18/110/3 17/111/3
f 65/85/34 16/83/34 13/112/34
f 67/82/5 12/86/5 11/113/5
f 66/79/35 11/113/35 10/114/35
f 9/115/3 66/79/3 10/114/3
f 27/116/5 49/117/5 28/118/5
f 26/119/36 50/120/36 27/116/36
f 52/51/3 26/119/3 25/49/3
f 2/1/1 3/121/1 4/2/1
f 5/4/2 8/122/2 7/5/2
f 5/7/3 6/6/3 2/8/3
f 6/6/4 7/5/4 3/10/4
f 3/10/5 7/5/5 8/11/5
f 5/13/6 1/123/6 4/14/6
f 9/16/37 10/124/37 11/17/37
f 13/19/38 16/125/38 15/20/38
f 17/22/9 18/126/9 19/23/9
f 24/25/10 23/127/10 22/26/10
f 53/28/3 54/58/3 34/29/3
f 34/29/39 54/58/39 55/31/39
f 35/32/5 55/31/5 56/33/5
f 53/28/12 56/60/12 40/35/12
f 26/37/13 27/128/13 28/38/13
f 32/40/14 31/129/14 30/41/14
f 52/43/3 29/77/3 30/44/3
f 30/44/15 31/47/15 50/46/15
f 31/47/5 32/130/5 49/48/5
f 25/49/40 28/131/40 49/50/40
f 34/52/17 35/132/17 36/53/17
f 40/55/18 39/59/18 38/56/18
f 53/28/3 37/36/3 38/56/3
f 54/58/41 38/56/41 39/59/41
f 39/59/5 40/133/5 56/33/5
f 33/30/20 36/134/20 56/60/20
f 42/61/21 43/135/21 44/62/21
f 48/64/22 47/136/22 46/65/22
f 45/67/3 46/70/3 58/68/3
f 46/70/23 47/137/23 59/71/23
f 59/71/5 47/137/5 48/72/5
f 57/69/24 41/103/24 44/74/24
f 52/43/42 49/138/42 32/76/42
f 13/78/3 14/81/3 66/79/3
f 14/81/26 15/139/26 67/82/26
f 67/82/5 15/139/5 16/83/5
f 65/85/43 9/140/43 12/86/43
f 61/87/3 21/141/3 22/88/3
f 22/90/28 23/142/28 63/91/28
f 23/93/5 24/143/5 64/94/5
f 61/96/29 17/144/29 20/97/29
f 45/67/30 57/69/30 60/75/30
f 59/71/5 60/73/5 44/100/5
f 58/68/31 59/71/31 43/101/31
f 41/103/3 57/69/3 58/68/3
f 21/104/32 61/96/32 64/98/32
f 19/106/5 63/95/5 64/94/5
f 62/92/33 63/91/33 19/108/33
f 61/87/3 62/89/3 18/110/3
f 65/85/44 68/84/44 16/83/44
f 67/82/5 68/84/5 12/86/5
f 66/79/45 67/82/45 11/113/45
f 9/115/3 65/80/3 66/79/3
f 27/116/5 50/120/5 49/117/5
f 26/119/36 51/145/36 50/120/36
f 52/51/3 51/145/3 26/119/3
