# Blender v2.77 (sub 0) OBJ File: 'minecraft-character.blend'
# www.blender.org
v 0.400000 2.631766 -0.844002
v 0.400000 3.057275 -0.166549
v -0.400000 3.057275 -0.166549
v -0.400000 2.631766 -0.844002
v 0.400000 3.309219 -1.269511
v 0.400000 3.734727 -0.592058
v -0.400000 3.734727 -0.592058
v -0.400000 3.309218 -1.269511
v 0.400000 1.681884 -0.082853
v 0.400000 1.892371 0.257461
v -0.400000 1.892703 0.257758
v -0.400000 1.689729 -0.086918
v 0.400000 2.743617 -0.677481
v 0.400000 2.932053 -0.324647
v -0.400000 2.932053 -0.324647
v -0.400000 2.743375 -0.677619
v 0.801898 3.599982 0.255731
v 0.801898 3.673078 -0.137529
v 0.401898 3.673080 -0.137533
v 0.401898 3.599982 0.255731
v 0.801898 2.537026 -0.423309
v 0.801898 2.869232 -0.646107
v 0.401898 2.869232 -0.646107
v 0.401898 2.537026 -0.423309
v 0.398663 1.090275 0.174047
v 0.398663 0.928534 0.539889
v -0.001337 0.928534 0.539889
v -0.001337 1.090275 0.174047
v 0.398663 1.545997 -0.010557
v 0.398663 1.929744 0.102306
v -0.001337 1.929743 0.102306
v -0.001337 1.545996 -0.010557
v -0.002092 1.090285 0.172136
v -0.002092 0.927366 0.537454
v -0.402092 0.927366 0.537454
v -0.402092 1.090285 0.172136
v -0.002092 1.546564 -0.011345
v -0.002092 1.929928 0.102812
v -0.402092 1.929928 0.102812
v -0.402092 1.546564 -0.011345
v -0.400161 3.596434 0.257351
v -0.400161 3.668751 -0.136058
v -0.800161 3.668751 -0.136058
v -0.800161 3.596434 0.257351
v -0.400161 2.536691 -0.425560
v -0.400161 2.871176 -0.644923
v -0.800161 2.871176 -0.644922
v -0.800161 2.536691 -0.425560
v -0.001337 1.502932 0.493654
v -0.001337 1.618872 0.730213
v 0.398663 1.618873 0.730214
v 0.398663 1.507769 0.490918
v -0.002092 1.506795 0.490108
v -0.002092 1.617056 0.729831
v -0.402092 1.617018 0.729846
v -0.402092 1.506791 0.490110
v -0.400161 2.936028 0.112521
v -0.400161 3.139767 -0.193583
v -0.800161 3.139429 -0.193865
v -0.800161 2.936028 0.112521
v 0.801898 2.941176 0.110809
v 0.801898 3.141669 -0.198842
v 0.401898 3.142952 -0.197781
v 0.401898 2.941858 0.111158
v 0.400000 2.210566 -0.393109
v 0.400000 2.406259 -0.044350
v -0.400000 2.406260 -0.044349
v -0.400000 2.210527 -0.393114
vt 0.3750 1.0000
vt 0.2500 0.8750
vt 0.2500 1.0000
vt 0.1250 1.0000
vt 0.2500 0.8750
vt 0.2500 1.0000
vt 0.3750 0.7500
vt 0.2500 0.7500
vt 0.1250 0.7500
vt 0.1250 0.8750
vt 0.0000 0.7500
vt 0.5000 0.7500
vt 0.3750 0.8750
vt 0.5000 0.8750
vt 0.4375 0.7500
vt 0.5625 0.6875
vt 0.4375 0.6875
vt 0.4375 0.6875
vt 0.3125 0.7500
vt 0.4375 0.7500
vt 0.7501 0.6876
vt 0.8124 0.7499
vt 0.8124 0.6876
vt 0.6876 0.6876
vt 0.7499 0.7499
vt 0.6876 0.7499
vt 0.1875 0.5938
vt 0.1250 0.5000
vt 0.1875 0.5000
vt 0.0625 0.5938
vt 0.0625 0.5000
vt 0.0000 0.5938
vt -0.0000 0.5000
vt 0.2500 0.6875
vt 0.1875 0.6875
vt 0.1250 0.6875
vt 0.1875 0.7500
vt 0.1250 0.7500
vt 0.1250 0.6875
vt 0.0625 0.7500
vt 0.0625 0.6875
vt 0.1875 0.5938
vt 0.1250 0.6875
vt 0.1250 0.5938
vt 0.0625 0.5938
vt 0.0625 0.6875
vt 0.0000 0.5938
vt 0.1875 0.5000
vt 0.2500 0.5469
vt 0.1875 0.5469
vt 0.1250 0.7500
vt 0.1875 0.6875
vt 0.1875 0.7500
vt 0.0625 0.7500
vt 0.1250 0.6875
vt 0.1250 0.7500
vt 0.1250 0.5938
vt 0.0625 0.6875
vt 0.2500 0.5938
vt 0.8126 0.7500
vt 0.7501 0.6875
vt 0.8126 0.6875
vt 0.7500 0.6875
vt 0.6875 0.7500
vt 0.6875 0.6875
vt 0.8125 0.6875
vt 0.7500 0.5938
vt 0.8125 0.5938
vt 0.7500 0.6875
vt 0.6875 0.5938
vt 0.6250 0.6875
vt 0.6250 0.5938
vt 0.8125 0.5000
vt 0.8750 0.5938
vt 0.2500 0.6875
vt 0.1875 0.6875
vt 0.2500 0.6875
vt 0.3125 0.5937
vt 0.2500 0.5937
vt 0.3125 0.6875
vt 0.4375 0.5937
vt 0.5000 0.6875
vt 0.5000 0.5937
vt 0.6250 0.5937
vt 0.5000 0.5000
vt 0.6874 0.6873
vt 0.6250 0.5937
vt 0.6874 0.5937
vt 0.8749 0.5937
vt 0.8125 0.6873
vt 0.8125 0.5937
vt 0.6875 0.5937
vt 0.7499 0.6873
vt 0.7499 0.5937
vt 0.8124 0.5001
vt 0.7500 0.5937
vt 0.8124 0.5937
vt 0.8750 0.6875
vt 0.6250 0.5000
vt 0.6875 0.5000
vt 0.7500 0.5000
vt 0.7500 0.6873
vt 0.8124 0.6873
vt 0.7499 0.5001
vt 0.6875 0.5001
vt 0.8749 0.5001
vt 0.8125 0.5001
vt 0.6874 0.5001
vt 0.6250 0.5001
vt 0.6250 0.6875
vt 0.4375 0.5000
vt 0.3125 0.5000
vt 0.2500 0.5000
vt 0.0625 0.5000
vt 0.0000 0.5469
vt 0.0000 0.5000
vt 0.1250 0.5469
vt 0.1250 0.5000
vt 0.3750 0.8750
vt 0.3750 0.8750
vt 0.0000 0.8750
vt 0.3750 0.7500
vt 0.5625 0.7500
vt 0.3125 0.6875
vt 0.7501 0.7499
vt 0.7499 0.6876
vt 0.1875 0.6875
vt 0.1250 0.7500
vt -0.0000 0.6875
vt 0.2500 0.5000
vt 0.1250 0.6875
vt 0.0000 0.6875
vt 0.2500 0.5000
vt 0.7501 0.7500
vt 0.7500 0.7500
vt 0.6875 0.6875
vt 0.8750 0.5000
vt 0.2500 0.5938
vt 0.4375 0.6875
vt 0.6250 0.5000
vt 0.6250 0.6873
vt 0.8749 0.6873
vt 0.6875 0.6873
vt 0.7500 0.5001
vt 0.0625 0.5469
vn -0.0000 -0.8468 0.5319
vn -0.0000 0.8468 -0.5319
vn 1.0000 0.0000 -0.0000
vn 0.0000 0.5319 0.8468
vn -1.0000 -0.0000 -0.0000
vn 0.0000 -0.5319 -0.8468
vn -0.0110 -0.8504 0.5260
vn 0.0000 0.8821 -0.4711
vn 0.0000 0.9832 0.1827
vn -0.0000 -0.5570 -0.8305
vn 0.0000 -0.2687 0.9632
vn 0.0000 -0.9969 -0.0791
vn -0.0000 -0.9146 -0.4044
vn -0.0000 0.2822 -0.9594
vn -0.0000 0.8962 0.4437
vn -0.0128 0.6045 -0.7965
vn 0.0000 -0.9133 -0.4073
vn 0.0000 0.2854 -0.9584
vn -0.0001 0.8948 0.4465
vn -0.0000 0.6068 -0.7949
vn 0.0000 0.9835 0.1808
vn -0.0000 -0.5484 -0.8362
vn -0.0004 0.8593 -0.5114
vn 0.0000 -0.2142 0.9768
vn 0.0000 -0.9971 -0.0760
vn 0.0000 0.4704 0.8824
vn 0.0000 -0.5068 -0.8620
vn 0.0014 0.8535 -0.5211
vn 0.0005 -0.2148 0.9766
vn 0.0000 -0.8030 0.5960
vn -0.0000 0.1081 -0.9941
vn 0.0000 -0.7974 0.6034
vn 0.0000 0.1129 -0.9936
vn 0.0003 -0.4707 -0.8823
vn 0.0005 0.5064 0.8623
vn 0.0000 -0.2658 0.9640
vn -0.0002 -0.8617 0.5074
vn -0.0002 0.8819 -0.4714
vn 0.0001 -0.2687 0.9632
vn 0.0000 0.6123 -0.7906
vn -0.0000 0.8948 0.4465
vn 0.0000 0.6068 -0.7948
vn -0.0000 0.8595 -0.5112
vn 0.0115 -0.9963 -0.0851
vn -0.0006 -0.5061 -0.8625
vn -0.0000 0.8540 -0.5202
vn 0.0000 -0.2146 0.9767
vn 0.0006 0.1086 -0.9941
vn -0.0008 -0.7971 0.6038
vn -0.0023 0.1146 -0.9934
vn 0.0000 -0.4710 -0.8821
vn 0.0000 0.5070 0.8619
s off
f 1/1/1 3/2/1 4/3/1
f 8/4/2 6/5/2 5/6/2
f 1/7/3 6/5/3 2/8/3
f 6/5/4 3/9/4 2/8/4
f 7/10/5 4/11/5 3/9/5
f 1/12/6 8/13/6 5/14/6
f 10/15/7 12/16/7 9/17/7
f 13/18/8 15/19/8 14/20/8
f 18/21/9 20/22/9 17/23/9
f 21/24/10 23/25/10 22/26/10
f 53/27/3 34/28/3 33/29/3
f 34/28/11 55/30/11 35/31/11
f 35/31/5 56/32/5 36/33/5
f 53/27/12 40/34/12 37/35/12
f 26/36/13 28/37/13 25/38/13
f 29/39/14 31/40/14 30/41/14
f 52/42/3 30/43/3 51/44/3
f 30/43/15 50/45/15 51/44/15
f 31/46/5 49/47/5 50/45/5
f 25/48/16 49/49/16 52/50/16
f 34/51/17 36/52/17 33/53/17
f 40/54/18 38/55/18 37/56/18
f 53/27/3 38/55/3 54/57/3
f 54/57/19 39/58/19 55/30/19
f 39/58/5 56/32/5 55/30/5
f 33/29/20 56/59/20 53/27/20
f 42/60/21 44/61/21 41/62/21
f 45/63/22 47/64/22 46/65/22
f 45/66/3 58/67/3 57/68/3
f 46/69/23 59/70/23 58/67/23
f 59/70/5 48/71/5 60/72/5
f 41/73/24 60/74/24 57/68/24
f 52/42/25 32/75/25 29/76/25
f 13/77/3 66/78/3 65/79/3
f 14/80/26 67/81/26 66/78/26
f 67/81/5 16/82/5 68/83/5
f 65/84/27 12/85/27 68/83/27
f 21/86/3 62/87/3 61/88/3
f 62/89/28 23/90/28 63/91/28
f 63/92/5 24/93/5 64/94/5
f 17/95/29 64/96/29 61/97/29
f 57/68/30 48/98/30 45/66/30
f 59/70/5 44/99/5 43/100/5
f 58/67/31 43/100/31 42/101/31
f 41/73/3 58/67/3 42/101/3
f 61/97/32 24/102/32 21/103/32
f 63/92/5 20/104/5 19/105/5
f 18/106/33 63/91/33 19/107/33
f 17/108/3 62/87/3 18/109/3
f 65/84/34 16/82/34 13/110/34
f 67/81/5 12/85/5 11/111/5
f 66/78/35 11/111/35 10/112/35
f 65/79/3 10/112/3 9/113/3
f 27/114/5 49/115/5 28/116/5
f 51/117/36 27/114/36 26/118/36
f 52/50/3 26/118/3 25/48/3
f 1/1/1 2/119/1 3/2/1
f 8/4/2 7/10/2 6/5/2
f 1/7/3 5/120/3 6/5/3
f 6/5/4 7/10/4 3/9/4
f 7/10/5 8/121/5 4/11/5
f 1/12/6 4/122/6 8/13/6
f 10/15/37 11/123/37 12/16/37
f 13/18/38 16/124/38 15/19/38
f 18/21/9 19/125/9 20/22/9
f 21/24/10 24/126/10 23/25/10
f 53/27/3 54/57/3 34/28/3
f 34/28/39 54/57/39 55/30/39
f 35/31/5 55/30/5 56/32/5
f 53/27/12 56/59/12 40/34/12
f 26/36/13 27/127/13 28/37/13
f 29/39/14 32/128/14 31/40/14
f 52/42/3 29/76/3 30/43/3
f 30/43/15 31/46/15 50/45/15
f 31/46/5 32/129/5 49/47/5
f 25/48/40 28/130/40 49/49/40
f 34/51/17 35/131/17 36/52/17
f 40/54/18 39/58/18 38/55/18
f 53/27/3 37/35/3 38/55/3
f 54/57/41 38/55/41 39/58/41
f 39/58/5 40/132/5 56/32/5
f 33/29/42 36/133/42 56/59/42
f 42/60/21 43/134/21 44/61/21
f 45/63/22 48/135/22 47/64/22
f 45/66/3 46/69/3 58/67/3
f 46/69/43 47/136/43 59/70/43
f 59/70/5 47/136/5 48/71/5
f 41/73/24 44/137/24 60/74/24
f 52/42/44 49/138/44 32/75/44
f 13/77/3 14/80/3 66/78/3
f 14/80/26 15/139/26 67/81/26
f 67/81/5 15/139/5 16/82/5
f 65/84/45 9/140/45 12/85/45
f 21/86/3 22/141/3 62/87/3
f 62/89/46 22/142/46 23/90/46
f 63/92/5 23/143/5 24/93/5
f 17/95/47 20/144/47 64/96/47
f 57/68/30 60/74/30 48/98/30
f 59/70/5 60/72/5 44/99/5
f 58/67/48 59/70/48 43/100/48
f 41/73/3 57/68/3 58/67/3
f 61/97/49 64/96/49 24/102/49
f 63/92/5 64/94/5 20/104/5
f 18/106/50 62/89/50 63/91/50
f 17/108/3 61/88/3 62/87/3
f 65/84/51 68/83/51 16/82/51
f 67/81/5 68/83/5 12/85/5
f 66/78/52 67/81/52 11/111/52
f 65/79/3 66/78/3 10/112/3
f 27/114/5 50/145/5 49/115/5
f 51/117/36 50/145/36 27/114/36
f 52/50/3 51/117/3 26/118/3
