# Blender v2.77 (sub 0) OBJ File: 'minecraft-character.blend'
# www.blender.org
v 0.400000 1.736681 -0.909320
v 0.400000 2.509138 -1.117428
v -0.400000 2.509138 -1.117428
v -0.400000 1.736681 -0.909320
v 0.400000 1.528572 -1.681778
v 0.400000 2.301030 -1.889886
v -0.400000 2.301029 -1.889886
v -0.400000 1.528572 -1.681778
v 0.400000 2.390980 0.211819
v 0.400000 2.713509 -0.002873
v -0.400000 2.716372 -0.005282
v -0.400000 2.374320 0.202084
v 0.400000 1.928684 -0.967414
v 0.400000 2.321268 -1.044082
v -0.400000 2.321267 -1.044082
v -0.400000 1.928665 -0.966781
v 0.801898 2.647743 0.087140
v 0.801898 2.970730 -0.148826
v 0.401898 2.970730 -0.148826
v 0.401898 2.647743 0.087140
v 0.801898 1.927837 -0.863850
v 0.801898 2.242287 -1.111077
v 0.401898 2.242287 -1.111077
v 0.401898 1.927837 -0.863850
v 0.398663 3.116184 0.431596
v 0.398663 3.443910 0.202259
v -0.001337 3.443910 0.202259
v -0.001337 3.116184 0.431596
v 0.398663 2.679529 0.377671
v 0.398663 2.384634 0.107417
v -0.001337 2.384634 0.107417
v -0.001337 2.679529 0.377671
v -0.002092 3.115307 0.433088
v -0.002092 3.443755 0.204786
v -0.402092 3.443756 0.204786
v -0.402092 3.115307 0.433088
v -0.002092 2.678686 0.378123
v -0.002092 2.384686 0.106895
v -0.402092 2.384686 0.106896
v -0.402092 2.678686 0.378123
v -0.400161 2.645031 0.089798
v -0.400161 2.967548 -0.146808
v -0.800161 2.967548 -0.146808
v -0.800161 2.645030 0.089798
v -0.400161 1.927333 -0.866070
v -0.400161 2.244314 -1.110042
v -0.800161 2.244314 -1.110042
v -0.800161 1.927333 -0.866070
v -0.001337 2.934429 -0.062419
v -0.001337 2.944960 -0.312127
v 0.398663 2.944960 -0.312127
v 0.398663 2.928663 -0.062333
v -0.002092 2.929191 -0.061230
v -0.002092 2.946373 -0.311001
v -0.402092 2.946415 -0.310995
v -0.402092 2.929195 -0.061230
v -0.400161 2.291707 -0.392288
v -0.400161 2.611450 -0.632588
v -0.800161 2.611456 -0.632577
v -0.800161 2.291707 -0.392288
v 0.801898 2.296217 -0.394777
v 0.801898 2.615004 -0.636271
v 0.401898 2.614964 -0.636336
v 0.401898 2.296193 -0.394802
v 0.400000 2.053447 -0.344870
v 0.400000 2.420794 -0.486780
v -0.400000 2.420794 -0.486784
v -0.400000 2.053490 -0.344701
vt 0.3750 0.8750
vt 0.2500 1.0000
vt 0.3750 1.0000
vt 0.2500 1.0000
vt 0.1250 0.8750
vt 0.2500 0.8750
vt 0.3750 0.8750
vt 0.2500 0.7500
vt 0.3750 0.7500
vt 0.1250 0.7500
vt 0.0000 0.7500
vt 0.5000 0.7500
vt 0.3750 0.8750
vt 0.5000 0.8750
vt 0.4375 0.6875
vt 0.5625 0.7500
vt 0.5625 0.6875
vt 0.4375 0.6875
vt 0.3125 0.7500
vt 0.4375 0.7500
vt 0.8124 0.6876
vt 0.7501 0.7499
vt 0.8124 0.7499
vt 0.6876 0.6876
vt 0.7499 0.7499
vt 0.6876 0.7499
vt 0.1875 0.5938
vt 0.1250 0.5000
vt 0.1875 0.5000
vt 0.0625 0.5938
vt 0.0625 0.5000
vt 0.0000 0.5938
vt -0.0000 0.5000
vt 0.2500 0.6875
vt 0.1875 0.6875
vt 0.1250 0.7500
vt 0.1875 0.6875
vt 0.1875 0.7500
vt 0.1250 0.6875
vt 0.0625 0.7500
vt 0.0625 0.6875
vt 0.1875 0.5938
vt 0.1250 0.6875
vt 0.1250 0.5938
vt 0.0625 0.5938
vt 0.0625 0.6875
vt 0.0000 0.5938
vt 0.1875 0.5000
vt 0.2500 0.5469
vt 0.1875 0.5469
vt 0.1250 0.7500
vt 0.1875 0.6875
vt 0.1875 0.7500
vt 0.0625 0.7500
vt 0.1250 0.6875
vt 0.1250 0.7500
vt 0.1250 0.5938
vt 0.0625 0.6875
vt 0.2500 0.5938
vt 0.8126 0.7500
vt 0.7501 0.6875
vt 0.8126 0.6875
vt 0.7500 0.7500
vt 0.6875 0.6875
vt 0.7500 0.6875
vt 0.8125 0.5938
vt 0.7500 0.6875
vt 0.7500 0.5938
vt 0.6875 0.6875
vt 0.6875 0.5938
vt 0.6250 0.5938
vt 0.8125 0.5000
vt 0.8750 0.5938
vt 0.2500 0.6875
vt 0.1875 0.6875
vt 0.2500 0.6875
vt 0.3125 0.5937
vt 0.2500 0.5937
vt 0.3125 0.6875
vt 0.4375 0.5937
vt 0.5000 0.6875
vt 0.5000 0.5937
vt 0.6250 0.5937
vt 0.5000 0.5000
vt 0.6874 0.5937
vt 0.6250 0.6873
vt 0.6250 0.5937
vt 0.8749 0.6873
vt 0.8125 0.5937
vt 0.8749 0.5937
vt 0.6875 0.6873
vt 0.7499 0.5937
vt 0.6875 0.5937
vt 0.8124 0.5937
vt 0.7500 0.5001
vt 0.7500 0.5937
vt 0.8125 0.6875
vt 0.8750 0.6875
vt 0.6875 0.5000
vt 0.6250 0.5000
vt 0.7500 0.5000
vt 0.8124 0.6873
vt 0.7500 0.6873
vt 0.6875 0.5001
vt 0.7499 0.5001
vt 0.8125 0.5001
vt 0.8749 0.5001
vt 0.6250 0.5001
vt 0.6874 0.5001
vt 0.6250 0.6875
vt 0.4375 0.5000
vt 0.3125 0.5000
vt 0.2500 0.5000
vt 0.0625 0.5000
vt 0.0000 0.5469
vt 0.0000 0.5000
vt 0.1250 0.5469
vt 0.1250 0.5000
vt 0.2500 0.8750
vt 0.1250 1.0000
vt 0.0000 0.8750
vt 0.3750 0.7500
vt 0.4375 0.7500
vt 0.3125 0.6875
vt 0.7501 0.6876
vt 0.7499 0.6876
vt 0.1250 0.6875
vt 0.1250 0.7500
vt -0.0000 0.6875
vt 0.2500 0.5000
vt 0.1250 0.6875
vt 0.0000 0.6875
vt 0.2500 0.5000
vt 0.7501 0.7500
vt 0.6875 0.7500
vt 0.6250 0.6875
vt 0.8750 0.5000
vt 0.2500 0.5938
vt 0.4375 0.6875
vt 0.6250 0.5000
vt 0.6874 0.6873
vt 0.8125 0.6873
vt 0.7499 0.6873
vt 0.8124 0.5001
vt 0.0625 0.5469
vn 0.0000 0.2601 0.9656
vn 0.0000 -0.2601 -0.9656
vn 1.0000 0.0000 0.0000
vn 0.0000 0.9656 -0.2601
vn -1.0000 -0.0000 0.0000
vn 0.0000 -0.9656 0.2601
vn -0.0212 0.5183 0.8549
vn 0.0000 -0.1917 -0.9815
vn 0.0000 0.5899 0.8075
vn 0.0000 -0.6181 -0.7861
vn 0.0000 0.7199 -0.6941
vn 0.0000 0.8687 0.4953
vn 0.0000 0.5733 0.8193
vn 0.0000 -0.6756 0.7372
vn 0.0000 -0.5994 -0.8005
vn -0.0136 -0.9348 0.3549
vn 0.0000 0.5708 0.8211
vn 0.0000 -0.6781 0.7350
vn -0.0001 -0.5969 -0.8023
vn -0.0000 -0.9359 0.3524
vn -0.0000 0.5915 0.8063
vn 0.0000 -0.6099 -0.7925
vn -0.0000 0.7927 -0.6096
vn 0.0000 -0.8066 0.5911
vn 0.0000 0.8702 0.4927
vn 0.0000 0.9844 -0.1758
vn 0.0001 -0.8625 0.5061
vn 0.0000 0.7866 -0.6175
vn 0.0000 -0.8079 0.5893
vn 0.0000 -0.7927 0.6096
vn -0.0000 0.8065 -0.5912
vn 0.0000 -0.7865 0.6176
vn -0.0000 0.8078 -0.5895
vn 0.0002 -0.9805 0.1965
vn 0.0046 0.8556 -0.5176
vn 0.0000 0.7178 -0.6963
vn -0.0005 0.5541 0.8324
vn -0.0008 -0.1932 -0.9812
vn 0.0001 0.7198 -0.6941
vn 0.0000 -0.9385 0.3453
vn -0.0000 -0.5969 -0.8023
vn 0.0124 0.8653 0.5012
vn 0.0115 -0.8550 0.5184
vn -0.0000 -0.9805 0.1967
vn 0.0000 0.8522 -0.5232
s off
f 2/1/1 4/2/1 1/3/1
f 5/4/2 7/5/2 6/6/2
f 5/7/3 2/8/3 1/9/3
f 6/6/4 3/10/4 2/8/4
f 7/5/5 4/11/5 3/10/5
f 1/12/6 8/13/6 5/14/6
f 9/15/7 11/16/7 12/17/7
f 13/18/8 15/19/8 14/20/8
f 17/21/9 19/22/9 20/23/9
f 21/24/10 23/25/10 22/26/10
f 53/27/3 34/28/3 33/29/3
f 34/28/11 55/30/11 35/31/11
f 35/31/5 56/32/5 36/33/5
f 53/27/12 40/34/12 37/35/12
f 25/36/13 27/37/13 28/38/13
f 29/39/14 31/40/14 30/41/14
f 52/42/3 30/43/3 51/44/3
f 30/43/15 50/45/15 51/44/15
f 31/46/5 49/47/5 50/45/5
f 25/48/16 49/49/16 52/50/16
f 34/51/17 36/52/17 33/53/17
f 40/54/18 38/55/18 37/56/18
f 53/27/3 38/55/3 54/57/3
f 54/57/19 39/58/19 55/30/19
f 39/58/5 56/32/5 55/30/5
f 33/29/20 56/59/20 53/27/20
f 42/60/21 44/61/21 41/62/21
f 48/63/22 46/64/22 45/65/22
f 57/66/3 46/67/3 58/68/3
f 58/68/23 47/69/23 59/70/23
f 47/69/5 60/71/5 59/70/5
f 41/72/24 60/73/24 57/66/24
f 52/42/25 32/74/25 29/75/25
f 13/76/3 66/77/3 65/78/3
f 14/79/26 67/80/26 66/77/26
f 67/80/5 16/81/5 68/82/5
f 65/83/27 12/84/27 68/82/27
f 61/85/3 22/86/3 62/87/3
f 22/88/28 63/89/28 62/90/28
f 23/91/5 64/92/5 63/93/5
f 61/94/29 20/95/29 64/96/29
f 45/97/30 60/73/30 48/98/30
f 43/99/5 60/71/5 44/100/5
f 42/101/31 59/70/31 43/99/31
f 57/66/3 42/101/3 41/72/3
f 21/102/32 64/96/32 24/103/32
f 19/104/5 64/92/5 20/105/5
f 62/90/33 19/106/33 18/107/33
f 61/85/3 18/108/3 17/109/3
f 65/83/34 16/81/34 13/110/34
f 67/80/5 12/84/5 11/111/5
f 66/77/35 11/111/35 10/112/35
f 9/113/3 66/77/3 10/112/3
f 27/114/5 49/115/5 28/116/5
f 51/117/36 27/114/36 26/118/36
f 52/50/3 26/118/3 25/48/3
f 2/1/1 3/119/1 4/2/1
f 5/4/2 8/120/2 7/5/2
f 5/7/3 6/6/3 2/8/3
f 6/6/4 7/5/4 3/10/4
f 7/5/5 8/121/5 4/11/5
f 1/12/6 4/122/6 8/13/6
f 9/15/37 10/123/37 11/16/37
f 13/18/38 16/124/38 15/19/38
f 17/21/9 18/125/9 19/22/9
f 21/24/10 24/126/10 23/25/10
f 53/27/3 54/57/3 34/28/3
f 34/28/39 54/57/39 55/30/39
f 35/31/5 55/30/5 56/32/5
f 53/27/12 56/59/12 40/34/12
f 25/36/13 26/127/13 27/37/13
f 29/39/14 32/128/14 31/40/14
f 52/42/3 29/75/3 30/43/3
f 30/43/15 31/46/15 50/45/15
f 31/46/5 32/129/5 49/47/5
f 25/48/40 28/130/40 49/49/40
f 34/51/17 35/131/17 36/52/17
f 40/54/18 39/58/18 38/55/18
f 53/27/3 37/35/3 38/55/3
f 54/57/41 38/55/41 39/58/41
f 39/58/5 40/132/5 56/32/5
f 33/29/20 36/133/20 56/59/20
f 42/60/21 43/134/21 44/61/21
f 48/63/22 47/135/22 46/64/22
f 57/66/3 45/97/3 46/67/3
f 58/68/23 46/67/23 47/69/23
f 47/69/5 48/136/5 60/71/5
f 41/72/24 44/137/24 60/73/24
f 52/42/42 49/138/42 32/74/42
f 13/76/3 14/79/3 66/77/3
f 14/79/26 15/139/26 67/80/26
f 67/80/5 15/139/5 16/81/5
f 65/83/43 9/140/43 12/84/43
f 61/85/3 21/141/3 22/86/3
f 22/88/28 23/142/28 63/89/28
f 23/91/5 24/143/5 64/92/5
f 61/94/29 17/144/29 20/95/29
f 45/97/30 57/66/30 60/73/30
f 43/99/5 59/70/5 60/71/5
f 42/101/31 58/68/31 59/70/31
f 57/66/3 58/68/3 42/101/3
f 21/102/32 61/94/32 64/96/32
f 19/104/5 63/93/5 64/92/5
f 62/90/33 63/89/33 19/106/33
f 61/85/3 62/87/3 18/108/3
f 65/83/44 68/82/44 16/81/44
f 67/80/5 68/82/5 12/84/5
f 66/77/45 67/80/45 11/111/45
f 9/113/3 65/78/3 66/77/3
f 27/114/5 50/145/5 49/115/5
f 51/117/36 50/145/36 27/114/36
f 52/50/3 51/117/3 26/118/3
