# Blender v2.77 (sub 0) OBJ File: 'minecraft-character.blend'
# www.blender.org
v 0.400000 2.451918 -0.683424
v 0.400000 2.740751 0.062616
v -0.400000 2.740751 0.062616
v -0.400000 2.451918 -0.683424
v 0.400000 3.197958 -0.972257
v 0.400000 3.486791 -0.226218
v -0.400000 3.486791 -0.226218
v -0.400000 3.197958 -0.972258
v 0.400000 1.384747 -0.126081
v 0.400000 1.512222 0.251845
v -0.400000 1.512417 0.252104
v -0.400000 1.383006 -0.126384
v 0.400000 2.530041 -0.498662
v 0.400000 2.647900 -0.116420
v -0.400000 2.647900 -0.116420
v -0.400000 2.530060 -0.498617
v 0.801898 3.227392 0.560731
v 0.801898 3.369373 0.186782
v 0.401898 3.369375 0.186778
v 0.401898 3.227392 0.560731
v 0.801898 2.278785 -0.273825
v 0.801898 2.636218 -0.453384
v 0.401898 2.636218 -0.453384
v 0.401898 2.278785 -0.273825
v 0.398663 0.329122 -0.163124
v 0.398663 0.229009 0.224145
v -0.001337 0.229009 0.224145
v -0.001337 0.329122 -0.163124
v 0.398663 1.411998 -0.120620
v 0.398663 1.486570 0.272367
v -0.001337 1.486570 0.272367
v -0.001337 1.411998 -0.120620
v -0.002092 0.330461 -0.167607
v -0.002092 0.228662 0.219222
v -0.402092 0.228662 0.219222
v -0.402092 0.330461 -0.167607
v -0.002092 1.413198 -0.120416
v -0.002092 1.486000 0.272903
v -0.402092 1.486000 0.272903
v -0.402092 1.413198 -0.120416
v -0.400161 3.223694 0.561977
v -0.400161 3.364964 0.187754
v -0.800161 3.364964 0.187754
v -0.800161 3.223694 0.561977
v -0.400161 2.278733 -0.276101
v -0.400161 2.637998 -0.451967
v -0.800161 2.637998 -0.451966
v -0.800161 2.278733 -0.276101
v -0.001337 0.864624 -0.010779
v -0.001337 0.853500 0.379270
v 0.398663 0.853500 0.379271
v 0.398663 0.866238 -0.010856
v -0.002092 0.866962 -0.013062
v -0.002092 0.852476 0.377014
v -0.402092 0.852464 0.377013
v -0.402092 0.866961 -0.013062
v -0.400161 2.602445 0.306434
v -0.400161 2.852986 0.031698
v -0.800161 2.852713 0.031390
v -0.800161 2.602445 0.306434
v 0.801898 2.607737 0.305361
v 0.801898 2.855679 0.026801
v 0.401898 2.856714 0.027964
v 0.401898 2.608318 0.305781
v 0.400000 1.953717 -0.321189
v 0.400000 2.077342 0.059178
v -0.400000 2.077342 0.059178
v -0.400000 1.953710 -0.321182
vt 0.3750 1.0000
vt 0.2500 0.8750
vt 0.2500 1.0000
vt 0.1250 1.0000
vt 0.2500 0.8750
vt 0.2500 1.0000
vt 0.3750 0.8750
vt 0.2500 0.7500
vt 0.3750 0.7500
vt 0.1250 0.7500
vt 0.1250 0.8750
vt 0.0000 0.7500
vt 0.5000 0.7500
vt 0.3750 0.8750
vt 0.5000 0.8750
vt 0.4375 0.6875
vt 0.5625 0.7500
vt 0.5625 0.6875
vt 0.3125 0.6875
vt 0.4375 0.7500
vt 0.4375 0.6875
vt 0.7501 0.6876
vt 0.8124 0.7499
vt 0.8124 0.6876
vt 0.7499 0.6876
vt 0.6876 0.7499
vt 0.6876 0.6876
vt 0.1875 0.5938
vt 0.1250 0.5000
vt 0.1875 0.5000
vt 0.0625 0.5938
vt 0.0625 0.5000
vt 0.0000 0.5938
vt -0.0000 0.5000
vt 0.2500 0.6875
vt 0.1875 0.6875
vt 0.1250 0.7500
vt 0.1875 0.6875
vt 0.1875 0.7500
vt 0.1250 0.6875
vt 0.0625 0.7500
vt 0.0625 0.6875
vt 0.1875 0.5938
vt 0.1250 0.6875
vt 0.1250 0.5938
vt 0.0625 0.5938
vt 0.0625 0.6875
vt 0.0000 0.5938
vt 0.1875 0.5000
vt 0.2500 0.5469
vt 0.1875 0.5469
vt 0.1250 0.7500
vt 0.1875 0.6875
vt 0.1875 0.7500
vt 0.1250 0.7500
vt 0.0625 0.6875
vt 0.1250 0.6875
vt 0.1250 0.5938
vt 0.2500 0.5938
vt 0.8126 0.7500
vt 0.7501 0.6875
vt 0.8126 0.6875
vt 0.7500 0.6875
vt 0.6875 0.7500
vt 0.6875 0.6875
vt 0.8125 0.6875
vt 0.7500 0.5938
vt 0.8125 0.5938
vt 0.7500 0.6875
vt 0.6875 0.5938
vt 0.6250 0.6875
vt 0.6250 0.5938
vt 0.8125 0.5000
vt 0.8750 0.5938
vt 0.2500 0.6875
vt 0.1875 0.6875
vt 0.2500 0.6875
vt 0.3125 0.5937
vt 0.2500 0.5937
vt 0.3125 0.6875
vt 0.4375 0.5937
vt 0.5000 0.6875
vt 0.5000 0.5937
vt 0.6250 0.5000
vt 0.6250 0.5937
vt 0.6874 0.6873
vt 0.6250 0.5937
vt 0.6874 0.5937
vt 0.8749 0.5937
vt 0.8125 0.6873
vt 0.8125 0.5937
vt 0.6875 0.5937
vt 0.7499 0.6873
vt 0.7499 0.5937
vt 0.8124 0.5001
vt 0.7500 0.5937
vt 0.8124 0.5937
vt 0.8750 0.6875
vt 0.6250 0.5000
vt 0.6875 0.5000
vt 0.7500 0.5000
vt 0.7500 0.6873
vt 0.8124 0.6873
vt 0.7499 0.5001
vt 0.6875 0.5001
vt 0.8749 0.5001
vt 0.8125 0.5001
vt 0.6874 0.5001
vt 0.6250 0.5001
vt 0.6250 0.6875
vt 0.5000 0.5000
vt 0.4375 0.5000
vt 0.3125 0.5000
vt 0.2500 0.5000
vt 0.0625 0.5000
vt 0.0000 0.5469
vt 0.0000 0.5000
vt 0.1250 0.5000
vt 0.0625 0.5469
vt 0.3750 0.8750
vt 0.0000 0.8750
vt 0.3750 0.7500
vt 0.4375 0.7500
vt 0.3125 0.7500
vt 0.7501 0.7499
vt 0.7499 0.7499
vt 0.1250 0.6875
vt 0.1250 0.7500
vt -0.0000 0.6875
vt 0.2500 0.5000
vt 0.1250 0.6875
vt 0.0625 0.7500
vt 0.0000 0.6875
vt 0.2500 0.5000
vt 0.7501 0.7500
vt 0.7500 0.7500
vt 0.6875 0.6875
vt 0.8750 0.5000
vt 0.2500 0.5938
vt 0.4375 0.6875
vt 0.6250 0.6873
vt 0.8749 0.6873
vt 0.6875 0.6873
vt 0.7500 0.5001
vt 0.1250 0.5469
vn -0.0000 -0.9325 0.3610
vn 0.0000 0.9325 -0.3610
vn 1.0000 -0.0000 0.0000
vn -0.0000 0.3610 0.9325
vn -1.0000 -0.0000 -0.0000
vn 0.0000 -0.3610 -0.9325
vn 0.0019 -0.9462 0.3235
vn 0.0000 0.9556 -0.2946
vn 0.0000 0.9349 0.3550
vn 0.0000 -0.4489 -0.8936
vn -0.0000 -0.2452 0.9695
vn 0.0000 -0.1928 -0.9812
vn 0.0000 -0.9682 -0.2503
vn 0.0000 0.9825 -0.1864
vn -0.0000 0.1665 0.9860
vn -0.0013 0.2727 -0.9621
vn 0.0000 -0.9671 -0.2545
vn 0.0000 0.9833 -0.1820
vn -0.0000 0.1622 0.9868
vn -0.0000 0.2768 -0.9609
vn 0.0000 0.9356 0.3532
vn -0.0000 -0.4397 -0.8982
vn -0.0003 0.9138 -0.4062
vn 0.0000 -0.3804 0.9248
vn 0.0000 -0.1972 -0.9804
vn -0.0000 0.2941 0.9558
vn -0.0000 -0.3244 -0.9459
vn 0.0011 0.9092 -0.4165
vn 0.0004 -0.3810 0.9246
vn 0.0000 -0.8741 0.4857
vn -0.0000 0.2916 -0.9566
vn 0.0000 -0.8695 0.4939
vn 0.0000 0.2959 -0.9552
vn -0.0001 -0.2943 -0.9557
vn 0.0004 0.3227 0.9465
vn 0.0000 -0.2411 0.9705
vn -0.0001 -0.9475 0.3196
vn 0.0000 0.2736 -0.9618
vn -0.0000 0.9139 -0.4060
vn 0.0006 -0.1967 -0.9805
vn 0.0011 -0.3230 -0.9464
vn -0.0000 0.9095 -0.4157
vn 0.0000 -0.3808 0.9247
vn 0.0005 0.2919 -0.9564
vn -0.0007 -0.8693 0.4942
vn -0.0020 0.2973 -0.9548
vn -0.0000 -0.2942 -0.9557
vn -0.0000 0.3232 0.9463
s off
f 1/1/1 3/2/1 4/3/1
f 8/4/2 6/5/2 5/6/2
f 5/7/3 2/8/3 1/9/3
f 6/5/4 3/10/4 2/8/4
f 7/11/5 4/12/5 3/10/5
f 1/13/6 8/14/6 5/15/6
f 9/16/7 11/17/7 12/18/7
f 16/19/8 14/20/8 13/21/8
f 18/22/9 20/23/9 17/24/9
f 24/25/10 22/26/10 21/27/10
f 53/28/3 34/29/3 33/30/3
f 34/29/11 55/31/11 35/32/11
f 35/32/5 56/33/5 36/34/5
f 53/28/12 40/35/12 37/36/12
f 25/37/13 27/38/13 28/39/13
f 29/40/14 31/41/14 30/42/14
f 52/43/3 30/44/3 51/45/3
f 30/44/15 50/46/15 51/45/15
f 31/47/5 49/48/5 50/46/5
f 25/49/16 49/50/16 52/51/16
f 34/52/17 36/53/17 33/54/17
f 37/55/18 39/56/18 38/57/18
f 53/28/3 38/57/3 54/58/3
f 54/58/19 39/56/19 55/31/19
f 39/56/5 56/33/5 55/31/5
f 33/30/20 56/59/20 53/28/20
f 42/60/21 44/61/21 41/62/21
f 45/63/22 47/64/22 46/65/22
f 45/66/3 58/67/3 57/68/3
f 46/69/23 59/70/23 58/67/23
f 59/70/5 48/71/5 60/72/5
f 41/73/24 60/74/24 57/68/24
f 52/43/25 32/75/25 29/76/25
f 13/77/3 66/78/3 65/79/3
f 14/80/26 67/81/26 66/78/26
f 67/81/5 16/82/5 68/83/5
f 9/84/27 68/83/27 65/85/27
f 21/86/3 62/87/3 61/88/3
f 62/89/28 23/90/28 63/91/28
f 63/92/5 24/93/5 64/94/5
f 17/95/29 64/96/29 61/97/29
f 45/66/30 60/74/30 48/98/30
f 59/70/5 44/99/5 43/100/5
f 58/67/31 43/100/31 42/101/31
f 41/73/3 58/67/3 42/101/3
f 61/97/32 24/102/32 21/103/32
f 63/92/5 20/104/5 19/105/5
f 18/106/33 63/91/33 19/107/33
f 17/108/3 62/87/3 18/109/3
f 65/85/34 16/82/34 13/110/34
f 67/81/5 12/111/5 11/112/5
f 66/78/35 11/112/35 10/113/35
f 9/114/3 66/78/3 10/113/3
f 27/115/5 49/116/5 28/117/5
f 26/118/36 50/119/36 27/115/36
f 52/51/3 26/118/3 25/49/3
f 1/1/1 2/120/1 3/2/1
f 8/4/2 7/11/2 6/5/2
f 5/7/3 6/5/3 2/8/3
f 6/5/4 7/11/4 3/10/4
f 7/11/5 8/121/5 4/12/5
f 1/13/6 4/122/6 8/14/6
f 9/16/37 10/123/37 11/17/37
f 16/19/8 15/124/8 14/20/8
f 18/22/9 19/125/9 20/23/9
f 24/25/10 23/126/10 22/26/10
f 53/28/3 54/58/3 34/29/3
f 34/29/11 54/58/11 55/31/11
f 35/32/5 55/31/5 56/33/5
f 53/28/12 56/59/12 40/35/12
f 25/37/13 26/127/13 27/38/13
f 29/40/14 32/128/14 31/41/14
f 52/43/3 29/76/3 30/44/3
f 30/44/15 31/47/15 50/46/15
f 31/47/5 32/129/5 49/48/5
f 25/49/38 28/130/38 49/50/38
f 34/52/17 35/131/17 36/53/17
f 37/55/18 40/132/18 39/56/18
f 53/28/3 37/36/3 38/57/3
f 54/58/19 38/57/19 39/56/19
f 39/56/5 40/133/5 56/33/5
f 33/30/20 36/134/20 56/59/20
f 42/60/21 43/135/21 44/61/21
f 45/63/22 48/136/22 47/64/22
f 45/66/3 46/69/3 58/67/3
f 46/69/39 47/137/39 59/70/39
f 59/70/5 47/137/5 48/71/5
f 41/73/24 44/138/24 60/74/24
f 52/43/40 49/139/40 32/75/40
f 13/77/3 14/80/3 66/78/3
f 14/80/26 15/140/26 67/81/26
f 67/81/5 15/140/5 16/82/5
f 9/84/41 12/111/41 68/83/41
f 21/86/3 22/141/3 62/87/3
f 62/89/42 22/142/42 23/90/42
f 63/92/5 23/143/5 24/93/5
f 17/95/43 20/144/43 64/96/43
f 45/66/30 57/68/30 60/74/30
f 59/70/5 60/72/5 44/99/5
f 58/67/44 59/70/44 43/100/44
f 41/73/3 57/68/3 58/67/3
f 61/97/45 64/96/45 24/102/45
f 63/92/5 64/94/5 20/104/5
f 18/106/46 62/89/46 63/91/46
f 17/108/3 61/88/3 62/87/3
f 65/85/47 68/83/47 16/82/47
f 67/81/5 68/83/5 12/111/5
f 66/78/48 67/81/48 11/112/48
f 9/114/3 65/79/3 66/78/3
f 27/115/5 50/119/5 49/116/5
f 26/118/36 51/145/36 50/119/36
f 52/51/3 51/145/3 26/118/3
