# Blender v2.77 (sub 0) OBJ File: 'minecraft-character.blend'
# www.blender.org
v 0.400000 2.307160 -0.074811
v 0.400000 2.145576 0.708701
v -0.400000 2.145576 0.708701
v -0.400000 2.307160 -0.074811
v 0.400000 3.090672 0.086773
v 0.400000 2.929089 0.870285
v -0.400000 2.929089 0.870285
v -0.400000 3.090672 0.086773
v 0.400000 1.065148 -0.136903
v 0.400000 1.017995 0.257283
v -0.400000 1.018150 0.258583
v -0.400000 1.078318 -0.136866
v 0.400000 2.272683 0.122803
v 0.400000 2.164573 0.507917
v -0.400000 2.164573 0.507916
v -0.400000 2.272459 0.122442
v 0.801898 1.742464 1.277098
v 0.801898 2.129381 1.175656
v 0.401898 2.129387 1.175656
v 0.401898 1.742464 1.277098
v 0.801898 2.057982 0.080804
v 0.801898 2.334364 0.369963
v 0.401898 2.334364 0.369963
v 0.401898 2.057982 0.080804
v 0.398663 0.257482 -0.014513
v 0.398663 0.059084 0.332817
v -0.001337 0.059084 0.332817
v -0.001337 0.257482 -0.014513
v 0.398663 0.836987 -0.135547
v 0.398663 1.174891 0.078511
v -0.001337 1.174891 0.078510
v -0.001337 0.836987 -0.135547
v -0.002092 0.257817 -0.016654
v -0.002092 0.058311 0.330041
v -0.402092 0.058311 0.330041
v -0.402092 0.257818 -0.016654
v -0.002092 0.837744 -0.136145
v -0.002092 1.174930 0.079043
v -0.402092 1.174930 0.079043
v -0.402092 0.837744 -0.136146
v -0.400161 1.740590 1.273584
v -0.400161 2.127275 1.171236
v -0.800161 2.127274 1.171236
v -0.800161 1.740590 1.273584
v -0.400161 2.060124 0.080094
v -0.400161 2.333538 0.372062
v -0.800161 2.333537 0.372062
v -0.800161 2.060123 0.080094
v -0.001337 0.642247 0.328857
v -0.001337 0.716942 0.607891
v 0.398663 0.716942 0.607891
v 0.398663 0.647089 0.327231
v -0.002092 0.646411 0.326118
v -0.002092 0.715288 0.607054
v -0.402092 0.715251 0.607060
v -0.402092 0.646407 0.326120
v -0.400161 1.604620 0.591886
v -0.400161 1.934452 0.687226
v -0.800161 1.934670 0.686696
v -0.800161 1.604620 0.591886
v 0.801898 1.607145 0.596801
v 0.801898 1.939968 0.687327
v 0.401898 1.939150 0.689346
v 0.401898 1.606978 0.597789
v 0.400000 1.683289 -0.042976
v 0.400000 1.599113 0.347291
v -0.400000 1.599114 0.347293
v -0.400000 1.683223 -0.043021
vt 0.3750 0.8750
vt 0.2500 1.0000
vt 0.3750 1.0000
vt 0.2500 1.0000
vt 0.1250 0.8750
vt 0.2500 0.8750
vt 0.3750 0.8750
vt 0.2500 0.7500
vt 0.3750 0.7500
vt 0.1250 0.7500
vt 0.0000 0.7500
vt 0.5000 0.7500
vt 0.3750 0.8750
vt 0.5000 0.8750
vt 0.4375 0.6875
vt 0.5625 0.7500
vt 0.5625 0.6875
vt 0.4375 0.6875
vt 0.3125 0.7500
vt 0.4375 0.7500
vt 0.7501 0.6876
vt 0.8124 0.7499
vt 0.8124 0.6876
vt 0.7499 0.6876
vt 0.6876 0.7499
vt 0.6876 0.6876
vt 0.1875 0.5938
vt 0.1250 0.5000
vt 0.1875 0.5000
vt 0.0625 0.5938
vt 0.0625 0.5000
vt 0.0000 0.5938
vt -0.0000 0.5000
vt 0.2500 0.6875
vt 0.1875 0.6875
vt 0.1250 0.7500
vt 0.1875 0.6875
vt 0.1875 0.7500
vt 0.1250 0.6875
vt 0.0625 0.7500
vt 0.0625 0.6875
vt 0.1875 0.5938
vt 0.1250 0.6875
vt 0.1250 0.5938
vt 0.0625 0.5938
vt 0.0625 0.6875
vt 0.0000 0.5938
vt 0.1875 0.5000
vt 0.2500 0.5469
vt 0.1875 0.5469
vt 0.1250 0.7500
vt 0.1875 0.6875
vt 0.1875 0.7500
vt 0.1250 0.7500
vt 0.0625 0.6875
vt 0.1250 0.6875
vt 0.1250 0.5938
vt 0.2500 0.5938
vt 0.8126 0.6875
vt 0.7501 0.7500
vt 0.7501 0.6875
vt 0.7500 0.6875
vt 0.6875 0.7500
vt 0.6875 0.6875
vt 0.8125 0.6875
vt 0.7500 0.5938
vt 0.8125 0.5938
vt 0.7500 0.6875
vt 0.6875 0.5938
vt 0.6250 0.6875
vt 0.6250 0.5938
vt 0.8125 0.5000
vt 0.8750 0.5938
vt 0.2500 0.6875
vt 0.1875 0.6875
vt 0.2500 0.6875
vt 0.3125 0.5937
vt 0.2500 0.5937
vt 0.3125 0.6875
vt 0.4375 0.5937
vt 0.5000 0.6875
vt 0.5000 0.5937
vt 0.6250 0.5937
vt 0.5000 0.5000
vt 0.6874 0.6873
vt 0.6250 0.5937
vt 0.6874 0.5937
vt 0.8749 0.5937
vt 0.8125 0.6873
vt 0.8125 0.5937
vt 0.6875 0.5937
vt 0.7499 0.6873
vt 0.7499 0.5937
vt 0.8124 0.5001
vt 0.7500 0.5937
vt 0.8124 0.5937
vt 0.8750 0.6875
vt 0.6250 0.5000
vt 0.6875 0.5000
vt 0.7500 0.5000
vt 0.7500 0.6873
vt 0.8124 0.6873
vt 0.7499 0.5001
vt 0.6875 0.5001
vt 0.8749 0.5001
vt 0.8125 0.5001
vt 0.6874 0.5001
vt 0.6250 0.5001
vt 0.6250 0.6875
vt 0.4375 0.5000
vt 0.3125 0.5000
vt 0.2500 0.5000
vt 0.0625 0.5000
vt 0.0000 0.5469
vt 0.0000 0.5000
vt 0.1250 0.5000
vt 0.0625 0.5469
vt 0.2500 0.8750
vt 0.1250 1.0000
vt 0.0000 0.8750
vt 0.3750 0.7500
vt 0.4375 0.7500
vt 0.3125 0.6875
vt 0.7501 0.7499
vt 0.7499 0.7499
vt 0.1250 0.6875
vt 0.1250 0.7500
vt -0.0000 0.6875
vt 0.2500 0.5000
vt 0.1250 0.6875
vt 0.0625 0.7500
vt 0.0000 0.6875
vt 0.2500 0.5000
vt 0.8126 0.7500
vt 0.7500 0.7500
vt 0.6875 0.6875
vt 0.8750 0.5000
vt 0.2500 0.5938
vt 0.4375 0.6875
vt 0.6250 0.5000
vt 0.6250 0.6873
vt 0.8749 0.6873
vt 0.6875 0.6873
vt 0.7500 0.5001
vt 0.1250 0.5469
vn 0.0000 -0.9794 -0.2020
vn -0.0000 0.9794 0.2020
vn 1.0000 -0.0000 -0.0000
vn 0.0000 -0.2020 0.9794
vn -1.0000 0.0000 -0.0000
vn 0.0000 0.2020 -0.9794
vn -0.0163 -0.9885 -0.1504
vn 0.0000 0.9628 0.2703
vn 0.0000 0.2536 0.9673
vn 0.0000 0.7229 -0.6910
vn -0.0000 -0.3885 0.9214
vn 0.0000 -0.9240 -0.3824
vn -0.0000 -0.8683 -0.4960
vn 0.0000 0.5351 -0.8448
vn -0.0000 0.7563 0.6542
vn -0.0110 0.6594 -0.7517
vn -0.0000 -0.8667 -0.4988
vn -0.0000 0.5380 -0.8430
vn -0.0001 0.7542 0.6566
vn -0.0000 0.6615 -0.7499
vn 0.0000 0.2559 0.9667
vn -0.0000 0.7299 -0.6835
vn -0.0007 0.6198 0.7848
vn 0.0000 -0.9807 0.1956
vn 0.0000 -0.9251 -0.3796
vn 0.0000 -0.2733 0.9619
vn 0.0000 0.1533 -0.9882
vn 0.0026 0.6285 0.7778
vn 0.0009 -0.9808 0.1951
vn 0.0000 -0.7470 -0.6648
vn -0.0000 0.9290 -0.3701
vn 0.0000 -0.7531 -0.6580
vn 0.0000 0.9313 -0.3643
vn 0.0004 0.2708 -0.9626
vn 0.0016 -0.1531 0.9882
vn 0.0000 -0.3858 0.9226
vn -0.0004 -0.9929 -0.1188
vn -0.0004 0.9630 0.2695
vn 0.0001 -0.3885 0.9214
vn 0.0000 0.6658 -0.7461
vn -0.0000 0.7543 0.6566
vn -0.0000 0.6193 0.7851
vn 0.0096 -0.9222 -0.3867
vn -0.0000 -0.2732 0.9619
vn 0.0024 0.1502 -0.9886
vn -0.0000 0.6269 0.7791
vn 0.0010 0.9293 -0.3694
vn -0.0013 -0.7536 -0.6574
vn -0.0037 0.9323 -0.3616
vn 0.0000 0.2704 -0.9628
vn 0.0000 -0.1509 0.9885
s off
f 2/1/1 4/2/1 1/3/1
f 5/4/2 7/5/2 6/6/2
f 5/7/3 2/8/3 1/9/3
f 6/6/4 3/10/4 2/8/4
f 7/5/5 4/11/5 3/10/5
f 1/12/6 8/13/6 5/14/6
f 9/15/7 11/16/7 12/17/7
f 13/18/8 15/19/8 14/20/8
f 18/21/9 20/22/9 17/23/9
f 24/24/10 22/25/10 21/26/10
f 53/27/3 34/28/3 33/29/3
f 34/28/11 55/30/11 35/31/11
f 35/31/5 56/32/5 36/33/5
f 53/27/12 40/34/12 37/35/12
f 25/36/13 27/37/13 28/38/13
f 29/39/14 31/40/14 30/41/14
f 52/42/3 30/43/3 51/44/3
f 30/43/15 50/45/15 51/44/15
f 31/46/5 49/47/5 50/45/5
f 25/48/16 49/49/16 52/50/16
f 34/51/17 36/52/17 33/53/17
f 37/54/18 39/55/18 38/56/18
f 53/27/3 38/56/3 54/57/3
f 54/57/19 39/55/19 55/30/19
f 39/55/5 56/32/5 55/30/5
f 33/29/20 56/58/20 53/27/20
f 41/59/21 43/60/21 44/61/21
f 45/62/22 47/63/22 46/64/22
f 45/65/3 58/66/3 57/67/3
f 46/68/23 59/69/23 58/66/23
f 59/69/5 48/70/5 60/71/5
f 41/72/24 60/73/24 57/67/24
f 52/42/25 32/74/25 29/75/25
f 13/76/3 66/77/3 65/78/3
f 14/79/26 67/80/26 66/77/26
f 67/80/5 16/81/5 68/82/5
f 65/83/27 12/84/27 68/82/27
f 21/85/3 62/86/3 61/87/3
f 62/88/28 23/89/28 63/90/28
f 63/91/5 24/92/5 64/93/5
f 17/94/29 64/95/29 61/96/29
f 57/67/30 48/97/30 45/65/30
f 59/69/5 44/98/5 43/99/5
f 58/66/31 43/99/31 42/100/31
f 41/72/3 58/66/3 42/100/3
f 61/96/32 24/101/32 21/102/32
f 63/91/5 20/103/5 19/104/5
f 18/105/33 63/90/33 19/106/33
f 17/107/3 62/86/3 18/108/3
f 65/83/34 16/81/34 13/109/34
f 67/80/5 12/84/5 11/110/5
f 66/77/35 11/110/35 10/111/35
f 9/112/3 66/77/3 10/111/3
f 27/113/5 49/114/5 28/115/5
f 26/116/36 50/117/36 27/113/36
f 52/50/3 26/116/3 25/48/3
f 2/1/1 3/118/1 4/2/1
f 5/4/2 8/119/2 7/5/2
f 5/7/3 6/6/3 2/8/3
f 6/6/4 7/5/4 3/10/4
f 7/5/5 8/120/5 4/11/5
f 1/12/6 4/121/6 8/13/6
f 9/15/37 10/122/37 11/16/37
f 13/18/38 16/123/38 15/19/38
f 18/21/9 19/124/9 20/22/9
f 24/24/10 23/125/10 22/25/10
f 53/27/3 54/57/3 34/28/3
f 34/28/39 54/57/39 55/30/39
f 35/31/5 55/30/5 56/32/5
f 53/27/12 56/58/12 40/34/12
f 25/36/13 26/126/13 27/37/13
f 29/39/14 32/127/14 31/40/14
f 52/42/3 29/75/3 30/43/3
f 30/43/15 31/46/15 50/45/15
f 31/46/5 32/128/5 49/47/5
f 25/48/40 28/129/40 49/49/40
f 34/51/17 35/130/17 36/52/17
f 37/54/18 40/131/18 39/55/18
f 53/27/3 37/35/3 38/56/3
f 54/57/41 38/56/41 39/55/41
f 39/55/5 40/132/5 56/32/5
f 33/29/20 36/133/20 56/58/20
f 41/59/21 42/134/21 43/60/21
f 45/62/22 48/135/22 47/63/22
f 45/65/3 46/68/3 58/66/3
f 46/68/42 47/136/42 59/69/42
f 59/69/5 47/136/5 48/70/5
f 41/72/24 44/137/24 60/73/24
f 52/42/43 49/138/43 32/74/43
f 13/76/3 14/79/3 66/77/3
f 14/79/44 15/139/44 67/80/44
f 67/80/5 15/139/5 16/81/5
f 65/83/45 9/140/45 12/84/45
f 21/85/3 22/141/3 62/86/3
f 62/88/46 22/142/46 23/89/46
f 63/91/5 23/143/5 24/92/5
f 17/94/24 20/144/24 64/95/24
f 57/67/30 60/73/30 48/97/30
f 59/69/5 60/71/5 44/98/5
f 58/66/47 59/69/47 43/99/47
f 41/72/3 57/67/3 58/66/3
f 61/96/48 64/95/48 24/101/48
f 63/91/5 64/93/5 20/103/5
f 18/105/49 62/88/49 63/90/49
f 17/107/3 61/87/3 62/86/3
f 65/83/50 68/82/50 16/81/50
f 67/80/5 68/82/5 12/84/5
f 66/77/51 67/80/51 11/110/51
f 9/112/3 65/78/3 66/77/3
f 27/113/5 50/117/5 49/114/5
f 26/116/36 51/145/36 50/117/36
f 52/50/3 51/145/3 26/116/3
