# Blender v2.77 (sub 0) OBJ File: 'minecraft-character.blend'
# www.blender.org
v 0.400000 1.351496 0.709639
v 0.400000 1.263812 -0.085542
v -0.400000 1.263812 -0.085542
v -0.400000 1.351496 0.709639
v 0.400000 0.556315 0.797323
v 0.400000 0.468632 0.002142
v -0.400000 0.468632 0.002143
v -0.400000 0.556316 0.797323
v 0.400000 2.557692 0.218227
v 0.400000 2.386673 -0.128170
v -0.400000 2.384555 -0.131559
v -0.400000 2.546160 0.234342
v 0.400000 1.323409 0.511015
v 0.400000 1.307603 0.111328
v -0.400000 1.307603 0.111328
v -0.400000 1.324053 0.511098
v 0.801898 2.484871 -0.025360
v 0.801898 2.297283 -0.378645
v 0.401898 2.297283 -0.378645
v 0.401898 2.484871 -0.025360
v 0.801898 1.415345 0.528204
v 0.801898 1.235509 0.170910
v 0.401898 1.235509 0.170910
v 0.401898 1.415345 0.528204
v 0.398663 2.746034 -0.693376
v 0.398663 2.434651 -0.944455
v -0.001337 2.434651 -0.944455
v -0.001337 2.746034 -0.693376
v 0.398663 2.754587 -0.061035
v 0.398663 2.468378 0.218401
v -0.001337 2.468378 0.218401
v -0.001337 2.754587 -0.061035
v -0.002092 2.748153 -0.692625
v -0.002092 2.437564 -0.944685
v -0.402092 2.437564 -0.944685
v -0.402092 2.748153 -0.692625
v -0.002092 2.754992 -0.060169
v -0.002092 2.467860 0.218320
v -0.402092 2.467861 0.218320
v -0.402092 2.754992 -0.060169
v -0.400161 2.486864 -0.022162
v -0.400161 2.298576 -0.375075
v -0.800161 2.298576 -0.375075
v -0.800161 2.486864 -0.022162
v -0.400161 1.413069 0.528257
v -0.400161 1.236926 0.169128
v -0.800161 1.236926 0.169129
v -0.800161 1.413069 0.528257
v -0.001337 2.351785 -0.363294
v -0.001337 2.053628 -0.344146
v 0.398663 2.053628 -0.344146
v 0.398663 2.352411 -0.358425
v -0.002092 2.353661 -0.358803
v -0.002092 2.054800 -0.345553
v -0.402092 2.054801 -0.345589
v -0.402092 2.353661 -0.358807
v -0.400161 1.954629 0.262156
v -0.400161 1.772430 -0.093872
v -0.800161 1.772413 -0.093865
v -0.800161 1.954629 0.262156
v 0.801898 1.953128 0.257227
v 0.801898 1.769346 -0.098032
v 0.401898 1.769390 -0.098049
v 0.401898 1.953146 0.257215
v 0.400000 1.960009 0.482044
v 0.400000 1.871421 0.099235
v -0.400000 1.871418 0.099234
v -0.400000 1.960192 0.482022
vt 0.3750 0.8750
vt 0.2500 1.0000
vt 0.3750 1.0000
vt 0.2500 1.0000
vt 0.1250 0.8750
vt 0.2500 0.8750
vt 0.3750 0.7500
vt 0.2500 0.7500
vt 0.1250 0.7500
vt 0.0000 0.7500
vt 0.5000 0.7500
vt 0.3750 0.8750
vt 0.5000 0.8750
vt 0.4375 0.6875
vt 0.5625 0.7500
vt 0.5625 0.6875
vt 0.4375 0.6875
vt 0.3125 0.7500
vt 0.4375 0.7500
vt 0.7501 0.6876
vt 0.8124 0.7499
vt 0.8124 0.6876
vt 0.7499 0.6876
vt 0.6876 0.7499
vt 0.6876 0.6876
vt 0.1875 0.5938
vt 0.1250 0.5000
vt 0.1875 0.5000
vt 0.0625 0.5938
vt 0.0625 0.5000
vt 0.0000 0.5938
vt -0.0000 0.5000
vt 0.2500 0.6875
vt 0.1875 0.6875
vt 0.1250 0.7500
vt 0.1875 0.6875
vt 0.1875 0.7500
vt 0.1250 0.6875
vt 0.0625 0.7500
vt 0.0625 0.6875
vt 0.1875 0.5938
vt 0.1250 0.6875
vt 0.1250 0.5938
vt 0.0625 0.5938
vt 0.0625 0.6875
vt 0.0000 0.5938
vt 0.1875 0.5000
vt 0.2500 0.5469
vt 0.1875 0.5469
vt 0.1250 0.7500
vt 0.1875 0.6875
vt 0.1875 0.7500
vt 0.1250 0.7500
vt 0.0625 0.6875
vt 0.1250 0.6875
vt 0.1250 0.5938
vt 0.2500 0.5938
vt 0.8126 0.7500
vt 0.7501 0.6875
vt 0.8126 0.6875
vt 0.7500 0.7500
vt 0.6875 0.6875
vt 0.7500 0.6875
vt 0.8125 0.6875
vt 0.7500 0.5938
vt 0.8125 0.5938
vt 0.7500 0.6875
vt 0.6875 0.5938
vt 0.6250 0.6875
vt 0.6250 0.5938
vt 0.8125 0.5000
vt 0.8750 0.5938
vt 0.2500 0.6875
vt 0.1875 0.6875
vt 0.2500 0.6875
vt 0.3125 0.5937
vt 0.2500 0.5937
vt 0.3125 0.6875
vt 0.4375 0.5937
vt 0.5000 0.6875
vt 0.5000 0.5937
vt 0.6250 0.5937
vt 0.5000 0.5000
vt 0.6874 0.6873
vt 0.6250 0.5937
vt 0.6874 0.5937
vt 0.8749 0.5937
vt 0.8125 0.6873
vt 0.8125 0.5937
vt 0.6875 0.5937
vt 0.7499 0.6873
vt 0.7499 0.5937
vt 0.8124 0.5001
vt 0.7500 0.5937
vt 0.8124 0.5937
vt 0.8750 0.6875
vt 0.6250 0.5000
vt 0.6875 0.5000
vt 0.7500 0.5000
vt 0.7500 0.6873
vt 0.8124 0.6873
vt 0.7499 0.5001
vt 0.6875 0.5001
vt 0.8749 0.5001
vt 0.8125 0.5001
vt 0.6874 0.5001
vt 0.6250 0.5001
vt 0.6250 0.6875
vt 0.4375 0.5000
vt 0.3125 0.5000
vt 0.2500 0.5000
vt 0.0625 0.5000
vt 0.0000 0.5469
vt 0.0000 0.5000
vt 0.1250 0.5469
vt 0.1250 0.5000
vt 0.2500 0.8750
vt 0.1250 1.0000
vt 0.3750 0.8750
vt 0.0000 0.8750
vt 0.3750 0.7500
vt 0.4375 0.7500
vt 0.3125 0.6875
vt 0.7501 0.7499
vt 0.7499 0.7499
vt 0.1250 0.6875
vt 0.1250 0.7500
vt -0.0000 0.6875
vt 0.2500 0.5000
vt 0.1250 0.6875
vt 0.0625 0.7500
vt 0.0000 0.6875
vt 0.2500 0.5000
vt 0.7501 0.7500
vt 0.6875 0.7500
vt 0.6875 0.6875
vt 0.8750 0.5000
vt 0.2500 0.5938
vt 0.4375 0.6875
vt 0.6250 0.5000
vt 0.6250 0.6873
vt 0.8749 0.6873
vt 0.6875 0.6873
vt 0.7500 0.5001
vt 0.0625 0.5469
vn 0.0000 0.9940 -0.1096
vn 0.0000 -0.9940 0.1096
vn 1.0000 -0.0000 0.0000
vn -0.0000 -0.1096 -0.9940
vn -1.0000 0.0000 0.0000
vn 0.0000 0.1096 0.9940
vn -0.0213 0.9145 -0.4039
vn 0.0000 -0.9992 0.0395
vn -0.0000 0.8832 -0.4690
vn -0.0000 -0.8932 0.4496
vn 0.0000 -0.8427 -0.5384
vn 0.0000 0.5970 -0.8023
vn -0.0000 0.6277 -0.7785
vn 0.0000 0.6986 0.7155
vn 0.0000 -0.8049 0.5934
vn -0.0103 0.6480 0.7615
vn 0.0000 0.6301 -0.7765
vn 0.0000 0.6962 0.7178
vn -0.0001 -0.8067 0.5909
vn -0.0000 0.6460 0.7634
vn 0.0000 0.8823 -0.4707
vn -0.0000 -0.8978 0.4404
vn 0.0000 -0.4408 -0.8976
vn 0.0000 0.4712 0.8820
vn 0.0000 0.5946 -0.8041
vn 0.0000 -0.0214 -0.9998
vn 0.0001 0.3893 0.9211
vn -0.0000 -0.4499 -0.8931
vn -0.0000 0.4693 0.8830
vn 0.0000 0.4410 0.8975
vn -0.0000 -0.4714 -0.8819
vn 0.0000 0.4500 0.8930
vn 0.0000 -0.4694 -0.8830
vn 0.0001 0.0455 0.9990
vn 0.0049 -0.4038 -0.9148
vn -0.0000 -0.8443 -0.5359
vn -0.0005 0.8967 -0.4427
vn -0.0008 -0.9992 0.0411
vn 0.0000 0.6420 0.7667
vn 0.0000 0.6302 -0.7765
vn -0.0000 -0.8067 0.5909
vn 0.0088 0.6002 -0.7998
vn 0.0126 0.4038 0.9148
vn -0.0000 -0.4693 -0.8830
vn -0.0000 0.0457 0.9990
vn 0.0000 -0.4102 -0.9120
s off
f 2/1/1 4/2/1 1/3/1
f 5/4/2 7/5/2 6/6/2
f 1/7/3 6/6/3 2/8/3
f 6/6/4 3/9/4 2/8/4
f 7/5/5 4/10/5 3/9/5
f 1/11/6 8/12/6 5/13/6
f 9/14/7 11/15/7 12/16/7
f 13/17/8 15/18/8 14/19/8
f 18/20/9 20/21/9 17/22/9
f 24/23/10 22/24/10 21/25/10
f 53/26/3 34/27/3 33/28/3
f 34/27/11 55/29/11 35/30/11
f 35/30/5 56/31/5 36/32/5
f 53/26/12 40/33/12 37/34/12
f 25/35/13 27/36/13 28/37/13
f 29/38/14 31/39/14 30/40/14
f 52/41/3 30/42/3 51/43/3
f 30/42/15 50/44/15 51/43/15
f 31/45/5 49/46/5 50/44/5
f 25/47/16 49/48/16 52/49/16
f 34/50/17 36/51/17 33/52/17
f 37/53/18 39/54/18 38/55/18
f 53/26/3 38/55/3 54/56/3
f 54/56/19 39/54/19 55/29/19
f 39/54/5 56/31/5 55/29/5
f 33/28/20 56/57/20 53/26/20
f 42/58/21 44/59/21 41/60/21
f 48/61/22 46/62/22 45/63/22
f 45/64/3 58/65/3 57/66/3
f 46/67/23 59/68/23 58/65/23
f 59/68/5 48/69/5 60/70/5
f 41/71/24 60/72/24 57/66/24
f 52/41/25 32/73/25 29/74/25
f 13/75/3 66/76/3 65/77/3
f 14/78/26 67/79/26 66/76/26
f 67/79/5 16/80/5 68/81/5
f 65/82/27 12/83/27 68/81/27
f 21/84/3 62/85/3 61/86/3
f 62/87/28 23/88/28 63/89/28
f 63/90/5 24/91/5 64/92/5
f 17/93/29 64/94/29 61/95/29
f 57/66/30 48/96/30 45/64/30
f 59/68/5 44/97/5 43/98/5
f 58/65/31 43/98/31 42/99/31
f 41/71/3 58/65/3 42/99/3
f 61/95/32 24/100/32 21/101/32
f 63/90/5 20/102/5 19/103/5
f 18/104/33 63/89/33 19/105/33
f 17/106/3 62/85/3 18/107/3
f 65/82/34 16/80/34 13/108/34
f 67/79/5 12/83/5 11/109/5
f 66/76/35 11/109/35 10/110/35
f 9/111/3 66/76/3 10/110/3
f 27/112/5 49/113/5 28/114/5
f 51/115/36 27/112/36 26/116/36
f 52/49/3 26/116/3 25/47/3
f 2/1/1 3/117/1 4/2/1
f 5/4/2 8/118/2 7/5/2
f 1/7/3 5/119/3 6/6/3
f 6/6/4 7/5/4 3/9/4
f 7/5/5 8/120/5 4/10/5
f 1/11/6 4/121/6 8/12/6
f 9/14/37 10/122/37 11/15/37
f 13/17/38 16/123/38 15/18/38
f 18/20/9 19/124/9 20/21/9
f 24/23/10 23/125/10 22/24/10
f 53/26/3 54/56/3 34/27/3
f 34/27/11 54/56/11 55/29/11
f 35/30/5 55/29/5 56/31/5
f 53/26/12 56/57/12 40/33/12
f 25/35/13 26/126/13 27/36/13
f 29/38/14 32/127/14 31/39/14
f 52/41/3 29/74/3 30/42/3
f 30/42/15 31/45/15 50/44/15
f 31/45/5 32/128/5 49/46/5
f 25/47/39 28/129/39 49/48/39
f 34/50/40 35/130/40 36/51/40
f 37/53/18 40/131/18 39/54/18
f 53/26/3 37/34/3 38/55/3
f 54/56/41 38/55/41 39/54/41
f 39/54/5 40/132/5 56/31/5
f 33/28/20 36/133/20 56/57/20
f 42/58/21 43/134/21 44/59/21
f 48/61/22 47/135/22 46/62/22
f 45/64/3 46/67/3 58/65/3
f 46/67/23 47/136/23 59/68/23
f 59/68/5 47/136/5 48/69/5
f 41/71/24 44/137/24 60/72/24
f 52/41/42 49/138/42 32/73/42
f 13/75/3 14/78/3 66/76/3
f 14/78/26 15/139/26 67/79/26
f 67/79/5 15/139/5 16/80/5
f 65/82/43 9/140/43 12/83/43
f 21/84/3 22/141/3 62/85/3
f 62/87/28 22/142/28 23/88/28
f 63/90/5 23/143/5 24/91/5
f 17/93/29 20/144/29 64/94/29
f 57/66/30 60/72/30 48/96/30
f 59/68/5 60/70/5 44/97/5
f 58/65/31 59/68/31 43/98/31
f 41/71/3 57/66/3 58/65/3
f 61/95/32 64/94/32 24/100/32
f 63/90/5 64/92/5 20/102/5
f 18/104/44 62/87/44 63/89/44
f 17/106/3 61/86/3 62/85/3
f 65/82/45 68/81/45 16/80/45
f 67/79/5 68/81/5 12/83/5
f 66/76/46 67/79/46 11/109/46
f 9/111/3 65/77/3 66/76/3
f 27/112/5 50/145/5 49/113/5
f 51/115/36 50/145/36 27/112/36
f 52/49/3 51/115/3 26/116/3
