# Blender v2.77 (sub 0) OBJ File: 'minecraft-character.blend'
# www.blender.org
v 0.400000 2.521369 -1.115661
v 0.400000 3.142180 -0.611088
v -0.400000 3.142180 -0.611088
v -0.400000 2.521368 -1.115661
v 0.400000 3.025941 -1.736472
v 0.400000 3.646753 -1.231899
v -0.400000 3.646752 -1.231900
v -0.400000 3.025941 -1.736472
v 0.400000 1.937132 0.013024
v 0.400000 2.286295 0.197538
v -0.400000 2.288659 0.198284
v -0.400000 1.941574 -0.000543
v 0.400000 2.680840 -0.993969
v 0.400000 2.972758 -0.720503
v -0.400000 2.972758 -0.720503
v -0.400000 2.680376 -0.993868
v 0.801898 3.241980 0.224642
v 0.801898 3.490608 -0.088696
v 0.401898 3.490611 -0.088699
v 0.401898 3.241980 0.224642
v 0.801898 2.546178 -0.831758
v 0.801898 2.934471 -0.927821
v 0.401898 2.934471 -0.927821
v 0.401898 2.546178 -0.831758
v 0.398663 1.758411 0.559018
v 0.398663 1.892673 0.935812
v -0.001337 1.892673 0.935812
v -0.001337 1.758411 0.559018
v 0.398663 1.862226 0.248458
v 0.398663 2.155417 -0.023643
v -0.001337 2.155417 -0.023643
v -0.001337 1.862226 0.248458
v -0.002092 1.757391 0.558020
v -0.002092 1.890463 0.935236
v -0.402092 1.890463 0.935236
v -0.402092 1.757391 0.558020
v -0.002092 1.861844 0.247582
v -0.002092 2.155933 -0.023548
v -0.402092 2.155933 -0.023548
v -0.402092 1.861844 0.247582
v -0.400161 3.238202 0.225096
v -0.400161 3.486212 -0.088737
v -0.800161 3.486212 -0.088737
v -0.800161 3.238202 0.225096
v -0.400161 2.546631 -0.833988
v -0.400161 2.935894 -0.926045
v -0.800161 2.935894 -0.926045
v -0.800161 2.546631 -0.833988
v -0.001337 2.295988 0.529157
v -0.001337 2.510716 0.575282
v 0.398663 2.510716 0.575282
v 0.398663 2.296969 0.523061
v -0.002092 2.295877 0.523564
v -0.002092 2.509472 0.576563
v -0.402092 2.509458 0.576606
v -0.402092 2.295876 0.523568
v -0.400161 2.726084 -0.198506
v -0.400161 3.044883 -0.401122
v -0.800161 3.044720 -0.401451
v -0.800161 2.726084 -0.198506
v 0.801898 2.731428 -0.198432
v 0.801898 3.048794 -0.405097
v 0.401898 3.049413 -0.403856
v 0.401898 2.731829 -0.197936
v 0.400000 2.255275 -0.538685
v 0.400000 2.574726 -0.302485
v -0.400000 2.574729 -0.302486
v -0.400000 2.255182 -0.538612
vt 0.3750 0.8750
vt 0.2500 1.0000
vt 0.3750 1.0000
vt 0.2500 1.0000
vt 0.1250 0.8750
vt 0.2500 0.8750
vt 0.3750 0.8750
vt 0.2500 0.7500
vt 0.3750 0.7500
vt 0.1250 0.7500
vt 0.0000 0.8750
vt 0.0000 0.7500
vt 0.5000 0.7500
vt 0.3750 0.8750
vt 0.5000 0.8750
vt 0.4375 0.6875
vt 0.5625 0.7500
vt 0.5625 0.6875
vt 0.4375 0.6875
vt 0.3125 0.7500
vt 0.4375 0.7500
vt 0.7501 0.6876
vt 0.8124 0.7499
vt 0.8124 0.6876
vt 0.7499 0.6876
vt 0.6876 0.7499
vt 0.6876 0.6876
vt 0.1875 0.5938
vt 0.1250 0.5000
vt 0.1875 0.5000
vt 0.0625 0.5938
vt 0.0625 0.5000
vt 0.0000 0.5938
vt -0.0000 0.5000
vt 0.2500 0.6875
vt 0.1875 0.6875
vt 0.1250 0.6875
vt 0.1875 0.7500
vt 0.1250 0.7500
vt 0.1250 0.6875
vt 0.0625 0.7500
vt 0.0625 0.6875
vt 0.1875 0.5938
vt 0.1250 0.6875
vt 0.1250 0.5938
vt 0.0625 0.5938
vt 0.0625 0.6875
vt 0.0000 0.5938
vt 0.1875 0.5000
vt 0.2500 0.5469
vt 0.1875 0.5469
vt 0.1250 0.7500
vt 0.1875 0.6875
vt 0.1875 0.7500
vt 0.1250 0.7500
vt 0.0625 0.6875
vt 0.1250 0.6875
vt 0.1250 0.5938
vt 0.2500 0.5938
vt 0.8126 0.7500
vt 0.7501 0.6875
vt 0.8126 0.6875
vt 0.7500 0.7500
vt 0.6875 0.6875
vt 0.7500 0.6875
vt 0.8125 0.6875
vt 0.7500 0.5938
vt 0.8125 0.5938
vt 0.7500 0.6875
vt 0.6875 0.5938
vt 0.6250 0.6875
vt 0.6250 0.5938
vt 0.8750 0.5000
vt 0.8750 0.5938
vt 0.2500 0.6875
vt 0.1875 0.6875
vt 0.2500 0.6875
vt 0.3125 0.5937
vt 0.2500 0.5937
vt 0.3125 0.6875
vt 0.4375 0.5937
vt 0.5000 0.6875
vt 0.5000 0.5937
vt 0.6250 0.5937
vt 0.5000 0.5000
vt 0.6874 0.6873
vt 0.6250 0.5937
vt 0.6874 0.5937
vt 0.8749 0.5937
vt 0.8125 0.6873
vt 0.8125 0.5937
vt 0.6875 0.5937
vt 0.7499 0.6873
vt 0.7499 0.5937
vt 0.8124 0.5001
vt 0.7500 0.5937
vt 0.8124 0.5937
vt 0.8750 0.6875
vt 0.6250 0.5000
vt 0.6875 0.5000
vt 0.7500 0.5000
vt 0.8125 0.5000
vt 0.7500 0.6873
vt 0.8124 0.6873
vt 0.7499 0.5001
vt 0.6875 0.5001
vt 0.8749 0.5001
vt 0.8125 0.5001
vt 0.6874 0.5001
vt 0.6250 0.5001
vt 0.6250 0.6875
vt 0.4375 0.5000
vt 0.3125 0.5000
vt 0.2500 0.5000
vt 0.0625 0.5000
vt 0.0000 0.5469
vt 0.0000 0.5000
vt 0.1250 0.5469
vt 0.1250 0.5000
vt 0.2500 0.8750
vt 0.1250 1.0000
vt 0.3750 0.7500
vt 0.4375 0.7500
vt 0.3125 0.6875
vt 0.7501 0.7499
vt 0.7499 0.7499
vt 0.1875 0.6875
vt 0.1250 0.7500
vt -0.0000 0.6875
vt 0.2500 0.5000
vt 0.1250 0.6875
vt 0.0625 0.7500
vt 0.0000 0.6875
vt 0.2500 0.5000
vt 0.7501 0.7500
vt 0.6875 0.7500
vt 0.6875 0.6875
vt 0.2500 0.5938
vt 0.4375 0.6875
vt 0.6250 0.5000
vt 0.6250 0.6873
vt 0.8749 0.6873
vt 0.6875 0.6873
vt 0.7500 0.5001
vt 0.0625 0.5469
vn 0.0000 -0.6307 0.7760
vn -0.0000 0.6307 -0.7760
vn 1.0000 -0.0000 0.0000
vn 0.0000 0.7760 0.6307
vn -1.0000 -0.0000 -0.0000
vn 0.0000 -0.7760 -0.6307
vn -0.0175 -0.4970 0.8676
vn 0.0000 0.6837 -0.7298
vn 0.0000 0.7834 0.6216
vn -0.0000 -0.2402 -0.9707
vn 0.0000 0.5013 0.8653
vn 0.0000 -0.5366 0.8439
vn 0.0000 -0.9420 0.3357
vn 0.0000 -0.6803 -0.7330
vn 0.0000 0.8601 -0.5102
vn -0.0150 -0.0666 -0.9977
vn -0.0000 -0.9430 0.3327
vn 0.0000 -0.6778 -0.7352
vn -0.0001 0.8616 -0.5075
vn -0.0000 -0.0639 -0.9980
vn 0.0000 0.7846 0.6200
vn 0.0000 -0.2301 -0.9732
vn -0.0002 0.9791 -0.2033
vn 0.0000 -0.6374 0.7706
vn 0.0000 -0.5340 0.8455
vn 0.0000 0.7242 0.6896
vn 0.0001 -0.8640 -0.5036
vn 0.0008 0.9768 -0.2143
vn 0.0003 -0.6381 0.7700
vn 0.0000 -0.9624 0.2718
vn -0.0000 0.5777 -0.8162
vn 0.0000 -0.9598 0.2807
vn 0.0000 0.5813 -0.8137
vn 0.0003 -0.7305 -0.6829
vn 0.0030 0.8662 0.4997
vn 0.0000 0.5039 0.8638
vn -0.0006 -0.4672 0.8841
vn -0.0005 0.6830 -0.7305
vn 0.0001 0.5013 0.8652
vn 0.0000 -0.0555 -0.9985
vn -0.0000 0.8616 -0.5076
vn 0.0000 -0.0638 -0.9980
vn -0.0000 0.9792 -0.2031
vn 0.0141 -0.5432 0.8395
vn 0.0037 -0.8663 -0.4995
vn 0.0000 0.9769 -0.2137
vn 0.0000 -0.6379 0.7701
vn 0.0004 0.5780 -0.8160
vn -0.0006 -0.9597 0.2811
vn -0.0016 0.5822 -0.8130
vn 0.0000 -0.7308 -0.6826
vn 0.0000 0.8683 0.4960
s off
f 2/1/1 4/2/1 1/3/1
f 5/4/2 7/5/2 6/6/2
f 5/7/3 2/8/3 1/9/3
f 6/6/4 3/10/4 2/8/4
f 3/10/5 8/11/5 4/12/5
f 1/13/6 8/14/6 5/15/6
f 9/16/7 11/17/7 12/18/7
f 13/19/8 15/20/8 14/21/8
f 18/22/9 20/23/9 17/24/9
f 24/25/10 22/26/10 21/27/10
f 53/28/3 34/29/3 33/30/3
f 34/29/11 55/31/11 35/32/11
f 35/32/5 56/33/5 36/34/5
f 53/28/12 40/35/12 37/36/12
f 26/37/13 28/38/13 25/39/13
f 29/40/14 31/41/14 30/42/14
f 52/43/3 30/44/3 51/45/3
f 30/44/15 50/46/15 51/45/15
f 31/47/5 49/48/5 50/46/5
f 25/49/16 49/50/16 52/51/16
f 34/52/17 36/53/17 33/54/17
f 37/55/18 39/56/18 38/57/18
f 53/28/3 38/57/3 54/58/3
f 54/58/19 39/56/19 55/31/19
f 39/56/5 56/33/5 55/31/5
f 33/30/20 56/59/20 53/28/20
f 42/60/21 44/61/21 41/62/21
f 48/63/22 46/64/22 45/65/22
f 45/66/3 58/67/3 57/68/3
f 46/69/23 59/70/23 58/67/23
f 59/70/5 48/71/5 60/72/5
f 57/68/24 44/73/24 60/74/24
f 52/43/25 32/75/25 29/76/25
f 13/77/3 66/78/3 65/79/3
f 14/80/26 67/81/26 66/78/26
f 67/81/5 16/82/5 68/83/5
f 65/84/27 12/85/27 68/83/27
f 21/86/3 62/87/3 61/88/3
f 62/89/28 23/90/28 63/91/28
f 63/92/5 24/93/5 64/94/5
f 17/95/29 64/96/29 61/97/29
f 45/66/30 60/74/30 48/98/30
f 59/70/5 44/99/5 43/100/5
f 58/67/31 43/100/31 42/101/31
f 41/102/3 58/67/3 42/101/3
f 61/97/32 24/103/32 21/104/32
f 63/92/5 20/105/5 19/106/5
f 18/107/33 63/91/33 19/108/33
f 17/109/3 62/87/3 18/110/3
f 65/84/34 16/82/34 13/111/34
f 67/81/5 12/85/5 11/112/5
f 66/78/35 11/112/35 10/113/35
f 9/114/3 66/78/3 10/113/3
f 27/115/5 49/116/5 28/117/5
f 51/118/36 27/115/36 26/119/36
f 52/51/3 26/119/3 25/49/3
f 2/1/1 3/120/1 4/2/1
f 5/4/2 8/121/2 7/5/2
f 5/7/3 6/6/3 2/8/3
f 6/6/4 7/5/4 3/10/4
f 3/10/5 7/5/5 8/11/5
f 1/13/6 4/122/6 8/14/6
f 9/16/37 10/123/37 11/17/37
f 13/19/38 16/124/38 15/20/38
f 18/22/9 19/125/9 20/23/9
f 24/25/10 23/126/10 22/26/10
f 53/28/3 54/58/3 34/29/3
f 34/29/39 54/58/39 55/31/39
f 35/32/5 55/31/5 56/33/5
f 53/28/12 56/59/12 40/35/12
f 26/37/13 27/127/13 28/38/13
f 29/40/14 32/128/14 31/41/14
f 52/43/3 29/76/3 30/44/3
f 30/44/15 31/47/15 50/46/15
f 31/47/5 32/129/5 49/48/5
f 25/49/40 28/130/40 49/50/40
f 34/52/17 35/131/17 36/53/17
f 37/55/18 40/132/18 39/56/18
f 53/28/3 37/36/3 38/57/3
f 54/58/41 38/57/41 39/56/41
f 39/56/5 40/133/5 56/33/5
f 33/30/42 36/134/42 56/59/42
f 42/60/21 43/135/21 44/61/21
f 48/63/22 47/136/22 46/64/22
f 45/66/3 46/69/3 58/67/3
f 46/69/43 47/137/43 59/70/43
f 59/70/5 47/137/5 48/71/5
f 57/68/24 41/102/24 44/73/24
f 52/43/44 49/138/44 32/75/44
f 13/77/3 14/80/3 66/78/3
f 14/80/26 15/139/26 67/81/26
f 67/81/5 15/139/5 16/82/5
f 65/84/45 9/140/45 12/85/45
f 21/86/3 22/141/3 62/87/3
f 62/89/46 22/142/46 23/90/46
f 63/92/5 23/143/5 24/93/5
f 17/95/47 20/144/47 64/96/47
f 45/66/30 57/68/30 60/74/30
f 59/70/5 60/72/5 44/99/5
f 58/67/48 59/70/48 43/100/48
f 41/102/3 57/68/3 58/67/3
f 61/97/49 64/96/49 24/103/49
f 63/92/5 64/94/5 20/105/5
f 18/107/50 62/89/50 63/91/50
f 17/109/3 61/88/3 62/87/3
f 65/84/51 68/83/51 16/82/51
f 67/81/5 68/83/5 12/85/5
f 66/78/52 67/81/52 11/112/52
f 9/114/3 65/79/3 66/78/3
f 27/115/5 50/145/5 49/116/5
f 51/118/36 50/145/36 27/115/36
f 52/51/3 51/118/3 26/119/3
