# Blender v2.77 (sub 0) OBJ File: 'minecraft-character.blend'
# www.blender.org
v 0.400000 2.664132 -0.111457
v 0.400000 2.444593 0.657831
v -0.400000 2.444593 0.657831
v -0.400000 2.664132 -0.111457
v 0.400000 3.433419 0.108082
v 0.400000 3.213881 0.877370
v -0.400000 3.213881 0.877369
v -0.400000 3.433419 0.108082
v 0.400000 1.425264 -0.228394
v 0.400000 1.347492 0.162469
v -0.400000 1.347579 0.163606
v -0.400000 1.427452 -0.228338
v 0.400000 2.607358 0.080424
v 0.400000 2.486169 0.461623
v -0.400000 2.486169 0.461623
v -0.400000 2.607353 0.080337
v 0.825781 1.998339 1.263968
v 0.835524 2.386938 1.358288
v 0.435779 2.393939 1.370734
v 0.426036 2.005341 1.276414
v 0.794457 2.281853 0.098421
v 0.804197 2.670479 0.192629
v 0.404452 2.677480 0.205075
v 0.394712 2.288854 0.110867
v 0.398663 0.200319 -0.273482
v 0.398663 0.172709 0.125564
v -0.001337 0.172709 0.125564
v -0.001337 0.200319 -0.273482
v 0.398663 1.385811 -0.229208
v 0.398663 1.384290 0.170790
v -0.001337 1.384290 0.170789
v -0.001337 1.385811 -0.229208
v -0.002092 0.199696 -0.271291
v -0.002092 0.173518 0.127851
v -0.402092 0.173518 0.127851
v -0.402092 0.199696 -0.271291
v -0.002092 1.386053 -0.229189
v -0.002092 1.384532 0.170808
v -0.402092 1.384532 0.170808
v -0.402092 1.386053 -0.229189
v -0.427111 2.008625 1.278865
v -0.437872 2.397699 1.371091
v -0.837558 2.389922 1.357265
v -0.826797 2.000848 1.265038
v -0.392195 2.289303 0.111630
v -0.403015 2.677901 0.205836
v -0.802701 2.670124 0.192009
v -0.791880 2.281526 0.097804
v -0.001337 0.792105 -0.231768
v -0.001337 0.777786 0.167743
v 0.398663 0.777786 0.167743
v 0.398663 0.792346 -0.231778
v -0.002092 0.792233 -0.231748
v -0.002092 0.778385 0.167822
v -0.402092 0.778384 0.167822
v -0.402092 0.792233 -0.231748
v -0.409612 2.147480 0.694891
v -0.420403 2.536315 0.788110
v -0.820088 2.528539 0.774281
v -0.809297 2.139703 0.681065
v 0.810121 2.140180 0.681214
v 0.819863 2.528792 0.775479
v 0.420118 2.535793 0.787925
v 0.410376 2.147182 0.693660
v 0.400000 2.025495 -0.104934
v 0.400000 1.924933 0.281626
v -0.400000 1.924933 0.281627
v -0.400000 2.025462 -0.104952
vt 0.3750 0.8750
vt 0.2500 1.0000
vt 0.3750 1.0000
vt 0.2500 1.0000
vt 0.1250 0.8750
vt 0.2500 0.8750
vt 0.3750 0.8750
vt 0.2500 0.7500
vt 0.3750 0.7500
vt 0.1250 0.7500
vt 0.0000 0.8750
vt 0.0000 0.7500
vt 0.5000 0.7500
vt 0.3750 0.8750
vt 0.5000 0.8750
vt 0.4375 0.7500
vt 0.5625 0.6875
vt 0.4375 0.6875
vt 0.4375 0.6875
vt 0.3125 0.7500
vt 0.4375 0.7500
vt 0.8124 0.6876
vt 0.7501 0.7499
vt 0.8124 0.7499
vt 0.6876 0.6876
vt 0.7499 0.7499
vt 0.6876 0.7499
vt 0.1875 0.5938
vt 0.1250 0.5000
vt 0.1875 0.5000
vt 0.0625 0.5938
vt 0.0625 0.5000
vt 0.0000 0.5938
vt -0.0000 0.5000
vt 0.1875 0.6875
vt 0.2500 0.5938
vt 0.2500 0.6875
vt 0.1250 0.6875
vt 0.1875 0.7500
vt 0.1250 0.7500
vt 0.1250 0.7500
vt 0.0625 0.6875
vt 0.1250 0.6875
vt 0.1875 0.5938
vt 0.1250 0.6875
vt 0.1250 0.5938
vt 0.0625 0.6875
vt 0.0625 0.5938
vt 0.0000 0.5938
vt 0.1875 0.5000
vt 0.2500 0.5469
vt 0.1875 0.5469
vt 0.1250 0.7500
vt 0.1875 0.6875
vt 0.1875 0.7500
vt 0.1250 0.7500
vt 0.0625 0.6875
vt 0.1250 0.6875
vt 0.1250 0.5938
vt 0.8126 0.6875
vt 0.7501 0.7500
vt 0.7501 0.6875
vt 0.7500 0.7500
vt 0.6875 0.6875
vt 0.7500 0.6875
vt 0.8125 0.6875
vt 0.7500 0.5938
vt 0.8125 0.5938
vt 0.7500 0.6875
vt 0.6875 0.5938
vt 0.6250 0.6875
vt 0.6250 0.5938
vt 0.8125 0.5000
vt 0.8750 0.5938
vt 0.2500 0.6875
vt 0.1875 0.6875
vt 0.2500 0.6875
vt 0.3125 0.5937
vt 0.2500 0.5937
vt 0.3125 0.6875
vt 0.4375 0.5937
vt 0.5000 0.6875
vt 0.5000 0.5937
vt 0.6250 0.5937
vt 0.5000 0.5000
vt 0.6874 0.5937
vt 0.6250 0.6873
vt 0.6250 0.5937
vt 0.8749 0.6873
vt 0.8125 0.5937
vt 0.8749 0.5937
vt 0.6875 0.6873
vt 0.7499 0.5937
vt 0.6875 0.5937
vt 0.8124 0.5937
vt 0.7500 0.5001
vt 0.7500 0.5937
vt 0.8750 0.6875
vt 0.6250 0.5000
vt 0.6875 0.5000
vt 0.7500 0.5000
vt 0.7500 0.6873
vt 0.8124 0.6873
vt 0.6875 0.5001
vt 0.7499 0.5001
vt 0.8125 0.5001
vt 0.8749 0.5001
vt 0.6250 0.5001
vt 0.6874 0.5001
vt 0.6250 0.6875
vt 0.4375 0.5000
vt 0.3125 0.5000
vt 0.2500 0.5000
vt 0.0625 0.5000
vt 0.0000 0.5469
vt 0.0000 0.5000
vt 0.1250 0.5000
vt 0.0625 0.5469
vt 0.2500 0.8750
vt 0.1250 1.0000
vt 0.3750 0.7500
vt 0.5625 0.7500
vt 0.3125 0.6875
vt 0.7501 0.6876
vt 0.7499 0.6876
vt 0.1875 0.6875
vt 0.0625 0.7500
vt -0.0000 0.6875
vt 0.2500 0.5000
vt 0.1250 0.6875
vt 0.0625 0.7500
vt 0.0000 0.6875
vt 0.2500 0.5000
vt 0.8126 0.7500
vt 0.6875 0.7500
vt 0.6875 0.6875
vt 0.8750 0.5000
vt 0.2500 0.5938
vt 0.4375 0.6875
vt 0.6250 0.5000
vt 0.6874 0.6873
vt 0.8125 0.6873
vt 0.7499 0.6873
vt 0.8124 0.5001
vt 0.1250 0.5469
vn 0.0000 -0.9616 -0.2744
vn -0.0000 0.9616 0.2744
vn 1.0000 -0.0000 -0.0000
vn 0.0000 -0.2744 0.9616
vn -1.0000 -0.0000 -0.0000
vn 0.0000 0.2744 -0.9616
vn -0.0027 -0.9808 -0.1951
vn -0.0000 0.9530 0.3030
vn 0.0261 -0.2364 0.9713
vn -0.0261 0.2361 -0.9714
vn -0.0000 -0.0659 0.9978
vn 0.0000 0.0043 -1.0000
vn 0.0000 -0.9976 -0.0690
vn -0.0000 1.0000 0.0038
vn -0.0000 -0.0050 1.0000
vn -0.0001 0.0703 -0.9975
vn -0.0000 -0.9979 -0.0654
vn -0.0000 -0.0049 1.0000
vn 0.0000 0.0666 -0.9978
vn -0.0291 -0.2313 0.9724
vn 0.0290 0.2363 -0.9713
vn 0.9992 0.0194 0.0346
vn -0.0270 0.9715 0.2354
vn -0.9992 -0.0194 -0.0346
vn 0.0269 -0.9727 -0.2305
vn 0.0000 -0.3054 0.9522
vn 0.0000 0.2021 -0.9794
vn 0.9994 -0.0175 -0.0311
vn 0.0244 0.9716 0.2355
vn -0.9994 0.0175 0.0311
vn -0.0244 -0.9715 -0.2358
vn 0.0270 -0.9715 -0.2354
vn -0.0269 0.9727 0.2305
vn -0.0243 -0.9716 -0.2355
vn 0.0244 0.9715 0.2358
vn 0.0001 0.3035 -0.9528
vn 0.0014 -0.2021 0.9794
vn -0.0000 -0.0695 0.9976
vn -0.0004 -0.9799 -0.1997
vn -0.0000 0.9530 0.3029
vn 0.0000 0.0703 -0.9975
vn 0.0005 0.2015 -0.9795
vn 0.0243 0.9716 0.2355
vn 0.0000 0.3034 -0.9529
vn 0.0000 -0.2003 0.9797
s off
f 2/1/1 4/2/1 1/3/1
f 5/4/2 7/5/2 6/6/2
f 5/7/3 2/8/3 1/9/3
f 2/8/4 7/5/4 3/10/4
f 3/10/5 8/11/5 4/12/5
f 1/13/6 8/14/6 5/15/6
f 10/16/7 12/17/7 9/18/7
f 13/19/8 15/20/8 14/21/8
f 17/22/9 19/23/9 20/24/9
f 21/25/10 23/26/10 22/27/10
f 53/28/3 34/29/3 33/30/3
f 34/29/11 55/31/11 35/32/11
f 35/32/5 56/33/5 36/34/5
f 37/35/12 56/36/12 40/37/12
f 26/38/13 28/39/13 25/40/13
f 32/41/14 30/42/14 29/43/14
f 52/44/3 30/45/3 51/46/3
f 51/46/15 31/47/15 50/48/15
f 31/47/5 49/49/5 50/48/5
f 25/50/16 49/51/16 52/52/16
f 34/53/17 36/54/17 33/55/17
f 37/56/14 39/57/14 38/58/14
f 53/28/3 38/58/3 54/59/3
f 54/59/18 39/57/18 55/31/18
f 39/57/5 56/33/5 55/31/5
f 33/30/19 56/36/19 53/28/19
f 41/60/20 43/61/20 44/62/20
f 48/63/21 46/64/21 45/65/21
f 45/66/22 58/67/22 57/68/22
f 46/69/23 59/70/23 58/67/23
f 59/70/24 48/71/24 60/72/24
f 41/73/25 60/74/25 57/68/25
f 52/44/12 32/75/12 29/76/12
f 13/77/3 66/78/3 65/79/3
f 14/80/26 67/81/26 66/78/26
f 67/81/5 16/82/5 68/83/5
f 65/84/27 12/85/27 68/83/27
f 61/86/28 22/87/28 62/88/28
f 22/89/29 63/90/29 62/91/29
f 23/92/30 64/93/30 63/94/30
f 61/95/31 20/96/31 64/97/31
f 45/66/32 60/74/32 48/98/32
f 59/70/24 44/99/24 43/100/24
f 58/67/33 43/100/33 42/101/33
f 41/73/22 58/67/22 42/101/22
f 61/95/34 24/102/34 21/103/34
f 19/104/30 64/93/30 20/105/30
f 62/91/35 19/106/35 18/107/35
f 61/86/28 18/108/28 17/109/28
f 65/84/36 16/82/36 13/110/36
f 67/81/5 12/85/5 11/111/5
f 66/78/37 11/111/37 10/112/37
f 9/113/3 66/78/3 10/112/3
f 27/114/5 49/115/5 28/116/5
f 26/117/38 50/118/38 27/114/38
f 52/52/3 26/117/3 25/50/3
f 2/1/1 3/119/1 4/2/1
f 5/4/2 8/120/2 7/5/2
f 5/7/3 6/6/3 2/8/3
f 2/8/4 6/6/4 7/5/4
f 3/10/5 7/5/5 8/11/5
f 1/13/6 4/121/6 8/14/6
f 10/16/39 11/122/39 12/17/39
f 13/19/40 16/123/40 15/20/40
f 17/22/9 18/124/9 19/23/9
f 21/25/10 24/125/10 23/26/10
f 53/28/3 54/59/3 34/29/3
f 34/29/11 54/59/11 55/31/11
f 35/32/5 55/31/5 56/33/5
f 37/35/12 53/28/12 56/36/12
f 26/38/13 27/126/13 28/39/13
f 32/41/14 31/127/14 30/42/14
f 52/44/3 29/76/3 30/45/3
f 51/46/15 30/45/15 31/47/15
f 31/47/5 32/128/5 49/49/5
f 25/50/41 28/129/41 49/51/41
f 34/53/17 35/130/17 36/54/17
f 37/56/14 40/131/14 39/57/14
f 53/28/3 37/35/3 38/58/3
f 54/59/18 38/58/18 39/57/18
f 39/57/5 40/132/5 56/33/5
f 33/30/19 36/133/19 56/36/19
f 41/60/20 42/134/20 43/61/20
f 48/63/21 47/135/21 46/64/21
f 45/66/22 46/69/22 58/67/22
f 46/69/23 47/136/23 59/70/23
f 59/70/24 47/136/24 48/71/24
f 41/73/25 44/137/25 60/74/25
f 52/44/12 49/138/12 32/75/12
f 13/77/3 14/80/3 66/78/3
f 14/80/26 15/139/26 67/81/26
f 67/81/5 15/139/5 16/82/5
f 65/84/42 9/140/42 12/85/42
f 61/86/28 21/141/28 22/87/28
f 22/89/43 23/142/43 63/90/43
f 23/92/30 24/143/30 64/93/30
f 61/95/31 17/144/31 20/96/31
f 45/66/32 57/68/32 60/74/32
f 59/70/24 60/72/24 44/99/24
f 58/67/33 59/70/33 43/100/33
f 41/73/22 57/68/22 58/67/22
f 61/95/34 64/97/34 24/102/34
f 19/104/30 63/94/30 64/93/30
f 62/91/35 63/90/35 19/106/35
f 61/86/28 62/88/28 18/108/28
f 65/84/44 68/83/44 16/82/44
f 67/81/5 68/83/5 12/85/5
f 66/78/45 67/81/45 11/111/45
f 9/113/3 65/79/3 66/78/3
f 27/114/5 50/118/5 49/115/5
f 26/117/38 51/145/38 50/118/38
f 52/52/3 51/145/3 26/117/3
