# Blender v2.77 (sub 0) OBJ File: 'minecraft-character.blend'
# www.blender.org
v 0.400000 2.268833 0.346496
v 0.400000 1.757187 0.961492
v -0.400000 1.757188 0.961492
v -0.400000 2.268833 0.346496
v 0.400000 2.883828 0.858141
v 0.400000 2.372184 1.473137
v -0.400000 2.372184 1.473136
v -0.400000 2.883829 0.858141
v 0.400000 1.125208 -0.229514
v 0.400000 0.958546 0.122582
v -0.400000 0.957612 0.125634
v -0.400000 1.141482 -0.229601
v 0.400000 2.147235 0.506424
v 0.400000 1.866619 0.791477
v -0.400000 1.866620 0.791476
v -0.400000 2.147064 0.505939
v 0.801898 0.831968 0.394006
v 0.801898 0.835790 0.793988
v 0.401898 0.835790 0.793988
v 0.401898 0.831968 0.394006
v 0.801898 2.031853 0.382371
v 0.801898 2.035792 0.782351
v 0.401898 2.035792 0.782351
v 0.401898 2.031853 0.382370
v 0.398663 0.302737 -0.168593
v 0.398663 0.058197 0.147951
v -0.001337 0.058197 0.147951
v -0.001337 0.302737 -0.168593
v 0.398663 0.842752 -0.225662
v 0.398663 1.169080 0.005660
v -0.001337 1.169080 0.005660
v -0.001337 0.842751 -0.225663
v -0.002092 0.301594 -0.171639
v -0.002092 0.056096 0.144163
v -0.402092 0.056096 0.144163
v -0.402092 0.301594 -0.171639
v -0.002092 0.844292 -0.226658
v -0.002092 1.168918 0.007048
v -0.402092 1.168918 0.007048
v -0.402092 0.844292 -0.226658
v -0.400161 0.829631 0.400484
v -0.400161 0.838345 0.800389
v -0.800161 0.838345 0.800388
v -0.800161 0.829630 0.400483
v -0.400161 2.032336 0.382592
v -0.400161 2.035313 0.782581
v -0.800161 2.035313 0.782581
v -0.800161 2.032336 0.382592
v -0.001337 0.631357 0.232258
v -0.001337 0.677555 0.504956
v 0.398663 0.677555 0.504957
v 0.398663 0.636553 0.231048
v -0.002092 0.634515 0.228443
v -0.002092 0.674117 0.503195
v -0.402092 0.674078 0.503197
v -0.402092 0.634511 0.228444
v -0.400161 1.430920 0.387234
v -0.400161 1.436758 0.787180
v -0.800161 1.436766 0.787181
v -0.800161 1.430920 0.387234
v 0.801898 1.431911 0.388276
v 0.801898 1.435791 0.788257
v 0.401898 1.435792 0.788257
v 0.401898 1.431912 0.388276
v 0.400000 1.697066 0.065913
v 0.400000 1.464753 0.385994
v -0.400000 1.464754 0.385997
v -0.400000 1.696968 0.065809
vt 0.3750 0.8750
vt 0.2500 1.0000
vt 0.3750 1.0000
vt 0.1250 1.0000
vt 0.2500 0.8750
vt 0.2500 1.0000
vt 0.3750 0.8750
vt 0.2500 0.7500
vt 0.3750 0.7500
vt 0.1250 0.7500
vt 0.1250 0.8750
vt 0.0000 0.7500
vt 0.5000 0.7500
vt 0.3750 0.8750
vt 0.5000 0.8750
vt 0.4375 0.6875
vt 0.5625 0.7500
vt 0.5625 0.6875
vt 0.4375 0.6875
vt 0.3125 0.7500
vt 0.4375 0.7500
vt 0.7501 0.6876
vt 0.8124 0.7499
vt 0.8124 0.6876
vt 0.7499 0.6876
vt 0.6876 0.7499
vt 0.6876 0.6876
vt 0.1875 0.5938
vt 0.1250 0.5000
vt 0.1875 0.5000
vt 0.0625 0.5938
vt 0.0625 0.5000
vt 0.0000 0.5938
vt -0.0000 0.5000
vt 0.2500 0.6875
vt 0.1875 0.6875
vt 0.1250 0.6875
vt 0.1875 0.7500
vt 0.1250 0.7500
vt 0.1250 0.6875
vt 0.0625 0.7500
vt 0.0625 0.6875
vt 0.1875 0.5938
vt 0.1250 0.6875
vt 0.1250 0.5938
vt 0.0625 0.5938
vt 0.0625 0.6875
vt 0.0000 0.5938
vt 0.1875 0.5000
vt 0.2500 0.5469
vt 0.1875 0.5469
vt 0.1250 0.7500
vt 0.1875 0.6875
vt 0.1875 0.7500
vt 0.0625 0.7500
vt 0.1250 0.6875
vt 0.1250 0.7500
vt 0.1250 0.5938
vt 0.0625 0.6875
vt 0.2500 0.5938
vt 0.8126 0.7500
vt 0.7501 0.6875
vt 0.8126 0.6875
vt 0.7500 0.6875
vt 0.6875 0.7500
vt 0.6875 0.6875
vt 0.8125 0.6875
vt 0.7500 0.5938
vt 0.8125 0.5938
vt 0.7500 0.6875
vt 0.6875 0.5938
vt 0.6250 0.6875
vt 0.6250 0.5938
vt 0.8125 0.5000
vt 0.8750 0.5938
vt 0.2500 0.6875
vt 0.1875 0.6875
vt 0.2500 0.6875
vt 0.3125 0.5937
vt 0.2500 0.5937
vt 0.3125 0.6875
vt 0.4375 0.5937
vt 0.5000 0.6875
vt 0.5000 0.5937
vt 0.6250 0.5937
vt 0.5000 0.5000
vt 0.6874 0.5937
vt 0.6250 0.6873
vt 0.6250 0.5937
vt 0.8749 0.6873
vt 0.8125 0.5937
vt 0.8749 0.5937
vt 0.6875 0.6873
vt 0.7499 0.5937
vt 0.6875 0.5937
vt 0.8124 0.5937
vt 0.7500 0.5001
vt 0.7500 0.5937
vt 0.8750 0.6875
vt 0.6250 0.5000
vt 0.6875 0.5000
vt 0.7500 0.5000
vt 0.8124 0.6873
vt 0.7500 0.6873
vt 0.6875 0.5001
vt 0.7499 0.5001
vt 0.8125 0.5001
vt 0.8749 0.5001
vt 0.6250 0.5001
vt 0.6874 0.5001
vt 0.6250 0.6875
vt 0.4375 0.5000
vt 0.3125 0.5000
vt 0.2500 0.5000
vt 0.0625 0.5000
vt 0.0000 0.5469
vt 0.0000 0.5000
vt 0.1250 0.5469
vt 0.1250 0.5000
vt 0.2500 0.8750
vt 0.0000 0.8750
vt 0.3750 0.7500
vt 0.4375 0.7500
vt 0.3125 0.6875
vt 0.7501 0.7499
vt 0.7499 0.7499
vt 0.1875 0.6875
vt 0.1250 0.7500
vt -0.0000 0.6875
vt 0.2500 0.5000
vt 0.1250 0.6875
vt 0.0000 0.6875
vt 0.2500 0.5000
vt 0.7501 0.7500
vt 0.7500 0.7500
vt 0.6875 0.6875
vt 0.8750 0.5000
vt 0.2500 0.5938
vt 0.4375 0.6875
vt 0.6250 0.5000
vt 0.6874 0.6873
vt 0.8125 0.6873
vt 0.7499 0.6873
vt 0.8124 0.5001
vt 0.0625 0.5469
vn 0.0000 -0.7687 -0.6396
vn 0.0000 0.7687 0.6396
vn 1.0000 -0.0000 -0.0000
vn -0.0000 -0.6396 0.7687
vn -1.0000 0.0000 -0.0000
vn 0.0000 0.6396 -0.7687
vn -0.0180 -0.8879 -0.4596
vn -0.0000 0.7126 0.7015
vn -0.0000 -1.0000 0.0096
vn 0.0000 1.0000 -0.0098
vn 0.0000 -0.5024 0.8647
vn 0.0000 -0.9082 -0.4186
vn 0.0000 -0.7914 -0.6114
vn 0.0000 0.5783 -0.8158
vn -0.0119 0.7674 -0.6410
vn 0.0000 -0.7895 -0.6137
vn 0.0000 0.5843 -0.8116
vn -0.0001 0.7080 0.7062
vn -0.0000 0.7687 -0.6396
vn 0.0000 -0.9998 0.0218
vn 0.0000 1.0000 -0.0074
vn 0.0000 0.0077 1.0000
vn 0.0000 -0.0220 -0.9998
vn 0.0000 -0.9114 -0.4115
vn 0.0000 -0.7103 0.7039
vn 0.0001 0.4695 -0.8829
vn -0.0000 0.0098 1.0000
vn 0.0000 -0.0096 -1.0000
vn 0.0000 -0.0077 -1.0000
vn -0.0000 0.0221 0.9998
vn 0.0000 -0.0098 -1.0000
vn -0.0000 0.0096 1.0000
vn 0.0003 0.6994 -0.7147
vn 0.0039 -0.4616 0.8871
vn 0.0000 -0.4994 0.8664
vn -0.0006 -0.9039 -0.4278
vn -0.0006 0.7134 0.7007
vn 0.0001 -0.5023 0.8647
vn 0.0000 0.7733 -0.6340
vn -0.0000 0.7081 0.7061
vn 0.0105 -0.9079 -0.4191
vn 0.0094 0.4590 -0.8884
vn 0.0000 0.6991 -0.7150
vn 0.0000 -0.4567 0.8896
s off
f 2/1/1 4/2/1 1/3/1
f 8/4/2 6/5/2 5/6/2
f 5/7/3 2/8/3 1/9/3
f 6/5/4 3/10/4 2/8/4
f 7/11/5 4/12/5 3/10/5
f 1/13/6 8/14/6 5/15/6
f 9/16/7 11/17/7 12/18/7
f 13/19/8 15/20/8 14/21/8
f 18/22/9 20/23/9 17/24/9
f 24/25/10 22/26/10 21/27/10
f 53/28/3 34/29/3 33/30/3
f 34/29/11 55/31/11 35/32/11
f 35/32/5 56/33/5 36/34/5
f 53/28/12 40/35/12 37/36/12
f 26/37/13 28/38/13 25/39/13
f 29/40/14 31/41/14 30/42/14
f 52/43/3 30/44/3 51/45/3
f 30/44/8 50/46/8 51/45/8
f 31/47/5 49/48/5 50/46/5
f 25/49/15 49/50/15 52/51/15
f 34/52/16 36/53/16 33/54/16
f 40/55/17 38/56/17 37/57/17
f 53/28/3 38/56/3 54/58/3
f 54/58/18 39/59/18 55/31/18
f 39/59/5 56/33/5 55/31/5
f 33/30/19 56/60/19 53/28/19
f 42/61/20 44/62/20 41/63/20
f 45/64/21 47/65/21 46/66/21
f 45/67/3 58/68/3 57/69/3
f 46/70/22 59/71/22 58/68/22
f 59/71/5 48/72/5 60/73/5
f 41/74/23 60/75/23 57/69/23
f 52/43/24 32/76/24 29/77/24
f 13/78/3 66/79/3 65/80/3
f 14/81/25 67/82/25 66/79/25
f 67/82/5 16/83/5 68/84/5
f 65/85/26 12/86/26 68/84/26
f 61/87/3 22/88/3 62/89/3
f 22/90/27 63/91/27 62/92/27
f 23/93/5 64/94/5 63/95/5
f 61/96/28 20/97/28 64/98/28
f 57/69/29 48/99/29 45/67/29
f 59/71/5 44/100/5 43/101/5
f 58/68/30 43/101/30 42/102/30
f 41/74/3 58/68/3 42/102/3
f 21/103/31 64/98/31 24/104/31
f 19/105/5 64/94/5 20/106/5
f 62/92/32 19/107/32 18/108/32
f 61/87/3 18/109/3 17/110/3
f 65/85/33 16/83/33 13/111/33
f 67/82/5 12/86/5 11/112/5
f 66/79/34 11/112/34 10/113/34
f 9/114/3 66/79/3 10/113/3
f 27/115/5 49/116/5 28/117/5
f 51/118/35 27/115/35 26/119/35
f 52/51/3 26/119/3 25/49/3
f 2/1/1 3/120/1 4/2/1
f 8/4/2 7/11/2 6/5/2
f 5/7/3 6/5/3 2/8/3
f 6/5/4 7/11/4 3/10/4
f 7/11/5 8/121/5 4/12/5
f 1/13/6 4/122/6 8/14/6
f 9/16/36 10/123/36 11/17/36
f 13/19/37 16/124/37 15/20/37
f 18/22/9 19/125/9 20/23/9
f 24/25/10 23/126/10 22/26/10
f 53/28/3 54/58/3 34/29/3
f 34/29/38 54/58/38 55/31/38
f 35/32/5 55/31/5 56/33/5
f 53/28/12 56/60/12 40/35/12
f 26/37/13 27/127/13 28/38/13
f 29/40/14 32/128/14 31/41/14
f 52/43/3 29/77/3 30/44/3
f 30/44/8 31/47/8 50/46/8
f 31/47/5 32/129/5 49/48/5
f 25/49/39 28/130/39 49/50/39
f 34/52/16 35/131/16 36/53/16
f 40/55/17 39/59/17 38/56/17
f 53/28/3 37/36/3 38/56/3
f 54/58/40 38/56/40 39/59/40
f 39/59/5 40/132/5 56/33/5
f 33/30/19 36/133/19 56/60/19
f 42/61/20 43/134/20 44/62/20
f 45/64/21 48/135/21 47/65/21
f 45/67/3 46/70/3 58/68/3
f 46/70/22 47/136/22 59/71/22
f 59/71/5 47/136/5 48/72/5
f 41/74/23 44/137/23 60/75/23
f 52/43/41 49/138/41 32/76/41
f 13/78/3 14/81/3 66/79/3
f 14/81/25 15/139/25 67/82/25
f 67/82/5 15/139/5 16/83/5
f 65/85/42 9/140/42 12/86/42
f 61/87/3 21/141/3 22/88/3
f 22/90/27 23/142/27 63/91/27
f 23/93/5 24/143/5 64/94/5
f 61/96/28 17/144/28 20/97/28
f 57/69/29 60/75/29 48/99/29
f 59/71/5 60/73/5 44/100/5
f 58/68/30 59/71/30 43/101/30
f 41/74/3 57/69/3 58/68/3
f 21/103/31 61/96/31 64/98/31
f 19/105/5 63/95/5 64/94/5
f 62/92/32 63/91/32 19/107/32
f 61/87/3 62/89/3 18/109/3
f 65/85/43 68/84/43 16/83/43
f 67/82/5 68/84/5 12/86/5
f 66/79/44 67/82/44 11/112/44
f 9/114/3 65/80/3 66/79/3
f 27/115/5 50/145/5 49/116/5
f 51/118/35 50/145/35 27/115/35
f 52/51/3 51/118/3 26/119/3
