# Blender v2.77 (sub 0) OBJ File: 'minecraft-character.blend'
# www.blender.org
v 0.400000 2.151919 0.356412
v 0.400000 1.619307 0.953341
v -0.400000 1.619307 0.953341
v -0.400000 2.151919 0.356412
v 0.400000 2.748848 0.889025
v 0.400000 2.216236 1.485954
v -0.400000 2.216236 1.485954
v -0.400000 2.748848 0.889025
v 0.400000 1.023525 -0.254177
v 0.400000 0.850925 0.091959
v -0.400000 0.849844 0.095131
v -0.400000 1.042091 -0.255641
v 0.400000 2.025442 0.512653
v 0.400000 1.733975 0.786600
v -0.400000 1.733975 0.786600
v -0.400000 2.025204 0.512130
v 0.801898 1.893693 -0.540166
v 0.801898 1.496076 -0.496574
v 0.401898 1.496076 -0.496574
v 0.401898 1.893694 -0.540166
v 0.801898 2.024632 0.652610
v 0.801898 1.627027 0.696319
v 0.401898 1.627027 0.696319
v 0.401898 2.024632 0.652610
v 0.398663 0.316374 -0.163841
v 0.398663 0.055869 0.139701
v -0.001337 0.055869 0.139701
v -0.001337 0.316374 -0.163841
v 0.398663 0.702118 -0.226138
v 0.398663 1.069252 -0.067352
v -0.001337 1.069251 -0.067352
v -0.001337 0.702118 -0.226138
v -0.002092 0.314079 -0.165772
v -0.002092 0.053038 0.137308
v -0.402092 0.053038 0.137308
v -0.402092 0.314079 -0.165772
v -0.002092 0.703465 -0.227472
v -0.002092 1.069380 -0.065898
v -0.402092 1.069380 -0.065898
v -0.402092 0.703465 -0.227472
v -0.400161 1.896957 -0.541231
v -0.400161 1.499503 -0.496171
v -0.800161 1.499503 -0.496170
v -0.800161 1.896957 -0.541231
v -0.400161 2.023786 0.655046
v -0.400161 1.625698 0.694109
v -0.800161 1.625698 0.694109
v -0.800161 2.023786 0.655046
v -0.001337 0.612021 0.277577
v -0.001337 0.671128 0.506903
v 0.398663 0.671128 0.506903
v 0.398663 0.617696 0.275776
v -0.002092 0.614901 0.273595
v -0.002092 0.667382 0.505916
v -0.402092 0.667338 0.505922
v -0.402092 0.614897 0.273596
v -0.400161 1.964870 0.056432
v -0.400161 1.567099 0.098485
v -0.800161 1.567099 0.098494
v -0.800161 1.964870 0.056432
v 0.801898 1.959075 0.056232
v 0.801898 1.561464 0.099881
v 0.401898 1.561464 0.099882
v 0.401898 1.959076 0.056232
v 0.400000 1.591457 0.054156
v 0.400000 1.349528 0.366448
v -0.400000 1.349530 0.366451
v -0.400000 1.591349 0.054044
vt 0.3750 0.8750
vt 0.2500 1.0000
vt 0.3750 1.0000
vt 0.1250 1.0000
vt 0.2500 0.8750
vt 0.2500 1.0000
vt 0.3750 0.8750
vt 0.2500 0.7500
vt 0.3750 0.7500
vt 0.1250 0.7500
vt 0.1250 0.8750
vt 0.0000 0.7500
vt 0.5000 0.7500
vt 0.3750 0.8750
vt 0.5000 0.8750
vt 0.4375 0.6875
vt 0.5625 0.7500
vt 0.5625 0.6875
vt 0.4375 0.6875
vt 0.3125 0.7500
vt 0.4375 0.7500
vt 0.8124 0.6876
vt 0.7501 0.7499
vt 0.8124 0.7499
vt 0.7499 0.6876
vt 0.6876 0.7499
vt 0.6876 0.6876
vt 0.1875 0.5938
vt 0.1250 0.5000
vt 0.1875 0.5000
vt 0.0625 0.5938
vt 0.0625 0.5000
vt 0.0000 0.5938
vt -0.0000 0.5000
vt 0.2500 0.6875
vt 0.1875 0.6875
vt 0.1250 0.6875
vt 0.1875 0.7500
vt 0.1250 0.7500
vt 0.1250 0.7500
vt 0.0625 0.6875
vt 0.1250 0.6875
vt 0.1875 0.5938
vt 0.1250 0.6875
vt 0.1250 0.5938
vt 0.0625 0.5938
vt 0.0625 0.6875
vt 0.0000 0.5938
vt 0.1875 0.5000
vt 0.2500 0.5469
vt 0.1875 0.5469
vt 0.1250 0.7500
vt 0.1875 0.6875
vt 0.1875 0.7500
vt 0.0625 0.7500
vt 0.1250 0.6875
vt 0.1250 0.7500
vt 0.1250 0.5938
vt 0.0625 0.6875
vt 0.2500 0.5938
vt 0.8126 0.7500
vt 0.7501 0.6875
vt 0.8126 0.6875
vt 0.7500 0.7500
vt 0.6875 0.6875
vt 0.7500 0.6875
vt 0.8125 0.6875
vt 0.7500 0.5938
vt 0.8125 0.5938
vt 0.7500 0.6875
vt 0.6875 0.5938
vt 0.6250 0.6875
vt 0.6250 0.5938
vt 0.8125 0.5000
vt 0.8750 0.5938
vt 0.2500 0.6875
vt 0.1875 0.6875
vt 0.2500 0.6875
vt 0.3125 0.5937
vt 0.2500 0.5937
vt 0.3125 0.6875
vt 0.4375 0.5937
vt 0.5000 0.6875
vt 0.5000 0.5937
vt 0.6250 0.5937
vt 0.5000 0.5000
vt 0.6874 0.5937
vt 0.6250 0.6873
vt 0.6250 0.5937
vt 0.8749 0.6873
vt 0.8125 0.5937
vt 0.8749 0.5937
vt 0.6875 0.6873
vt 0.7499 0.5937
vt 0.6875 0.5937
vt 0.8124 0.5937
vt 0.7500 0.5001
vt 0.7500 0.5937
vt 0.8750 0.6875
vt 0.6250 0.5000
vt 0.6875 0.5000
vt 0.7500 0.5000
vt 0.8124 0.6873
vt 0.7500 0.6873
vt 0.6875 0.5001
vt 0.7499 0.5001
vt 0.8125 0.5001
vt 0.8749 0.5001
vt 0.6250 0.5001
vt 0.6874 0.5001
vt 0.6250 0.6875
vt 0.4375 0.5000
vt 0.3125 0.5000
vt 0.2500 0.5000
vt 0.0625 0.5000
vt 0.0000 0.5469
vt 0.0000 0.5000
vt 0.1250 0.5469
vt 0.1250 0.5000
vt 0.2500 0.8750
vt 0.0000 0.8750
vt 0.3750 0.7500
vt 0.4375 0.7500
vt 0.3125 0.6875
vt 0.7501 0.6876
vt 0.7499 0.7499
vt 0.1875 0.6875
vt 0.0625 0.7500
vt -0.0000 0.6875
vt 0.2500 0.5000
vt 0.1250 0.6875
vt 0.0000 0.6875
vt 0.2500 0.5000
vt 0.7501 0.7500
vt 0.6875 0.7500
vt 0.6875 0.6875
vt 0.8750 0.5000
vt 0.2500 0.5938
vt 0.4375 0.6875
vt 0.6250 0.5000
vt 0.6874 0.6873
vt 0.8125 0.6873
vt 0.7499 0.6873
vt 0.8124 0.5001
vt 0.0625 0.5469
vn 0.0000 -0.7462 -0.6658
vn -0.0000 0.7462 0.6658
vn 1.0000 -0.0000 -0.0000
vn 0.0000 -0.6658 0.7462
vn -1.0000 0.0000 -0.0000
vn 0.0000 0.6658 -0.7462
vn -0.0195 -0.8768 -0.4805
vn -0.0000 0.6849 0.7287
vn 0.0000 -0.1090 -0.9940
vn 0.0000 0.1093 0.9940
vn 0.0000 -0.5145 0.8575
vn 0.0000 -0.9847 -0.1741
vn 0.0000 -0.7589 -0.6513
vn 0.0000 0.3970 -0.9178
vn -0.0000 0.8218 0.5698
vn -0.0142 0.8248 -0.5653
vn 0.0000 -0.7577 -0.6526
vn 0.0000 0.4039 -0.9148
vn -0.0001 0.8180 0.5752
vn -0.0000 0.8251 -0.5649
vn -0.0000 -0.1127 -0.9936
vn 0.0000 0.0977 0.9952
vn 0.0000 -0.9952 0.0979
vn 0.0000 0.9936 -0.1129
vn 0.0000 -0.9861 -0.1659
vn 0.0000 -0.7378 0.6751
vn 0.0001 0.4911 -0.8711
vn 0.0000 -0.9940 0.1093
vn 0.0000 0.9940 -0.1090
vn 0.0000 0.9952 -0.0979
vn 0.0000 -0.9936 0.1129
vn 0.0000 0.9940 -0.1093
vn -0.0000 -0.9940 0.1090
vn 0.0002 0.7263 -0.6874
vn 0.0041 -0.4823 0.8760
vn 0.0000 -0.5125 0.8587
vn -0.0006 -0.8949 -0.4462
vn -0.0007 0.6859 0.7277
vn 0.0001 -0.5145 0.8575
vn 0.0000 0.8309 -0.5565
vn -0.0000 0.8181 0.5751
vn 0.0132 -0.9843 -0.1761
vn 0.0127 0.4771 -0.8788
vn -0.0000 0.7260 -0.6876
vn 0.0000 -0.4772 0.8788
s off
f 2/1/1 4/2/1 1/3/1
f 8/4/2 6/5/2 5/6/2
f 5/7/3 2/8/3 1/9/3
f 6/5/4 3/10/4 2/8/4
f 7/11/5 4/12/5 3/10/5
f 1/13/6 8/14/6 5/15/6
f 9/16/7 11/17/7 12/18/7
f 13/19/8 15/20/8 14/21/8
f 17/22/9 19/23/9 20/24/9
f 24/25/10 22/26/10 21/27/10
f 53/28/3 34/29/3 33/30/3
f 34/29/11 55/31/11 35/32/11
f 35/32/5 56/33/5 36/34/5
f 53/28/12 40/35/12 37/36/12
f 26/37/13 28/38/13 25/39/13
f 32/40/14 30/41/14 29/42/14
f 52/43/3 30/44/3 51/45/3
f 30/44/15 50/46/15 51/45/15
f 31/47/5 49/48/5 50/46/5
f 25/49/16 49/50/16 52/51/16
f 34/52/17 36/53/17 33/54/17
f 40/55/18 38/56/18 37/57/18
f 53/28/3 38/56/3 54/58/3
f 54/58/19 39/59/19 55/31/19
f 39/59/5 56/33/5 55/31/5
f 33/30/20 56/60/20 53/28/20
f 42/61/21 44/62/21 41/63/21
f 48/64/22 46/65/22 45/66/22
f 45/67/3 58/68/3 57/69/3
f 46/70/23 59/71/23 58/68/23
f 59/71/5 48/72/5 60/73/5
f 41/74/24 60/75/24 57/69/24
f 52/43/25 32/76/25 29/77/25
f 13/78/3 66/79/3 65/80/3
f 14/81/26 67/82/26 66/79/26
f 67/82/5 16/83/5 68/84/5
f 65/85/27 12/86/27 68/84/27
f 61/87/3 22/88/3 62/89/3
f 22/90/28 63/91/28 62/92/28
f 23/93/5 64/94/5 63/95/5
f 61/96/29 20/97/29 64/98/29
f 57/69/30 48/99/30 45/67/30
f 59/71/5 44/100/5 43/101/5
f 58/68/31 43/101/31 42/102/31
f 41/74/3 58/68/3 42/102/3
f 21/103/32 64/98/32 24/104/32
f 19/105/5 64/94/5 20/106/5
f 62/92/33 19/107/33 18/108/33
f 61/87/3 18/109/3 17/110/3
f 65/85/34 16/83/34 13/111/34
f 67/82/5 12/86/5 11/112/5
f 66/79/35 11/112/35 10/113/35
f 9/114/3 66/79/3 10/113/3
f 27/115/5 49/116/5 28/117/5
f 51/118/36 27/115/36 26/119/36
f 52/51/3 26/119/3 25/49/3
f 2/1/1 3/120/1 4/2/1
f 8/4/2 7/11/2 6/5/2
f 5/7/3 6/5/3 2/8/3
f 6/5/4 7/11/4 3/10/4
f 7/11/5 8/121/5 4/12/5
f 1/13/6 4/122/6 8/14/6
f 9/16/37 10/123/37 11/17/37
f 13/19/38 16/124/38 15/20/38
f 17/22/9 18/125/9 19/23/9
f 24/25/10 23/126/10 22/26/10
f 53/28/3 54/58/3 34/29/3
f 34/29/39 54/58/39 55/31/39
f 35/32/5 55/31/5 56/33/5
f 53/28/12 56/60/12 40/35/12
f 26/37/13 27/127/13 28/38/13
f 32/40/14 31/128/14 30/41/14
f 52/43/3 29/77/3 30/44/3
f 30/44/15 31/47/15 50/46/15
f 31/47/5 32/129/5 49/48/5
f 25/49/40 28/130/40 49/50/40
f 34/52/17 35/131/17 36/53/17
f 40/55/18 39/59/18 38/56/18
f 53/28/3 37/36/3 38/56/3
f 54/58/41 38/56/41 39/59/41
f 39/59/5 40/132/5 56/33/5
f 33/30/20 36/133/20 56/60/20
f 42/61/21 43/134/21 44/62/21
f 48/64/22 47/135/22 46/65/22
f 45/67/3 46/70/3 58/68/3
f 46/70/23 47/136/23 59/71/23
f 59/71/5 47/136/5 48/72/5
f 41/74/24 44/137/24 60/75/24
f 52/43/42 49/138/42 32/76/42
f 13/78/3 14/81/3 66/79/3
f 14/81/26 15/139/26 67/82/26
f 67/82/5 15/139/5 16/83/5
f 65/85/43 9/140/43 12/86/43
f 61/87/3 21/141/3 22/88/3
f 22/90/28 23/142/28 63/91/28
f 23/93/5 24/143/5 64/94/5
f 61/96/29 17/144/29 20/97/29
f 57/69/30 60/75/30 48/99/30
f 59/71/5 60/73/5 44/100/5
f 58/68/31 59/71/31 43/101/31
f 41/74/3 57/69/3 58/68/3
f 21/103/32 61/96/32 64/98/32
f 19/105/5 63/95/5 64/94/5
f 62/92/33 63/91/33 19/107/33
f 61/87/3 62/89/3 18/109/3
f 65/85/44 68/84/44 16/83/44
f 67/82/5 68/84/5 12/86/5
f 66/79/45 67/82/45 11/112/45
f 9/114/3 65/80/3 66/79/3
f 27/115/5 50/145/5 49/116/5
f 51/118/36 50/145/36 27/115/36
f 52/51/3 51/118/3 26/119/3
