# Blender v2.77 (sub 0) OBJ File: 'minecraft-character.blend'
# www.blender.org
v 0.400000 1.972503 1.281975
v 0.400000 1.352958 0.775849
v -0.400000 1.352958 0.775849
v -0.400000 1.972504 1.281975
v 0.400000 1.466377 1.901521
v 0.400000 0.846832 1.395394
v -0.400000 0.846832 1.395394
v -0.400000 1.466377 1.901520
v 0.400000 2.488705 0.085988
v 0.400000 2.123910 -0.041083
v -0.400000 2.120013 -0.042019
v -0.400000 2.491790 0.105569
v 0.400000 1.813337 1.159885
v 0.400000 1.522105 0.885687
v -0.400000 1.522105 0.885687
v -0.400000 1.813854 1.159492
v 0.801898 2.242668 -0.052762
v 0.801898 1.856314 -0.156349
v 0.401898 1.856313 -0.156349
v 0.401898 2.242668 -0.052762
v 0.801898 1.890913 1.107842
v 0.801898 1.512369 0.978596
v 0.401898 1.512370 0.978596
v 0.401898 1.890913 1.107842
v 0.398663 1.891461 -0.708965
v 0.398663 1.503175 -0.612869
v -0.001337 1.503175 -0.612869
v -0.001337 1.891461 -0.708965
v 0.398663 2.433140 -0.251255
v 0.398663 2.425318 0.148669
v -0.001337 2.425318 0.148669
v -0.001337 2.433140 -0.251255
v -0.002092 1.893574 -0.710210
v -0.002092 1.504987 -0.615340
v -0.402092 1.504988 -0.615340
v -0.402092 1.893574 -0.710210
v -0.002092 2.434036 -0.250922
v -0.002092 2.424892 0.148974
v -0.402092 2.424892 0.148974
v -0.402092 2.434036 -0.250922
v -0.400161 2.246297 -0.051825
v -0.400161 1.859738 -0.154646
v -0.800161 1.859738 -0.154646
v -0.800161 2.246297 -0.051825
v -0.400161 1.889326 1.109473
v -0.400161 1.512134 0.976332
v -0.800161 1.512134 0.976332
v -0.800161 1.889326 1.109473
v -0.001337 1.930621 -0.197331
v -0.001337 1.736376 0.053247
v 0.398663 1.736376 0.053247
v 0.398663 1.934353 -0.194815
v -0.002092 1.935036 -0.195984
v -0.002092 1.736195 0.051422
v -0.402092 1.736171 0.051399
v -0.402092 1.935033 -0.195986
v -0.400161 2.090551 0.535849
v -0.400161 1.708694 0.417828
v -0.800161 1.708676 0.417868
v -0.800161 2.090551 0.535849
v 0.801898 2.086044 0.533348
v 0.801898 1.703514 0.417150
v 0.401898 1.703570 0.417018
v 0.401898 2.086057 0.533283
v 0.400000 2.247450 0.693228
v 0.400000 1.916019 0.482242
v -0.400000 1.916016 0.482244
v -0.400000 2.247564 0.693084
vt 0.3750 0.8750
vt 0.2500 1.0000
vt 0.3750 1.0000
vt 0.1250 1.0000
vt 0.2500 0.8750
vt 0.2500 1.0000
vt 0.3750 0.7500
vt 0.2500 0.7500
vt 0.1250 0.7500
vt 0.1250 0.8750
vt 0.0000 0.7500
vt 0.5000 0.7500
vt 0.3750 0.8750
vt 0.5000 0.8750
vt 0.4375 0.6875
vt 0.5625 0.7500
vt 0.5625 0.6875
vt 0.4375 0.6875
vt 0.3125 0.7500
vt 0.4375 0.7500
vt 0.7501 0.6876
vt 0.8124 0.7499
vt 0.8124 0.6876
vt 0.7499 0.6876
vt 0.6876 0.7499
vt 0.6876 0.6876
vt 0.1875 0.5938
vt 0.1250 0.5000
vt 0.1875 0.5000
vt 0.0625 0.5938
vt 0.0625 0.5000
vt 0.0000 0.5938
vt -0.0000 0.5000
vt 0.2500 0.6875
vt 0.1875 0.6875
vt 0.1250 0.6875
vt 0.1875 0.7500
vt 0.1250 0.7500
vt 0.1250 0.7500
vt 0.0625 0.6875
vt 0.1250 0.6875
vt 0.1875 0.5938
vt 0.1250 0.6875
vt 0.1250 0.5938
vt 0.0625 0.5938
vt 0.0625 0.6875
vt 0.0000 0.5938
vt 0.1875 0.5000
vt 0.2500 0.5469
vt 0.1875 0.5469
vt 0.1875 0.7500
vt 0.1250 0.6875
vt 0.1875 0.6875
vt 0.0625 0.7500
vt 0.1250 0.6875
vt 0.1250 0.7500
vt 0.1250 0.5938
vt 0.0625 0.6875
vt 0.2500 0.5938
vt 0.8126 0.6875
vt 0.7501 0.7500
vt 0.7501 0.6875
vt 0.7500 0.7500
vt 0.6875 0.6875
vt 0.7500 0.6875
vt 0.8125 0.6875
vt 0.7500 0.5938
vt 0.8125 0.5938
vt 0.7500 0.6875
vt 0.6875 0.5938
vt 0.6250 0.6875
vt 0.6250 0.5938
vt 0.8125 0.5000
vt 0.8750 0.5938
vt 0.2500 0.6875
vt 0.1875 0.6875
vt 0.2500 0.6875
vt 0.3125 0.5937
vt 0.2500 0.5937
vt 0.3125 0.6875
vt 0.4375 0.5937
vt 0.5000 0.6875
vt 0.5000 0.5937
vt 0.6250 0.5937
vt 0.5000 0.5000
vt 0.6874 0.6873
vt 0.6250 0.5937
vt 0.6874 0.5937
vt 0.8749 0.5937
vt 0.8125 0.6873
vt 0.8125 0.5937
vt 0.6875 0.5937
vt 0.7499 0.6873
vt 0.7499 0.5937
vt 0.8124 0.5001
vt 0.7500 0.5937
vt 0.8124 0.5937
vt 0.8750 0.6875
vt 0.6250 0.5000
vt 0.6875 0.5000
vt 0.7500 0.5000
vt 0.7500 0.6873
vt 0.8124 0.6873
vt 0.7499 0.5001
vt 0.6875 0.5001
vt 0.8749 0.5001
vt 0.8125 0.5001
vt 0.6874 0.5001
vt 0.6250 0.5001
vt 0.6250 0.6875
vt 0.4375 0.5000
vt 0.3125 0.5000
vt 0.2500 0.5000
vt 0.0625 0.5000
vt 0.0000 0.5469
vt 0.0000 0.5000
vt 0.1250 0.5469
vt 0.1250 0.5000
vt 0.2500 0.8750
vt 0.3750 0.8750
vt 0.0000 0.8750
vt 0.3750 0.7500
vt 0.4375 0.7500
vt 0.3125 0.6875
vt 0.7501 0.7499
vt 0.7499 0.7499
vt 0.1875 0.6875
vt 0.0625 0.7500
vt -0.0000 0.6875
vt 0.2500 0.5000
vt 0.1250 0.7500
vt 0.0000 0.6875
vt 0.2500 0.5000
vt 0.8126 0.7500
vt 0.6875 0.7500
vt 0.6875 0.6875
vt 0.8750 0.5000
vt 0.2500 0.5938
vt 0.4375 0.6875
vt 0.6250 0.5000
vt 0.6250 0.6873
vt 0.8749 0.6873
vt 0.6875 0.6873
vt 0.7500 0.5001
vt 0.0625 0.5469
vn 0.0000 0.6327 -0.7744
vn -0.0000 -0.6327 0.7744
vn 1.0000 -0.0000 0.0000
vn -0.0000 -0.7744 -0.6327
vn -1.0000 0.0000 0.0000
vn 0.0000 0.7744 0.6327
vn -0.0213 0.3689 -0.9292
vn -0.0000 -0.6855 0.7281
vn 0.0000 0.2590 -0.9659
vn 0.0000 -0.3231 0.9464
vn -0.0000 -0.9448 0.3276
vn 0.0000 -0.1094 -0.9940
vn -0.0000 -0.2402 -0.9707
vn 0.0000 0.9998 0.0196
vn -0.0000 -0.1372 0.9905
vn -0.0088 0.9965 -0.0831
vn 0.0000 -0.2372 -0.9715
vn -0.0000 0.9997 0.0229
vn -0.0000 -0.1403 0.9901
vn -0.0000 0.9968 -0.0804
vn 0.0000 0.2571 -0.9664
vn 0.0000 -0.3329 0.9430
vn 0.0000 -0.9433 -0.3320
vn 0.0000 0.9666 0.2562
vn -0.0000 -0.1124 -0.9937
vn 0.0000 -0.7155 -0.6986
vn 0.0001 0.9234 0.3838
vn -0.0000 -0.9466 -0.3223
vn -0.0000 0.9661 0.2582
vn 0.0000 0.9436 0.3310
vn 0.0000 -0.9669 -0.2551
vn 0.0000 0.9469 0.3216
vn 0.0000 -0.9663 -0.2574
vn 0.0001 0.7322 0.6811
vn 0.0050 -0.9293 -0.3692
vn 0.0000 -0.9438 0.3304
vn -0.0005 0.3289 -0.9443
vn -0.0008 -0.6843 0.7292
vn 0.0000 0.9971 -0.0763
vn -0.0000 -0.1402 0.9901
vn 0.0072 -0.1067 -0.9943
vn 0.0126 0.9293 0.3692
vn -0.0001 -0.9663 -0.2575
vn -0.0000 0.7323 0.6810
vn 0.0000 -0.9319 -0.3626
s off
f 2/1/1 4/2/1 1/3/1
f 8/4/2 6/5/2 5/6/2
f 1/7/3 6/5/3 2/8/3
f 6/5/4 3/9/4 2/8/4
f 7/10/5 4/11/5 3/9/5
f 1/12/6 8/13/6 5/14/6
f 9/15/7 11/16/7 12/17/7
f 13/18/8 15/19/8 14/20/8
f 18/21/9 20/22/9 17/23/9
f 24/24/10 22/25/10 21/26/10
f 53/27/3 34/28/3 33/29/3
f 34/28/11 55/30/11 35/31/11
f 35/31/5 56/32/5 36/33/5
f 53/27/12 40/34/12 37/35/12
f 26/36/13 28/37/13 25/38/13
f 32/39/14 30/40/14 29/41/14
f 52/42/3 30/43/3 51/44/3
f 30/43/15 50/45/15 51/44/15
f 31/46/5 49/47/5 50/45/5
f 25/48/16 49/49/16 52/50/16
f 33/51/17 35/52/17 36/53/17
f 40/54/18 38/55/18 37/56/18
f 53/27/3 38/55/3 54/57/3
f 54/57/19 39/58/19 55/30/19
f 39/58/5 56/32/5 55/30/5
f 33/29/20 56/59/20 53/27/20
f 41/60/21 43/61/21 44/62/21
f 48/63/22 46/64/22 45/65/22
f 45/66/3 58/67/3 57/68/3
f 46/69/23 59/70/23 58/67/23
f 59/70/5 48/71/5 60/72/5
f 41/73/24 60/74/24 57/68/24
f 52/42/25 32/75/25 29/76/25
f 13/77/3 66/78/3 65/79/3
f 14/80/26 67/81/26 66/78/26
f 67/81/5 16/82/5 68/83/5
f 65/84/27 12/85/27 68/83/27
f 21/86/3 62/87/3 61/88/3
f 62/89/28 23/90/28 63/91/28
f 63/92/5 24/93/5 64/94/5
f 17/95/29 64/96/29 61/97/29
f 57/68/30 48/98/30 45/66/30
f 59/70/5 44/99/5 43/100/5
f 58/67/31 43/100/31 42/101/31
f 41/73/3 58/67/3 42/101/3
f 61/97/32 24/102/32 21/103/32
f 63/92/5 20/104/5 19/105/5
f 18/106/33 63/91/33 19/107/33
f 17/108/3 62/87/3 18/109/3
f 65/84/34 16/82/34 13/110/34
f 67/81/5 12/85/5 11/111/5
f 66/78/35 11/111/35 10/112/35
f 9/113/3 66/78/3 10/112/3
f 27/114/5 49/115/5 28/116/5
f 51/117/36 27/114/36 26/118/36
f 52/50/3 26/118/3 25/48/3
f 2/1/1 3/119/1 4/2/1
f 8/4/2 7/10/2 6/5/2
f 1/7/3 5/120/3 6/5/3
f 6/5/4 7/10/4 3/9/4
f 7/10/5 8/121/5 4/11/5
f 1/12/6 4/122/6 8/13/6
f 9/15/37 10/123/37 11/16/37
f 13/18/38 16/124/38 15/19/38
f 18/21/9 19/125/9 20/22/9
f 24/24/10 23/126/10 22/25/10
f 53/27/3 54/57/3 34/28/3
f 34/28/11 54/57/11 55/30/11
f 35/31/5 55/30/5 56/32/5
f 53/27/12 56/59/12 40/34/12
f 26/36/13 27/127/13 28/37/13
f 32/39/14 31/128/14 30/40/14
f 52/42/3 29/76/3 30/43/3
f 30/43/15 31/46/15 50/45/15
f 31/46/5 32/129/5 49/47/5
f 25/48/39 28/130/39 49/49/39
f 33/51/17 34/131/17 35/52/17
f 40/54/18 39/58/18 38/55/18
f 53/27/3 37/35/3 38/55/3
f 54/57/40 38/55/40 39/58/40
f 39/58/5 40/132/5 56/32/5
f 33/29/20 36/133/20 56/59/20
f 41/60/21 42/134/21 43/61/21
f 48/63/22 47/135/22 46/64/22
f 45/66/3 46/69/3 58/67/3
f 46/69/23 47/136/23 59/70/23
f 59/70/5 47/136/5 48/71/5
f 41/73/24 44/137/24 60/74/24
f 52/42/41 49/138/41 32/75/41
f 13/77/3 14/80/3 66/78/3
f 14/80/26 15/139/26 67/81/26
f 67/81/5 15/139/5 16/82/5
f 65/84/42 9/140/42 12/85/42
f 21/86/3 22/141/3 62/87/3
f 62/89/28 22/142/28 23/90/28
f 63/92/5 23/143/5 24/93/5
f 17/95/29 20/144/29 64/96/29
f 57/68/30 60/74/30 48/98/30
f 59/70/5 60/72/5 44/99/5
f 58/67/31 59/70/31 43/100/31
f 41/73/3 57/68/3 58/67/3
f 61/97/32 64/96/32 24/102/32
f 63/92/5 64/94/5 20/104/5
f 18/106/43 62/89/43 63/91/43
f 17/108/3 61/88/3 62/87/3
f 65/84/44 68/83/44 16/82/44
f 67/81/5 68/83/5 12/85/5
f 66/78/45 67/81/45 11/111/45
f 9/113/3 65/79/3 66/78/3
f 27/114/5 50/145/5 49/115/5
f 51/117/36 50/145/36 27/114/36
f 52/50/3 51/117/3 26/118/3
