# Blender v2.77 (sub 0) OBJ File: 'minecraft-character.blend'
# www.blender.org
v 0.400000 2.391569 0.279774
v 0.400000 1.905680 0.915315
v -0.400000 1.905681 0.915315
v -0.400000 2.391569 0.279774
v 0.400000 3.027110 0.765663
v 0.400000 2.541221 1.401204
v -0.400000 2.541222 1.401203
v -0.400000 3.027110 0.765663
v 0.400000 1.231155 -0.252831
v 0.400000 1.072294 0.106116
v -0.400000 1.071512 0.109071
v -0.400000 1.243943 -0.251855
v 0.400000 2.276129 0.444093
v 0.400000 2.008551 0.741418
v -0.400000 2.008551 0.741418
v -0.400000 2.276038 0.443680
v 0.806897 0.976785 0.283429
v 0.817008 0.961667 0.683015
v 0.417152 0.957627 0.692980
v 0.407041 0.972745 0.293394
v 0.795914 2.175814 0.328902
v 0.806024 2.160813 0.728493
v 0.406168 2.156773 0.738458
v 0.396058 2.171774 0.338867
v 0.398663 0.174682 -0.160269
v 0.398663 0.028502 0.212063
v -0.001337 0.028502 0.212063
v -0.001337 0.174682 -0.160269
v 0.398663 1.008870 -0.268184
v 0.398663 1.257164 0.045424
v -0.001337 1.257164 0.045424
v -0.001337 1.008870 -0.268184
v -0.002092 0.199095 -0.190798
v -0.002092 0.030972 0.172155
v -0.402092 0.030972 0.172155
v -0.402092 0.199095 -0.190798
v -0.002092 1.009911 -0.268531
v -0.002092 1.256964 0.046057
v -0.402092 1.256964 0.046056
v -0.402092 1.009911 -0.268531
v -0.406031 0.971325 0.293732
v -0.417235 0.958601 0.693373
v -0.817056 0.963139 0.682308
v -0.805852 0.975864 0.282667
v -0.393678 2.173077 0.340305
v -0.404939 2.154866 0.739731
v -0.804760 2.159405 0.728666
v -0.793499 2.177616 0.329240
v -0.001337 0.632154 0.082481
v -0.001337 0.686876 0.424599
v 0.398663 0.686876 0.424599
v 0.398663 0.635745 0.081646
v -0.002092 0.640777 0.081717
v -0.002092 0.680271 0.420486
v -0.402092 0.680242 0.420487
v -0.402092 0.640774 0.081717
v -0.399739 1.572360 0.312904
v -0.410971 1.556885 0.712437
v -0.810793 1.561431 0.701373
v -0.799560 1.576899 0.301839
v 0.801408 1.576297 0.306253
v 0.811518 1.561236 0.705841
v 0.411663 1.557196 0.715806
v 0.401552 1.572256 0.316218
v 0.400000 1.807806 0.024814
v 0.400000 1.587733 0.353882
v -0.400000 1.587734 0.353884
v -0.400000 1.807719 0.024721
vt 0.3750 1.0000
vt 0.2500 0.8750
vt 0.2500 1.0000
vt 0.2500 1.0000
vt 0.1250 0.8750
vt 0.2500 0.8750
vt 0.3750 0.8750
vt 0.2500 0.7500
vt 0.3750 0.7500
vt 0.1250 0.7500
vt 0.0000 0.8750
vt 0.0000 0.7500
vt 0.5000 0.7500
vt 0.3750 0.8750
vt 0.5000 0.8750
vt 0.4375 0.6875
vt 0.5625 0.7500
vt 0.5625 0.6875
vt 0.4375 0.6875
vt 0.3125 0.7500
vt 0.4375 0.7500
vt 0.8124 0.6876
vt 0.7501 0.7499
vt 0.8124 0.7499
vt 0.7499 0.6876
vt 0.6876 0.7499
vt 0.6876 0.6876
vt 0.1875 0.5938
vt 0.1250 0.5000
vt 0.1875 0.5000
vt 0.0625 0.5938
vt 0.0625 0.5000
vt 0.0000 0.5938
vt -0.0000 0.5000
vt 0.2500 0.6875
vt 0.1875 0.6875
vt 0.1250 0.6875
vt 0.1875 0.7500
vt 0.1250 0.7500
vt 0.1250 0.7500
vt 0.0625 0.6875
vt 0.1250 0.6875
vt 0.1875 0.5938
vt 0.1250 0.6875
vt 0.1250 0.5938
vt 0.0625 0.5938
vt 0.0625 0.6875
vt 0.0000 0.5938
vt 0.1875 0.5000
vt 0.2500 0.5469
vt 0.1875 0.5469
vt 0.1250 0.7500
vt 0.1875 0.6875
vt 0.1875 0.7500
vt 0.1250 0.7500
vt 0.0625 0.6875
vt 0.1250 0.6875
vt 0.1250 0.5938
vt 0.2500 0.5938
vt 0.8126 0.7500
vt 0.7501 0.6875
vt 0.8126 0.6875
vt 0.7500 0.7500
vt 0.6875 0.6875
vt 0.7500 0.6875
vt 0.8125 0.6875
vt 0.7500 0.5938
vt 0.8125 0.5938
vt 0.7500 0.6875
vt 0.6875 0.5938
vt 0.6250 0.6875
vt 0.6250 0.5938
vt 0.8125 0.5000
vt 0.8750 0.5938
vt 0.2500 0.6875
vt 0.1875 0.6875
vt 0.2500 0.6875
vt 0.3125 0.5937
vt 0.2500 0.5937
vt 0.3125 0.6875
vt 0.4375 0.5937
vt 0.5000 0.6875
vt 0.5000 0.5937
vt 0.6250 0.5937
vt 0.5000 0.5000
vt 0.6874 0.5937
vt 0.6250 0.6873
vt 0.6250 0.5937
vt 0.8749 0.6873
vt 0.8125 0.5937
vt 0.8749 0.5937
vt 0.6875 0.6873
vt 0.7499 0.5937
vt 0.6875 0.5937
vt 0.8124 0.5937
vt 0.7500 0.5001
vt 0.7500 0.5937
vt 0.8750 0.6875
vt 0.6250 0.5000
vt 0.6875 0.5000
vt 0.7500 0.5000
vt 0.7500 0.6873
vt 0.8124 0.6873
vt 0.6875 0.5001
vt 0.7499 0.5001
vt 0.8125 0.5001
vt 0.8749 0.5001
vt 0.6250 0.5001
vt 0.6874 0.5001
vt 0.6250 0.6875
vt 0.4375 0.5000
vt 0.3125 0.5000
vt 0.2500 0.5000
vt 0.0625 0.5000
vt 0.0000 0.5469
vt 0.0000 0.5000
vt 0.1250 0.5469
vt 0.1250 0.5000
vt 0.3750 0.8750
vt 0.1250 1.0000
vt 0.3750 0.7500
vt 0.4375 0.7500
vt 0.3125 0.6875
vt 0.7501 0.6876
vt 0.7499 0.7499
vt 0.1875 0.6875
vt 0.0625 0.7500
vt -0.0000 0.6875
vt 0.2500 0.5000
vt 0.1250 0.6875
vt 0.0625 0.7500
vt 0.0000 0.6875
vt 0.2500 0.5000
vt 0.7501 0.7500
vt 0.6875 0.7500
vt 0.6875 0.6875
vt 0.8750 0.5000
vt 0.2500 0.5938
vt 0.4375 0.6875
vt 0.6250 0.5000
vt 0.6874 0.6873
vt 0.8125 0.6873
vt 0.7499 0.6873
vt 0.8124 0.5001
vt 0.0625 0.5469
vn 0.0000 -0.7944 -0.6074
vn -0.0000 0.7944 0.6074
vn 1.0000 -0.0000 -0.0000
vn -0.0000 -0.6074 0.7944
vn -1.0000 0.0000 -0.0000
vn 0.0000 0.6074 -0.7944
vn -0.0149 -0.9022 -0.4310
vn 0.0000 0.7433 0.6689
vn 0.0091 -0.9992 -0.0380
vn -0.0092 0.9992 0.0377
vn -0.0000 -0.3572 0.9340
vn 0.0000 -0.6883 -0.7254
vn 0.0000 -0.9308 -0.3654
vn 0.0000 0.7840 -0.6207
vn -0.0000 0.5537 0.8327
vn -0.0060 0.4646 -0.8855
vn 0.0000 -0.9074 -0.4203
vn -0.0000 0.7865 -0.6176
vn -0.0000 0.5445 0.8387
vn -0.0000 0.5251 -0.8510
vn -0.0105 -0.9994 -0.0321
vn 0.0101 0.9989 0.0458
vn 0.9996 -0.0113 0.0277
vn -0.0281 -0.0453 0.9986
vn -0.9996 0.0113 -0.0277
vn 0.0280 0.0316 -0.9991
vn 0.0000 -0.6840 -0.7295
vn 0.0000 -0.6774 0.7356
vn 0.0001 0.4404 -0.8978
vn 0.9996 0.0101 -0.0249
vn 0.0253 -0.0375 0.9990
vn -0.9996 -0.0101 0.0249
vn -0.0253 0.0378 -0.9990
vn 0.0281 0.0453 -0.9986
vn -0.0280 -0.0315 0.9991
vn -0.0253 0.0375 -0.9990
vn 0.0253 -0.0378 0.9990
vn 0.0003 0.6670 -0.7450
vn 0.0038 -0.4332 0.9013
vn 0.0000 -0.3072 0.9516
vn -0.0006 -0.9144 -0.4047
vn -0.0004 0.7439 0.6683
vn 0.0000 0.4687 -0.8833
vn -0.0000 0.5446 0.8387
vn -0.0282 -0.0453 0.9986
vn 0.0046 -0.6813 -0.7320
vn 0.0058 0.4338 -0.9010
vn 0.0000 0.6667 -0.7453
vn 0.0000 -0.4285 0.9035
s off
f 1/1/1 3/2/1 4/3/1
f 5/4/2 7/5/2 6/6/2
f 5/7/3 2/8/3 1/9/3
f 6/6/4 3/10/4 2/8/4
f 3/10/5 8/11/5 4/12/5
f 1/13/6 8/14/6 5/15/6
f 9/16/7 11/17/7 12/18/7
f 13/19/8 15/20/8 14/21/8
f 17/22/9 19/23/9 20/24/9
f 24/25/10 22/26/10 21/27/10
f 53/28/3 34/29/3 33/30/3
f 34/29/11 55/31/11 35/32/11
f 35/32/5 56/33/5 36/34/5
f 53/28/12 40/35/12 37/36/12
f 26/37/13 28/38/13 25/39/13
f 32/40/14 30/41/14 29/42/14
f 52/43/3 30/44/3 51/45/3
f 30/44/15 50/46/15 51/45/15
f 31/47/5 49/48/5 50/46/5
f 25/49/16 49/50/16 52/51/16
f 34/52/17 36/53/17 33/54/17
f 37/55/18 39/56/18 38/57/18
f 53/28/3 38/57/3 54/58/3
f 54/58/19 39/56/19 55/31/19
f 39/56/5 56/33/5 55/31/5
f 33/30/20 56/59/20 53/28/20
f 42/60/21 44/61/21 41/62/21
f 48/63/22 46/64/22 45/65/22
f 45/66/23 58/67/23 57/68/23
f 46/69/24 59/70/24 58/67/24
f 59/70/25 48/71/25 60/72/25
f 41/73/26 60/74/26 57/68/26
f 52/43/27 32/75/27 29/76/27
f 13/77/3 66/78/3 65/79/3
f 14/80/28 67/81/28 66/78/28
f 67/81/5 16/82/5 68/83/5
f 65/84/29 12/85/29 68/83/29
f 61/86/30 22/87/30 62/88/30
f 22/89/31 63/90/31 62/91/31
f 23/92/32 64/93/32 63/94/32
f 61/95/33 20/96/33 64/97/33
f 45/66/34 60/74/34 48/98/34
f 59/70/25 44/99/25 43/100/25
f 58/67/35 43/100/35 42/101/35
f 41/73/23 58/67/23 42/101/23
f 61/95/36 24/102/36 21/103/36
f 19/104/32 64/93/32 20/105/32
f 62/91/37 19/106/37 18/107/37
f 61/86/30 18/108/30 17/109/30
f 65/84/38 16/82/38 13/110/38
f 67/81/5 12/85/5 11/111/5
f 66/78/39 11/111/39 10/112/39
f 9/113/3 66/78/3 10/112/3
f 27/114/5 49/115/5 28/116/5
f 51/117/40 27/114/40 26/118/40
f 52/51/3 26/118/3 25/49/3
f 1/1/1 2/119/1 3/2/1
f 5/4/2 8/120/2 7/5/2
f 5/7/3 6/6/3 2/8/3
f 6/6/4 7/5/4 3/10/4
f 3/10/5 7/5/5 8/11/5
f 1/13/6 4/121/6 8/14/6
f 9/16/41 10/122/41 11/17/41
f 13/19/42 16/123/42 15/20/42
f 17/22/9 18/124/9 19/23/9
f 24/25/10 23/125/10 22/26/10
f 53/28/3 54/58/3 34/29/3
f 34/29/11 54/58/11 55/31/11
f 35/32/5 55/31/5 56/33/5
f 53/28/12 56/59/12 40/35/12
f 26/37/13 27/126/13 28/38/13
f 32/40/14 31/127/14 30/41/14
f 52/43/3 29/76/3 30/44/3
f 30/44/15 31/47/15 50/46/15
f 31/47/5 32/128/5 49/48/5
f 25/49/43 28/129/43 49/50/43
f 34/52/17 35/130/17 36/53/17
f 37/55/18 40/131/18 39/56/18
f 53/28/3 37/36/3 38/57/3
f 54/58/44 38/57/44 39/56/44
f 39/56/5 40/132/5 56/33/5
f 33/30/20 36/133/20 56/59/20
f 42/60/21 43/134/21 44/61/21
f 48/63/22 47/135/22 46/64/22
f 45/66/23 46/69/23 58/67/23
f 46/69/45 47/136/45 59/70/45
f 59/70/25 47/136/25 48/71/25
f 41/73/26 44/137/26 60/74/26
f 52/43/46 49/138/46 32/75/46
f 13/77/3 14/80/3 66/78/3
f 14/80/28 15/139/28 67/81/28
f 67/81/5 15/139/5 16/82/5
f 65/84/47 9/140/47 12/85/47
f 61/86/30 21/141/30 22/87/30
f 22/89/31 23/142/31 63/90/31
f 23/92/32 24/143/32 64/93/32
f 61/95/33 17/144/33 20/96/33
f 45/66/34 57/68/34 60/74/34
f 59/70/25 60/72/25 44/99/25
f 58/67/35 59/70/35 43/100/35
f 41/73/23 57/68/23 58/67/23
f 61/95/36 64/97/36 24/102/36
f 19/104/32 63/94/32 64/93/32
f 62/91/37 63/90/37 19/106/37
f 61/86/30 62/88/30 18/108/30
f 65/84/48 68/83/48 16/82/48
f 67/81/5 68/83/5 12/85/5
f 66/78/49 67/81/49 11/111/49
f 9/113/3 65/79/3 66/78/3
f 27/114/5 50/145/5 49/115/5
f 51/117/40 50/145/40 27/114/40
f 52/51/3 51/117/3 26/118/3
