# Blender v2.77 (sub 0) OBJ File: 'minecraft-character.blend'
# www.blender.org
v 0.400000 2.542914 -0.130464
v 0.400000 2.430287 0.661568
v -0.400000 2.430287 0.661568
v -0.400000 2.542914 -0.130464
v 0.400000 3.334947 -0.017836
v 0.400000 3.222320 0.774196
v -0.400000 3.222320 0.774196
v -0.400000 3.334947 -0.017836
v 0.400000 1.316337 -0.138426
v 0.400000 1.271922 0.259314
v -0.400000 1.272070 0.260219
v -0.400000 1.322200 -0.136627
v 0.400000 2.520773 0.068910
v 0.400000 2.436781 0.459992
v -0.400000 2.436781 0.459992
v -0.400000 2.520717 0.068713
v 0.801898 1.299019 0.559037
v 0.801898 1.548522 0.871681
v 0.401898 1.548524 0.871683
v 0.401898 1.299019 0.559037
v 0.801898 2.445363 0.031756
v 0.801898 2.513619 0.425890
v 0.401898 2.513618 0.425889
v 0.401898 2.445363 0.031756
v 0.398663 0.259879 -0.185263
v 0.398663 0.104088 0.183151
v -0.001337 0.104089 0.183151
v -0.001337 0.259879 -0.185263
v 0.398663 1.213087 -0.168586
v 0.398663 1.365596 0.201199
v -0.001337 1.365596 0.201199
v -0.001337 1.213087 -0.168586
v -0.002092 0.260815 -0.188206
v -0.002092 0.103863 0.179715
v -0.402092 0.103863 0.179715
v -0.402092 0.260815 -0.188206
v -0.002092 1.214042 -0.168638
v -0.002092 1.365327 0.201649
v -0.402092 1.365327 0.201649
v -0.402092 1.214041 -0.168638
v -0.400161 1.298653 0.555323
v -0.400161 1.548777 0.867473
v -0.800161 1.548777 0.867473
v -0.800161 1.298653 0.555323
v -0.400161 2.447556 0.032366
v -0.400161 2.511745 0.427182
v -0.800161 2.511745 0.427182
v -0.800161 2.447556 0.032366
v -0.001337 0.732555 0.054521
v -0.001337 0.733814 0.423400
v 0.398663 0.733814 0.423400
v 0.398663 0.735396 0.054305
v -0.002092 0.735654 0.052757
v -0.002092 0.732841 0.421863
v -0.402092 0.732820 0.421861
v -0.402092 0.735651 0.052757
v -0.400161 1.811105 0.154394
v -0.400161 1.967991 0.507964
v -0.800161 1.968262 0.507877
v -0.800161 1.811105 0.154394
v 0.801898 1.810752 0.159650
v 0.801898 1.971250 0.512430
v 0.401898 1.970235 0.512759
v 0.401898 1.810329 0.159899
v 0.400000 1.925835 -0.059248
v 0.400000 1.858749 0.334709
v -0.400000 1.858749 0.334710
v -0.400000 1.925801 -0.059274
vt 0.3750 0.8750
vt 0.2500 1.0000
vt 0.3750 1.0000
vt 0.1250 1.0000
vt 0.2500 0.8750
vt 0.2500 1.0000
vt 0.3750 0.8750
vt 0.2500 0.7500
vt 0.3750 0.7500
vt 0.1250 0.7500
vt 0.0000 0.8750
vt 0.0000 0.7500
vt 0.5000 0.7500
vt 0.3750 0.8750
vt 0.5000 0.8750
vt 0.4375 0.7500
vt 0.5625 0.6875
vt 0.4375 0.6875
vt 0.4375 0.6875
vt 0.3125 0.7500
vt 0.4375 0.7500
vt 0.7501 0.6876
vt 0.8124 0.7499
vt 0.8124 0.6876
vt 0.7499 0.6876
vt 0.6876 0.7499
vt 0.6876 0.6876
vt 0.1875 0.5938
vt 0.1250 0.5000
vt 0.1875 0.5000
vt 0.0625 0.5938
vt 0.0625 0.5000
vt 0.0000 0.5938
vt -0.0000 0.5000
vt 0.2500 0.6875
vt 0.1875 0.6875
vt 0.1250 0.7500
vt 0.1875 0.6875
vt 0.1875 0.7500
vt 0.1250 0.6875
vt 0.0625 0.7500
vt 0.0625 0.6875
vt 0.1875 0.5938
vt 0.1250 0.6875
vt 0.1250 0.5938
vt 0.0625 0.5938
vt 0.0625 0.6875
vt 0.0000 0.5938
vt 0.1875 0.5000
vt 0.2500 0.5469
vt 0.1875 0.5469
vt 0.1875 0.7500
vt 0.1250 0.6875
vt 0.1875 0.6875
vt 0.1250 0.7500
vt 0.0625 0.6875
vt 0.1250 0.6875
vt 0.1250 0.5938
vt 0.2500 0.5938
vt 0.8126 0.6875
vt 0.7501 0.7500
vt 0.7501 0.6875
vt 0.7500 0.7500
vt 0.6875 0.6875
vt 0.7500 0.6875
vt 0.8125 0.6875
vt 0.7500 0.5938
vt 0.8125 0.5938
vt 0.7500 0.6875
vt 0.6875 0.5938
vt 0.6250 0.6875
vt 0.6250 0.5938
vt 0.8750 0.5000
vt 0.8750 0.5938
vt 0.2500 0.6875
vt 0.1875 0.6875
vt 0.2500 0.6875
vt 0.3125 0.5937
vt 0.2500 0.5937
vt 0.3125 0.6875
vt 0.4375 0.5937
vt 0.5000 0.6875
vt 0.5000 0.5937
vt 0.6250 0.5937
vt 0.5000 0.5000
vt 0.6874 0.6873
vt 0.6250 0.5937
vt 0.6874 0.5937
vt 0.8749 0.5937
vt 0.8125 0.6873
vt 0.8125 0.5937
vt 0.6875 0.5937
vt 0.7499 0.6873
vt 0.7499 0.5937
vt 0.8124 0.5001
vt 0.7500 0.5937
vt 0.8124 0.5937
vt 0.8750 0.6875
vt 0.6250 0.5000
vt 0.6875 0.5000
vt 0.7500 0.5000
vt 0.8125 0.5000
vt 0.7500 0.6873
vt 0.8124 0.6873
vt 0.7499 0.5001
vt 0.6875 0.5001
vt 0.8749 0.5001
vt 0.8125 0.5001
vt 0.6874 0.5001
vt 0.6250 0.5001
vt 0.6250 0.6875
vt 0.4375 0.5000
vt 0.3125 0.5000
vt 0.2500 0.5000
vt 0.0625 0.5000
vt 0.0000 0.5469
vt 0.0000 0.5000
vt 0.1250 0.5469
vt 0.1250 0.5000
vt 0.2500 0.8750
vt 0.1250 0.8750
vt 0.3750 0.7500
vt 0.5625 0.7500
vt 0.3125 0.6875
vt 0.7501 0.7499
vt 0.7499 0.7499
vt 0.1250 0.6875
vt 0.1250 0.7500
vt -0.0000 0.6875
vt 0.2500 0.5000
vt 0.1250 0.7500
vt 0.0625 0.7500
vt 0.0000 0.6875
vt 0.2500 0.5000
vt 0.8126 0.7500
vt 0.6875 0.7500
vt 0.6875 0.6875
vt 0.2500 0.5938
vt 0.4375 0.6875
vt 0.6250 0.5000
vt 0.6250 0.6873
vt 0.8749 0.6873
vt 0.6875 0.6873
vt 0.7500 0.5001
vt 0.0625 0.5469
vn 0.0000 -0.9900 -0.1408
vn -0.0000 0.9900 0.1408
vn 1.0000 -0.0000 -0.0000
vn -0.0000 -0.1408 0.9900
vn -1.0000 -0.0000 -0.0000
vn 0.0000 0.1408 -0.9900
vn -0.0075 -0.9938 -0.1110
vn -0.0000 0.9777 0.2100
vn 0.0000 -0.7816 0.6238
vn 0.0000 0.9853 -0.1706
vn 0.0000 -0.3593 0.9332
vn 0.0000 -0.4200 -0.9075
vn -0.0000 -0.9210 -0.3895
vn 0.0000 0.9245 -0.3813
vn -0.0000 0.3318 0.9434
vn -0.0037 0.4499 -0.8931
vn 0.0000 -0.9198 -0.3924
vn -0.0000 0.9257 -0.3782
vn -0.0000 0.3288 0.9444
vn -0.0000 0.4525 -0.8917
vn 0.0000 -0.7804 0.6253
vn 0.0000 0.9870 -0.1605
vn -0.0001 0.1469 0.9891
vn 0.0000 -0.6162 -0.7876
vn 0.0000 -0.4228 -0.9062
vn 0.0000 -0.2118 0.9773
vn 0.0000 0.1271 -0.9919
vn 0.0004 0.1579 0.9875
vn 0.0002 -0.6153 -0.7883
vn 0.0000 -0.1883 -0.9821
vn -0.0000 0.6510 0.7591
vn 0.0000 -0.1976 -0.9803
vn 0.0000 0.6481 0.7615
vn 0.0002 0.2106 -0.9776
vn 0.0011 -0.1274 0.9918
vn -0.0000 -0.3565 0.9343
vn -0.0003 -0.9921 -0.1253
vn -0.0001 0.9778 0.2097
vn -0.0000 0.4524 -0.8918
vn -0.0000 0.1469 0.9892
vn 0.0025 -0.4211 -0.9070
vn -0.0013 0.1288 -0.9917
vn -0.0000 0.1576 0.9875
vn 0.0000 -0.6153 -0.7883
vn 0.0003 0.6508 0.7592
vn -0.0004 -0.1978 -0.9802
vn -0.0010 0.6476 0.7620
vn 0.0000 0.2103 -0.9776
vn 0.0000 -0.1260 0.9920
s off
f 2/1/1 4/2/1 1/3/1
f 8/4/2 6/5/2 5/6/2
f 5/7/3 2/8/3 1/9/3
f 6/5/4 3/10/4 2/8/4
f 3/10/5 8/11/5 4/12/5
f 1/13/6 8/14/6 5/15/6
f 10/16/7 12/17/7 9/18/7
f 13/19/8 15/20/8 14/21/8
f 18/22/9 20/23/9 17/24/9
f 24/25/10 22/26/10 21/27/10
f 53/28/3 34/29/3 33/30/3
f 34/29/11 55/31/11 35/32/11
f 35/32/5 56/33/5 36/34/5
f 53/28/12 40/35/12 37/36/12
f 25/37/13 27/38/13 28/39/13
f 29/40/14 31/41/14 30/42/14
f 52/43/3 30/44/3 51/45/3
f 30/44/15 50/46/15 51/45/15
f 31/47/5 49/48/5 50/46/5
f 25/49/16 49/50/16 52/51/16
f 33/52/17 35/53/17 36/54/17
f 37/55/18 39/56/18 38/57/18
f 53/28/3 38/57/3 54/58/3
f 54/58/19 39/56/19 55/31/19
f 39/56/5 56/33/5 55/31/5
f 33/30/20 56/59/20 53/28/20
f 41/60/21 43/61/21 44/62/21
f 48/63/22 46/64/22 45/65/22
f 45/66/3 58/67/3 57/68/3
f 46/69/23 59/70/23 58/67/23
f 59/70/5 48/71/5 60/72/5
f 57/68/24 44/73/24 60/74/24
f 52/43/25 32/75/25 29/76/25
f 13/77/3 66/78/3 65/79/3
f 14/80/26 67/81/26 66/78/26
f 67/81/5 16/82/5 68/83/5
f 65/84/27 12/85/27 68/83/27
f 21/86/3 62/87/3 61/88/3
f 62/89/28 23/90/28 63/91/28
f 63/92/5 24/93/5 64/94/5
f 17/95/29 64/96/29 61/97/29
f 57/68/30 48/98/30 45/66/30
f 59/70/5 44/99/5 43/100/5
f 58/67/31 43/100/31 42/101/31
f 41/102/3 58/67/3 42/101/3
f 61/97/32 24/103/32 21/104/32
f 63/92/5 20/105/5 19/106/5
f 18/107/33 63/91/33 19/108/33
f 17/109/3 62/87/3 18/110/3
f 65/84/34 16/82/34 13/111/34
f 67/81/5 12/85/5 11/112/5
f 66/78/35 11/112/35 10/113/35
f 9/114/3 66/78/3 10/113/3
f 27/115/5 49/116/5 28/117/5
f 51/118/36 27/115/36 26/119/36
f 52/51/3 26/119/3 25/49/3
f 2/1/1 3/120/1 4/2/1
f 8/4/2 7/121/2 6/5/2
f 5/7/3 6/5/3 2/8/3
f 6/5/4 7/121/4 3/10/4
f 3/10/5 7/121/5 8/11/5
f 1/13/6 4/122/6 8/14/6
f 10/16/37 11/123/37 12/17/37
f 13/19/38 16/124/38 15/20/38
f 18/22/9 19/125/9 20/23/9
f 24/25/10 23/126/10 22/26/10
f 53/28/3 54/58/3 34/29/3
f 34/29/11 54/58/11 55/31/11
f 35/32/5 55/31/5 56/33/5
f 53/28/12 56/59/12 40/35/12
f 25/37/13 26/127/13 27/38/13
f 29/40/14 32/128/14 31/41/14
f 52/43/3 29/76/3 30/44/3
f 30/44/15 31/47/15 50/46/15
f 31/47/5 32/129/5 49/48/5
f 25/49/39 28/130/39 49/50/39
f 33/52/17 34/131/17 35/53/17
f 37/55/18 40/132/18 39/56/18
f 53/28/3 37/36/3 38/57/3
f 54/58/19 38/57/19 39/56/19
f 39/56/5 40/133/5 56/33/5
f 33/30/20 36/134/20 56/59/20
f 41/60/21 42/135/21 43/61/21
f 48/63/22 47/136/22 46/64/22
f 45/66/3 46/69/3 58/67/3
f 46/69/40 47/137/40 59/70/40
f 59/70/5 47/137/5 48/71/5
f 57/68/24 41/102/24 44/73/24
f 52/43/41 49/138/41 32/75/41
f 13/77/3 14/80/3 66/78/3
f 14/80/26 15/139/26 67/81/26
f 67/81/5 15/139/5 16/82/5
f 65/84/42 9/140/42 12/85/42
f 21/86/3 22/141/3 62/87/3
f 62/89/43 22/142/43 23/90/43
f 63/92/5 23/143/5 24/93/5
f 17/95/44 20/144/44 64/96/44
f 57/68/30 60/74/30 48/98/30
f 59/70/5 60/72/5 44/99/5
f 58/67/45 59/70/45 43/100/45
f 41/102/3 57/68/3 58/67/3
f 61/97/46 64/96/46 24/103/46
f 63/92/5 64/94/5 20/105/5
f 18/107/47 62/89/47 63/91/47
f 17/109/3 61/88/3 62/87/3
f 65/84/48 68/83/48 16/82/48
f 67/81/5 68/83/5 12/85/5
f 66/78/49 67/81/49 11/112/49
f 9/114/3 65/79/3 66/78/3
f 27/115/5 50/145/5 49/116/5
f 51/118/36 50/145/36 27/115/36
f 52/51/3 51/118/3 26/119/3
