# Blender v2.77 (sub 0) OBJ File: 'minecraft-character.blend'
# www.blender.org
v 0.400000 2.585081 -0.247081
v 0.400000 2.569080 0.552759
v -0.400000 2.569080 0.552759
v -0.400000 2.585081 -0.247081
v 0.400000 3.384922 -0.231080
v 0.400000 3.368921 0.568760
v -0.400000 3.368921 0.568759
v -0.400000 3.384922 -0.231081
v 0.400000 1.381997 -0.136076
v 0.400000 1.361316 0.263716
v -0.400000 1.361409 0.264070
v -0.400000 1.383814 -0.135302
v 0.400000 2.587217 -0.046493
v 0.400000 2.551146 0.351877
v -0.400000 2.551146 0.351877
v -0.400000 2.587205 -0.046559
v 0.801898 1.344230 0.089691
v 0.801898 1.417622 0.482900
v 0.401898 1.417622 0.482900
v 0.401898 1.344230 0.089691
v 0.801898 2.557870 -0.060816
v 0.801898 2.580943 0.338518
v 0.401898 2.580943 0.338518
v 0.401898 2.557870 -0.060816
v 0.398663 0.216274 -0.186410
v 0.398663 0.149145 0.207917
v -0.001337 0.149145 0.207917
v -0.001337 0.216274 -0.186410
v 0.398663 1.348265 -0.149286
v 0.398663 1.392573 0.248252
v -0.001337 1.392573 0.248252
v -0.001337 1.348265 -0.149286
v -0.002092 0.217288 -0.189807
v -0.002092 0.148906 0.204305
v -0.402092 0.148906 0.204305
v -0.402092 0.217288 -0.189807
v -0.002092 1.349201 -0.149071
v -0.002092 1.392186 0.248613
v -0.402092 1.392186 0.248613
v -0.402092 1.349201 -0.149071
v -0.400161 1.343810 0.085858
v -0.400161 1.417942 0.478929
v -0.800161 1.417942 0.478929
v -0.800161 1.343810 0.085858
v -0.400161 2.560007 -0.059949
v -0.400161 2.578909 0.339604
v -0.800161 2.578909 0.339604
v -0.800161 2.560007 -0.059950
v -0.001337 0.778810 -0.084216
v -0.001337 0.768450 0.311662
v 0.398663 0.768450 0.311663
v 0.398663 0.779839 -0.084269
v -0.002092 0.780565 -0.085913
v -0.002092 0.767874 0.309985
v -0.402092 0.767867 0.309984
v -0.402092 0.780564 -0.085913
v -0.400161 1.947047 -0.028467
v -0.400161 1.993486 0.367845
v -0.800161 1.993564 0.367844
v -0.800161 1.947047 -0.028468
v 0.801898 1.946364 -0.023280
v 0.801898 1.995036 0.372966
v 0.401898 1.994764 0.372969
v 0.401898 1.946242 -0.023252
v 0.400000 1.986277 -0.101147
v 0.400000 1.957029 0.297722
v -0.400000 1.957029 0.297723
v -0.400000 1.986265 -0.101155
vt 0.3750 0.8750
vt 0.2500 1.0000
vt 0.3750 1.0000
vt 0.1250 1.0000
vt 0.2500 0.8750
vt 0.2500 1.0000
vt 0.3750 0.8750
vt 0.2500 0.7500
vt 0.3750 0.7500
vt 0.1250 0.7500
vt 0.1250 0.8750
vt 0.0000 0.7500
vt 0.5000 0.8750
vt 0.3750 0.7500
vt 0.3750 0.8750
vt 0.4375 0.7500
vt 0.5625 0.6875
vt 0.4375 0.6875
vt 0.4375 0.6875
vt 0.3125 0.7500
vt 0.4375 0.7500
vt 0.7501 0.6876
vt 0.8124 0.7499
vt 0.8124 0.6876
vt 0.6876 0.6876
vt 0.7499 0.7499
vt 0.6876 0.7499
vt 0.1875 0.5938
vt 0.1250 0.5000
vt 0.1875 0.5000
vt 0.0625 0.5938
vt 0.0625 0.5000
vt 0.0000 0.5938
vt -0.0000 0.5000
vt 0.2500 0.6875
vt 0.1875 0.6875
vt 0.1250 0.6875
vt 0.1875 0.7500
vt 0.1250 0.7500
vt 0.1250 0.6875
vt 0.0625 0.7500
vt 0.0625 0.6875
vt 0.1875 0.5938
vt 0.1250 0.6875
vt 0.1250 0.5938
vt 0.0625 0.5938
vt 0.0625 0.6875
vt 0.0000 0.5938
vt 0.1875 0.5000
vt 0.2500 0.5469
vt 0.1875 0.5469
vt 0.1875 0.7500
vt 0.1250 0.6875
vt 0.1875 0.6875
vt 0.1250 0.7500
vt 0.0625 0.6875
vt 0.1250 0.6875
vt 0.1250 0.5938
vt 0.2500 0.5938
vt 0.8126 0.7500
vt 0.7501 0.6875
vt 0.8126 0.6875
vt 0.7500 0.6875
vt 0.6875 0.7500
vt 0.6875 0.6875
vt 0.8125 0.6875
vt 0.7500 0.5938
vt 0.8125 0.5938
vt 0.7500 0.6875
vt 0.6875 0.5938
vt 0.6250 0.6875
vt 0.6250 0.5938
vt 0.8125 0.5000
vt 0.8750 0.5938
vt 0.2500 0.6875
vt 0.1875 0.6875
vt 0.2500 0.6875
vt 0.3125 0.5937
vt 0.2500 0.5937
vt 0.3125 0.6875
vt 0.4375 0.5937
vt 0.5000 0.6875
vt 0.5000 0.5937
vt 0.6250 0.5937
vt 0.5000 0.5000
vt 0.6874 0.6873
vt 0.6250 0.5937
vt 0.6874 0.5937
vt 0.8749 0.5937
vt 0.8125 0.6873
vt 0.8125 0.5937
vt 0.6875 0.5937
vt 0.7499 0.6873
vt 0.7499 0.5937
vt 0.8124 0.5001
vt 0.7500 0.5937
vt 0.8124 0.5937
vt 0.8750 0.6875
vt 0.6250 0.5000
vt 0.6875 0.5000
vt 0.7500 0.5000
vt 0.7500 0.6873
vt 0.8124 0.6873
vt 0.7499 0.5001
vt 0.6875 0.5001
vt 0.8749 0.5001
vt 0.8125 0.5001
vt 0.6874 0.5001
vt 0.6250 0.5001
vt 0.6250 0.6875
vt 0.4375 0.5000
vt 0.3125 0.5000
vt 0.2500 0.5000
vt 0.0625 0.5000
vt 0.0000 0.5469
vt 0.0000 0.5000
vt 0.1250 0.5469
vt 0.1250 0.5000
vt 0.2500 0.8750
vt 0.0000 0.8750
vt 0.5000 0.7500
vt 0.5625 0.7500
vt 0.3125 0.6875
vt 0.7501 0.7499
vt 0.7499 0.6876
vt 0.1875 0.6875
vt 0.1250 0.7500
vt -0.0000 0.6875
vt 0.2500 0.5000
vt 0.1250 0.7500
vt 0.0625 0.7500
vt 0.0000 0.6875
vt 0.2500 0.5000
vt 0.7501 0.7500
vt 0.7500 0.7500
vt 0.6875 0.6875
vt 0.8750 0.5000
vt 0.2500 0.5938
vt 0.4375 0.6875
vt 0.6250 0.5000
vt 0.6250 0.6873
vt 0.8749 0.6873
vt 0.6875 0.6873
vt 0.7500 0.5001
vt 0.0625 0.5469
vn 0.0000 -0.9998 -0.0200
vn -0.0000 0.9998 0.0200
vn 1.0000 -0.0000 -0.0000
vn -0.0000 -0.0200 0.9998
vn -1.0000 -0.0000 -0.0000
vn 0.0000 0.0200 -0.9998
vn -0.0023 -0.9987 -0.0517
vn -0.0000 0.9959 0.0902
vn 0.0000 -0.9830 0.1835
vn 0.0000 0.9983 -0.0577
vn -0.0000 -0.1683 0.9857
vn 0.0000 -0.1104 -0.9939
vn 0.0000 -0.9858 -0.1678
vn 0.0000 0.9938 -0.1108
vn -0.0000 0.1011 0.9949
vn -0.0006 0.1783 -0.9840
vn 0.0000 -0.9853 -0.1710
vn 0.0000 0.9942 -0.1075
vn -0.0000 0.0978 0.9952
vn -0.0000 0.1814 -0.9834
vn -0.0000 -0.9827 0.1853
vn 0.0000 0.9989 -0.0473
vn 0.0000 0.0482 0.9988
vn 0.0000 -0.1862 -0.9825
vn 0.0000 -0.1136 -0.9935
vn 0.0000 -0.0908 0.9959
vn 0.0000 0.0566 -0.9984
vn -0.0000 0.0587 0.9983
vn -0.0000 -0.1844 -0.9829
vn 0.0000 -0.0513 -0.9987
vn -0.0000 0.1895 0.9819
vn 0.0000 -0.0613 -0.9981
vn 0.0000 0.1871 0.9823
vn 0.0001 0.0906 -0.9959
vn 0.0004 -0.0570 0.9984
vn 0.0000 -0.1652 0.9863
vn -0.0001 -0.9984 -0.0560
vn -0.0000 0.9959 0.0901
vn 0.0000 0.1787 -0.9839
vn 0.0002 -0.1135 -0.9935
vn -0.0008 0.0577 -0.9983
vn -0.0001 -0.0613 -0.9981
vn -0.0001 0.1870 0.9824
vn 0.0000 0.0905 -0.9959
vn 0.0000 -0.0564 0.9984
s off
f 2/1/1 4/2/1 1/3/1
f 8/4/2 6/5/2 5/6/2
f 5/7/3 2/8/3 1/9/3
f 6/5/4 3/10/4 2/8/4
f 7/11/5 4/12/5 3/10/5
f 5/13/6 4/14/6 8/15/6
f 10/16/7 12/17/7 9/18/7
f 13/19/8 15/20/8 14/21/8
f 18/22/9 20/23/9 17/24/9
f 21/25/10 23/26/10 22/27/10
f 53/28/3 34/29/3 33/30/3
f 34/29/11 55/31/11 35/32/11
f 35/32/5 56/33/5 36/34/5
f 53/28/12 40/35/12 37/36/12
f 26/37/13 28/38/13 25/39/13
f 29/40/14 31/41/14 30/42/14
f 52/43/3 30/44/3 51/45/3
f 30/44/15 50/46/15 51/45/15
f 31/47/5 49/48/5 50/46/5
f 25/49/16 49/50/16 52/51/16
f 33/52/17 35/53/17 36/54/17
f 37/55/18 39/56/18 38/57/18
f 53/28/3 38/57/3 54/58/3
f 54/58/19 39/56/19 55/31/19
f 39/56/5 56/33/5 55/31/5
f 33/30/20 56/59/20 53/28/20
f 42/60/21 44/61/21 41/62/21
f 45/63/22 47/64/22 46/65/22
f 45/66/3 58/67/3 57/68/3
f 46/69/23 59/70/23 58/67/23
f 59/70/5 48/71/5 60/72/5
f 41/73/24 60/74/24 57/68/24
f 52/43/25 32/75/25 29/76/25
f 13/77/3 66/78/3 65/79/3
f 14/80/26 67/81/26 66/78/26
f 67/81/5 16/82/5 68/83/5
f 65/84/27 12/85/27 68/83/27
f 21/86/3 62/87/3 61/88/3
f 62/89/28 23/90/28 63/91/28
f 63/92/5 24/93/5 64/94/5
f 17/95/29 64/96/29 61/97/29
f 57/68/30 48/98/30 45/66/30
f 59/70/5 44/99/5 43/100/5
f 58/67/31 43/100/31 42/101/31
f 41/73/3 58/67/3 42/101/3
f 61/97/32 24/102/32 21/103/32
f 63/92/5 20/104/5 19/105/5
f 18/106/33 63/91/33 19/107/33
f 17/108/3 62/87/3 18/109/3
f 65/84/34 16/82/34 13/110/34
f 67/81/5 12/85/5 11/111/5
f 66/78/35 11/111/35 10/112/35
f 9/113/3 66/78/3 10/112/3
f 27/114/5 49/115/5 28/116/5
f 51/117/36 27/114/36 26/118/36
f 52/51/3 26/118/3 25/49/3
f 2/1/1 3/119/1 4/2/1
f 8/4/2 7/11/2 6/5/2
f 5/7/3 6/5/3 2/8/3
f 6/5/4 7/11/4 3/10/4
f 7/11/5 8/120/5 4/12/5
f 5/13/6 1/121/6 4/14/6
f 10/16/37 11/122/37 12/17/37
f 13/19/38 16/123/38 15/20/38
f 18/22/9 19/124/9 20/23/9
f 21/25/10 24/125/10 23/26/10
f 53/28/3 54/58/3 34/29/3
f 34/29/11 54/58/11 55/31/11
f 35/32/5 55/31/5 56/33/5
f 53/28/12 56/59/12 40/35/12
f 26/37/13 27/126/13 28/38/13
f 29/40/14 32/127/14 31/41/14
f 52/43/3 29/76/3 30/44/3
f 30/44/15 31/47/15 50/46/15
f 31/47/5 32/128/5 49/48/5
f 25/49/39 28/129/39 49/50/39
f 33/52/17 34/130/17 35/53/17
f 37/55/18 40/131/18 39/56/18
f 53/28/3 37/36/3 38/57/3
f 54/58/19 38/57/19 39/56/19
f 39/56/5 40/132/5 56/33/5
f 33/30/20 36/133/20 56/59/20
f 42/60/21 43/134/21 44/61/21
f 45/63/22 48/135/22 47/64/22
f 45/66/3 46/69/3 58/67/3
f 46/69/23 47/136/23 59/70/23
f 59/70/5 47/136/5 48/71/5
f 41/73/24 44/137/24 60/74/24
f 52/43/40 49/138/40 32/75/40
f 13/77/3 14/80/3 66/78/3
f 14/80/26 15/139/26 67/81/26
f 67/81/5 15/139/5 16/82/5
f 65/84/41 9/140/41 12/85/41
f 21/86/3 22/141/3 62/87/3
f 62/89/28 22/142/28 23/90/28
f 63/92/5 23/143/5 24/93/5
f 17/95/29 20/144/29 64/96/29
f 57/68/30 60/74/30 48/98/30
f 59/70/5 60/72/5 44/99/5
f 58/67/31 59/70/31 43/100/31
f 41/73/3 57/68/3 58/67/3
f 61/97/42 64/96/42 24/102/42
f 63/92/5 64/94/5 20/104/5
f 18/106/43 62/89/43 63/91/43
f 17/108/3 61/88/3 62/87/3
f 65/84/44 68/83/44 16/82/44
f 67/81/5 68/83/5 12/85/5
f 66/78/45 67/81/45 11/111/45
f 9/113/3 65/79/3 66/78/3
f 27/114/5 50/145/5 49/115/5
f 51/117/36 50/145/36 27/114/36
f 52/51/3 51/117/3 26/118/3
