# Blender v2.77 (sub 0) OBJ File: 'minecraft-character.blend'
# www.blender.org
v 0.400000 2.133986 -0.013887
v 0.400000 1.920348 0.757060
v -0.400000 1.920348 0.757060
v -0.400000 2.133986 -0.013887
v 0.400000 2.904932 0.199750
v 0.400000 2.691295 0.970697
v -0.400000 2.691295 0.970697
v -0.400000 2.904932 0.199750
v 0.400000 0.882836 -0.133779
v 0.400000 0.828655 0.254949
v -0.400000 0.828778 0.256676
v -0.400000 0.899756 -0.136976
v 0.400000 2.086365 0.180978
v 0.400000 1.952734 0.557996
v -0.400000 1.952734 0.557996
v -0.400000 2.085995 0.180567
v 0.801898 2.168650 1.278136
v 0.801898 2.376595 0.936444
v 0.401898 2.376601 0.936439
v 0.401898 2.168650 1.278136
v 0.801898 1.784006 0.173717
v 0.801898 2.152008 0.330479
v 0.401898 2.152008 0.330479
v 0.401898 1.784006 0.173717
v 0.398663 0.290379 0.027054
v 0.398663 0.071317 0.361736
v -0.001337 0.071317 0.361736
v -0.001337 0.290379 0.027054
v 0.398663 0.591057 -0.076348
v 0.398663 0.986064 -0.013346
v -0.001337 0.986064 -0.013346
v -0.001337 0.591057 -0.076348
v -0.002092 0.290553 0.025664
v -0.002092 0.070436 0.359652
v -0.402092 0.070436 0.359652
v -0.402092 0.290553 0.025664
v -0.002092 0.591511 -0.077189
v -0.002092 0.986308 -0.012882
v -0.402092 0.986308 -0.012882
v -0.402092 0.591511 -0.077189
v -0.400161 2.165045 1.275307
v -0.400161 2.372318 0.933198
v -0.800161 2.372318 0.933199
v -0.800161 2.165045 1.275307
v -0.400161 1.785709 0.172207
v -0.400161 2.152076 0.332753
v -0.800161 2.152076 0.332753
v -0.800161 1.785709 0.172207
v -0.001337 0.638910 0.438926
v -0.001337 0.732450 0.634747
v 0.398663 0.732450 0.634747
v 0.398663 0.644365 0.435967
v -0.002092 0.643293 0.435423
v -0.002092 0.730676 0.634556
v -0.402092 0.730633 0.634571
v -0.402092 0.643289 0.435425
v -0.400161 1.598386 0.843077
v -0.400161 1.885350 0.753019
v -0.800161 1.885205 0.752297
v -0.800161 1.598385 0.843077
v 0.801898 1.602886 0.846868
v 0.801898 1.889741 0.749985
v 0.401898 1.890305 0.752738
v 0.401898 1.603413 0.848049
v 0.400000 1.505583 -0.024972
v 0.400000 1.403231 0.360343
v -0.400000 1.403232 0.360346
v -0.400000 1.505491 -0.025025
vt 0.3750 0.8750
vt 0.2500 1.0000
vt 0.3750 1.0000
vt 0.1250 1.0000
vt 0.2500 0.8750
vt 0.2500 1.0000
vt 0.3750 0.8750
vt 0.2500 0.7500
vt 0.3750 0.7500
vt 0.1250 0.7500
vt 0.0000 0.8750
vt 0.0000 0.7500
vt 0.5000 0.7500
vt 0.3750 0.8750
vt 0.5000 0.8750
vt 0.4375 0.6875
vt 0.5625 0.7500
vt 0.5625 0.6875
vt 0.4375 0.6875
vt 0.3125 0.7500
vt 0.4375 0.7500
vt 0.7501 0.6876
vt 0.8124 0.7499
vt 0.8124 0.6876
vt 0.6876 0.6876
vt 0.7499 0.7499
vt 0.6876 0.7499
vt 0.1875 0.5938
vt 0.1250 0.5000
vt 0.1875 0.5000
vt 0.0625 0.5938
vt 0.0625 0.5000
vt 0.0000 0.5938
vt -0.0000 0.5000
vt 0.2500 0.6875
vt 0.1875 0.6875
vt 0.1250 0.6875
vt 0.1875 0.7500
vt 0.1250 0.7500
vt 0.1250 0.6875
vt 0.0625 0.7500
vt 0.0625 0.6875
vt 0.1875 0.5938
vt 0.1250 0.6875
vt 0.1250 0.5938
vt 0.0625 0.5938
vt 0.0625 0.6875
vt 0.0000 0.5938
vt 0.1875 0.5000
vt 0.2500 0.5469
vt 0.1875 0.5469
vt 0.1875 0.7500
vt 0.1250 0.6875
vt 0.1875 0.6875
vt 0.1250 0.7500
vt 0.0625 0.6875
vt 0.1250 0.6875
vt 0.1250 0.5938
vt 0.2500 0.5938
vt 0.8126 0.7500
vt 0.7501 0.6875
vt 0.8126 0.6875
vt 0.7500 0.6875
vt 0.6875 0.7500
vt 0.6875 0.6875
vt 0.8125 0.6875
vt 0.7500 0.5938
vt 0.8125 0.5938
vt 0.7500 0.6875
vt 0.6875 0.5938
vt 0.6250 0.6875
vt 0.6250 0.5938
vt 0.8125 0.5000
vt 0.8750 0.5938
vt 0.2500 0.6875
vt 0.1875 0.6875
vt 0.2500 0.6875
vt 0.3125 0.5937
vt 0.2500 0.5937
vt 0.3125 0.6875
vt 0.4375 0.5937
vt 0.5000 0.6875
vt 0.5000 0.5937
vt 0.6250 0.5937
vt 0.5000 0.5000
vt 0.6874 0.6873
vt 0.6250 0.5937
vt 0.6874 0.5937
vt 0.8749 0.5937
vt 0.8125 0.6873
vt 0.8125 0.5937
vt 0.6875 0.5937
vt 0.7499 0.6873
vt 0.7499 0.5937
vt 0.8124 0.5001
vt 0.7500 0.5937
vt 0.8124 0.5937
vt 0.8750 0.6875
vt 0.6250 0.5000
vt 0.6875 0.5000
vt 0.7500 0.5000
vt 0.7500 0.6873
vt 0.8124 0.6873
vt 0.7499 0.5001
vt 0.6875 0.5001
vt 0.8749 0.5001
vt 0.8125 0.5001
vt 0.6874 0.5001
vt 0.6250 0.5001
vt 0.6250 0.6875
vt 0.4375 0.5000
vt 0.3125 0.5000
vt 0.2500 0.5000
vt 0.0625 0.5000
vt 0.0000 0.5469
vt 0.0000 0.5000
vt 0.1250 0.5469
vt 0.1250 0.5000
vt 0.2500 0.8750
vt 0.1250 0.8750
vt 0.3750 0.7500
vt 0.4375 0.7500
vt 0.3125 0.6875
vt 0.7501 0.7499
vt 0.7499 0.6876
vt 0.1875 0.6875
vt 0.1250 0.7500
vt -0.0000 0.6875
vt 0.2500 0.5000
vt 0.1250 0.7500
vt 0.0625 0.7500
vt 0.0000 0.6875
vt 0.2500 0.5000
vt 0.7501 0.7500
vt 0.7500 0.7500
vt 0.6875 0.6875
vt 0.8750 0.5000
vt 0.2500 0.5938
vt 0.4375 0.6875
vt 0.6250 0.5000
vt 0.6250 0.6873
vt 0.8749 0.6873
vt 0.6875 0.6873
vt 0.7500 0.5001
vt 0.0625 0.5469
vn 0.0000 -0.9637 -0.2670
vn -0.0000 0.9637 0.2670
vn 1.0000 -0.0000 -0.0000
vn 0.0000 -0.2670 0.9637
vn -1.0000 -0.0000 -0.0000
vn 0.0000 0.2670 -0.9637
vn -0.0201 -0.9839 -0.1774
vn -0.0000 0.9425 0.3341
vn 0.0000 0.8542 0.5199
vn -0.0000 0.3919 -0.9200
vn 0.0000 -0.3844 0.9232
vn 0.0000 -0.9949 0.1005
vn -0.0000 -0.8367 -0.5477
vn 0.0000 0.1575 -0.9875
vn 0.0000 0.9312 0.3644
vn -0.0152 0.7560 -0.6544
vn 0.0000 -0.8350 -0.5503
vn -0.0000 0.1608 -0.9870
vn -0.0001 0.9301 0.3673
vn -0.0000 0.7579 -0.6524
vn 0.0000 0.8553 0.5182
vn 0.0000 0.4014 -0.9159
vn -0.0013 0.8443 0.5359
vn 0.0000 -0.6065 0.7951
vn 0.0000 -0.9946 0.1035
vn 0.0000 -0.3385 0.9410
vn 0.0000 0.1817 -0.9833
vn 0.0048 0.8500 0.5268
vn 0.0015 -0.6062 0.7953
vn 0.0000 -0.9632 -0.2689
vn 0.0000 0.3470 -0.9379
vn 0.0000 -0.9657 -0.2598
vn 0.0000 0.3534 -0.9355
vn 0.0003 0.3342 -0.9425
vn 0.0021 -0.1804 0.9836
vn 0.0000 -0.3817 0.9243
vn -0.0005 -0.9904 -0.1380
vn -0.0006 0.9429 0.3329
vn 0.0001 -0.3844 0.9232
vn -0.0000 0.7634 -0.6460
vn -0.0000 0.9301 0.3672
vn 0.0000 0.8438 0.5367
vn 0.0143 -0.9956 0.0925
vn 0.0076 0.1721 -0.9850
vn -0.0000 0.8479 0.5301
vn 0.0000 -0.6055 0.7958
vn 0.0016 0.3481 -0.9374
vn -0.0020 -0.9660 -0.2587
vn -0.0059 0.3576 -0.9338
vn 0.0000 0.3338 -0.9426
vn 0.0000 -0.1776 0.9841
s off
f 2/1/1 4/2/1 1/3/1
f 8/4/2 6/5/2 5/6/2
f 5/7/3 2/8/3 1/9/3
f 6/5/4 3/10/4 2/8/4
f 3/10/5 8/11/5 4/12/5
f 1/13/6 8/14/6 5/15/6
f 9/16/7 11/17/7 12/18/7
f 13/19/8 15/20/8 14/21/8
f 18/22/9 20/23/9 17/24/9
f 21/25/10 23/26/10 22/27/10
f 53/28/3 34/29/3 33/30/3
f 34/29/11 55/31/11 35/32/11
f 35/32/5 56/33/5 36/34/5
f 53/28/12 40/35/12 37/36/12
f 26/37/13 28/38/13 25/39/13
f 29/40/14 31/41/14 30/42/14
f 52/43/3 30/44/3 51/45/3
f 30/44/15 50/46/15 51/45/15
f 31/47/5 49/48/5 50/46/5
f 25/49/16 49/50/16 52/51/16
f 33/52/17 35/53/17 36/54/17
f 37/55/18 39/56/18 38/57/18
f 53/28/3 38/57/3 54/58/3
f 54/58/19 39/56/19 55/31/19
f 39/56/5 56/33/5 55/31/5
f 33/30/20 56/59/20 53/28/20
f 42/60/21 44/61/21 41/62/21
f 45/63/22 47/64/22 46/65/22
f 45/66/3 58/67/3 57/68/3
f 46/69/23 59/70/23 58/67/23
f 59/70/5 48/71/5 60/72/5
f 41/73/24 60/74/24 57/68/24
f 52/43/25 32/75/25 29/76/25
f 13/77/3 66/78/3 65/79/3
f 14/80/26 67/81/26 66/78/26
f 67/81/5 16/82/5 68/83/5
f 65/84/27 12/85/27 68/83/27
f 21/86/3 62/87/3 61/88/3
f 62/89/28 23/90/28 63/91/28
f 63/92/5 24/93/5 64/94/5
f 17/95/29 64/96/29 61/97/29
f 57/68/30 48/98/30 45/66/30
f 59/70/5 44/99/5 43/100/5
f 58/67/31 43/100/31 42/101/31
f 41/73/3 58/67/3 42/101/3
f 61/97/32 24/102/32 21/103/32
f 63/92/5 20/104/5 19/105/5
f 18/106/33 63/91/33 19/107/33
f 17/108/3 62/87/3 18/109/3
f 65/84/34 16/82/34 13/110/34
f 67/81/5 12/85/5 11/111/5
f 66/78/35 11/111/35 10/112/35
f 9/113/3 66/78/3 10/112/3
f 27/114/5 49/115/5 28/116/5
f 51/117/36 27/114/36 26/118/36
f 52/51/3 26/118/3 25/49/3
f 2/1/1 3/119/1 4/2/1
f 8/4/2 7/120/2 6/5/2
f 5/7/3 6/5/3 2/8/3
f 6/5/4 7/120/4 3/10/4
f 3/10/5 7/120/5 8/11/5
f 1/13/6 4/121/6 8/14/6
f 9/16/37 10/122/37 11/17/37
f 13/19/38 16/123/38 15/20/38
f 18/22/9 19/124/9 20/23/9
f 21/25/10 24/125/10 23/26/10
f 53/28/3 54/58/3 34/29/3
f 34/29/39 54/58/39 55/31/39
f 35/32/5 55/31/5 56/33/5
f 53/28/12 56/59/12 40/35/12
f 26/37/13 27/126/13 28/38/13
f 29/40/14 32/127/14 31/41/14
f 52/43/3 29/76/3 30/44/3
f 30/44/15 31/47/15 50/46/15
f 31/47/5 32/128/5 49/48/5
f 25/49/40 28/129/40 49/50/40
f 33/52/17 34/130/17 35/53/17
f 37/55/18 40/131/18 39/56/18
f 53/28/3 37/36/3 38/57/3
f 54/58/41 38/57/41 39/56/41
f 39/56/5 40/132/5 56/33/5
f 33/30/20 36/133/20 56/59/20
f 42/60/21 43/134/21 44/61/21
f 45/63/22 48/135/22 47/64/22
f 45/66/3 46/69/3 58/67/3
f 46/69/42 47/136/42 59/70/42
f 59/70/5 47/136/5 48/71/5
f 41/73/24 44/137/24 60/74/24
f 52/43/43 49/138/43 32/75/43
f 13/77/3 14/80/3 66/78/3
f 14/80/26 15/139/26 67/81/26
f 67/81/5 15/139/5 16/82/5
f 65/84/44 9/140/44 12/85/44
f 21/86/3 22/141/3 62/87/3
f 62/89/45 22/142/45 23/90/45
f 63/92/5 23/143/5 24/93/5
f 17/95/46 20/144/46 64/96/46
f 57/68/30 60/74/30 48/98/30
f 59/70/5 60/72/5 44/99/5
f 58/67/47 59/70/47 43/100/47
f 41/73/3 57/68/3 58/67/3
f 61/97/48 64/96/48 24/102/48
f 63/92/5 64/94/5 20/104/5
f 18/106/49 62/89/49 63/91/49
f 17/108/3 61/88/3 62/87/3
f 65/84/50 68/83/50 16/82/50
f 67/81/5 68/83/5 12/85/5
f 66/78/51 67/81/51 11/111/51
f 9/113/3 65/79/3 66/78/3
f 27/114/5 50/145/5 49/115/5
f 51/117/36 50/145/36 27/114/36
f 52/51/3 51/117/3 26/118/3
